<svg xmlns="http://www.w3.org/2000/svg" xmlns:xlink="http://www.w3.org/1999/xlink" width="1890" zoomAndPan="magnify" viewBox="0 0 1417.5 374.999991" height="500" preserveAspectRatio="xMidYMid meet" version="1.0"><defs><clipPath id="d79b3d72c2"><path d="M 384.410156 155.570312 L 1031.554688 155.570312 L 1031.554688 356.519531 L 384.410156 356.519531 Z M 384.410156 155.570312 " clip-rule="nonzero"/></clipPath><clipPath id="8995ffc5f8"><path d="M 712.292969 234.847656 C 712.292969 232.109375 710.074219 229.886719 707.339844 229.886719 C 704.605469 229.886719 702.386719 232.109375 702.386719 234.847656 C 702.386719 237.585938 704.605469 239.808594 707.339844 239.808594 C 710.074219 239.808594 712.292969 237.585938 712.292969 234.847656 Z M 707.339844 220.863281 C 718.011719 196.238281 736.300781 199.867188 736.300781 199.867188 C 735.015625 195.71875 729.75 195.457031 729.75 195.457031 C 718.042969 187.164062 710.832031 208.164062 710.832031 208.164062 C 711.53125 197.015625 720.292969 190.273438 720.292969 190.273438 C 718.023438 187.941406 712.203125 190.273438 712.203125 190.273438 C 712.203125 190.273438 714.019531 178.867188 707.339844 178.867188 C 700.660156 178.867188 702.476562 190.273438 702.476562 190.273438 C 702.476562 190.273438 696.65625 187.941406 694.386719 190.273438 C 694.386719 190.273438 703.148438 197.015625 703.851562 208.164062 C 703.851562 208.164062 696.636719 187.164062 684.925781 195.457031 C 684.925781 195.457031 679.664062 195.71875 678.378906 199.867188 C 678.378906 199.867188 696.671875 196.238281 707.339844 220.863281 Z M 707.339844 261.019531 C 707.078125 260.105469 706.941406 259.582031 706.941406 259.582031 C 706.980469 259.949219 707.121094 260.441406 707.339844 261.019531 Z M 743.15625 298.132812 C 743.15625 298.132812 726.421875 289.589844 720.230469 282.886719 C 720.230469 282.886719 731.945312 300.144531 743.15625 298.132812 Z M 750.992188 297.328125 C 750.015625 302.765625 742.941406 307.085938 728.542969 297.328125 C 716.089844 288.890625 709.023438 266.839844 707.339844 261.019531 C 709.390625 266.410156 718.691406 279.886719 725.574219 283.332031 C 733.199219 287.148438 751.800781 292.835938 750.992188 297.328125 Z M 753.863281 281.175781 C 753.863281 281.175781 735.640625 275.59375 728.324219 268.992188 C 727.214844 267.867188 726.585938 267.136719 726.585938 267.136719 C 727.058594 267.761719 727.648438 268.378906 728.324219 268.992188 C 732.402344 273.113281 743.078125 282.59375 753.863281 281.175781 Z M 742.941406 284.601562 C 721.339844 276.96875 712.019531 245.582031 712.019531 245.582031 C 723.457031 262.972656 736.167969 264.246094 751.097656 269.761719 C 766.027344 275.273438 764.546875 292.238281 742.941406 284.601562 Z M 692.417969 321.199219 L 707.339844 356.519531 C 707.328125 356.457031 707.320312 356.308594 707.308594 356.101562 C 707.339844 356.316406 707.347656 356.457031 707.339844 356.519531 L 722.257812 321.199219 L 707.339844 285.882812 Z M 706.539062 261.019531 C 706.757812 260.441406 706.898438 259.949219 706.941406 259.582031 C 706.941406 259.582031 706.804688 260.105469 706.539062 261.019531 Z M 693.648438 282.886719 C 687.460938 289.589844 670.726562 298.132812 670.726562 298.132812 C 681.933594 300.144531 693.648438 282.886719 693.648438 282.886719 Z M 706.539062 261.019531 C 704.851562 266.839844 697.789062 288.890625 685.335938 297.328125 C 670.933594 307.085938 663.863281 302.765625 662.882812 297.328125 C 662.074219 292.835938 680.675781 287.148438 688.304688 283.332031 C 695.183594 279.886719 704.488281 266.410156 706.539062 261.019531 Z M 685.554688 268.992188 C 686.230469 268.378906 686.824219 267.761719 687.289062 267.136719 C 687.289062 267.136719 686.667969 267.867188 685.554688 268.992188 C 678.234375 275.59375 660.015625 281.175781 660.015625 281.175781 C 670.800781 282.59375 681.472656 273.113281 685.554688 268.992188 Z M 670.933594 284.601562 C 649.335938 292.238281 647.851562 275.273438 662.78125 269.761719 C 677.710938 264.246094 690.417969 262.972656 701.859375 245.582031 C 701.859375 245.582031 692.535156 276.96875 670.933594 284.601562 Z M 975.015625 210.132812 L 980.875 185.582031 C 972.273438 195.847656 975.015625 210.132812 975.015625 210.132812 Z M 973.644531 215.003906 C 973.644531 215.003906 945.351562 199.40625 987.046875 174.675781 C 987.046875 174.675781 986.671875 193.183594 987.046875 199.523438 C 987.417969 205.859375 984.039062 216.222656 978.113281 217.785156 C 978.113281 217.785156 965.875 238.421875 952.21875 244.125 C 963.933594 246.039062 974.699219 252.421875 982.027344 260.972656 C 991.21875 266.054688 1004.1875 272.207031 1014.222656 272.207031 C 1030.972656 272.207031 1024.273438 258.417969 1024.273438 258.417969 C 1024.273438 258.417969 1021.667969 262.515625 1017.941406 260.652344 C 1014.222656 258.789062 1016.867188 249.472656 1025.597656 249.472656 C 1034.324219 249.472656 1035.066406 275.84375 1016.824219 275.703125 C 1006.648438 275.621094 993.457031 268.992188 983.78125 263.140625 C 990.597656 272.140625 993.675781 283.160156 990.394531 293.828125 C 982.953125 318.054688 938.648438 318.054688 937.160156 296.808594 C 935.667969 275.5625 950.933594 266.988281 960.242188 269.597656 C 969.546875 272.207031 962.84375 286.746094 956.144531 283.085938 C 949.445312 279.425781 956.144531 275.785156 956.144531 275.785156 C 941.628906 276.007812 933.808594 296.808594 949.445312 306.1875 C 965.078125 315.574219 987.417969 302.773438 984.070312 279.289062 C 980.71875 255.804688 955.402344 244.621094 917.058594 251.957031 C 878.714844 259.292969 854.570312 237.898438 856.378906 239.066406 C 873.199219 249.902344 910.730469 243.523438 944.976562 243.523438 C 946.257812 243.523438 947.53125 243.597656 948.800781 243.710938 C 955.371094 239.472656 970.457031 228.484375 973.644531 215.003906 Z M 1004.539062 293.964844 C 1004.539062 293.964844 1006.058594 322.53125 1017.769531 321.410156 C 1029.484375 320.292969 1022.039062 297.832031 1004.539062 293.964844 Z M 987.070312 313.953125 C 990.769531 320.292969 1001.050781 309.925781 995.980469 293.964844 C 995.980469 293.964844 983.375 307.617188 987.070312 313.953125 Z M 1004.539062 281.527344 C 1004.539062 281.527344 1023.503906 301 1029.855469 291.214844 C 1036.390625 281.152344 1013.105469 286.128906 1004.539062 281.527344 Z M 919.007812 243.507812 C 967.867188 236.050781 956.519531 182.375 948.328125 185.730469 C 940.140625 189.082031 948.328125 204.742188 942.742188 219.648438 C 937.160156 234.558594 915.761719 244 919.007812 243.507812 Z M 893.796875 265.871094 C 893.796875 265.871094 916.316406 283.019531 915.566406 306.871094 C 914.824219 330.730469 885.789062 332.59375 883.554688 342.28125 C 881.320312 351.976562 904.207031 345.15625 915.589844 320.292969 C 930.089844 288.609375 893.796875 265.871094 893.796875 265.871094 Z M 901.054688 288.609375 C 889.136719 256.921875 851.535156 258.789062 834.042969 237.167969 C 833.199219 236.128906 842.976562 250.839844 863.820312 263.199219 C 884.671875 275.5625 894.722656 289.726562 895.839844 304.265625 C 896.957031 318.796875 878.34375 329.050781 864.9375 321.410156 C 854.898438 315.679688 856.421875 305.753906 864.960938 303.515625 C 864.960938 303.515625 862.335938 309.480469 870.527344 309.855469 C 878.714844 310.226562 878.34375 290.84375 862.710938 294.945312 C 847.070312 299.046875 849.304688 325.136719 867.171875 328.492188 C 885.039062 331.84375 912.964844 320.292969 901.054688 288.609375 Z M 757.3125 191.648438 L 757.316406 191.640625 C 757.40625 191.457031 757.484375 191.3125 757.542969 191.210938 L 770.03125 167.488281 C 760.046875 173.75 757.3125 191.648438 757.3125 191.648438 Z M 755.515625 197.148438 C 754.050781 195.078125 734.453125 166.023438 779.320312 157.402344 C 779.320312 157.402344 773.363281 171.9375 772.613281 181.257812 C 771.871094 190.578125 768.738281 196.136719 755.597656 197.269531 C 755.5625 197.375 755.507812 197.492188 755.464844 197.601562 C 755.480469 197.445312 755.5 197.289062 755.515625 197.148438 Z M 810.886719 251.957031 C 810.886719 251.957031 811.28125 278.574219 838.246094 281.527344 C 838.246094 281.527344 821.050781 275.78125 810.886719 251.957031 Z M 724.535156 236.902344 C 731 230.164062 751.25 208.515625 755.464844 197.601562 C 755.015625 201.699219 753.023438 211.40625 744.375 223.421875 C 754.820312 217.488281 768.226562 211.40625 782.875 208.289062 C 816.964844 201.035156 840.402344 209.996094 848.925781 183.113281 C 857.445312 156.234375 822.503906 155.378906 816.539062 164.34375 C 810.574219 173.304688 815.261719 184.820312 822.929688 186.527344 C 822.929688 186.527344 818.667969 178.847656 825.914062 177.570312 C 833.160156 176.292969 836.996094 188.664062 828.046875 193.355469 C 819.097656 198.046875 806.738281 189.945312 809.71875 171.59375 C 812.703125 153.246094 834.011719 154.101562 842.960938 157.515625 C 851.910156 160.925781 858.300781 175.859375 848.496094 193.355469 C 842.386719 204.269531 821.683594 208.871094 801.898438 212.96875 C 815.167969 213.316406 832.664062 215.4375 853.425781 221.886719 C 901.421875 236.796875 921.523438 230.425781 928.972656 217.398438 C 936.417969 204.367188 932.691406 179.765625 913.332031 179.765625 C 893.976562 179.765625 901.796875 196.511719 908.125 197.269531 C 908.125 197.269531 908.496094 191.144531 913.332031 191.046875 C 918.175781 190.945312 922.273438 207.761719 909.613281 205.136719 C 896.957031 202.503906 891.898438 184.222656 903.917969 177.335938 C 915.941406 170.449219 936.417969 176.414062 939.023438 201.386719 C 941.628906 226.355469 921.542969 237.046875 893.796875 238.972656 C 868.441406 240.730469 819.351562 217.625 780.660156 217.722656 C 778.761719 218.230469 776.953125 218.761719 775.253906 219.324219 C 785.898438 221.640625 800.816406 227.445312 810.214844 242.015625 C 810.214844 242.015625 822.875 239.515625 829.574219 254.371094 C 836.273438 269.222656 848.238281 281.527344 853.425781 283.386719 C 853.425781 283.386719 831.808594 291.214844 816.914062 280.40625 C 802.023438 269.597656 804.632812 243.132812 804.632812 243.132812 C 804.632812 243.132812 789.167969 225.636719 764.121094 223.820312 C 745.222656 231.839844 726.535156 239.296875 722.546875 238.960938 C 722.335938 238.941406 723.054688 238.175781 724.535156 236.902344 Z M 765.402344 233.039062 C 754.746094 233.890625 735.996094 244.5625 720.230469 238.15625 C 720.230469 238.15625 729.179688 245.410156 750.914062 240.71875 C 772.644531 236.027344 790.542969 237.730469 790.96875 256.933594 C 791.398438 276.132812 770.515625 276.984375 764.550781 268.878906 C 758.585938 260.773438 767.105469 252.816406 771.367188 255.941406 C 771.367188 255.941406 770.085938 261.625 776.484375 260.34375 C 782.875 259.0625 782.875 247.972656 769.664062 250.535156 C 756.453125 253.089844 755.597656 268.328125 767.105469 273.722656 C 778.609375 279.121094 794.804688 274.148438 794.378906 255.941406 C 793.957031 237.730469 776.058594 232.183594 765.402344 233.039062 Z M 658.417969 191.210938 C 658.480469 191.3125 658.554688 191.457031 658.648438 191.640625 L 658.65625 191.648438 C 658.65625 191.648438 655.917969 173.75 645.933594 167.488281 Z M 660.445312 197.148438 C 660.460938 197.289062 660.480469 197.445312 660.496094 197.601562 C 660.453125 197.492188 660.402344 197.375 660.359375 197.269531 C 647.226562 196.136719 644.089844 190.578125 643.347656 181.257812 C 642.601562 171.9375 636.644531 157.402344 636.644531 157.402344 C 681.507812 166.023438 661.914062 195.078125 660.445312 197.148438 Z M 398.191406 321.410156 C 409.90625 322.53125 411.421875 293.964844 411.421875 293.964844 C 393.925781 297.832031 386.476562 320.292969 398.191406 321.410156 Z M 428.890625 313.953125 C 432.585938 307.617188 419.984375 293.964844 419.984375 293.964844 C 414.910156 309.925781 425.195312 320.292969 428.890625 313.953125 Z M 386.109375 291.214844 C 392.457031 301 411.421875 281.527344 411.421875 281.527344 C 402.859375 286.128906 379.570312 281.152344 386.109375 291.214844 Z M 435.089844 185.582031 L 440.953125 210.132812 C 440.953125 210.132812 443.6875 195.847656 435.089844 185.582031 Z M 390.367188 249.472656 C 399.097656 249.472656 401.742188 258.789062 398.019531 260.652344 C 394.300781 262.515625 391.691406 258.417969 391.691406 258.417969 C 391.691406 258.417969 384.992188 272.207031 401.742188 272.207031 C 411.777344 272.207031 424.746094 266.054688 433.9375 260.972656 C 441.261719 252.421875 452.03125 246.039062 463.746094 244.125 C 450.089844 238.421875 437.851562 217.785156 437.851562 217.785156 C 431.925781 216.222656 428.546875 205.859375 428.917969 199.523438 C 429.289062 193.183594 428.917969 174.675781 428.917969 174.675781 C 470.613281 199.40625 442.320312 215.003906 442.320312 215.003906 C 445.5 228.484375 460.589844 239.472656 467.164062 243.710938 C 468.433594 243.597656 469.707031 243.523438 470.984375 243.523438 C 505.234375 243.523438 542.761719 249.902344 559.582031 239.066406 C 561.394531 237.898438 537.246094 259.292969 498.902344 251.957031 C 460.558594 244.621094 435.246094 255.804688 431.894531 279.289062 C 428.546875 302.773438 450.882812 315.574219 466.515625 306.1875 C 482.152344 296.808594 474.335938 276.007812 459.816406 275.785156 C 459.816406 275.785156 466.515625 279.425781 459.816406 283.085938 C 453.117188 286.746094 446.414062 272.207031 455.722656 269.597656 C 465.03125 266.988281 480.289062 275.5625 478.800781 296.808594 C 477.308594 318.054688 433.011719 318.054688 425.570312 293.828125 C 422.292969 283.160156 425.367188 272.140625 432.175781 263.140625 C 422.503906 268.992188 409.316406 275.621094 399.136719 275.703125 C 380.894531 275.84375 381.640625 249.472656 390.367188 249.472656 Z M 496.953125 243.507812 C 500.203125 244 478.800781 234.558594 473.214844 219.648438 C 467.632812 204.742188 475.824219 189.082031 467.632812 185.730469 C 459.441406 182.375 448.097656 236.050781 496.953125 243.507812 Z M 605.074219 251.957031 C 594.914062 275.78125 577.71875 281.527344 577.71875 281.527344 C 604.679688 278.574219 605.074219 251.957031 605.074219 251.957031 Z M 476.941406 201.386719 C 479.546875 176.414062 500.019531 170.449219 512.042969 177.335938 C 524.066406 184.222656 519.003906 202.503906 506.351562 205.136719 C 493.695312 207.761719 497.785156 190.945312 502.628906 191.046875 C 507.46875 191.144531 507.835938 197.269531 507.835938 197.269531 C 514.167969 196.511719 521.988281 179.765625 502.628906 179.765625 C 483.269531 179.765625 479.546875 204.367188 486.992188 217.398438 C 494.4375 230.425781 514.542969 236.796875 562.535156 221.886719 C 583.300781 215.4375 600.792969 213.316406 614.066406 212.96875 C 594.28125 208.871094 573.578125 204.269531 567.464844 193.355469 C 557.664062 175.859375 564.054688 160.925781 573.007812 157.515625 C 581.957031 154.101562 603.261719 153.246094 606.242188 171.59375 C 609.226562 189.945312 596.863281 198.046875 587.917969 193.355469 C 578.96875 188.664062 582.804688 176.292969 590.050781 177.570312 C 597.292969 178.847656 593.03125 186.527344 593.03125 186.527344 C 600.703125 184.820312 605.390625 173.304688 599.421875 164.34375 C 593.457031 155.378906 558.515625 156.234375 567.035156 183.113281 C 575.558594 209.996094 599 201.035156 633.089844 208.289062 C 647.738281 211.40625 661.144531 217.488281 671.589844 223.421875 C 662.9375 211.40625 660.949219 201.699219 660.496094 197.601562 C 664.714844 208.515625 684.960938 230.164062 691.429688 236.902344 C 692.910156 238.175781 693.628906 238.941406 693.414062 238.960938 C 689.421875 239.296875 670.742188 231.839844 651.84375 223.820312 C 626.796875 225.636719 611.328125 243.132812 611.328125 243.132812 C 611.328125 243.132812 613.9375 269.597656 599.042969 280.40625 C 584.15625 291.214844 562.535156 283.386719 562.535156 283.386719 C 567.722656 281.527344 579.691406 269.222656 586.390625 254.371094 C 593.089844 239.515625 605.75 242.015625 605.75 242.015625 C 615.148438 227.445312 630.066406 221.640625 640.707031 219.324219 C 639.011719 218.761719 637.199219 218.230469 635.304688 217.722656 C 596.613281 217.625 547.519531 240.730469 522.164062 238.972656 C 494.417969 237.046875 474.335938 226.355469 476.941406 201.386719 Z M 500.394531 306.871094 C 499.648438 283.019531 522.164062 265.871094 522.164062 265.871094 C 522.164062 265.871094 485.875 288.609375 500.375 320.292969 C 511.761719 345.15625 534.644531 351.976562 532.410156 342.28125 C 530.175781 332.59375 501.136719 330.730469 500.394531 306.871094 Z M 553.253906 294.945312 C 537.621094 290.84375 537.246094 310.226562 545.4375 309.855469 C 553.628906 309.480469 551.003906 303.515625 551.003906 303.515625 C 559.542969 305.753906 561.066406 315.679688 551.023438 321.410156 C 537.621094 329.050781 519.003906 318.796875 520.121094 304.265625 C 521.242188 289.726562 531.292969 275.5625 552.140625 263.199219 C 572.988281 250.839844 582.769531 236.128906 581.921875 237.167969 C 564.425781 258.789062 526.828125 256.921875 514.910156 288.609375 C 503 320.292969 530.917969 331.84375 548.789062 328.492188 C 566.65625 325.136719 568.890625 299.046875 553.253906 294.945312 Z M 648.855469 273.722656 C 637.351562 279.121094 621.160156 274.148438 621.582031 255.941406 C 622.007812 237.730469 639.90625 232.183594 650.5625 233.039062 C 661.214844 233.890625 679.96875 244.5625 695.730469 238.15625 C 695.730469 238.15625 686.78125 245.410156 665.046875 240.71875 C 643.316406 236.027344 625.421875 237.730469 624.996094 256.933594 C 624.566406 276.132812 645.445312 276.984375 651.414062 268.878906 C 657.378906 260.773438 648.855469 252.816406 644.597656 255.941406 C 644.597656 255.941406 645.875 261.625 639.480469 260.34375 C 633.089844 259.0625 633.089844 247.972656 646.300781 250.535156 C 659.511719 253.089844 660.359375 268.328125 648.855469 273.722656 Z M 648.855469 273.722656 " clip-rule="nonzero"/></clipPath><clipPath id="92de131b7f"><path d="M 712.292969 234.847656 C 712.292969 232.109375 710.074219 229.886719 707.339844 229.886719 C 704.605469 229.886719 702.386719 232.109375 702.386719 234.847656 C 702.386719 237.585938 704.605469 239.808594 707.339844 239.808594 C 710.074219 239.808594 712.292969 237.585938 712.292969 234.847656 Z M 707.339844 220.863281 C 718.011719 196.238281 736.300781 199.867188 736.300781 199.867188 C 735.015625 195.71875 729.75 195.457031 729.75 195.457031 C 718.042969 187.164062 710.832031 208.164062 710.832031 208.164062 C 711.53125 197.015625 720.292969 190.273438 720.292969 190.273438 C 718.023438 187.941406 712.203125 190.273438 712.203125 190.273438 C 712.203125 190.273438 714.019531 178.867188 707.339844 178.867188 C 700.660156 178.867188 702.476562 190.273438 702.476562 190.273438 C 702.476562 190.273438 696.65625 187.941406 694.386719 190.273438 C 694.386719 190.273438 703.148438 197.015625 703.851562 208.164062 C 703.851562 208.164062 696.636719 187.164062 684.925781 195.457031 C 684.925781 195.457031 679.664062 195.71875 678.378906 199.867188 C 678.378906 199.867188 696.671875 196.238281 707.339844 220.863281 Z M 707.339844 261.019531 C 707.078125 260.105469 706.941406 259.582031 706.941406 259.582031 C 706.980469 259.949219 707.121094 260.441406 707.339844 261.019531 Z M 743.15625 298.132812 C 743.15625 298.132812 726.421875 289.589844 720.230469 282.886719 C 720.230469 282.886719 731.945312 300.144531 743.15625 298.132812 Z M 750.992188 297.328125 C 750.015625 302.765625 742.941406 307.085938 728.542969 297.328125 C 716.089844 288.890625 709.023438 266.839844 707.339844 261.019531 C 709.390625 266.410156 718.691406 279.886719 725.574219 283.332031 C 733.199219 287.148438 751.800781 292.835938 750.992188 297.328125 Z M 753.863281 281.175781 C 753.863281 281.175781 735.640625 275.59375 728.324219 268.992188 C 727.214844 267.867188 726.585938 267.136719 726.585938 267.136719 C 727.058594 267.761719 727.648438 268.378906 728.324219 268.992188 C 732.402344 273.113281 743.078125 282.59375 753.863281 281.175781 Z M 742.941406 284.601562 C 721.339844 276.96875 712.019531 245.582031 712.019531 245.582031 C 723.457031 262.972656 736.167969 264.246094 751.097656 269.761719 C 766.027344 275.273438 764.546875 292.238281 742.941406 284.601562 Z M 692.417969 321.199219 L 707.339844 356.519531 C 707.328125 356.457031 707.320312 356.308594 707.308594 356.101562 C 707.339844 356.316406 707.347656 356.457031 707.339844 356.519531 L 722.257812 321.199219 L 707.339844 285.882812 Z M 706.539062 261.019531 C 706.757812 260.441406 706.898438 259.949219 706.941406 259.582031 C 706.941406 259.582031 706.804688 260.105469 706.539062 261.019531 Z M 693.648438 282.886719 C 687.460938 289.589844 670.726562 298.132812 670.726562 298.132812 C 681.933594 300.144531 693.648438 282.886719 693.648438 282.886719 Z M 706.539062 261.019531 C 704.851562 266.839844 697.789062 288.890625 685.335938 297.328125 C 670.933594 307.085938 663.863281 302.765625 662.882812 297.328125 C 662.074219 292.835938 680.675781 287.148438 688.304688 283.332031 C 695.183594 279.886719 704.488281 266.410156 706.539062 261.019531 Z M 685.554688 268.992188 C 686.230469 268.378906 686.824219 267.761719 687.289062 267.136719 C 687.289062 267.136719 686.667969 267.867188 685.554688 268.992188 C 678.234375 275.59375 660.015625 281.175781 660.015625 281.175781 C 670.800781 282.59375 681.472656 273.113281 685.554688 268.992188 Z M 670.933594 284.601562 C 649.335938 292.238281 647.851562 275.273438 662.78125 269.761719 C 677.710938 264.246094 690.417969 262.972656 701.859375 245.582031 C 701.859375 245.582031 692.535156 276.96875 670.933594 284.601562 Z M 975.015625 210.132812 L 980.875 185.582031 C 972.273438 195.847656 975.015625 210.132812 975.015625 210.132812 Z M 973.644531 215.003906 C 973.644531 215.003906 945.351562 199.40625 987.046875 174.675781 C 987.046875 174.675781 986.671875 193.183594 987.046875 199.523438 C 987.417969 205.859375 984.039062 216.222656 978.113281 217.785156 C 978.113281 217.785156 965.875 238.421875 952.21875 244.125 C 963.933594 246.039062 974.699219 252.421875 982.027344 260.972656 C 991.21875 266.054688 1004.1875 272.207031 1014.222656 272.207031 C 1030.972656 272.207031 1024.273438 258.417969 1024.273438 258.417969 C 1024.273438 258.417969 1021.667969 262.515625 1017.941406 260.652344 C 1014.222656 258.789062 1016.867188 249.472656 1025.597656 249.472656 C 1034.324219 249.472656 1035.066406 275.84375 1016.824219 275.703125 C 1006.648438 275.621094 993.457031 268.992188 983.78125 263.140625 C 990.597656 272.140625 993.675781 283.160156 990.394531 293.828125 C 982.953125 318.054688 938.648438 318.054688 937.160156 296.808594 C 935.667969 275.5625 950.933594 266.988281 960.242188 269.597656 C 969.546875 272.207031 962.84375 286.746094 956.144531 283.085938 C 949.445312 279.425781 956.144531 275.785156 956.144531 275.785156 C 941.628906 276.007812 933.808594 296.808594 949.445312 306.1875 C 965.078125 315.574219 987.417969 302.773438 984.070312 279.289062 C 980.71875 255.804688 955.402344 244.621094 917.058594 251.957031 C 878.714844 259.292969 854.570312 237.898438 856.378906 239.066406 C 873.199219 249.902344 910.730469 243.523438 944.976562 243.523438 C 946.257812 243.523438 947.53125 243.597656 948.800781 243.710938 C 955.371094 239.472656 970.457031 228.484375 973.644531 215.003906 Z M 1004.539062 293.964844 C 1004.539062 293.964844 1006.058594 322.53125 1017.769531 321.410156 C 1029.484375 320.292969 1022.039062 297.832031 1004.539062 293.964844 Z M 987.070312 313.953125 C 990.769531 320.292969 1001.050781 309.925781 995.980469 293.964844 C 995.980469 293.964844 983.375 307.617188 987.070312 313.953125 Z M 1004.539062 281.527344 C 1004.539062 281.527344 1023.503906 301 1029.855469 291.214844 C 1036.390625 281.152344 1013.105469 286.128906 1004.539062 281.527344 Z M 919.007812 243.507812 C 967.867188 236.050781 956.519531 182.375 948.328125 185.730469 C 940.140625 189.082031 948.328125 204.742188 942.742188 219.648438 C 937.160156 234.558594 915.761719 244 919.007812 243.507812 Z M 893.796875 265.871094 C 893.796875 265.871094 916.316406 283.019531 915.566406 306.871094 C 914.824219 330.730469 885.789062 332.59375 883.554688 342.28125 C 881.320312 351.976562 904.207031 345.15625 915.589844 320.292969 C 930.089844 288.609375 893.796875 265.871094 893.796875 265.871094 Z M 901.054688 288.609375 C 889.136719 256.921875 851.535156 258.789062 834.042969 237.167969 C 833.199219 236.128906 842.976562 250.839844 863.820312 263.199219 C 884.671875 275.5625 894.722656 289.726562 895.839844 304.265625 C 896.957031 318.796875 878.34375 329.050781 864.9375 321.410156 C 854.898438 315.679688 856.421875 305.753906 864.960938 303.515625 C 864.960938 303.515625 862.335938 309.480469 870.527344 309.855469 C 878.714844 310.226562 878.34375 290.84375 862.710938 294.945312 C 847.070312 299.046875 849.304688 325.136719 867.171875 328.492188 C 885.039062 331.84375 912.964844 320.292969 901.054688 288.609375 Z M 757.3125 191.648438 L 757.316406 191.640625 C 757.40625 191.457031 757.484375 191.3125 757.542969 191.210938 L 770.03125 167.488281 C 760.046875 173.75 757.3125 191.648438 757.3125 191.648438 Z M 755.515625 197.148438 C 754.050781 195.078125 734.453125 166.023438 779.320312 157.402344 C 779.320312 157.402344 773.363281 171.9375 772.613281 181.257812 C 771.871094 190.578125 768.738281 196.136719 755.597656 197.269531 C 755.5625 197.375 755.507812 197.492188 755.464844 197.601562 C 755.480469 197.445312 755.5 197.289062 755.515625 197.148438 Z M 810.886719 251.957031 C 810.886719 251.957031 811.28125 278.574219 838.246094 281.527344 C 838.246094 281.527344 821.050781 275.78125 810.886719 251.957031 Z M 724.535156 236.902344 C 731 230.164062 751.25 208.515625 755.464844 197.601562 C 755.015625 201.699219 753.023438 211.40625 744.375 223.421875 C 754.820312 217.488281 768.226562 211.40625 782.875 208.289062 C 816.964844 201.035156 840.402344 209.996094 848.925781 183.113281 C 857.445312 156.234375 822.503906 155.378906 816.539062 164.34375 C 810.574219 173.304688 815.261719 184.820312 822.929688 186.527344 C 822.929688 186.527344 818.667969 178.847656 825.914062 177.570312 C 833.160156 176.292969 836.996094 188.664062 828.046875 193.355469 C 819.097656 198.046875 806.738281 189.945312 809.71875 171.59375 C 812.703125 153.246094 834.011719 154.101562 842.960938 157.515625 C 851.910156 160.925781 858.300781 175.859375 848.496094 193.355469 C 842.386719 204.269531 821.683594 208.871094 801.898438 212.96875 C 815.167969 213.316406 832.664062 215.4375 853.425781 221.886719 C 901.421875 236.796875 921.523438 230.425781 928.972656 217.398438 C 936.417969 204.367188 932.691406 179.765625 913.332031 179.765625 C 893.976562 179.765625 901.796875 196.511719 908.125 197.269531 C 908.125 197.269531 908.496094 191.144531 913.332031 191.046875 C 918.175781 190.945312 922.273438 207.761719 909.613281 205.136719 C 896.957031 202.503906 891.898438 184.222656 903.917969 177.335938 C 915.941406 170.449219 936.417969 176.414062 939.023438 201.386719 C 941.628906 226.355469 921.542969 237.046875 893.796875 238.972656 C 868.441406 240.730469 819.351562 217.625 780.660156 217.722656 C 778.761719 218.230469 776.953125 218.761719 775.253906 219.324219 C 785.898438 221.640625 800.816406 227.445312 810.214844 242.015625 C 810.214844 242.015625 822.875 239.515625 829.574219 254.371094 C 836.273438 269.222656 848.238281 281.527344 853.425781 283.386719 C 853.425781 283.386719 831.808594 291.214844 816.914062 280.40625 C 802.023438 269.597656 804.632812 243.132812 804.632812 243.132812 C 804.632812 243.132812 789.167969 225.636719 764.121094 223.820312 C 745.222656 231.839844 726.535156 239.296875 722.546875 238.960938 C 722.335938 238.941406 723.054688 238.175781 724.535156 236.902344 Z M 765.402344 233.039062 C 754.746094 233.890625 735.996094 244.5625 720.230469 238.15625 C 720.230469 238.15625 729.179688 245.410156 750.914062 240.71875 C 772.644531 236.027344 790.542969 237.730469 790.96875 256.933594 C 791.398438 276.132812 770.515625 276.984375 764.550781 268.878906 C 758.585938 260.773438 767.105469 252.816406 771.367188 255.941406 C 771.367188 255.941406 770.085938 261.625 776.484375 260.34375 C 782.875 259.0625 782.875 247.972656 769.664062 250.535156 C 756.453125 253.089844 755.597656 268.328125 767.105469 273.722656 C 778.609375 279.121094 794.804688 274.148438 794.378906 255.941406 C 793.957031 237.730469 776.058594 232.183594 765.402344 233.039062 Z M 658.417969 191.210938 C 658.480469 191.3125 658.554688 191.457031 658.648438 191.640625 L 658.65625 191.648438 C 658.65625 191.648438 655.917969 173.75 645.933594 167.488281 Z M 660.445312 197.148438 C 660.460938 197.289062 660.480469 197.445312 660.496094 197.601562 C 660.453125 197.492188 660.402344 197.375 660.359375 197.269531 C 647.226562 196.136719 644.089844 190.578125 643.347656 181.257812 C 642.601562 171.9375 636.644531 157.402344 636.644531 157.402344 C 681.507812 166.023438 661.914062 195.078125 660.445312 197.148438 Z M 398.191406 321.410156 C 409.90625 322.53125 411.421875 293.964844 411.421875 293.964844 C 393.925781 297.832031 386.476562 320.292969 398.191406 321.410156 Z M 428.890625 313.953125 C 432.585938 307.617188 419.984375 293.964844 419.984375 293.964844 C 414.910156 309.925781 425.195312 320.292969 428.890625 313.953125 Z M 386.109375 291.214844 C 392.457031 301 411.421875 281.527344 411.421875 281.527344 C 402.859375 286.128906 379.570312 281.152344 386.109375 291.214844 Z M 435.089844 185.582031 L 440.953125 210.132812 C 440.953125 210.132812 443.6875 195.847656 435.089844 185.582031 Z M 390.367188 249.472656 C 399.097656 249.472656 401.742188 258.789062 398.019531 260.652344 C 394.300781 262.515625 391.691406 258.417969 391.691406 258.417969 C 391.691406 258.417969 384.992188 272.207031 401.742188 272.207031 C 411.777344 272.207031 424.746094 266.054688 433.9375 260.972656 C 441.261719 252.421875 452.03125 246.039062 463.746094 244.125 C 450.089844 238.421875 437.851562 217.785156 437.851562 217.785156 C 431.925781 216.222656 428.546875 205.859375 428.917969 199.523438 C 429.289062 193.183594 428.917969 174.675781 428.917969 174.675781 C 470.613281 199.40625 442.320312 215.003906 442.320312 215.003906 C 445.5 228.484375 460.589844 239.472656 467.164062 243.710938 C 468.433594 243.597656 469.707031 243.523438 470.984375 243.523438 C 505.234375 243.523438 542.761719 249.902344 559.582031 239.066406 C 561.394531 237.898438 537.246094 259.292969 498.902344 251.957031 C 460.558594 244.621094 435.246094 255.804688 431.894531 279.289062 C 428.546875 302.773438 450.882812 315.574219 466.515625 306.1875 C 482.152344 296.808594 474.335938 276.007812 459.816406 275.785156 C 459.816406 275.785156 466.515625 279.425781 459.816406 283.085938 C 453.117188 286.746094 446.414062 272.207031 455.722656 269.597656 C 465.03125 266.988281 480.289062 275.5625 478.800781 296.808594 C 477.308594 318.054688 433.011719 318.054688 425.570312 293.828125 C 422.292969 283.160156 425.367188 272.140625 432.175781 263.140625 C 422.503906 268.992188 409.316406 275.621094 399.136719 275.703125 C 380.894531 275.84375 381.640625 249.472656 390.367188 249.472656 Z M 496.953125 243.507812 C 500.203125 244 478.800781 234.558594 473.214844 219.648438 C 467.632812 204.742188 475.824219 189.082031 467.632812 185.730469 C 459.441406 182.375 448.097656 236.050781 496.953125 243.507812 Z M 605.074219 251.957031 C 594.914062 275.78125 577.71875 281.527344 577.71875 281.527344 C 604.679688 278.574219 605.074219 251.957031 605.074219 251.957031 Z M 476.941406 201.386719 C 479.546875 176.414062 500.019531 170.449219 512.042969 177.335938 C 524.066406 184.222656 519.003906 202.503906 506.351562 205.136719 C 493.695312 207.761719 497.785156 190.945312 502.628906 191.046875 C 507.46875 191.144531 507.835938 197.269531 507.835938 197.269531 C 514.167969 196.511719 521.988281 179.765625 502.628906 179.765625 C 483.269531 179.765625 479.546875 204.367188 486.992188 217.398438 C 494.4375 230.425781 514.542969 236.796875 562.535156 221.886719 C 583.300781 215.4375 600.792969 213.316406 614.066406 212.96875 C 594.28125 208.871094 573.578125 204.269531 567.464844 193.355469 C 557.664062 175.859375 564.054688 160.925781 573.007812 157.515625 C 581.957031 154.101562 603.261719 153.246094 606.242188 171.59375 C 609.226562 189.945312 596.863281 198.046875 587.917969 193.355469 C 578.96875 188.664062 582.804688 176.292969 590.050781 177.570312 C 597.292969 178.847656 593.03125 186.527344 593.03125 186.527344 C 600.703125 184.820312 605.390625 173.304688 599.421875 164.34375 C 593.457031 155.378906 558.515625 156.234375 567.035156 183.113281 C 575.558594 209.996094 599 201.035156 633.089844 208.289062 C 647.738281 211.40625 661.144531 217.488281 671.589844 223.421875 C 662.9375 211.40625 660.949219 201.699219 660.496094 197.601562 C 664.714844 208.515625 684.960938 230.164062 691.429688 236.902344 C 692.910156 238.175781 693.628906 238.941406 693.414062 238.960938 C 689.421875 239.296875 670.742188 231.839844 651.84375 223.820312 C 626.796875 225.636719 611.328125 243.132812 611.328125 243.132812 C 611.328125 243.132812 613.9375 269.597656 599.042969 280.40625 C 584.15625 291.214844 562.535156 283.386719 562.535156 283.386719 C 567.722656 281.527344 579.691406 269.222656 586.390625 254.371094 C 593.089844 239.515625 605.75 242.015625 605.75 242.015625 C 615.148438 227.445312 630.066406 221.640625 640.707031 219.324219 C 639.011719 218.761719 637.199219 218.230469 635.304688 217.722656 C 596.613281 217.625 547.519531 240.730469 522.164062 238.972656 C 494.417969 237.046875 474.335938 226.355469 476.941406 201.386719 Z M 500.394531 306.871094 C 499.648438 283.019531 522.164062 265.871094 522.164062 265.871094 C 522.164062 265.871094 485.875 288.609375 500.375 320.292969 C 511.761719 345.15625 534.644531 351.976562 532.410156 342.28125 C 530.175781 332.59375 501.136719 330.730469 500.394531 306.871094 Z M 553.253906 294.945312 C 537.621094 290.84375 537.246094 310.226562 545.4375 309.855469 C 553.628906 309.480469 551.003906 303.515625 551.003906 303.515625 C 559.542969 305.753906 561.066406 315.679688 551.023438 321.410156 C 537.621094 329.050781 519.003906 318.796875 520.121094 304.265625 C 521.242188 289.726562 531.292969 275.5625 552.140625 263.199219 C 572.988281 250.839844 582.769531 236.128906 581.921875 237.167969 C 564.425781 258.789062 526.828125 256.921875 514.910156 288.609375 C 503 320.292969 530.917969 331.84375 548.789062 328.492188 C 566.65625 325.136719 568.890625 299.046875 553.253906 294.945312 Z M 648.855469 273.722656 C 637.351562 279.121094 621.160156 274.148438 621.582031 255.941406 C 622.007812 237.730469 639.90625 232.183594 650.5625 233.039062 C 661.214844 233.890625 679.96875 244.5625 695.730469 238.15625 C 695.730469 238.15625 686.78125 245.410156 665.046875 240.71875 C 643.316406 236.027344 625.421875 237.730469 624.996094 256.933594 C 624.566406 276.132812 645.445312 276.984375 651.414062 268.878906 C 657.378906 260.773438 648.855469 252.816406 644.597656 255.941406 C 644.597656 255.941406 645.875 261.625 639.480469 260.34375 C 633.089844 259.0625 633.089844 247.972656 646.300781 250.535156 C 659.511719 253.089844 660.359375 268.328125 648.855469 273.722656 " clip-rule="nonzero"/></clipPath><clipPath id="ae684ecc7f"><path d="M 1030.558594 381.921875 L 1039.421875 155.878906 L 385.40625 130.164062 L 376.542969 356.207031 Z M 1030.558594 381.921875 " clip-rule="nonzero"/></clipPath><radialGradient gradientTransform="matrix(-0.998593, -0.0392674, 0.0392174, -0.999867, 704.289173, 223.38024)" gradientUnits="userSpaceOnUse" r="281.313943" cx="0" id="ff0faaabd3" cy="0" fx="0" fy="0"><stop stop-opacity="1" stop-color="rgb(95.503235%, 88.804626%, 37.103271%)" offset="0"/><stop stop-opacity="1" stop-color="rgb(95.303345%, 88.60321%, 36.903381%)" offset="0.0078125"/><stop stop-opacity="1" stop-color="rgb(95.298767%, 88.598633%, 36.717224%)" offset="0.0117188"/><stop stop-opacity="1" stop-color="rgb(95.121765%, 88.421631%, 36.517334%)" offset="0.015625"/><stop stop-opacity="1" stop-color="rgb(94.900513%, 88.021851%, 36.499023%)" offset="0.0195312"/><stop stop-opacity="1" stop-color="rgb(94.659424%, 87.785339%, 36.482239%)" offset="0.0234375"/><stop stop-opacity="1" stop-color="rgb(94.281006%, 87.631226%, 36.282349%)" offset="0.0273438"/><stop stop-opacity="1" stop-color="rgb(94.099426%, 87.295532%, 36.099243%)" offset="0.03125"/><stop stop-opacity="1" stop-color="rgb(94.099426%, 87.098694%, 36.099243%)" offset="0.0429688"/><stop stop-opacity="1" stop-color="rgb(93.910217%, 87.098694%, 35.910034%)" offset="0.046875"/><stop stop-opacity="1" stop-color="rgb(93.710327%, 86.914062%, 35.710144%)" offset="0.0507812"/><stop stop-opacity="1" stop-color="rgb(93.699646%, 86.714172%, 35.519409%)" offset="0.0546875"/><stop stop-opacity="1" stop-color="rgb(93.699646%, 86.523438%, 35.319519%)" offset="0.0585938"/><stop stop-opacity="1" stop-color="rgb(93.499756%, 86.303711%, 35.27832%)" offset="0.0625"/><stop stop-opacity="1" stop-color="rgb(93.299866%, 86.077881%, 35.07843%)" offset="0.0664062"/><stop stop-opacity="1" stop-color="rgb(93.287659%, 85.888672%, 34.899902%)" offset="0.0703125"/><stop stop-opacity="1" stop-color="rgb(93.087769%, 85.688782%, 34.899902%)" offset="0.0742188"/><stop stop-opacity="1" stop-color="rgb(92.89856%, 85.499573%, 34.898376%)" offset="0.078125"/><stop stop-opacity="1" stop-color="rgb(92.89856%, 85.499573%, 34.701538%)" offset="0.0820312"/><stop stop-opacity="1" stop-color="rgb(92.89856%, 85.307312%, 34.501648%)" offset="0.0859375"/><stop stop-opacity="1" stop-color="rgb(92.710876%, 85.107422%, 34.310913%)" offset="0.0898438"/><stop stop-opacity="1" stop-color="rgb(92.510986%, 84.916687%, 34.111023%)" offset="0.09375"/><stop stop-opacity="1" stop-color="rgb(92.498779%, 84.715271%, 34.098816%)" offset="0.0976562"/><stop stop-opacity="1" stop-color="rgb(92.480469%, 84.498596%, 34.075928%)" offset="0.101562"/><stop stop-opacity="1" stop-color="rgb(92.330933%, 84.280396%, 33.876038%)" offset="0.105469"/><stop stop-opacity="1" stop-color="rgb(92.199707%, 84.080505%, 33.699036%)" offset="0.109375"/><stop stop-opacity="1" stop-color="rgb(92.199707%, 83.889771%, 33.68988%)" offset="0.113281"/><stop stop-opacity="1" stop-color="rgb(92.195129%, 83.68988%, 33.48999%)" offset="0.117188"/><stop stop-opacity="1" stop-color="rgb(91.995239%, 83.36792%, 33.16803%)" offset="0.121094"/><stop stop-opacity="1" stop-color="rgb(91.799927%, 83.172607%, 32.972717%)" offset="0.132812"/><stop stop-opacity="1" stop-color="rgb(91.618347%, 83.103943%, 32.904053%)" offset="0.136719"/><stop stop-opacity="1" stop-color="rgb(91.416931%, 82.922363%, 32.899475%)" offset="0.140625"/><stop stop-opacity="1" stop-color="rgb(91.19873%, 82.705688%, 32.876587%)" offset="0.144531"/><stop stop-opacity="1" stop-color="rgb(90.982056%, 82.531738%, 32.676697%)" offset="0.148438"/><stop stop-opacity="1" stop-color="rgb(90.782166%, 82.38678%, 32.499695%)" offset="0.152344"/><stop stop-opacity="1" stop-color="rgb(90.59906%, 82.18689%, 32.493591%)" offset="0.15625"/><stop stop-opacity="1" stop-color="rgb(90.59906%, 81.996155%, 32.342529%)" offset="0.160156"/><stop stop-opacity="1" stop-color="rgb(90.59906%, 81.797791%, 32.199097%)" offset="0.164062"/><stop stop-opacity="1" stop-color="rgb(90.405273%, 81.600952%, 32.199097%)" offset="0.167969"/><stop stop-opacity="1" stop-color="rgb(90.205383%, 81.410217%, 32.009888%)" offset="0.171875"/><stop stop-opacity="1" stop-color="rgb(90.19928%, 81.210327%, 31.809998%)" offset="0.175781"/><stop stop-opacity="1" stop-color="rgb(90.19928%, 81.019592%, 31.799316%)" offset="0.179688"/><stop stop-opacity="1" stop-color="rgb(90.023804%, 80.819702%, 31.799316%)" offset="0.183594"/><stop stop-opacity="1" stop-color="rgb(89.804077%, 80.59845%, 31.599426%)" offset="0.1875"/><stop stop-opacity="1" stop-color="rgb(89.578247%, 80.383301%, 31.399536%)" offset="0.191406"/><stop stop-opacity="1" stop-color="rgb(89.387512%, 80.183411%, 31.387329%)" offset="0.195312"/><stop stop-opacity="1" stop-color="rgb(89.187622%, 79.992676%, 31.187439%)" offset="0.199219"/><stop stop-opacity="1" stop-color="rgb(88.999939%, 79.792786%, 30.999756%)" offset="0.203125"/><stop stop-opacity="1" stop-color="rgb(88.999939%, 79.598999%, 30.999756%)" offset="0.207031"/><stop stop-opacity="1" stop-color="rgb(88.999939%, 79.406738%, 30.807495%)" offset="0.210938"/><stop stop-opacity="1" stop-color="rgb(88.812256%, 79.206848%, 30.607605%)" offset="0.214844"/><stop stop-opacity="1" stop-color="rgb(88.61084%, 79.016113%, 30.41687%)" offset="0.21875"/><stop stop-opacity="1" stop-color="rgb(88.598633%, 78.816223%, 30.215454%)" offset="0.222656"/><stop stop-opacity="1" stop-color="rgb(88.575745%, 78.599548%, 30.175781%)" offset="0.226562"/><stop stop-opacity="1" stop-color="rgb(88.375854%, 78.379822%, 29.975891%)" offset="0.230469"/><stop stop-opacity="1" stop-color="rgb(88.18512%, 78.179932%, 29.798889%)" offset="0.234375"/><stop stop-opacity="1" stop-color="rgb(87.985229%, 77.999878%, 29.798889%)" offset="0.238281"/><stop stop-opacity="1" stop-color="rgb(87.796021%, 77.993774%, 29.794312%)" offset="0.242188"/><stop stop-opacity="1" stop-color="rgb(87.646484%, 77.793884%, 29.594421%)" offset="0.246094"/><stop stop-opacity="1" stop-color="rgb(87.306213%, 77.453613%, 29.205322%)" offset="0.25"/><stop stop-opacity="1" stop-color="rgb(87.106323%, 77.116394%, 29.005432%)" offset="0.261719"/><stop stop-opacity="1" stop-color="rgb(87.001038%, 76.812744%, 28.900146%)" offset="0.269531"/><stop stop-opacity="1" stop-color="rgb(86.801147%, 76.591492%, 28.700256%)" offset="0.273438"/><stop stop-opacity="1" stop-color="rgb(86.694336%, 76.286316%, 28.594971%)" offset="0.277344"/><stop stop-opacity="1" stop-color="rgb(86.495972%, 75.895691%, 28.396606%)" offset="0.285156"/><stop stop-opacity="1" stop-color="rgb(86.299133%, 75.505066%, 28.005981%)" offset="0.292969"/><stop stop-opacity="1" stop-color="rgb(86.108398%, 75.114441%, 27.804565%)" offset="0.300781"/><stop stop-opacity="1" stop-color="rgb(85.809326%, 74.809265%, 27.723694%)" offset="0.308594"/><stop stop-opacity="1" stop-color="rgb(85.598755%, 74.598694%, 27.46582%)" offset="0.3125"/><stop stop-opacity="1" stop-color="rgb(85.395813%, 74.395752%, 27.191162%)" offset="0.320312"/><stop stop-opacity="1" stop-color="rgb(85.195923%, 74.098206%, 27.000427%)" offset="0.328125"/><stop stop-opacity="1" stop-color="rgb(85.005188%, 73.707581%, 26.800537%)" offset="0.335938"/><stop stop-opacity="1" stop-color="rgb(84.814453%, 73.414612%, 26.699829%)" offset="0.34375"/><stop stop-opacity="1" stop-color="rgb(84.707642%, 73.205566%, 26.699829%)" offset="0.347656"/><stop stop-opacity="1" stop-color="rgb(84.686279%, 72.98584%, 26.687622%)" offset="0.351562"/><stop stop-opacity="1" stop-color="rgb(84.480286%, 72.68219%, 26.480103%)" offset="0.355469"/><stop stop-opacity="1" stop-color="rgb(84.089661%, 72.340393%, 26.091003%)" offset="0.363281"/><stop stop-opacity="1" stop-color="rgb(83.699036%, 71.998596%, 25.898743%)" offset="0.371094"/><stop stop-opacity="1" stop-color="rgb(83.500671%, 71.607971%, 25.704956%)" offset="0.378906"/><stop stop-opacity="1" stop-color="rgb(83.309937%, 71.217346%, 25.505066%)" offset="0.386719"/><stop stop-opacity="1" stop-color="rgb(83.110046%, 71.009827%, 25.39978%)" offset="0.394531"/><stop stop-opacity="1" stop-color="rgb(82.992554%, 70.892334%, 25.19989%)" offset="0.398438"/><stop stop-opacity="1" stop-color="rgb(82.792664%, 70.591736%, 25.099182%)" offset="0.40625"/><stop stop-opacity="1" stop-color="rgb(82.626343%, 70.297241%, 25.001526%)" offset="0.414062"/><stop stop-opacity="1" stop-color="rgb(82.476807%, 70.106506%, 24.710083%)" offset="0.421875"/><stop stop-opacity="1" stop-color="rgb(82.398987%, 69.917297%, 24.417114%)" offset="0.429688"/><stop stop-opacity="1" stop-color="rgb(82.298279%, 69.709778%, 24.308777%)" offset="0.433594"/><stop stop-opacity="1" stop-color="rgb(82.098389%, 69.488525%, 24.28894%)" offset="0.4375"/><stop stop-opacity="1" stop-color="rgb(81.993103%, 69.18335%, 24.082947%)" offset="0.441406"/><stop stop-opacity="1" stop-color="rgb(81.793213%, 68.792725%, 23.692322%)" offset="0.449219"/><stop stop-opacity="1" stop-color="rgb(81.407166%, 68.406677%, 23.3078%)" offset="0.464844"/><stop stop-opacity="1" stop-color="rgb(81.207275%, 68.106079%, 23.10791%)" offset="0.472656"/><stop stop-opacity="1" stop-color="rgb(81.089783%, 67.814636%, 22.988892%)" offset="0.476562"/><stop stop-opacity="1" stop-color="rgb(80.784607%, 67.462158%, 22.789001%)" offset="0.484375"/><stop stop-opacity="1" stop-color="rgb(80.493164%, 67.094421%, 22.624207%)" offset="0.492188"/><stop stop-opacity="1" stop-color="rgb(80.39856%, 66.798401%, 22.47467%)" offset="0.5"/><stop stop-opacity="1" stop-color="rgb(80.212402%, 66.513062%, 22.399902%)" offset="0.507812"/><stop stop-opacity="1" stop-color="rgb(80.012512%, 66.313171%, 22.218323%)" offset="0.511719"/><stop stop-opacity="1" stop-color="rgb(79.821777%, 66.122437%, 22.016907%)" offset="0.515625"/><stop stop-opacity="1" stop-color="rgb(79.484558%, 65.783691%, 21.861267%)" offset="0.519531"/><stop stop-opacity="1" stop-color="rgb(79.26178%, 65.560913%, 21.661377%)" offset="0.53125"/><stop stop-opacity="1" stop-color="rgb(79.199219%, 65.306091%, 21.598816%)" offset="0.542969"/><stop stop-opacity="1" stop-color="rgb(79.01001%, 65.104675%, 21.598816%)" offset="0.546875"/><stop stop-opacity="1" stop-color="rgb(78.81012%, 64.91394%, 21.598816%)" offset="0.550781"/><stop stop-opacity="1" stop-color="rgb(78.799438%, 64.71405%, 21.418762%)" offset="0.554688"/><stop stop-opacity="1" stop-color="rgb(78.623962%, 64.523315%, 21.218872%)" offset="0.558594"/><stop stop-opacity="1" stop-color="rgb(78.40271%, 64.303589%, 21.179199%)" offset="0.5625"/><stop stop-opacity="1" stop-color="rgb(78.178406%, 64.073181%, 20.973206%)" offset="0.566406"/><stop stop-opacity="1" stop-color="rgb(77.807617%, 63.693237%, 20.593262%)" offset="0.578125"/><stop stop-opacity="1" stop-color="rgb(77.606201%, 63.311768%, 20.211792%)" offset="0.589844"/><stop stop-opacity="1" stop-color="rgb(77.598572%, 63.111877%, 20.011902%)" offset="0.59375"/><stop stop-opacity="1" stop-color="rgb(77.598572%, 62.921143%, 19.999695%)" offset="0.597656"/><stop stop-opacity="1" stop-color="rgb(77.449036%, 62.702942%, 19.799805%)" offset="0.601562"/><stop stop-opacity="1" stop-color="rgb(77.279663%, 62.532043%, 19.599915%)" offset="0.605469"/><stop stop-opacity="1" stop-color="rgb(77.079773%, 62.385559%, 19.584656%)" offset="0.609375"/><stop stop-opacity="1" stop-color="rgb(76.899719%, 62.185669%, 19.384766%)" offset="0.613281"/><stop stop-opacity="1" stop-color="rgb(76.899719%, 61.994934%, 19.198608%)" offset="0.617188"/><stop stop-opacity="1" stop-color="rgb(76.899719%, 61.795044%, 19.198608%)" offset="0.621094"/><stop stop-opacity="1" stop-color="rgb(76.704407%, 61.599731%, 19.003296%)" offset="0.625"/><stop stop-opacity="1" stop-color="rgb(76.504517%, 61.413574%, 18.803406%)" offset="0.628906"/><stop stop-opacity="1" stop-color="rgb(76.318359%, 61.032104%, 18.617249%)" offset="0.636719"/><stop stop-opacity="1" stop-color="rgb(75.941467%, 60.816956%, 18.417358%)" offset="0.640625"/><stop stop-opacity="1" stop-color="rgb(75.721741%, 60.588074%, 18.199158%)" offset="0.644531"/><stop stop-opacity="1" stop-color="rgb(75.692749%, 60.188293%, 17.993164%)" offset="0.648438"/><stop stop-opacity="1" stop-color="rgb(75.492859%, 59.997559%, 17.793274%)" offset="0.65625"/><stop stop-opacity="1" stop-color="rgb(75.299072%, 59.80072%, 17.599487%)" offset="0.664062"/><stop stop-opacity="1" stop-color="rgb(75.106812%, 59.410095%, 17.454529%)" offset="0.671875"/><stop stop-opacity="1" stop-color="rgb(74.906921%, 59.01947%, 17.304993%)" offset="0.679688"/><stop stop-opacity="1" stop-color="rgb(74.801636%, 58.714294%, 17.201233%)" offset="0.6875"/><stop stop-opacity="1" stop-color="rgb(74.594116%, 58.493042%, 17.001343%)" offset="0.691406"/><stop stop-opacity="1" stop-color="rgb(74.291992%, 58.190918%, 16.896057%)" offset="0.695312"/><stop stop-opacity="1" stop-color="rgb(74.099731%, 57.998657%, 16.697693%)" offset="0.703125"/><stop stop-opacity="1" stop-color="rgb(73.907471%, 57.806396%, 16.500854%)" offset="0.710938"/><stop stop-opacity="1" stop-color="rgb(73.707581%, 57.606506%, 16.316223%)" offset="0.714844"/><stop stop-opacity="1" stop-color="rgb(73.521423%, 57.4646%, 16.116333%)" offset="0.722656"/><stop stop-opacity="1" stop-color="rgb(73.309326%, 57.302856%, 15.887451%)" offset="0.726562"/><stop stop-opacity="1" stop-color="rgb(73.086548%, 57.080078%, 15.487671%)" offset="0.730469"/><stop stop-opacity="1" stop-color="rgb(72.895813%, 56.689453%, 15.296936%)" offset="0.738281"/><stop stop-opacity="1" stop-color="rgb(72.698975%, 56.298828%, 15.098572%)" offset="0.746094"/><stop stop-opacity="1" stop-color="rgb(72.50061%, 55.909729%, 14.900208%)" offset="0.753906"/><stop stop-opacity="1" stop-color="rgb(72.499084%, 55.708313%, 14.898682%)" offset="0.757812"/><stop stop-opacity="1" stop-color="rgb(72.499084%, 55.699158%, 14.717102%)" offset="0.761719"/><stop stop-opacity="1" stop-color="rgb(72.499084%, 55.699158%, 14.517212%)" offset="0.765625"/><stop stop-opacity="1" stop-color="rgb(72.348022%, 55.499268%, 14.477539%)" offset="0.769531"/><stop stop-opacity="1" stop-color="rgb(72.198486%, 55.299377%, 14.277649%)" offset="0.773438"/><stop stop-opacity="1" stop-color="rgb(72.186279%, 55.28717%, 14.099121%)" offset="0.777344"/><stop stop-opacity="1" stop-color="rgb(71.986389%, 55.079651%, 14.091492%)" offset="0.78125"/><stop stop-opacity="1" stop-color="rgb(71.795654%, 54.692078%, 13.891602%)" offset="0.785156"/><stop stop-opacity="1" stop-color="rgb(71.59729%, 54.499817%, 13.699341%)" offset="0.789062"/><stop stop-opacity="1" stop-color="rgb(71.400452%, 54.304504%, 13.504028%)" offset="0.792969"/><stop stop-opacity="1" stop-color="rgb(71.398926%, 54.103088%, 13.304138%)" offset="0.804688"/><stop stop-opacity="1" stop-color="rgb(71.398926%, 53.923035%, 13.299561%)" offset="0.808594"/><stop stop-opacity="1" stop-color="rgb(71.188354%, 53.713989%, 13.09967%)" offset="0.8125"/><stop stop-opacity="1" stop-color="rgb(70.788574%, 53.483582%, 12.89978%)" offset="0.816406"/><stop stop-opacity="1" stop-color="rgb(70.597839%, 53.092957%, 12.898254%)" offset="0.824219"/><stop stop-opacity="1" stop-color="rgb(70.402527%, 52.702332%, 12.702942%)" offset="0.832031"/><stop stop-opacity="1" stop-color="rgb(70.011902%, 52.359009%, 12.503052%)" offset="0.839844"/><stop stop-opacity="1" stop-color="rgb(69.807434%, 52.104187%, 12.5%)" offset="0.847656"/><stop stop-opacity="1" stop-color="rgb(69.787598%, 51.885986%, 12.5%)" offset="0.851562"/><stop stop-opacity="1" stop-color="rgb(69.584656%, 51.585388%, 12.348938%)" offset="0.855469"/><stop stop-opacity="1" stop-color="rgb(69.198608%, 51.199341%, 12.199402%)" offset="0.871094"/><stop stop-opacity="1" stop-color="rgb(69.000244%, 51.000977%, 12.199402%)" offset="0.878906"/><stop stop-opacity="1" stop-color="rgb(68.998718%, 50.813293%, 12.013245%)" offset="0.882812"/><stop stop-opacity="1" stop-color="rgb(68.817139%, 50.613403%, 11.813354%)" offset="0.886719"/><stop stop-opacity="1" stop-color="rgb(68.617249%, 50.59967%, 11.799622%)" offset="0.890625"/><stop stop-opacity="1" stop-color="rgb(68.598938%, 50.39978%, 11.799622%)" offset="0.894531"/><stop stop-opacity="1" stop-color="rgb(68.582153%, 50.18158%, 11.781311%)" offset="0.898438"/><stop stop-opacity="1" stop-color="rgb(68.382263%, 49.969482%, 11.581421%)" offset="0.902344"/><stop stop-opacity="1" stop-color="rgb(68.19458%, 49.581909%, 11.399841%)" offset="0.90625"/><stop stop-opacity="1" stop-color="rgb(67.996216%, 49.195862%, 11.399841%)" offset="0.910156"/><stop stop-opacity="1" stop-color="rgb(67.654419%, 48.999023%, 11.399841%)" offset="0.917969"/><stop stop-opacity="1" stop-color="rgb(67.503357%, 48.808289%, 11.399841%)" offset="0.925781"/><stop stop-opacity="1" stop-color="rgb(67.498779%, 48.509216%, 11.399841%)" offset="0.933594"/><stop stop-opacity="1" stop-color="rgb(67.478943%, 48.298645%, 11.399841%)" offset="0.9375"/><stop stop-opacity="1" stop-color="rgb(67.279053%, 48.182678%, 11.399841%)" offset="0.941406"/><stop stop-opacity="1" stop-color="rgb(67.098999%, 47.982788%, 11.399841%)" offset="0.945312"/><stop stop-opacity="1" stop-color="rgb(67.092896%, 47.795105%, 11.399841%)" offset="0.949219"/><stop stop-opacity="1" stop-color="rgb(66.891479%, 47.644043%, 11.399841%)" offset="0.953125"/><stop stop-opacity="1" stop-color="rgb(66.50238%, 47.302246%, 11.399841%)" offset="0.957031"/><stop stop-opacity="1" stop-color="rgb(66.30249%, 47.102356%, 11.399841%)" offset="0.964844"/><stop stop-opacity="1" stop-color="rgb(66.299438%, 46.920776%, 11.399841%)" offset="0.972656"/><stop stop-opacity="1" stop-color="rgb(66.099548%, 46.708679%, 11.399841%)" offset="0.976562"/><stop stop-opacity="1" stop-color="rgb(65.899658%, 46.577454%, 11.399841%)" offset="0.980469"/><stop stop-opacity="1" stop-color="rgb(65.884399%, 46.374512%, 11.399841%)" offset="0.984375"/><stop stop-opacity="1" stop-color="rgb(65.684509%, 46.084595%, 11.399841%)" offset="0.988281"/><stop stop-opacity="1" stop-color="rgb(65.499878%, 45.899963%, 11.399841%)" offset="1"/></radialGradient><clipPath id="a072a9b7f8"><path d="M 379.851562 153.96875 L 1037.476562 153.96875 L 1037.476562 357.867188 L 379.851562 357.867188 Z M 379.851562 153.96875 " clip-rule="nonzero"/></clipPath></defs><g clip-path="url(#d79b3d72c2)"><g clip-path="url(#8995ffc5f8)"><g clip-path="url(#92de131b7f)"><g clip-path="url(#ae684ecc7f)"><path fill="url(#ff0faaabd3)" d="M 1030.558594 381.925781 L 1039.421875 155.878906 L 385.40625 130.164062 L 376.539062 356.207031 Z M 1030.558594 381.925781 " fill-rule="nonzero"/></g></g></g></g><g clip-path="url(#a072a9b7f8)"><path fill="#100f0d" d="M 704.28125 234.425781 C 704.28125 231.644531 706.535156 229.390625 709.316406 229.390625 C 712.097656 229.390625 714.351562 231.644531 714.351562 234.425781 C 714.351562 237.207031 712.097656 239.460938 709.316406 239.460938 C 706.535156 239.460938 704.28125 237.207031 704.28125 234.425781 Z M 709.316406 220.234375 C 698.472656 195.238281 679.886719 198.921875 679.886719 198.921875 C 681.191406 194.714844 686.542969 194.449219 686.542969 194.449219 C 698.441406 186.03125 705.765625 207.34375 705.765625 207.34375 C 705.058594 196.03125 696.152344 189.1875 696.152344 189.1875 C 698.460938 186.820312 704.375 189.1875 704.375 189.1875 C 704.375 189.1875 702.53125 177.613281 709.316406 177.613281 C 716.101562 177.613281 714.257812 189.1875 714.257812 189.1875 C 714.257812 189.1875 720.171875 186.820312 722.480469 189.1875 C 722.480469 189.1875 713.574219 196.03125 712.863281 207.34375 C 712.863281 207.34375 720.191406 186.03125 732.09375 194.449219 C 732.09375 194.449219 737.441406 194.714844 738.746094 198.921875 C 738.746094 198.921875 720.15625 195.238281 709.316406 220.234375 Z M 709.316406 260.988281 C 709.582031 260.0625 709.722656 259.527344 709.722656 259.527344 C 709.679688 259.902344 709.539062 260.402344 709.316406 260.988281 Z M 672.921875 298.660156 C 672.921875 298.660156 689.925781 289.984375 696.214844 283.183594 C 696.214844 283.183594 684.3125 300.699219 672.921875 298.660156 Z M 664.957031 297.84375 C 665.949219 303.359375 673.136719 307.742188 687.769531 297.84375 C 700.421875 289.277344 707.605469 266.898438 709.316406 260.988281 C 707.230469 266.460938 697.78125 280.136719 690.785156 283.636719 C 683.039062 287.507812 664.136719 293.28125 664.957031 297.84375 Z M 662.039062 281.445312 C 662.039062 281.445312 680.554688 275.78125 687.988281 269.082031 C 689.121094 267.941406 689.753906 267.199219 689.753906 267.199219 C 689.28125 267.832031 688.679688 268.457031 687.988281 269.082031 C 683.847656 273.261719 672.996094 282.886719 662.039062 281.445312 Z M 673.136719 284.925781 C 695.089844 277.175781 704.558594 245.324219 704.558594 245.324219 C 692.9375 262.972656 680.019531 264.265625 664.847656 269.859375 C 649.679688 275.457031 651.183594 292.671875 673.136719 284.925781 Z M 724.476562 322.066406 L 709.316406 357.914062 C 709.328125 357.851562 709.335938 357.703125 709.347656 357.492188 C 709.316406 357.707031 709.304688 357.851562 709.316406 357.914062 L 694.148438 322.066406 L 709.316406 286.226562 Z M 710.128906 260.988281 C 709.90625 260.402344 709.761719 259.902344 709.722656 259.527344 C 709.722656 259.527344 709.859375 260.0625 710.128906 260.988281 Z M 723.230469 283.183594 C 729.519531 289.984375 746.523438 298.660156 746.523438 298.660156 C 735.132812 300.699219 723.230469 283.183594 723.230469 283.183594 Z M 710.128906 260.988281 C 711.84375 266.898438 719.023438 289.277344 731.675781 297.84375 C 746.3125 307.742188 753.496094 303.359375 754.492188 297.84375 C 755.316406 293.28125 736.414062 287.507812 728.660156 283.636719 C 721.667969 280.136719 712.214844 266.460938 710.128906 260.988281 Z M 731.453125 269.082031 C 730.765625 268.457031 730.164062 267.832031 729.691406 267.199219 C 729.691406 267.199219 730.324219 267.941406 731.453125 269.082031 C 738.894531 275.78125 757.40625 281.445312 757.40625 281.445312 C 746.445312 282.886719 735.601562 273.261719 731.453125 269.082031 Z M 746.3125 284.925781 C 768.261719 292.671875 769.765625 275.457031 754.59375 269.859375 C 739.421875 264.265625 726.511719 262.972656 714.886719 245.324219 C 714.886719 245.324219 724.359375 277.175781 746.3125 284.925781 Z M 437.304688 209.34375 L 431.351562 184.425781 C 440.089844 194.84375 437.304688 209.34375 437.304688 209.34375 Z M 438.699219 214.285156 C 438.699219 214.285156 467.449219 198.457031 425.078125 173.359375 C 425.078125 173.359375 425.457031 192.140625 425.078125 198.574219 C 424.703125 205.007812 428.132812 215.523438 434.15625 217.113281 C 434.15625 217.113281 446.59375 238.054688 460.472656 243.84375 C 448.566406 245.785156 437.625 252.265625 430.179688 260.941406 C 420.839844 266.101562 407.660156 272.34375 397.460938 272.34375 C 380.441406 272.34375 387.25 258.347656 387.25 258.347656 C 387.25 258.347656 389.894531 262.507812 393.679688 260.617188 C 397.460938 258.726562 394.773438 249.269531 385.902344 249.269531 C 377.035156 249.269531 376.28125 276.035156 394.816406 275.894531 C 405.160156 275.816406 418.5625 269.082031 428.394531 263.140625 C 421.472656 272.277344 418.34375 283.460938 421.675781 294.285156 C 429.238281 318.875 474.261719 318.875 475.769531 297.3125 C 477.285156 275.75 461.777344 267.046875 452.316406 269.695312 C 442.859375 272.34375 449.671875 287.097656 456.480469 283.382812 C 463.285156 279.667969 456.480469 275.976562 456.480469 275.976562 C 471.230469 276.203125 479.175781 297.3125 463.285156 306.832031 C 447.402344 316.359375 424.703125 303.363281 428.109375 279.53125 C 431.511719 255.695312 457.234375 244.347656 496.199219 251.792969 C 535.164062 259.234375 559.699219 237.523438 557.863281 238.710938 C 540.769531 249.707031 502.632812 243.230469 467.828125 243.230469 C 466.527344 243.230469 465.234375 243.308594 463.945312 243.421875 C 457.265625 239.121094 441.933594 227.96875 438.699219 214.285156 Z M 407.300781 294.429688 C 407.300781 294.429688 405.757812 323.417969 393.855469 322.28125 C 381.953125 321.148438 389.519531 298.351562 407.300781 294.429688 Z M 425.050781 314.714844 C 421.296875 321.148438 410.847656 310.625 416 294.429688 C 416 294.429688 428.808594 308.28125 425.050781 314.714844 Z M 407.300781 281.800781 C 407.300781 281.800781 388.03125 301.566406 381.578125 291.636719 C 374.933594 281.425781 398.597656 286.472656 407.300781 281.800781 Z M 494.222656 243.214844 C 444.570312 235.648438 456.097656 181.171875 464.421875 184.578125 C 472.746094 187.980469 464.421875 203.871094 470.097656 219.003906 C 475.769531 234.132812 497.519531 243.714844 494.222656 243.214844 Z M 519.835938 265.914062 C 519.835938 265.914062 496.953125 283.316406 497.714844 307.527344 C 498.46875 331.742188 527.976562 333.632812 530.246094 343.464844 C 532.515625 353.304688 509.257812 346.382812 497.695312 321.148438 C 482.960938 288.988281 519.835938 265.914062 519.835938 265.914062 Z M 512.464844 288.988281 C 524.574219 256.832031 562.785156 258.726562 580.558594 236.785156 C 581.417969 235.726562 571.480469 250.65625 550.300781 263.203125 C 529.109375 275.75 518.898438 290.125 517.761719 304.878906 C 516.625 319.632812 535.542969 330.035156 549.164062 322.28125 C 559.367188 316.464844 557.820312 306.390625 549.144531 304.121094 C 549.144531 304.121094 551.808594 310.171875 543.488281 310.554688 C 535.164062 310.933594 535.542969 291.261719 551.429688 295.421875 C 567.320312 299.582031 565.050781 326.0625 546.894531 329.46875 C 528.734375 332.871094 500.359375 321.148438 512.464844 288.988281 Z M 658.535156 190.585938 L 658.53125 190.574219 C 658.441406 190.394531 658.359375 190.242188 658.304688 190.136719 L 645.609375 166.0625 C 655.753906 172.417969 658.535156 190.585938 658.535156 190.585938 Z M 660.359375 196.164062 C 661.847656 194.0625 681.761719 164.578125 636.171875 155.828125 C 636.171875 155.828125 642.222656 170.578125 642.984375 180.035156 C 643.738281 189.496094 646.925781 195.136719 660.277344 196.289062 C 660.3125 196.394531 660.371094 196.519531 660.410156 196.625 C 660.394531 196.46875 660.375 196.308594 660.359375 196.164062 Z M 604.089844 251.792969 C 604.089844 251.792969 603.691406 278.804688 576.289062 281.800781 C 576.289062 281.800781 593.765625 275.96875 604.089844 251.792969 Z M 691.84375 236.511719 C 685.273438 229.671875 664.695312 207.703125 660.410156 196.625 C 660.867188 200.785156 662.890625 210.636719 671.683594 222.828125 C 661.066406 216.808594 647.441406 210.636719 632.558594 207.472656 C 597.914062 200.109375 574.097656 209.203125 565.433594 181.921875 C 556.777344 154.640625 592.285156 153.777344 598.347656 162.871094 C 604.410156 171.964844 599.648438 183.652344 591.851562 185.390625 C 591.851562 185.390625 596.183594 177.589844 588.820312 176.296875 C 581.460938 174.996094 577.558594 187.554688 586.652344 192.316406 C 595.746094 197.078125 608.308594 188.851562 605.277344 170.230469 C 602.246094 151.609375 580.597656 152.476562 571.496094 155.941406 C 562.402344 159.402344 555.910156 174.558594 565.871094 192.316406 C 572.082031 203.394531 593.121094 208.0625 613.226562 212.21875 C 599.738281 212.574219 581.960938 214.726562 560.863281 221.273438 C 512.089844 236.402344 491.664062 229.941406 484.09375 216.714844 C 476.527344 203.492188 480.3125 178.519531 499.984375 178.519531 C 519.65625 178.519531 511.710938 195.515625 505.277344 196.289062 C 505.277344 196.289062 504.902344 190.078125 499.984375 189.972656 C 495.0625 189.871094 490.902344 206.9375 503.765625 204.273438 C 516.625 201.601562 521.769531 183.046875 509.550781 176.054688 C 497.335938 169.066406 476.527344 175.121094 473.878906 200.464844 C 471.230469 225.816406 491.640625 236.660156 519.835938 238.613281 C 545.601562 240.394531 595.492188 216.945312 634.808594 217.042969 C 636.734375 217.5625 638.574219 218.101562 640.300781 218.671875 C 629.488281 221.019531 614.324219 226.914062 604.773438 241.699219 C 604.773438 241.699219 591.910156 239.164062 585.101562 254.242188 C 578.292969 269.316406 566.132812 281.800781 560.863281 283.691406 C 560.863281 283.691406 582.832031 291.636719 597.960938 280.667969 C 613.097656 269.695312 610.445312 242.835938 610.445312 242.835938 C 610.445312 242.835938 626.164062 225.082031 651.613281 223.234375 C 670.820312 231.375 689.804688 238.941406 693.863281 238.601562 C 678.367188 243.246094 660.617188 233.414062 650.316406 232.589844 C 639.484375 231.722656 621.296875 237.355469 620.867188 255.835938 C 620.433594 274.316406 636.890625 279.359375 648.582031 273.882812 C 660.277344 268.40625 659.410156 252.941406 645.984375 250.347656 C 632.558594 247.75 632.558594 259.003906 639.054688 260.304688 C 645.550781 261.605469 644.253906 255.835938 644.253906 255.835938 C 648.582031 252.664062 657.242188 260.742188 651.179688 268.96875 C 645.117188 277.191406 623.898438 276.328125 624.332031 256.84375 C 624.765625 237.355469 642.953125 235.621094 665.035156 240.386719 C 687.121094 245.148438 696.214844 237.785156 696.214844 237.785156 C 695.441406 238.105469 694.652344 238.367188 693.863281 238.601562 C 694.078125 238.582031 693.347656 237.804688 691.84375 236.511719 Z M 758.789062 190.585938 C 758.789062 190.585938 761.570312 172.417969 771.71875 166.0625 L 759.027344 190.136719 C 758.96875 190.242188 758.886719 190.394531 758.796875 190.574219 Z M 756.96875 196.164062 C 756.953125 196.308594 756.933594 196.46875 756.917969 196.625 C 756.964844 196.519531 757.015625 196.394531 757.054688 196.289062 C 770.402344 195.136719 773.589844 189.496094 774.34375 180.035156 C 775.105469 170.578125 781.15625 155.828125 781.15625 155.828125 C 735.566406 164.578125 755.480469 194.0625 756.96875 196.164062 Z M 1023.472656 322.28125 C 1011.570312 323.417969 1010.027344 294.429688 1010.027344 294.429688 C 1027.808594 298.351562 1035.375 321.148438 1023.472656 322.28125 Z M 992.277344 314.714844 C 988.519531 308.28125 1001.328125 294.429688 1001.328125 294.429688 C 1006.480469 310.625 996.03125 321.148438 992.277344 314.714844 Z M 1035.75 291.636719 C 1029.296875 301.566406 1010.027344 281.800781 1010.027344 281.800781 C 1018.730469 286.472656 1042.394531 281.425781 1035.75 291.636719 Z M 985.976562 184.425781 L 980.019531 209.34375 C 980.019531 209.34375 977.238281 194.84375 985.976562 184.425781 Z M 1031.425781 249.269531 C 1022.554688 249.269531 1019.867188 258.726562 1023.648438 260.617188 C 1027.429688 262.507812 1030.078125 258.347656 1030.078125 258.347656 C 1030.078125 258.347656 1036.886719 272.34375 1019.867188 272.34375 C 1009.667969 272.34375 996.488281 266.101562 987.148438 260.941406 C 979.703125 252.265625 968.761719 245.785156 956.855469 243.84375 C 970.734375 238.054688 983.171875 217.113281 983.171875 217.113281 C 989.195312 215.523438 992.625 205.007812 992.25 198.574219 C 991.871094 192.140625 992.25 173.359375 992.25 173.359375 C 949.878906 198.457031 978.628906 214.285156 978.628906 214.285156 C 975.398438 227.96875 960.0625 239.121094 953.382812 243.421875 C 952.09375 243.308594 950.800781 243.230469 949.5 243.230469 C 914.695312 243.230469 876.558594 249.707031 859.464844 238.710938 C 857.628906 237.523438 882.164062 259.234375 921.128906 251.792969 C 960.09375 244.347656 985.816406 255.695312 989.222656 279.53125 C 992.625 303.363281 969.925781 316.359375 954.042969 306.832031 C 938.152344 297.3125 946.09375 276.203125 960.847656 275.976562 C 960.847656 275.976562 954.042969 279.667969 960.847656 283.382812 C 967.65625 287.097656 974.46875 272.34375 965.011719 269.695312 C 955.550781 267.046875 940.046875 275.75 941.558594 297.3125 C 943.074219 318.875 988.089844 318.875 995.652344 294.285156 C 998.980469 283.460938 995.855469 272.277344 988.9375 263.140625 C 998.765625 269.082031 1012.167969 275.816406 1022.511719 275.894531 C 1041.046875 276.035156 1040.292969 249.269531 1031.425781 249.269531 Z M 923.113281 243.214844 C 919.808594 243.714844 941.558594 234.132812 947.234375 219.003906 C 952.90625 203.871094 944.582031 187.980469 952.90625 184.578125 C 961.230469 181.171875 972.757812 235.648438 923.113281 243.214844 Z M 813.238281 251.792969 C 823.5625 275.96875 841.039062 281.800781 841.039062 281.800781 C 813.636719 278.804688 813.238281 251.792969 813.238281 251.792969 Z M 943.449219 200.464844 C 940.800781 175.121094 919.992188 169.066406 907.777344 176.054688 C 895.558594 183.046875 900.703125 201.601562 913.5625 204.273438 C 926.421875 206.9375 922.265625 189.871094 917.34375 189.972656 C 912.425781 190.078125 912.050781 196.289062 912.050781 196.289062 C 905.617188 195.515625 897.671875 178.519531 917.34375 178.519531 C 937.015625 178.519531 940.800781 203.492188 933.234375 216.714844 C 925.664062 229.941406 905.238281 236.402344 856.464844 221.273438 C 835.367188 214.726562 817.589844 212.574219 804.101562 212.21875 C 824.207031 208.0625 845.246094 203.394531 851.457031 192.316406 C 861.417969 174.558594 854.925781 159.402344 845.824219 155.941406 C 836.730469 152.476562 815.082031 151.609375 812.050781 170.230469 C 809.019531 188.851562 821.582031 197.078125 830.675781 192.316406 C 839.769531 187.554688 835.867188 174.996094 828.507812 176.296875 C 821.144531 177.589844 825.476562 185.390625 825.476562 185.390625 C 817.679688 183.652344 812.917969 171.964844 818.980469 162.871094 C 825.042969 153.777344 860.550781 154.640625 851.886719 181.921875 C 843.230469 209.203125 819.414062 200.109375 784.769531 207.472656 C 769.886719 210.636719 756.261719 216.808594 745.644531 222.828125 C 754.4375 210.636719 756.460938 200.785156 756.917969 196.625 C 752.632812 207.703125 732.054688 229.671875 725.484375 236.511719 C 723.980469 237.804688 723.25 238.582031 723.464844 238.601562 C 722.675781 238.367188 721.886719 238.105469 721.113281 237.785156 C 721.113281 237.785156 730.207031 245.148438 752.292969 240.386719 C 774.375 235.621094 792.5625 237.355469 792.996094 256.84375 C 793.429688 276.328125 772.210938 277.191406 766.148438 268.96875 C 760.085938 260.742188 768.75 252.664062 773.074219 255.835938 C 773.074219 255.835938 771.777344 261.605469 778.273438 260.304688 C 784.769531 259.003906 784.769531 247.75 771.34375 250.347656 C 757.917969 252.941406 757.054688 268.40625 768.75 273.882812 C 780.4375 279.359375 796.894531 274.316406 796.460938 255.835938 C 796.03125 237.355469 777.84375 231.722656 767.011719 232.589844 C 756.710938 233.414062 738.960938 243.246094 723.464844 238.601562 C 727.523438 238.941406 746.507812 231.375 765.714844 223.234375 C 791.164062 225.082031 806.882812 242.835938 806.882812 242.835938 C 806.882812 242.835938 804.230469 269.695312 819.367188 280.667969 C 834.496094 291.636719 856.464844 283.691406 856.464844 283.691406 C 851.195312 281.800781 839.035156 269.316406 832.226562 254.242188 C 825.417969 239.164062 812.554688 241.699219 812.554688 241.699219 C 803.003906 226.914062 787.839844 221.019531 777.027344 218.671875 C 778.753906 218.101562 780.59375 217.5625 782.519531 217.042969 C 821.835938 216.945312 871.726562 240.394531 897.492188 238.613281 C 925.6875 236.660156 946.09375 225.816406 943.449219 200.464844 Z M 919.613281 307.527344 C 920.375 283.316406 897.492188 265.914062 897.492188 265.914062 C 897.492188 265.914062 934.367188 288.988281 919.632812 321.148438 C 908.0625 346.382812 884.8125 353.304688 887.082031 343.464844 C 889.351562 333.632812 918.859375 331.742188 919.613281 307.527344 Z M 870.433594 329.46875 C 888.597656 332.871094 916.96875 321.148438 904.863281 288.988281 C 892.753906 256.832031 854.542969 258.726562 836.769531 236.785156 C 835.90625 235.726562 845.847656 250.65625 867.027344 263.203125 C 888.21875 275.75 898.429688 290.125 899.566406 304.878906 C 900.703125 319.632812 881.785156 330.035156 868.164062 322.28125 C 857.960938 316.464844 859.507812 306.390625 868.183594 304.121094 C 868.183594 304.121094 865.519531 310.171875 873.839844 310.554688 C 882.164062 310.933594 881.785156 291.261719 865.898438 295.421875 C 850.007812 299.582031 852.277344 326.0625 870.433594 329.46875 " fill-opacity="1" fill-rule="nonzero"/></g></svg>