<svg xmlns="http://www.w3.org/2000/svg" xmlns:xlink="http://www.w3.org/1999/xlink" width="1890" zoomAndPan="magnify" viewBox="0 0 1417.5 374.999991" height="500" preserveAspectRatio="xMidYMid meet" version="1.0"><defs><clipPath id="0ec3d24620"><path d="M 338.015625 73.195312 L 1077.867188 73.195312 L 1077.867188 302.632812 L 338.015625 302.632812 Z M 338.015625 73.195312 " clip-rule="nonzero"/></clipPath><clipPath id="193181db4f"><path d="M 712.871094 163.710938 C 712.871094 160.582031 710.332031 158.046875 707.207031 158.046875 C 704.078125 158.046875 701.542969 160.582031 701.542969 163.710938 C 701.542969 166.839844 704.078125 169.375 707.207031 169.375 C 710.332031 169.375 712.871094 166.839844 712.871094 163.710938 Z M 707.207031 147.746094 C 719.410156 119.625 740.316406 123.769531 740.316406 123.769531 C 738.847656 119.035156 732.828125 118.738281 732.828125 118.738281 C 719.441406 109.269531 711.199219 133.246094 711.199219 133.246094 C 712 120.515625 722.015625 112.816406 722.015625 112.816406 C 719.421875 110.152344 712.765625 112.816406 712.765625 112.816406 C 712.765625 112.816406 714.84375 99.796875 707.207031 99.796875 C 699.570312 99.796875 701.644531 112.816406 701.644531 112.816406 C 701.644531 112.816406 694.992188 110.152344 692.398438 112.816406 C 692.398438 112.816406 702.414062 120.515625 703.21875 133.246094 C 703.21875 133.246094 694.96875 109.269531 681.582031 118.738281 C 681.582031 118.738281 675.566406 119.035156 674.097656 123.769531 C 674.097656 123.769531 695.011719 119.625 707.207031 147.746094 Z M 707.207031 193.59375 C 706.90625 192.554688 706.75 191.953125 706.75 191.953125 C 706.796875 192.375 706.957031 192.933594 707.207031 193.59375 Z M 748.152344 235.972656 C 748.152344 235.972656 729.019531 226.214844 721.945312 218.5625 C 721.945312 218.5625 735.339844 238.269531 748.152344 235.972656 Z M 757.113281 235.054688 C 755.996094 241.261719 747.910156 246.191406 731.449219 235.054688 C 717.210938 225.417969 709.132812 200.242188 707.207031 193.59375 C 709.554688 199.75 720.183594 215.136719 728.054688 219.070312 C 736.773438 223.429688 758.035156 229.921875 757.113281 235.054688 Z M 760.394531 216.609375 C 760.394531 216.609375 739.5625 210.234375 731.199219 202.699219 C 729.929688 201.414062 729.210938 200.582031 729.210938 200.582031 C 729.75 201.292969 730.425781 201.996094 731.199219 202.699219 C 735.859375 207.402344 748.066406 218.226562 760.394531 216.609375 Z M 747.910156 220.523438 C 723.210938 211.808594 712.558594 175.96875 712.558594 175.96875 C 725.632812 195.824219 740.164062 197.28125 757.234375 203.574219 C 774.300781 209.871094 772.609375 229.238281 747.910156 220.523438 Z M 690.148438 262.308594 L 707.207031 302.632812 C 707.195312 302.566406 707.183594 302.398438 707.171875 302.160156 C 707.207031 302.402344 707.21875 302.566406 707.207031 302.632812 L 724.265625 262.308594 L 707.207031 221.984375 Z M 706.292969 193.59375 C 706.542969 192.933594 706.703125 192.375 706.75 191.953125 C 706.75 191.953125 706.59375 192.554688 706.292969 193.59375 Z M 691.554688 218.5625 C 684.480469 226.214844 665.347656 235.972656 665.347656 235.972656 C 678.160156 238.269531 691.554688 218.5625 691.554688 218.5625 Z M 706.292969 193.59375 C 704.363281 200.242188 696.289062 225.417969 682.050781 235.054688 C 665.585938 246.191406 657.503906 241.261719 656.382812 235.054688 C 655.457031 229.921875 676.722656 223.429688 685.445312 219.070312 C 693.3125 215.136719 703.945312 199.75 706.292969 193.59375 Z M 682.300781 202.699219 C 683.074219 201.996094 683.75 201.292969 684.28125 200.582031 C 684.28125 200.582031 683.570312 201.414062 682.300781 202.699219 C 673.929688 210.234375 653.105469 216.609375 653.105469 216.609375 C 665.433594 218.226562 677.636719 207.402344 682.300781 202.699219 Z M 665.585938 220.523438 C 640.890625 229.238281 639.199219 209.871094 656.265625 203.574219 C 673.335938 197.28125 687.859375 195.824219 700.941406 175.96875 C 700.941406 175.96875 690.28125 211.808594 665.585938 220.523438 Z M 1013.226562 135.492188 L 1019.925781 107.460938 C 1010.09375 119.179688 1013.226562 135.492188 1013.226562 135.492188 Z M 1011.660156 141.054688 C 1011.660156 141.054688 979.316406 123.246094 1026.984375 95.007812 C 1026.984375 95.007812 1026.554688 116.140625 1026.984375 123.378906 C 1027.40625 130.613281 1023.542969 142.445312 1016.769531 144.230469 C 1016.769531 144.230469 1002.777344 167.792969 987.164062 174.304688 C 1000.558594 176.492188 1012.867188 183.777344 1021.246094 193.542969 C 1031.753906 199.34375 1046.578125 206.367188 1058.050781 206.367188 C 1077.203125 206.367188 1069.542969 190.621094 1069.542969 190.621094 C 1069.542969 190.621094 1066.566406 195.304688 1062.304688 193.175781 C 1058.050781 191.050781 1061.074219 180.410156 1071.058594 180.410156 C 1081.035156 180.410156 1081.882812 210.523438 1061.027344 210.363281 C 1049.394531 210.269531 1034.3125 202.699219 1023.25 196.015625 C 1031.042969 206.292969 1034.5625 218.875 1030.808594 231.054688 C 1022.300781 258.71875 971.652344 258.71875 969.953125 234.457031 C 968.246094 210.199219 985.695312 200.410156 996.339844 203.390625 C 1006.980469 206.367188 999.316406 222.96875 991.65625 218.789062 C 983.996094 214.609375 991.65625 210.453125 991.65625 210.453125 C 975.0625 210.707031 966.121094 234.457031 983.996094 245.167969 C 1001.871094 255.886719 1027.40625 241.265625 1023.578125 214.453125 C 1019.746094 187.640625 990.804688 174.871094 946.96875 183.246094 C 903.132812 191.621094 875.527344 167.195312 877.597656 168.53125 C 896.828125 180.902344 939.734375 173.617188 978.886719 173.617188 C 980.351562 173.617188 981.808594 173.703125 983.257812 173.832031 C 990.773438 168.992188 1008.019531 156.445312 1011.660156 141.054688 Z M 1046.984375 231.210938 C 1046.984375 231.210938 1048.71875 263.828125 1062.109375 262.550781 C 1075.5 261.273438 1066.988281 235.625 1046.984375 231.210938 Z M 1027.011719 254.035156 C 1031.238281 261.273438 1042.996094 249.433594 1037.199219 231.210938 C 1037.199219 231.210938 1022.789062 246.800781 1027.011719 254.035156 Z M 1046.984375 217.007812 C 1046.984375 217.007812 1068.664062 239.246094 1075.925781 228.070312 C 1083.398438 216.582031 1056.773438 222.261719 1046.984375 217.007812 Z M 949.195312 173.601562 C 1005.054688 165.085938 992.082031 103.800781 982.71875 107.632812 C 973.355469 111.460938 982.71875 129.335938 976.332031 146.359375 C 969.953125 163.382812 945.484375 174.160156 949.195312 173.601562 Z M 920.375 199.136719 C 920.375 199.136719 946.121094 218.714844 945.265625 245.949219 C 944.414062 273.191406 911.21875 275.316406 908.664062 286.378906 C 906.109375 297.449219 932.277344 289.664062 945.289062 261.273438 C 961.867188 225.09375 920.375 199.136719 920.375 199.136719 Z M 928.671875 225.09375 C 915.046875 188.917969 872.058594 191.050781 852.0625 166.363281 C 851.097656 165.171875 862.273438 181.96875 886.105469 196.085938 C 909.941406 210.199219 921.433594 226.371094 922.710938 242.972656 C 923.988281 259.566406 902.707031 271.273438 887.382812 262.550781 C 875.902344 256.007812 877.644531 244.671875 887.40625 242.117188 C 887.40625 242.117188 884.40625 248.925781 893.769531 249.355469 C 903.132812 249.78125 902.707031 227.648438 884.835938 232.332031 C 866.957031 237.011719 869.511719 266.804688 889.9375 270.636719 C 910.363281 274.460938 942.289062 261.273438 928.671875 225.09375 Z M 764.335938 114.390625 L 764.34375 114.378906 C 764.445312 114.171875 764.535156 114.003906 764.601562 113.886719 L 778.878906 86.800781 C 767.464844 93.953125 764.335938 114.390625 764.335938 114.390625 Z M 762.285156 120.667969 C 760.609375 118.304688 738.207031 85.132812 789.496094 75.289062 C 789.496094 75.289062 782.6875 91.882812 781.832031 102.523438 C 780.984375 113.164062 777.398438 119.511719 762.378906 120.804688 C 762.335938 120.925781 762.273438 121.058594 762.226562 121.1875 C 762.246094 121.007812 762.269531 120.828125 762.285156 120.667969 Z M 825.589844 183.246094 C 825.589844 183.246094 826.039062 213.640625 856.863281 217.007812 C 856.863281 217.007812 837.207031 210.449219 825.589844 183.246094 Z M 726.863281 166.058594 C 734.257812 158.363281 757.40625 133.648438 762.226562 121.1875 C 761.714844 125.863281 759.4375 136.949219 749.546875 150.664062 C 761.488281 143.890625 776.816406 136.949219 793.5625 133.390625 C 832.535156 125.105469 859.332031 135.335938 869.078125 104.644531 C 878.816406 73.953125 838.871094 72.976562 832.050781 83.210938 C 825.230469 93.441406 830.589844 106.59375 839.355469 108.539062 C 839.355469 108.539062 834.484375 99.773438 842.765625 98.316406 C 851.050781 96.851562 855.4375 110.980469 845.207031 116.335938 C 834.976562 121.695312 820.84375 112.441406 824.253906 91.488281 C 827.664062 70.542969 852.027344 71.519531 862.257812 75.414062 C 872.488281 79.3125 879.792969 96.363281 868.585938 116.335938 C 861.597656 128.800781 837.929688 134.054688 815.3125 138.730469 C 830.484375 139.128906 850.484375 141.550781 874.222656 148.914062 C 929.09375 165.9375 952.074219 158.664062 960.589844 143.789062 C 969.101562 128.910156 964.84375 100.816406 942.710938 100.816406 C 920.578125 100.816406 929.519531 119.9375 936.757812 120.804688 C 936.757812 120.804688 937.179688 113.8125 942.710938 113.703125 C 948.246094 113.585938 952.929688 132.789062 938.457031 129.789062 C 923.988281 126.78125 918.203125 105.910156 931.949219 98.042969 C 945.691406 90.183594 969.101562 96.992188 972.078125 125.503906 C 975.0625 154.019531 952.097656 166.226562 920.375 168.421875 C 891.390625 170.425781 835.265625 144.046875 791.03125 144.15625 C 788.863281 144.742188 786.792969 145.347656 784.851562 145.988281 C 797.019531 148.628906 814.074219 155.261719 824.820312 171.894531 C 824.820312 171.894531 839.292969 169.039062 846.953125 186.003906 C 854.609375 202.964844 868.292969 217.007812 874.222656 219.136719 C 874.222656 219.136719 849.507812 228.070312 832.480469 215.730469 C 815.457031 203.390625 818.4375 173.171875 818.4375 173.171875 C 818.4375 173.171875 800.757812 153.195312 772.121094 151.121094 C 750.515625 160.277344 729.152344 168.792969 724.59375 168.410156 C 724.351562 168.386719 725.171875 167.515625 726.863281 166.058594 Z M 773.585938 161.648438 C 761.40625 162.617188 739.96875 174.804688 721.945312 167.492188 C 721.945312 167.492188 732.175781 175.773438 757.027344 170.414062 C 781.867188 165.058594 802.328125 167.003906 802.816406 188.929688 C 803.304688 210.851562 779.433594 211.824219 772.613281 202.570312 C 765.792969 193.316406 775.53125 184.230469 780.40625 187.796875 C 780.40625 187.796875 778.945312 194.289062 786.253906 192.824219 C 793.5625 191.363281 793.5625 178.699219 778.457031 181.625 C 763.355469 184.542969 762.378906 201.941406 775.53125 208.101562 C 788.6875 214.261719 807.203125 208.585938 806.714844 187.796875 C 806.230469 167.003906 785.769531 160.671875 773.585938 161.648438 Z M 651.277344 113.886719 C 651.347656 114.003906 651.433594 114.171875 651.539062 114.378906 L 651.550781 114.390625 C 651.550781 114.390625 648.417969 93.953125 637.003906 86.800781 Z M 653.597656 120.667969 C 653.613281 120.828125 653.636719 121.007812 653.65625 121.1875 C 653.601562 121.058594 653.542969 120.925781 653.5 120.804688 C 638.480469 119.511719 634.898438 113.164062 634.046875 102.523438 C 633.191406 91.882812 626.382812 75.289062 626.382812 75.289062 C 677.675781 85.132812 655.273438 118.304688 653.597656 120.667969 Z M 353.773438 262.550781 C 367.164062 263.828125 368.898438 231.210938 368.898438 231.210938 C 348.894531 235.625 340.378906 261.273438 353.773438 262.550781 Z M 388.867188 254.035156 C 393.09375 246.800781 378.683594 231.210938 378.683594 231.210938 C 372.886719 249.433594 384.644531 261.273438 388.867188 254.035156 Z M 339.957031 228.070312 C 347.21875 239.246094 368.898438 217.007812 368.898438 217.007812 C 359.109375 222.261719 332.484375 216.582031 339.957031 228.070312 Z M 395.957031 107.460938 L 402.660156 135.492188 C 402.660156 135.492188 405.789062 119.179688 395.957031 107.460938 Z M 344.824219 180.410156 C 354.808594 180.410156 357.828125 191.050781 353.574219 193.175781 C 349.320312 195.304688 346.339844 190.621094 346.339844 190.621094 C 346.339844 190.621094 338.679688 206.367188 357.828125 206.367188 C 369.304688 206.367188 384.128906 199.34375 394.636719 193.542969 C 403.011719 183.777344 415.324219 176.492188 428.71875 174.304688 C 413.105469 167.792969 399.113281 144.230469 399.113281 144.230469 C 392.335938 142.445312 388.476562 130.613281 388.898438 123.378906 C 389.324219 116.140625 388.898438 95.007812 388.898438 95.007812 C 436.566406 123.246094 404.222656 141.054688 404.222656 141.054688 C 407.855469 156.445312 425.109375 168.992188 432.625 173.832031 C 434.074219 173.703125 435.53125 173.617188 436.992188 173.617188 C 476.148438 173.617188 519.054688 180.902344 538.285156 168.53125 C 540.351562 167.195312 512.746094 191.621094 468.910156 183.246094 C 425.074219 174.871094 396.132812 187.640625 392.300781 214.453125 C 388.476562 241.265625 414.011719 255.886719 431.882812 245.167969 C 449.761719 234.457031 440.828125 210.707031 424.226562 210.453125 C 424.226562 210.453125 431.882812 214.609375 424.226562 218.789062 C 416.566406 222.96875 408.902344 206.367188 419.542969 203.390625 C 430.183594 200.410156 447.628906 210.199219 445.929688 234.457031 C 444.226562 258.71875 393.578125 258.71875 385.070312 231.054688 C 381.324219 218.875 384.839844 206.292969 392.625 196.015625 C 381.570312 202.699219 366.488281 210.269531 354.851562 210.363281 C 334 210.523438 334.847656 180.410156 344.824219 180.410156 Z M 466.679688 173.601562 C 470.398438 174.160156 445.929688 163.382812 439.542969 146.359375 C 433.160156 129.335938 442.527344 111.460938 433.160156 107.632812 C 423.796875 103.800781 410.828125 165.085938 466.679688 173.601562 Z M 590.292969 183.246094 C 578.675781 210.449219 559.015625 217.007812 559.015625 217.007812 C 589.84375 213.640625 590.292969 183.246094 590.292969 183.246094 Z M 443.804688 125.503906 C 446.78125 96.992188 470.1875 90.183594 483.933594 98.042969 C 497.679688 105.910156 491.894531 126.78125 477.425781 129.789062 C 462.957031 132.789062 467.632812 113.585938 473.171875 113.703125 C 478.703125 113.8125 479.125 120.804688 479.125 120.804688 C 486.363281 119.9375 495.304688 100.816406 473.171875 100.816406 C 451.039062 100.816406 446.78125 128.910156 455.292969 143.789062 C 463.808594 158.664062 486.789062 165.9375 541.660156 148.914062 C 565.398438 141.550781 585.398438 139.128906 600.570312 138.730469 C 577.953125 134.054688 554.285156 128.800781 547.296875 116.335938 C 536.085938 96.363281 543.394531 79.3125 553.628906 75.414062 C 563.859375 71.519531 588.21875 70.542969 591.628906 91.488281 C 595.039062 112.441406 580.90625 121.695312 570.675781 116.335938 C 560.445312 110.980469 564.832031 96.851562 573.113281 98.316406 C 581.398438 99.773438 576.523438 108.539062 576.523438 108.539062 C 585.292969 106.59375 590.652344 93.441406 583.832031 83.210938 C 577.011719 72.976562 537.066406 73.953125 546.804688 104.644531 C 556.550781 135.335938 583.34375 125.105469 622.320312 133.390625 C 639.066406 136.949219 654.394531 143.890625 666.335938 150.664062 C 656.445312 136.949219 654.167969 125.863281 653.65625 121.1875 C 658.476562 133.648438 681.625 158.363281 689.015625 166.058594 C 690.710938 167.515625 691.53125 168.386719 691.289062 168.410156 C 686.722656 168.792969 665.363281 160.277344 643.757812 151.121094 C 615.125 153.195312 597.441406 173.171875 597.441406 173.171875 C 597.441406 173.171875 600.425781 203.390625 583.398438 215.730469 C 566.375 228.070312 541.660156 219.136719 541.660156 219.136719 C 547.589844 217.007812 561.273438 202.964844 568.929688 186.003906 C 576.589844 169.039062 591.0625 171.894531 591.0625 171.894531 C 601.808594 155.261719 618.863281 148.628906 631.03125 145.988281 C 629.089844 145.347656 627.019531 144.742188 624.851562 144.15625 C 580.617188 144.046875 524.492188 170.425781 495.503906 168.421875 C 463.785156 166.226562 440.828125 154.019531 443.804688 125.503906 Z M 470.617188 245.949219 C 469.761719 218.714844 495.503906 199.136719 495.503906 199.136719 C 495.503906 199.136719 454.015625 225.09375 470.59375 261.273438 C 483.609375 289.664062 509.769531 297.449219 507.214844 286.378906 C 504.660156 275.316406 471.464844 273.191406 470.617188 245.949219 Z M 531.046875 232.332031 C 513.175781 227.648438 512.746094 249.78125 522.113281 249.355469 C 531.476562 248.925781 528.476562 242.117188 528.476562 242.117188 C 538.238281 244.671875 539.976562 256.007812 528.5 262.550781 C 513.175781 271.273438 491.894531 259.566406 493.171875 242.972656 C 494.449219 226.371094 505.9375 210.199219 529.777344 196.085938 C 553.605469 181.96875 564.792969 165.171875 563.820312 166.363281 C 543.820312 191.050781 500.835938 188.917969 487.210938 225.09375 C 473.59375 261.273438 505.511719 274.460938 525.945312 270.636719 C 546.371094 266.804688 548.925781 237.011719 531.046875 232.332031 Z M 640.34375 208.101562 C 627.191406 214.261719 608.679688 208.585938 609.164062 187.796875 C 609.652344 167.003906 630.113281 160.671875 642.296875 161.648438 C 654.476562 162.617188 675.914062 174.804688 693.9375 167.492188 C 693.9375 167.492188 683.707031 175.773438 658.855469 170.414062 C 634.015625 165.058594 613.550781 167.003906 613.066406 188.929688 C 612.574219 210.851562 636.445312 211.824219 643.269531 202.570312 C 650.089844 193.316406 640.34375 184.230469 635.476562 187.796875 C 635.476562 187.796875 636.9375 194.289062 629.625 192.824219 C 622.320312 191.363281 622.320312 178.699219 637.425781 181.625 C 652.527344 184.542969 653.5 201.941406 640.34375 208.101562 Z M 640.34375 208.101562 " clip-rule="nonzero"/></clipPath><clipPath id="7c492229db"><path d="M 712.871094 163.710938 C 712.871094 160.582031 710.332031 158.046875 707.207031 158.046875 C 704.078125 158.046875 701.542969 160.582031 701.542969 163.710938 C 701.542969 166.839844 704.078125 169.375 707.207031 169.375 C 710.332031 169.375 712.871094 166.839844 712.871094 163.710938 Z M 707.207031 147.746094 C 719.410156 119.625 740.316406 123.769531 740.316406 123.769531 C 738.847656 119.035156 732.828125 118.738281 732.828125 118.738281 C 719.441406 109.269531 711.199219 133.246094 711.199219 133.246094 C 712 120.515625 722.015625 112.816406 722.015625 112.816406 C 719.421875 110.152344 712.765625 112.816406 712.765625 112.816406 C 712.765625 112.816406 714.84375 99.796875 707.207031 99.796875 C 699.570312 99.796875 701.644531 112.816406 701.644531 112.816406 C 701.644531 112.816406 694.992188 110.152344 692.398438 112.816406 C 692.398438 112.816406 702.414062 120.515625 703.21875 133.246094 C 703.21875 133.246094 694.96875 109.269531 681.582031 118.738281 C 681.582031 118.738281 675.566406 119.035156 674.097656 123.769531 C 674.097656 123.769531 695.011719 119.625 707.207031 147.746094 Z M 707.207031 193.59375 C 706.90625 192.554688 706.75 191.953125 706.75 191.953125 C 706.796875 192.375 706.957031 192.933594 707.207031 193.59375 Z M 748.152344 235.972656 C 748.152344 235.972656 729.019531 226.214844 721.945312 218.5625 C 721.945312 218.5625 735.339844 238.269531 748.152344 235.972656 Z M 757.113281 235.054688 C 755.996094 241.261719 747.910156 246.191406 731.449219 235.054688 C 717.210938 225.417969 709.132812 200.242188 707.207031 193.59375 C 709.554688 199.75 720.183594 215.136719 728.054688 219.070312 C 736.773438 223.429688 758.035156 229.921875 757.113281 235.054688 Z M 760.394531 216.609375 C 760.394531 216.609375 739.5625 210.234375 731.199219 202.699219 C 729.929688 201.414062 729.210938 200.582031 729.210938 200.582031 C 729.75 201.292969 730.425781 201.996094 731.199219 202.699219 C 735.859375 207.402344 748.066406 218.226562 760.394531 216.609375 Z M 747.910156 220.523438 C 723.210938 211.808594 712.558594 175.96875 712.558594 175.96875 C 725.632812 195.824219 740.164062 197.28125 757.234375 203.574219 C 774.300781 209.871094 772.609375 229.238281 747.910156 220.523438 Z M 690.148438 262.308594 L 707.207031 302.632812 C 707.195312 302.566406 707.183594 302.398438 707.171875 302.160156 C 707.207031 302.402344 707.21875 302.566406 707.207031 302.632812 L 724.265625 262.308594 L 707.207031 221.984375 Z M 706.292969 193.59375 C 706.542969 192.933594 706.703125 192.375 706.75 191.953125 C 706.75 191.953125 706.59375 192.554688 706.292969 193.59375 Z M 691.554688 218.5625 C 684.480469 226.214844 665.347656 235.972656 665.347656 235.972656 C 678.160156 238.269531 691.554688 218.5625 691.554688 218.5625 Z M 706.292969 193.59375 C 704.363281 200.242188 696.289062 225.417969 682.050781 235.054688 C 665.585938 246.191406 657.503906 241.261719 656.382812 235.054688 C 655.457031 229.921875 676.722656 223.429688 685.445312 219.070312 C 693.3125 215.136719 703.945312 199.75 706.292969 193.59375 Z M 682.300781 202.699219 C 683.074219 201.996094 683.75 201.292969 684.28125 200.582031 C 684.28125 200.582031 683.570312 201.414062 682.300781 202.699219 C 673.929688 210.234375 653.105469 216.609375 653.105469 216.609375 C 665.433594 218.226562 677.636719 207.402344 682.300781 202.699219 Z M 665.585938 220.523438 C 640.890625 229.238281 639.199219 209.871094 656.265625 203.574219 C 673.335938 197.28125 687.859375 195.824219 700.941406 175.96875 C 700.941406 175.96875 690.28125 211.808594 665.585938 220.523438 Z M 1013.226562 135.492188 L 1019.925781 107.460938 C 1010.09375 119.179688 1013.226562 135.492188 1013.226562 135.492188 Z M 1011.660156 141.054688 C 1011.660156 141.054688 979.316406 123.246094 1026.984375 95.007812 C 1026.984375 95.007812 1026.554688 116.140625 1026.984375 123.378906 C 1027.40625 130.613281 1023.542969 142.445312 1016.769531 144.230469 C 1016.769531 144.230469 1002.777344 167.792969 987.164062 174.304688 C 1000.558594 176.492188 1012.867188 183.777344 1021.246094 193.542969 C 1031.753906 199.34375 1046.578125 206.367188 1058.050781 206.367188 C 1077.203125 206.367188 1069.542969 190.621094 1069.542969 190.621094 C 1069.542969 190.621094 1066.566406 195.304688 1062.304688 193.175781 C 1058.050781 191.050781 1061.074219 180.410156 1071.058594 180.410156 C 1081.035156 180.410156 1081.882812 210.523438 1061.027344 210.363281 C 1049.394531 210.269531 1034.3125 202.699219 1023.25 196.015625 C 1031.042969 206.292969 1034.5625 218.875 1030.808594 231.054688 C 1022.300781 258.71875 971.652344 258.71875 969.953125 234.457031 C 968.246094 210.199219 985.695312 200.410156 996.339844 203.390625 C 1006.980469 206.367188 999.316406 222.96875 991.65625 218.789062 C 983.996094 214.609375 991.65625 210.453125 991.65625 210.453125 C 975.0625 210.707031 966.121094 234.457031 983.996094 245.167969 C 1001.871094 255.886719 1027.40625 241.265625 1023.578125 214.453125 C 1019.746094 187.640625 990.804688 174.871094 946.96875 183.246094 C 903.132812 191.621094 875.527344 167.195312 877.597656 168.53125 C 896.828125 180.902344 939.734375 173.617188 978.886719 173.617188 C 980.351562 173.617188 981.808594 173.703125 983.257812 173.832031 C 990.773438 168.992188 1008.019531 156.445312 1011.660156 141.054688 Z M 1046.984375 231.210938 C 1046.984375 231.210938 1048.71875 263.828125 1062.109375 262.550781 C 1075.5 261.273438 1066.988281 235.625 1046.984375 231.210938 Z M 1027.011719 254.035156 C 1031.238281 261.273438 1042.996094 249.433594 1037.199219 231.210938 C 1037.199219 231.210938 1022.789062 246.800781 1027.011719 254.035156 Z M 1046.984375 217.007812 C 1046.984375 217.007812 1068.664062 239.246094 1075.925781 228.070312 C 1083.398438 216.582031 1056.773438 222.261719 1046.984375 217.007812 Z M 949.195312 173.601562 C 1005.054688 165.085938 992.082031 103.800781 982.71875 107.632812 C 973.355469 111.460938 982.71875 129.335938 976.332031 146.359375 C 969.953125 163.382812 945.484375 174.160156 949.195312 173.601562 Z M 920.375 199.136719 C 920.375 199.136719 946.121094 218.714844 945.265625 245.949219 C 944.414062 273.191406 911.21875 275.316406 908.664062 286.378906 C 906.109375 297.449219 932.277344 289.664062 945.289062 261.273438 C 961.867188 225.09375 920.375 199.136719 920.375 199.136719 Z M 928.671875 225.09375 C 915.046875 188.917969 872.058594 191.050781 852.0625 166.363281 C 851.097656 165.171875 862.273438 181.96875 886.105469 196.085938 C 909.941406 210.199219 921.433594 226.371094 922.710938 242.972656 C 923.988281 259.566406 902.707031 271.273438 887.382812 262.550781 C 875.902344 256.007812 877.644531 244.671875 887.40625 242.117188 C 887.40625 242.117188 884.40625 248.925781 893.769531 249.355469 C 903.132812 249.78125 902.707031 227.648438 884.835938 232.332031 C 866.957031 237.011719 869.511719 266.804688 889.9375 270.636719 C 910.363281 274.460938 942.289062 261.273438 928.671875 225.09375 Z M 764.335938 114.390625 L 764.34375 114.378906 C 764.445312 114.171875 764.535156 114.003906 764.601562 113.886719 L 778.878906 86.800781 C 767.464844 93.953125 764.335938 114.390625 764.335938 114.390625 Z M 762.285156 120.667969 C 760.609375 118.304688 738.207031 85.132812 789.496094 75.289062 C 789.496094 75.289062 782.6875 91.882812 781.832031 102.523438 C 780.984375 113.164062 777.398438 119.511719 762.378906 120.804688 C 762.335938 120.925781 762.273438 121.058594 762.226562 121.1875 C 762.246094 121.007812 762.269531 120.828125 762.285156 120.667969 Z M 825.589844 183.246094 C 825.589844 183.246094 826.039062 213.640625 856.863281 217.007812 C 856.863281 217.007812 837.207031 210.449219 825.589844 183.246094 Z M 726.863281 166.058594 C 734.257812 158.363281 757.40625 133.648438 762.226562 121.1875 C 761.714844 125.863281 759.4375 136.949219 749.546875 150.664062 C 761.488281 143.890625 776.816406 136.949219 793.5625 133.390625 C 832.535156 125.105469 859.332031 135.335938 869.078125 104.644531 C 878.816406 73.953125 838.871094 72.976562 832.050781 83.210938 C 825.230469 93.441406 830.589844 106.59375 839.355469 108.539062 C 839.355469 108.539062 834.484375 99.773438 842.765625 98.316406 C 851.050781 96.851562 855.4375 110.980469 845.207031 116.335938 C 834.976562 121.695312 820.84375 112.441406 824.253906 91.488281 C 827.664062 70.542969 852.027344 71.519531 862.257812 75.414062 C 872.488281 79.3125 879.792969 96.363281 868.585938 116.335938 C 861.597656 128.800781 837.929688 134.054688 815.3125 138.730469 C 830.484375 139.128906 850.484375 141.550781 874.222656 148.914062 C 929.09375 165.9375 952.074219 158.664062 960.589844 143.789062 C 969.101562 128.910156 964.84375 100.816406 942.710938 100.816406 C 920.578125 100.816406 929.519531 119.9375 936.757812 120.804688 C 936.757812 120.804688 937.179688 113.8125 942.710938 113.703125 C 948.246094 113.585938 952.929688 132.789062 938.457031 129.789062 C 923.988281 126.78125 918.203125 105.910156 931.949219 98.042969 C 945.691406 90.183594 969.101562 96.992188 972.078125 125.503906 C 975.0625 154.019531 952.097656 166.226562 920.375 168.421875 C 891.390625 170.425781 835.265625 144.046875 791.03125 144.15625 C 788.863281 144.742188 786.792969 145.347656 784.851562 145.988281 C 797.019531 148.628906 814.074219 155.261719 824.820312 171.894531 C 824.820312 171.894531 839.292969 169.039062 846.953125 186.003906 C 854.609375 202.964844 868.292969 217.007812 874.222656 219.136719 C 874.222656 219.136719 849.507812 228.070312 832.480469 215.730469 C 815.457031 203.390625 818.4375 173.171875 818.4375 173.171875 C 818.4375 173.171875 800.757812 153.195312 772.121094 151.121094 C 750.515625 160.277344 729.152344 168.792969 724.59375 168.410156 C 724.351562 168.386719 725.171875 167.515625 726.863281 166.058594 Z M 773.585938 161.648438 C 761.40625 162.617188 739.96875 174.804688 721.945312 167.492188 C 721.945312 167.492188 732.175781 175.773438 757.027344 170.414062 C 781.867188 165.058594 802.328125 167.003906 802.816406 188.929688 C 803.304688 210.851562 779.433594 211.824219 772.613281 202.570312 C 765.792969 193.316406 775.53125 184.230469 780.40625 187.796875 C 780.40625 187.796875 778.945312 194.289062 786.253906 192.824219 C 793.5625 191.363281 793.5625 178.699219 778.457031 181.625 C 763.355469 184.542969 762.378906 201.941406 775.53125 208.101562 C 788.6875 214.261719 807.203125 208.585938 806.714844 187.796875 C 806.230469 167.003906 785.769531 160.671875 773.585938 161.648438 Z M 651.277344 113.886719 C 651.347656 114.003906 651.433594 114.171875 651.539062 114.378906 L 651.550781 114.390625 C 651.550781 114.390625 648.417969 93.953125 637.003906 86.800781 Z M 653.597656 120.667969 C 653.613281 120.828125 653.636719 121.007812 653.65625 121.1875 C 653.601562 121.058594 653.542969 120.925781 653.5 120.804688 C 638.480469 119.511719 634.898438 113.164062 634.046875 102.523438 C 633.191406 91.882812 626.382812 75.289062 626.382812 75.289062 C 677.675781 85.132812 655.273438 118.304688 653.597656 120.667969 Z M 353.773438 262.550781 C 367.164062 263.828125 368.898438 231.210938 368.898438 231.210938 C 348.894531 235.625 340.378906 261.273438 353.773438 262.550781 Z M 388.867188 254.035156 C 393.09375 246.800781 378.683594 231.210938 378.683594 231.210938 C 372.886719 249.433594 384.644531 261.273438 388.867188 254.035156 Z M 339.957031 228.070312 C 347.21875 239.246094 368.898438 217.007812 368.898438 217.007812 C 359.109375 222.261719 332.484375 216.582031 339.957031 228.070312 Z M 395.957031 107.460938 L 402.660156 135.492188 C 402.660156 135.492188 405.789062 119.179688 395.957031 107.460938 Z M 344.824219 180.410156 C 354.808594 180.410156 357.828125 191.050781 353.574219 193.175781 C 349.320312 195.304688 346.339844 190.621094 346.339844 190.621094 C 346.339844 190.621094 338.679688 206.367188 357.828125 206.367188 C 369.304688 206.367188 384.128906 199.34375 394.636719 193.542969 C 403.011719 183.777344 415.324219 176.492188 428.71875 174.304688 C 413.105469 167.792969 399.113281 144.230469 399.113281 144.230469 C 392.335938 142.445312 388.476562 130.613281 388.898438 123.378906 C 389.324219 116.140625 388.898438 95.007812 388.898438 95.007812 C 436.566406 123.246094 404.222656 141.054688 404.222656 141.054688 C 407.855469 156.445312 425.109375 168.992188 432.625 173.832031 C 434.074219 173.703125 435.53125 173.617188 436.992188 173.617188 C 476.148438 173.617188 519.054688 180.902344 538.285156 168.53125 C 540.351562 167.195312 512.746094 191.621094 468.910156 183.246094 C 425.074219 174.871094 396.132812 187.640625 392.300781 214.453125 C 388.476562 241.265625 414.011719 255.886719 431.882812 245.167969 C 449.761719 234.457031 440.828125 210.707031 424.226562 210.453125 C 424.226562 210.453125 431.882812 214.609375 424.226562 218.789062 C 416.566406 222.96875 408.902344 206.367188 419.542969 203.390625 C 430.183594 200.410156 447.628906 210.199219 445.929688 234.457031 C 444.226562 258.71875 393.578125 258.71875 385.070312 231.054688 C 381.324219 218.875 384.839844 206.292969 392.625 196.015625 C 381.570312 202.699219 366.488281 210.269531 354.851562 210.363281 C 334 210.523438 334.847656 180.410156 344.824219 180.410156 Z M 466.679688 173.601562 C 470.398438 174.160156 445.929688 163.382812 439.542969 146.359375 C 433.160156 129.335938 442.527344 111.460938 433.160156 107.632812 C 423.796875 103.800781 410.828125 165.085938 466.679688 173.601562 Z M 590.292969 183.246094 C 578.675781 210.449219 559.015625 217.007812 559.015625 217.007812 C 589.84375 213.640625 590.292969 183.246094 590.292969 183.246094 Z M 443.804688 125.503906 C 446.78125 96.992188 470.1875 90.183594 483.933594 98.042969 C 497.679688 105.910156 491.894531 126.78125 477.425781 129.789062 C 462.957031 132.789062 467.632812 113.585938 473.171875 113.703125 C 478.703125 113.8125 479.125 120.804688 479.125 120.804688 C 486.363281 119.9375 495.304688 100.816406 473.171875 100.816406 C 451.039062 100.816406 446.78125 128.910156 455.292969 143.789062 C 463.808594 158.664062 486.789062 165.9375 541.660156 148.914062 C 565.398438 141.550781 585.398438 139.128906 600.570312 138.730469 C 577.953125 134.054688 554.285156 128.800781 547.296875 116.335938 C 536.085938 96.363281 543.394531 79.3125 553.628906 75.414062 C 563.859375 71.519531 588.21875 70.542969 591.628906 91.488281 C 595.039062 112.441406 580.90625 121.695312 570.675781 116.335938 C 560.445312 110.980469 564.832031 96.851562 573.113281 98.316406 C 581.398438 99.773438 576.523438 108.539062 576.523438 108.539062 C 585.292969 106.59375 590.652344 93.441406 583.832031 83.210938 C 577.011719 72.976562 537.066406 73.953125 546.804688 104.644531 C 556.550781 135.335938 583.34375 125.105469 622.320312 133.390625 C 639.066406 136.949219 654.394531 143.890625 666.335938 150.664062 C 656.445312 136.949219 654.167969 125.863281 653.65625 121.1875 C 658.476562 133.648438 681.625 158.363281 689.015625 166.058594 C 690.710938 167.515625 691.53125 168.386719 691.289062 168.410156 C 686.722656 168.792969 665.363281 160.277344 643.757812 151.121094 C 615.125 153.195312 597.441406 173.171875 597.441406 173.171875 C 597.441406 173.171875 600.425781 203.390625 583.398438 215.730469 C 566.375 228.070312 541.660156 219.136719 541.660156 219.136719 C 547.589844 217.007812 561.273438 202.964844 568.929688 186.003906 C 576.589844 169.039062 591.0625 171.894531 591.0625 171.894531 C 601.808594 155.261719 618.863281 148.628906 631.03125 145.988281 C 629.089844 145.347656 627.019531 144.742188 624.851562 144.15625 C 580.617188 144.046875 524.492188 170.425781 495.503906 168.421875 C 463.785156 166.226562 440.828125 154.019531 443.804688 125.503906 Z M 470.617188 245.949219 C 469.761719 218.714844 495.503906 199.136719 495.503906 199.136719 C 495.503906 199.136719 454.015625 225.09375 470.59375 261.273438 C 483.609375 289.664062 509.769531 297.449219 507.214844 286.378906 C 504.660156 275.316406 471.464844 273.191406 470.617188 245.949219 Z M 531.046875 232.332031 C 513.175781 227.648438 512.746094 249.78125 522.113281 249.355469 C 531.476562 248.925781 528.476562 242.117188 528.476562 242.117188 C 538.238281 244.671875 539.976562 256.007812 528.5 262.550781 C 513.175781 271.273438 491.894531 259.566406 493.171875 242.972656 C 494.449219 226.371094 505.9375 210.199219 529.777344 196.085938 C 553.605469 181.96875 564.792969 165.171875 563.820312 166.363281 C 543.820312 191.050781 500.835938 188.917969 487.210938 225.09375 C 473.59375 261.273438 505.511719 274.460938 525.945312 270.636719 C 546.371094 266.804688 548.925781 237.011719 531.046875 232.332031 Z M 640.34375 208.101562 C 627.191406 214.261719 608.679688 208.585938 609.164062 187.796875 C 609.652344 167.003906 630.113281 160.671875 642.296875 161.648438 C 654.476562 162.617188 675.914062 174.804688 693.9375 167.492188 C 693.9375 167.492188 683.707031 175.773438 658.855469 170.414062 C 634.015625 165.058594 613.550781 167.003906 613.066406 188.929688 C 612.574219 210.851562 636.445312 211.824219 643.269531 202.570312 C 650.089844 193.316406 640.34375 184.230469 635.476562 187.796875 C 635.476562 187.796875 636.9375 194.289062 629.625 192.824219 C 622.320312 191.363281 622.320312 178.699219 637.425781 181.625 C 652.527344 184.542969 653.5 201.941406 640.34375 208.101562 " clip-rule="nonzero"/></clipPath><clipPath id="939273da6f"><path d="M 1076.726562 331.636719 L 1086.859375 73.546875 L 339.15625 44.183594 L 329.023438 302.28125 Z M 1076.726562 331.636719 " clip-rule="nonzero"/></clipPath><radialGradient gradientTransform="matrix(-0.999233, -0.0392422, 0.0392425, -0.999226, 703.719544, 150.619075)" gradientUnits="userSpaceOnUse" r="321.407547" cx="0" id="b0cd5309c2" cy="0" fx="0" fy="0"><stop stop-opacity="1" stop-color="rgb(95.503235%, 88.804626%, 37.103271%)" offset="0"/><stop stop-opacity="1" stop-color="rgb(95.303345%, 88.60321%, 36.903381%)" offset="0.0078125"/><stop stop-opacity="1" stop-color="rgb(95.298767%, 88.598633%, 36.717224%)" offset="0.0117188"/><stop stop-opacity="1" stop-color="rgb(95.121765%, 88.421631%, 36.517334%)" offset="0.015625"/><stop stop-opacity="1" stop-color="rgb(94.900513%, 88.021851%, 36.499023%)" offset="0.0195312"/><stop stop-opacity="1" stop-color="rgb(94.659424%, 87.785339%, 36.482239%)" offset="0.0234375"/><stop stop-opacity="1" stop-color="rgb(94.281006%, 87.631226%, 36.282349%)" offset="0.0273438"/><stop stop-opacity="1" stop-color="rgb(94.099426%, 87.295532%, 36.099243%)" offset="0.03125"/><stop stop-opacity="1" stop-color="rgb(94.099426%, 87.098694%, 36.099243%)" offset="0.0429688"/><stop stop-opacity="1" stop-color="rgb(93.910217%, 87.098694%, 35.910034%)" offset="0.046875"/><stop stop-opacity="1" stop-color="rgb(93.710327%, 86.914062%, 35.710144%)" offset="0.0507812"/><stop stop-opacity="1" stop-color="rgb(93.699646%, 86.714172%, 35.519409%)" offset="0.0546875"/><stop stop-opacity="1" stop-color="rgb(93.699646%, 86.523438%, 35.319519%)" offset="0.0585938"/><stop stop-opacity="1" stop-color="rgb(93.499756%, 86.303711%, 35.27832%)" offset="0.0625"/><stop stop-opacity="1" stop-color="rgb(93.299866%, 86.077881%, 35.07843%)" offset="0.0664062"/><stop stop-opacity="1" stop-color="rgb(93.287659%, 85.888672%, 34.899902%)" offset="0.0703125"/><stop stop-opacity="1" stop-color="rgb(93.087769%, 85.688782%, 34.899902%)" offset="0.0742188"/><stop stop-opacity="1" stop-color="rgb(92.89856%, 85.499573%, 34.898376%)" offset="0.078125"/><stop stop-opacity="1" stop-color="rgb(92.89856%, 85.499573%, 34.701538%)" offset="0.0820312"/><stop stop-opacity="1" stop-color="rgb(92.89856%, 85.307312%, 34.501648%)" offset="0.0859375"/><stop stop-opacity="1" stop-color="rgb(92.710876%, 85.107422%, 34.310913%)" offset="0.0898438"/><stop stop-opacity="1" stop-color="rgb(92.510986%, 84.916687%, 34.111023%)" offset="0.09375"/><stop stop-opacity="1" stop-color="rgb(92.498779%, 84.715271%, 34.098816%)" offset="0.0976562"/><stop stop-opacity="1" stop-color="rgb(92.480469%, 84.498596%, 34.075928%)" offset="0.101562"/><stop stop-opacity="1" stop-color="rgb(92.330933%, 84.280396%, 33.876038%)" offset="0.105469"/><stop stop-opacity="1" stop-color="rgb(92.199707%, 84.080505%, 33.699036%)" offset="0.109375"/><stop stop-opacity="1" stop-color="rgb(92.199707%, 83.889771%, 33.68988%)" offset="0.113281"/><stop stop-opacity="1" stop-color="rgb(92.195129%, 83.68988%, 33.48999%)" offset="0.117188"/><stop stop-opacity="1" stop-color="rgb(91.995239%, 83.36792%, 33.16803%)" offset="0.121094"/><stop stop-opacity="1" stop-color="rgb(91.799927%, 83.172607%, 32.972717%)" offset="0.132812"/><stop stop-opacity="1" stop-color="rgb(91.618347%, 83.103943%, 32.904053%)" offset="0.136719"/><stop stop-opacity="1" stop-color="rgb(91.416931%, 82.922363%, 32.899475%)" offset="0.140625"/><stop stop-opacity="1" stop-color="rgb(91.19873%, 82.705688%, 32.876587%)" offset="0.144531"/><stop stop-opacity="1" stop-color="rgb(90.982056%, 82.531738%, 32.676697%)" offset="0.148438"/><stop stop-opacity="1" stop-color="rgb(90.782166%, 82.38678%, 32.499695%)" offset="0.152344"/><stop stop-opacity="1" stop-color="rgb(90.59906%, 82.18689%, 32.493591%)" offset="0.15625"/><stop stop-opacity="1" stop-color="rgb(90.59906%, 81.996155%, 32.342529%)" offset="0.160156"/><stop stop-opacity="1" stop-color="rgb(90.59906%, 81.797791%, 32.199097%)" offset="0.164062"/><stop stop-opacity="1" stop-color="rgb(90.405273%, 81.600952%, 32.199097%)" offset="0.167969"/><stop stop-opacity="1" stop-color="rgb(90.205383%, 81.410217%, 32.009888%)" offset="0.171875"/><stop stop-opacity="1" stop-color="rgb(90.19928%, 81.210327%, 31.809998%)" offset="0.175781"/><stop stop-opacity="1" stop-color="rgb(90.19928%, 81.019592%, 31.799316%)" offset="0.179688"/><stop stop-opacity="1" stop-color="rgb(90.023804%, 80.819702%, 31.799316%)" offset="0.183594"/><stop stop-opacity="1" stop-color="rgb(89.804077%, 80.59845%, 31.599426%)" offset="0.1875"/><stop stop-opacity="1" stop-color="rgb(89.578247%, 80.383301%, 31.399536%)" offset="0.191406"/><stop stop-opacity="1" stop-color="rgb(89.387512%, 80.183411%, 31.387329%)" offset="0.195312"/><stop stop-opacity="1" stop-color="rgb(89.187622%, 79.992676%, 31.187439%)" offset="0.199219"/><stop stop-opacity="1" stop-color="rgb(88.999939%, 79.792786%, 30.999756%)" offset="0.203125"/><stop stop-opacity="1" stop-color="rgb(88.999939%, 79.598999%, 30.999756%)" offset="0.207031"/><stop stop-opacity="1" stop-color="rgb(88.999939%, 79.406738%, 30.807495%)" offset="0.210938"/><stop stop-opacity="1" stop-color="rgb(88.812256%, 79.206848%, 30.607605%)" offset="0.214844"/><stop stop-opacity="1" stop-color="rgb(88.61084%, 79.016113%, 30.41687%)" offset="0.21875"/><stop stop-opacity="1" stop-color="rgb(88.598633%, 78.816223%, 30.215454%)" offset="0.222656"/><stop stop-opacity="1" stop-color="rgb(88.575745%, 78.599548%, 30.175781%)" offset="0.226562"/><stop stop-opacity="1" stop-color="rgb(88.375854%, 78.379822%, 29.975891%)" offset="0.230469"/><stop stop-opacity="1" stop-color="rgb(88.18512%, 78.179932%, 29.798889%)" offset="0.234375"/><stop stop-opacity="1" stop-color="rgb(87.985229%, 77.999878%, 29.798889%)" offset="0.238281"/><stop stop-opacity="1" stop-color="rgb(87.796021%, 77.993774%, 29.794312%)" offset="0.242188"/><stop stop-opacity="1" stop-color="rgb(87.646484%, 77.793884%, 29.594421%)" offset="0.246094"/><stop stop-opacity="1" stop-color="rgb(87.306213%, 77.453613%, 29.205322%)" offset="0.25"/><stop stop-opacity="1" stop-color="rgb(87.106323%, 77.116394%, 29.005432%)" offset="0.261719"/><stop stop-opacity="1" stop-color="rgb(87.001038%, 76.812744%, 28.900146%)" offset="0.269531"/><stop stop-opacity="1" stop-color="rgb(86.801147%, 76.591492%, 28.700256%)" offset="0.273438"/><stop stop-opacity="1" stop-color="rgb(86.694336%, 76.286316%, 28.594971%)" offset="0.277344"/><stop stop-opacity="1" stop-color="rgb(86.495972%, 75.895691%, 28.396606%)" offset="0.285156"/><stop stop-opacity="1" stop-color="rgb(86.299133%, 75.505066%, 28.005981%)" offset="0.292969"/><stop stop-opacity="1" stop-color="rgb(86.108398%, 75.114441%, 27.804565%)" offset="0.300781"/><stop stop-opacity="1" stop-color="rgb(85.809326%, 74.809265%, 27.723694%)" offset="0.308594"/><stop stop-opacity="1" stop-color="rgb(85.598755%, 74.598694%, 27.46582%)" offset="0.3125"/><stop stop-opacity="1" stop-color="rgb(85.395813%, 74.395752%, 27.191162%)" offset="0.320312"/><stop stop-opacity="1" stop-color="rgb(85.195923%, 74.098206%, 27.000427%)" offset="0.328125"/><stop stop-opacity="1" stop-color="rgb(85.005188%, 73.707581%, 26.800537%)" offset="0.335938"/><stop stop-opacity="1" stop-color="rgb(84.814453%, 73.414612%, 26.699829%)" offset="0.34375"/><stop stop-opacity="1" stop-color="rgb(84.707642%, 73.205566%, 26.699829%)" offset="0.347656"/><stop stop-opacity="1" stop-color="rgb(84.686279%, 72.98584%, 26.687622%)" offset="0.351562"/><stop stop-opacity="1" stop-color="rgb(84.480286%, 72.68219%, 26.480103%)" offset="0.355469"/><stop stop-opacity="1" stop-color="rgb(84.089661%, 72.340393%, 26.091003%)" offset="0.363281"/><stop stop-opacity="1" stop-color="rgb(83.699036%, 71.998596%, 25.898743%)" offset="0.371094"/><stop stop-opacity="1" stop-color="rgb(83.500671%, 71.607971%, 25.704956%)" offset="0.378906"/><stop stop-opacity="1" stop-color="rgb(83.309937%, 71.217346%, 25.505066%)" offset="0.386719"/><stop stop-opacity="1" stop-color="rgb(83.110046%, 71.009827%, 25.39978%)" offset="0.394531"/><stop stop-opacity="1" stop-color="rgb(82.992554%, 70.892334%, 25.19989%)" offset="0.398438"/><stop stop-opacity="1" stop-color="rgb(82.792664%, 70.591736%, 25.099182%)" offset="0.40625"/><stop stop-opacity="1" stop-color="rgb(82.626343%, 70.297241%, 25.001526%)" offset="0.414062"/><stop stop-opacity="1" stop-color="rgb(82.476807%, 70.106506%, 24.710083%)" offset="0.421875"/><stop stop-opacity="1" stop-color="rgb(82.398987%, 69.917297%, 24.417114%)" offset="0.429688"/><stop stop-opacity="1" stop-color="rgb(82.298279%, 69.709778%, 24.308777%)" offset="0.433594"/><stop stop-opacity="1" stop-color="rgb(82.098389%, 69.488525%, 24.28894%)" offset="0.4375"/><stop stop-opacity="1" stop-color="rgb(81.993103%, 69.18335%, 24.082947%)" offset="0.441406"/><stop stop-opacity="1" stop-color="rgb(81.793213%, 68.792725%, 23.692322%)" offset="0.449219"/><stop stop-opacity="1" stop-color="rgb(81.407166%, 68.406677%, 23.3078%)" offset="0.464844"/><stop stop-opacity="1" stop-color="rgb(81.207275%, 68.106079%, 23.10791%)" offset="0.472656"/><stop stop-opacity="1" stop-color="rgb(81.089783%, 67.814636%, 22.988892%)" offset="0.476562"/><stop stop-opacity="1" stop-color="rgb(80.784607%, 67.462158%, 22.789001%)" offset="0.484375"/><stop stop-opacity="1" stop-color="rgb(80.493164%, 67.094421%, 22.624207%)" offset="0.492188"/><stop stop-opacity="1" stop-color="rgb(80.39856%, 66.798401%, 22.47467%)" offset="0.5"/><stop stop-opacity="1" stop-color="rgb(80.212402%, 66.513062%, 22.399902%)" offset="0.507812"/><stop stop-opacity="1" stop-color="rgb(80.012512%, 66.313171%, 22.218323%)" offset="0.511719"/><stop stop-opacity="1" stop-color="rgb(79.821777%, 66.122437%, 22.016907%)" offset="0.515625"/><stop stop-opacity="1" stop-color="rgb(79.484558%, 65.783691%, 21.861267%)" offset="0.519531"/><stop stop-opacity="1" stop-color="rgb(79.26178%, 65.560913%, 21.661377%)" offset="0.53125"/><stop stop-opacity="1" stop-color="rgb(79.199219%, 65.306091%, 21.598816%)" offset="0.542969"/><stop stop-opacity="1" stop-color="rgb(79.01001%, 65.104675%, 21.598816%)" offset="0.546875"/><stop stop-opacity="1" stop-color="rgb(78.81012%, 64.91394%, 21.598816%)" offset="0.550781"/><stop stop-opacity="1" stop-color="rgb(78.799438%, 64.71405%, 21.418762%)" offset="0.554688"/><stop stop-opacity="1" stop-color="rgb(78.623962%, 64.523315%, 21.218872%)" offset="0.558594"/><stop stop-opacity="1" stop-color="rgb(78.40271%, 64.303589%, 21.179199%)" offset="0.5625"/><stop stop-opacity="1" stop-color="rgb(78.178406%, 64.073181%, 20.973206%)" offset="0.566406"/><stop stop-opacity="1" stop-color="rgb(77.807617%, 63.693237%, 20.593262%)" offset="0.578125"/><stop stop-opacity="1" stop-color="rgb(77.606201%, 63.311768%, 20.211792%)" offset="0.589844"/><stop stop-opacity="1" stop-color="rgb(77.598572%, 63.111877%, 20.011902%)" offset="0.59375"/><stop stop-opacity="1" stop-color="rgb(77.598572%, 62.921143%, 19.999695%)" offset="0.597656"/><stop stop-opacity="1" stop-color="rgb(77.449036%, 62.702942%, 19.799805%)" offset="0.601562"/><stop stop-opacity="1" stop-color="rgb(77.279663%, 62.532043%, 19.599915%)" offset="0.605469"/><stop stop-opacity="1" stop-color="rgb(77.079773%, 62.385559%, 19.584656%)" offset="0.609375"/><stop stop-opacity="1" stop-color="rgb(76.899719%, 62.185669%, 19.384766%)" offset="0.613281"/><stop stop-opacity="1" stop-color="rgb(76.899719%, 61.994934%, 19.198608%)" offset="0.617188"/><stop stop-opacity="1" stop-color="rgb(76.899719%, 61.795044%, 19.198608%)" offset="0.621094"/><stop stop-opacity="1" stop-color="rgb(76.704407%, 61.599731%, 19.003296%)" offset="0.625"/><stop stop-opacity="1" stop-color="rgb(76.504517%, 61.413574%, 18.803406%)" offset="0.628906"/><stop stop-opacity="1" stop-color="rgb(76.318359%, 61.032104%, 18.617249%)" offset="0.636719"/><stop stop-opacity="1" stop-color="rgb(75.941467%, 60.816956%, 18.417358%)" offset="0.640625"/><stop stop-opacity="1" stop-color="rgb(75.721741%, 60.588074%, 18.199158%)" offset="0.644531"/><stop stop-opacity="1" stop-color="rgb(75.692749%, 60.188293%, 17.993164%)" offset="0.648438"/><stop stop-opacity="1" stop-color="rgb(75.492859%, 59.997559%, 17.793274%)" offset="0.65625"/><stop stop-opacity="1" stop-color="rgb(75.299072%, 59.80072%, 17.599487%)" offset="0.664062"/><stop stop-opacity="1" stop-color="rgb(75.106812%, 59.410095%, 17.454529%)" offset="0.671875"/><stop stop-opacity="1" stop-color="rgb(74.906921%, 59.01947%, 17.304993%)" offset="0.679688"/><stop stop-opacity="1" stop-color="rgb(74.801636%, 58.714294%, 17.201233%)" offset="0.6875"/><stop stop-opacity="1" stop-color="rgb(74.594116%, 58.493042%, 17.001343%)" offset="0.691406"/><stop stop-opacity="1" stop-color="rgb(74.291992%, 58.190918%, 16.896057%)" offset="0.695312"/><stop stop-opacity="1" stop-color="rgb(74.099731%, 57.998657%, 16.697693%)" offset="0.703125"/><stop stop-opacity="1" stop-color="rgb(73.907471%, 57.806396%, 16.500854%)" offset="0.710938"/><stop stop-opacity="1" stop-color="rgb(73.707581%, 57.606506%, 16.316223%)" offset="0.714844"/><stop stop-opacity="1" stop-color="rgb(73.521423%, 57.4646%, 16.116333%)" offset="0.722656"/><stop stop-opacity="1" stop-color="rgb(73.309326%, 57.302856%, 15.887451%)" offset="0.726562"/><stop stop-opacity="1" stop-color="rgb(73.086548%, 57.080078%, 15.487671%)" offset="0.730469"/><stop stop-opacity="1" stop-color="rgb(72.895813%, 56.689453%, 15.296936%)" offset="0.738281"/><stop stop-opacity="1" stop-color="rgb(72.698975%, 56.298828%, 15.098572%)" offset="0.746094"/><stop stop-opacity="1" stop-color="rgb(72.50061%, 55.909729%, 14.900208%)" offset="0.753906"/><stop stop-opacity="1" stop-color="rgb(72.499084%, 55.708313%, 14.898682%)" offset="0.757812"/><stop stop-opacity="1" stop-color="rgb(72.499084%, 55.699158%, 14.717102%)" offset="0.761719"/><stop stop-opacity="1" stop-color="rgb(72.499084%, 55.699158%, 14.517212%)" offset="0.765625"/><stop stop-opacity="1" stop-color="rgb(72.348022%, 55.499268%, 14.477539%)" offset="0.769531"/><stop stop-opacity="1" stop-color="rgb(72.198486%, 55.299377%, 14.277649%)" offset="0.773438"/><stop stop-opacity="1" stop-color="rgb(72.186279%, 55.28717%, 14.099121%)" offset="0.777344"/><stop stop-opacity="1" stop-color="rgb(71.986389%, 55.079651%, 14.091492%)" offset="0.78125"/><stop stop-opacity="1" stop-color="rgb(71.795654%, 54.692078%, 13.891602%)" offset="0.785156"/><stop stop-opacity="1" stop-color="rgb(71.59729%, 54.499817%, 13.699341%)" offset="0.789062"/><stop stop-opacity="1" stop-color="rgb(71.400452%, 54.304504%, 13.504028%)" offset="0.792969"/><stop stop-opacity="1" stop-color="rgb(71.398926%, 54.103088%, 13.304138%)" offset="0.804688"/><stop stop-opacity="1" stop-color="rgb(71.398926%, 53.923035%, 13.299561%)" offset="0.808594"/><stop stop-opacity="1" stop-color="rgb(71.188354%, 53.713989%, 13.09967%)" offset="0.8125"/><stop stop-opacity="1" stop-color="rgb(70.788574%, 53.483582%, 12.89978%)" offset="0.816406"/><stop stop-opacity="1" stop-color="rgb(70.597839%, 53.092957%, 12.898254%)" offset="0.824219"/><stop stop-opacity="1" stop-color="rgb(70.402527%, 52.702332%, 12.702942%)" offset="0.832031"/><stop stop-opacity="1" stop-color="rgb(70.011902%, 52.359009%, 12.503052%)" offset="0.839844"/><stop stop-opacity="1" stop-color="rgb(69.807434%, 52.104187%, 12.5%)" offset="0.847656"/><stop stop-opacity="1" stop-color="rgb(69.787598%, 51.885986%, 12.5%)" offset="0.851562"/><stop stop-opacity="1" stop-color="rgb(69.584656%, 51.585388%, 12.348938%)" offset="0.855469"/><stop stop-opacity="1" stop-color="rgb(69.198608%, 51.199341%, 12.199402%)" offset="0.871094"/><stop stop-opacity="1" stop-color="rgb(69.000244%, 51.000977%, 12.199402%)" offset="0.878906"/><stop stop-opacity="1" stop-color="rgb(68.998718%, 50.813293%, 12.013245%)" offset="0.882812"/><stop stop-opacity="1" stop-color="rgb(68.817139%, 50.613403%, 11.813354%)" offset="0.886719"/><stop stop-opacity="1" stop-color="rgb(68.617249%, 50.59967%, 11.799622%)" offset="0.890625"/><stop stop-opacity="1" stop-color="rgb(68.598938%, 50.39978%, 11.799622%)" offset="0.894531"/><stop stop-opacity="1" stop-color="rgb(68.582153%, 50.18158%, 11.781311%)" offset="0.898438"/><stop stop-opacity="1" stop-color="rgb(68.382263%, 49.969482%, 11.581421%)" offset="0.902344"/><stop stop-opacity="1" stop-color="rgb(68.19458%, 49.581909%, 11.399841%)" offset="0.90625"/><stop stop-opacity="1" stop-color="rgb(67.996216%, 49.195862%, 11.399841%)" offset="0.910156"/><stop stop-opacity="1" stop-color="rgb(67.654419%, 48.999023%, 11.399841%)" offset="0.917969"/><stop stop-opacity="1" stop-color="rgb(67.503357%, 48.808289%, 11.399841%)" offset="0.925781"/><stop stop-opacity="1" stop-color="rgb(67.498779%, 48.509216%, 11.399841%)" offset="0.933594"/><stop stop-opacity="1" stop-color="rgb(67.478943%, 48.298645%, 11.399841%)" offset="0.9375"/><stop stop-opacity="1" stop-color="rgb(67.279053%, 48.182678%, 11.399841%)" offset="0.941406"/><stop stop-opacity="1" stop-color="rgb(67.098999%, 47.982788%, 11.399841%)" offset="0.945312"/><stop stop-opacity="1" stop-color="rgb(67.092896%, 47.795105%, 11.399841%)" offset="0.949219"/><stop stop-opacity="1" stop-color="rgb(66.891479%, 47.644043%, 11.399841%)" offset="0.953125"/><stop stop-opacity="1" stop-color="rgb(66.50238%, 47.302246%, 11.399841%)" offset="0.957031"/><stop stop-opacity="1" stop-color="rgb(66.30249%, 47.102356%, 11.399841%)" offset="0.964844"/><stop stop-opacity="1" stop-color="rgb(66.299438%, 46.920776%, 11.399841%)" offset="0.972656"/><stop stop-opacity="1" stop-color="rgb(66.099548%, 46.708679%, 11.399841%)" offset="0.976562"/><stop stop-opacity="1" stop-color="rgb(65.899658%, 46.577454%, 11.399841%)" offset="0.980469"/><stop stop-opacity="1" stop-color="rgb(65.884399%, 46.374512%, 11.399841%)" offset="0.984375"/><stop stop-opacity="1" stop-color="rgb(65.684509%, 46.084595%, 11.399841%)" offset="0.988281"/><stop stop-opacity="1" stop-color="rgb(65.499878%, 45.899963%, 11.399841%)" offset="1"/></radialGradient><clipPath id="ca1c646789"><path d="M 332.683594 71.027344 L 1084.46875 71.027344 L 1084.46875 304.15625 L 332.683594 304.15625 Z M 332.683594 71.027344 " clip-rule="nonzero"/></clipPath></defs><g clip-path="url(#0ec3d24620)"><g clip-path="url(#193181db4f)"><g clip-path="url(#7c492229db)"><g clip-path="url(#939273da6f)"><path fill="url(#b0cd5309c2)" d="M 1076.726562 331.644531 L 1086.863281 73.550781 L 339.15625 44.183594 L 329.019531 302.28125 Z M 1076.726562 331.644531 " fill-rule="nonzero"/></g></g></g></g><g clip-path="url(#ca1c646789)"><path fill="#100f0d" d="M 703.566406 163.023438 C 703.566406 159.84375 706.144531 157.265625 709.320312 157.265625 C 712.5 157.265625 715.078125 159.84375 715.078125 163.023438 C 715.078125 166.199219 712.5 168.78125 709.320312 168.78125 C 706.144531 168.78125 703.566406 166.199219 703.566406 163.023438 Z M 709.320312 146.796875 C 696.921875 118.21875 675.679688 122.429688 675.679688 122.429688 C 677.171875 117.621094 683.285156 117.3125 683.285156 117.3125 C 696.886719 107.691406 705.261719 132.058594 705.261719 132.058594 C 704.453125 119.121094 694.273438 111.296875 694.273438 111.296875 C 696.910156 108.589844 703.671875 111.296875 703.671875 111.296875 C 703.671875 111.296875 701.5625 98.0625 709.320312 98.0625 C 717.082031 98.0625 714.972656 111.296875 714.972656 111.296875 C 714.972656 111.296875 721.730469 108.589844 724.371094 111.296875 C 724.371094 111.296875 714.191406 119.121094 713.375 132.058594 C 713.375 132.058594 721.753906 107.691406 735.359375 117.3125 C 735.359375 117.3125 741.472656 117.621094 742.964844 122.429688 C 742.964844 122.429688 721.714844 118.21875 709.320312 146.796875 Z M 709.320312 193.394531 C 709.628906 192.335938 709.785156 191.726562 709.785156 191.726562 C 709.738281 192.15625 709.574219 192.722656 709.320312 193.394531 Z M 667.714844 236.464844 C 667.714844 236.464844 687.15625 226.550781 694.34375 218.773438 C 694.34375 218.773438 680.738281 238.796875 667.714844 236.464844 Z M 658.613281 235.53125 C 659.746094 241.839844 667.960938 246.851562 684.6875 235.53125 C 699.15625 225.738281 707.367188 200.148438 709.320312 193.394531 C 706.9375 199.652344 696.136719 215.289062 688.136719 219.289062 C 679.28125 223.71875 657.671875 230.316406 658.613281 235.53125 Z M 655.277344 216.785156 C 655.277344 216.785156 676.441406 210.308594 684.941406 202.644531 C 686.234375 201.34375 686.957031 200.496094 686.957031 200.496094 C 686.414062 201.21875 685.730469 201.9375 684.941406 202.644531 C 680.207031 207.429688 667.804688 218.429688 655.277344 216.785156 Z M 667.960938 220.761719 C 693.058594 211.90625 703.882812 175.484375 703.882812 175.484375 C 690.597656 195.660156 675.832031 197.140625 658.488281 203.539062 C 641.144531 209.9375 642.867188 229.621094 667.960938 220.761719 Z M 726.652344 263.230469 L 709.320312 304.214844 C 709.332031 304.144531 709.34375 303.976562 709.355469 303.734375 C 709.320312 303.980469 709.308594 304.144531 709.320312 304.214844 L 691.984375 263.230469 L 709.320312 222.25 Z M 710.25 193.394531 C 709.996094 192.722656 709.832031 192.15625 709.785156 191.726562 C 709.785156 191.726562 709.945312 192.335938 710.25 193.394531 Z M 725.226562 218.773438 C 732.414062 226.550781 751.855469 236.464844 751.855469 236.464844 C 738.835938 238.796875 725.226562 218.773438 725.226562 218.773438 Z M 710.25 193.394531 C 712.210938 200.148438 720.417969 225.738281 734.882812 235.53125 C 751.617188 246.851562 759.828125 241.839844 760.964844 235.53125 C 761.90625 230.316406 740.296875 223.71875 731.433594 219.289062 C 723.441406 215.289062 712.632812 199.652344 710.25 193.394531 Z M 734.628906 202.644531 C 733.84375 201.9375 733.15625 201.21875 732.617188 200.496094 C 732.617188 200.496094 733.335938 201.34375 734.628906 202.644531 C 743.132812 210.308594 764.296875 216.785156 764.296875 216.785156 C 751.769531 218.429688 739.371094 207.429688 734.628906 202.644531 Z M 751.617188 220.761719 C 776.707031 229.621094 778.425781 209.9375 761.082031 203.539062 C 743.738281 197.140625 728.980469 195.660156 715.6875 175.484375 C 715.6875 175.484375 726.519531 211.90625 751.617188 220.761719 Z M 398.363281 134.34375 L 391.558594 105.851562 C 401.546875 117.765625 398.363281 134.34375 398.363281 134.34375 Z M 399.957031 139.996094 C 399.957031 139.996094 432.824219 121.894531 384.386719 93.199219 C 384.386719 93.199219 384.820312 114.675781 384.386719 122.03125 C 383.957031 129.386719 387.882812 141.410156 394.765625 143.226562 C 394.765625 143.226562 408.984375 167.171875 424.847656 173.789062 C 411.238281 176.011719 398.730469 183.417969 390.21875 193.339844 C 379.542969 199.238281 364.476562 206.375 352.816406 206.375 C 333.359375 206.375 341.140625 190.375 341.140625 190.375 C 341.140625 190.375 344.167969 195.132812 348.496094 192.972656 C 352.816406 190.808594 349.746094 179.996094 339.601562 179.996094 C 329.464844 179.996094 328.601562 210.601562 349.792969 210.4375 C 361.617188 210.347656 376.9375 202.644531 388.179688 195.855469 C 380.261719 206.300781 376.6875 219.089844 380.5 231.464844 C 389.144531 259.582031 440.613281 259.582031 442.339844 234.925781 C 444.070312 210.273438 426.339844 200.320312 415.527344 203.351562 C 404.714844 206.375 412.503906 223.25 420.285156 219 C 428.066406 214.753906 420.285156 210.53125 420.285156 210.53125 C 437.148438 210.789062 446.234375 234.925781 428.066406 245.8125 C 409.90625 256.703125 383.957031 241.847656 387.851562 214.59375 C 391.738281 187.34375 421.148438 174.367188 465.691406 182.878906 C 510.234375 191.390625 538.285156 166.566406 536.183594 167.921875 C 516.640625 180.492188 473.042969 173.09375 433.257812 173.09375 C 431.773438 173.09375 430.292969 173.179688 428.816406 173.308594 C 421.183594 168.390625 403.65625 155.640625 399.957031 139.996094 Z M 364.066406 231.632812 C 364.066406 231.632812 362.304688 264.773438 348.695312 263.476562 C 335.085938 262.179688 343.738281 236.113281 364.066406 231.632812 Z M 384.355469 254.824219 C 380.0625 262.179688 368.117188 250.148438 374.007812 231.632812 C 374.007812 231.632812 388.652344 247.46875 384.355469 254.824219 Z M 364.066406 217.191406 C 364.066406 217.191406 342.035156 239.789062 334.65625 228.433594 C 327.0625 216.761719 354.117188 222.53125 364.066406 217.191406 Z M 463.429688 173.074219 C 406.671875 164.421875 419.851562 102.132812 429.363281 106.027344 C 438.878906 109.917969 429.363281 128.085938 435.855469 145.386719 C 442.339844 162.6875 467.199219 173.644531 463.429688 173.074219 Z M 492.714844 199.027344 C 492.714844 199.027344 466.554688 218.925781 467.421875 246.605469 C 468.285156 274.292969 502.015625 276.453125 504.613281 287.695312 C 507.210938 298.945312 480.621094 291.035156 467.398438 262.179688 C 450.554688 225.410156 492.714844 199.027344 492.714844 199.027344 Z M 484.285156 225.410156 C 498.128906 188.640625 541.808594 190.808594 562.128906 165.71875 C 563.113281 164.507812 551.753906 181.582031 527.535156 195.925781 C 503.316406 210.273438 491.640625 226.707031 490.339844 243.578125 C 489.042969 260.445312 510.667969 272.339844 526.238281 263.476562 C 537.902344 256.828125 536.136719 245.308594 526.214844 242.710938 C 526.214844 242.710938 529.261719 249.628906 519.75 250.066406 C 510.234375 250.5 510.667969 228.007812 528.828125 232.765625 C 546.996094 237.523438 544.398438 267.800781 523.644531 271.695312 C 502.886719 275.585938 470.449219 262.179688 484.285156 225.410156 Z M 651.269531 112.894531 L 651.265625 112.882812 C 651.164062 112.679688 651.070312 112.503906 651.003906 112.386719 L 636.492188 84.855469 C 648.09375 92.125 651.269531 112.894531 651.269531 112.894531 Z M 653.355469 119.277344 C 655.058594 116.875 677.824219 83.160156 625.703125 73.15625 C 625.703125 73.15625 632.621094 90.019531 633.492188 100.835938 C 634.355469 111.652344 637.996094 118.101562 653.261719 119.417969 C 653.300781 119.539062 653.367188 119.679688 653.414062 119.804688 C 653.394531 119.621094 653.371094 119.441406 653.355469 119.277344 Z M 589.03125 182.878906 C 589.03125 182.878906 588.574219 213.765625 557.25 217.191406 C 557.25 217.191406 577.226562 210.523438 589.03125 182.878906 Z M 689.347656 165.40625 C 681.835938 157.589844 658.3125 132.46875 653.414062 119.804688 C 653.9375 124.558594 656.25 135.824219 666.300781 149.765625 C 654.164062 142.878906 638.589844 135.824219 621.574219 132.207031 C 581.972656 123.789062 554.742188 134.183594 544.839844 102.992188 C 534.941406 71.796875 575.535156 70.8125 582.464844 81.210938 C 589.394531 91.605469 583.949219 104.972656 575.039062 106.957031 C 575.039062 106.957031 579.992188 98.039062 571.574219 96.558594 C 563.160156 95.074219 558.699219 109.429688 569.097656 114.875 C 579.492188 120.320312 593.851562 110.917969 590.386719 89.621094 C 586.921875 68.332031 562.171875 69.324219 551.769531 73.285156 C 541.375 77.242188 533.949219 94.574219 545.339844 114.875 C 552.441406 127.542969 576.492188 132.882812 599.472656 137.632812 C 584.054688 138.039062 563.734375 140.5 539.613281 147.984375 C 483.855469 165.285156 460.503906 157.894531 451.851562 142.773438 C 443.203125 127.652344 447.53125 99.101562 470.019531 99.101562 C 492.507812 99.101562 483.421875 118.535156 476.070312 119.417969 C 476.070312 119.417969 475.640625 112.316406 470.019531 112.195312 C 464.394531 112.078125 459.636719 131.59375 474.34375 128.546875 C 489.042969 125.492188 494.921875 104.277344 480.957031 96.28125 C 466.988281 88.292969 443.203125 95.214844 440.175781 124.191406 C 437.148438 153.175781 460.480469 165.578125 492.714844 167.8125 C 522.167969 169.847656 579.199219 143.039062 624.148438 143.148438 C 626.347656 143.742188 628.453125 144.359375 630.425781 145.011719 C 618.0625 147.695312 600.730469 154.433594 589.8125 171.339844 C 589.8125 171.339844 575.105469 168.4375 567.324219 185.679688 C 559.539062 202.917969 545.636719 217.191406 539.613281 219.351562 C 539.613281 219.351562 564.726562 228.433594 582.023438 215.894531 C 599.328125 203.351562 596.296875 172.640625 596.296875 172.640625 C 596.296875 172.640625 614.261719 152.335938 643.359375 150.226562 C 665.3125 159.535156 687.015625 168.1875 691.65625 167.800781 C 673.941406 173.109375 653.648438 161.867188 641.871094 160.925781 C 629.492188 159.933594 608.699219 166.371094 608.207031 187.503906 C 607.714844 208.632812 626.527344 214.402344 639.894531 208.140625 C 653.261719 201.875 652.269531 184.195312 636.921875 181.226562 C 621.574219 178.253906 621.574219 191.125 629 192.613281 C 636.429688 194.097656 634.941406 187.503906 634.941406 187.503906 C 639.894531 183.878906 649.789062 193.113281 642.859375 202.515625 C 635.929688 211.921875 611.671875 210.933594 612.171875 188.652344 C 612.664062 166.371094 633.457031 164.390625 658.699219 169.835938 C 683.949219 175.28125 694.34375 166.863281 694.34375 166.863281 C 693.457031 167.230469 692.558594 167.527344 691.65625 167.800781 C 691.902344 167.777344 691.066406 166.886719 689.347656 165.40625 Z M 765.875 112.894531 C 765.875 112.894531 769.058594 92.125 780.660156 84.855469 L 766.152344 112.386719 C 766.082031 112.503906 765.988281 112.679688 765.886719 112.882812 Z M 763.796875 119.277344 C 763.777344 119.441406 763.753906 119.621094 763.738281 119.804688 C 763.789062 119.679688 763.851562 119.539062 763.898438 119.417969 C 779.15625 118.101562 782.796875 111.652344 783.660156 100.835938 C 784.53125 90.019531 791.449219 73.15625 791.449219 73.15625 C 739.328125 83.160156 762.09375 116.875 763.796875 119.277344 Z M 1068.457031 263.476562 C 1054.847656 264.773438 1053.085938 231.632812 1053.085938 231.632812 C 1073.414062 236.113281 1082.066406 262.179688 1068.457031 263.476562 Z M 1032.792969 254.824219 C 1028.5 247.46875 1043.144531 231.632812 1043.144531 231.632812 C 1049.035156 250.148438 1037.089844 262.179688 1032.792969 254.824219 Z M 1082.496094 228.433594 C 1075.117188 239.789062 1053.085938 217.191406 1053.085938 217.191406 C 1063.035156 222.53125 1090.089844 216.761719 1082.496094 228.433594 Z M 1025.59375 105.851562 L 1018.78125 134.34375 C 1018.78125 134.34375 1015.601562 117.765625 1025.59375 105.851562 Z M 1077.550781 179.996094 C 1067.40625 179.996094 1064.335938 190.808594 1068.65625 192.972656 C 1072.980469 195.132812 1076.011719 190.375 1076.011719 190.375 C 1076.011719 190.375 1083.792969 206.375 1064.335938 206.375 C 1052.675781 206.375 1037.609375 199.238281 1026.933594 193.339844 C 1018.421875 183.417969 1005.914062 176.011719 992.304688 173.789062 C 1008.167969 167.171875 1022.386719 143.226562 1022.386719 143.226562 C 1029.269531 141.410156 1033.195312 129.386719 1032.765625 122.03125 C 1032.332031 114.675781 1032.765625 93.199219 1032.765625 93.199219 C 984.328125 121.894531 1017.195312 139.996094 1017.195312 139.996094 C 1013.5 155.640625 995.96875 168.390625 988.332031 173.308594 C 986.859375 173.179688 985.378906 173.09375 983.894531 173.09375 C 944.109375 173.09375 900.511719 180.492188 880.96875 167.921875 C 878.867188 166.566406 906.917969 191.390625 951.460938 182.878906 C 996.003906 174.367188 1025.410156 187.34375 1029.304688 214.59375 C 1033.195312 241.847656 1007.246094 256.703125 989.085938 245.8125 C 970.917969 234.925781 980 210.789062 996.867188 210.53125 C 996.867188 210.53125 989.085938 214.753906 996.867188 219 C 1004.648438 223.25 1012.4375 206.375 1001.625 203.351562 C 990.8125 200.320312 973.085938 210.273438 974.8125 234.925781 C 976.546875 259.582031 1028.007812 259.582031 1036.652344 231.464844 C 1040.460938 219.089844 1036.886719 206.300781 1028.976562 195.855469 C 1040.210938 202.644531 1055.535156 210.347656 1067.359375 210.4375 C 1088.550781 210.601562 1087.6875 179.996094 1077.550781 179.996094 Z M 953.726562 173.074219 C 949.953125 173.644531 974.8125 162.6875 981.304688 145.386719 C 987.789062 128.085938 978.273438 109.917969 987.789062 106.027344 C 997.300781 102.132812 1010.480469 164.421875 953.726562 173.074219 Z M 828.121094 182.878906 C 839.925781 210.523438 859.902344 217.191406 859.902344 217.191406 C 828.578125 213.765625 828.121094 182.878906 828.121094 182.878906 Z M 976.976562 124.191406 C 973.949219 95.214844 950.164062 88.292969 936.195312 96.28125 C 922.230469 104.277344 928.109375 125.492188 942.808594 128.546875 C 957.511719 131.59375 952.757812 112.078125 947.132812 112.195312 C 941.511719 112.316406 941.082031 119.417969 941.082031 119.417969 C 933.730469 118.535156 924.644531 99.101562 947.132812 99.101562 C 969.621094 99.101562 973.949219 127.652344 965.296875 142.773438 C 956.648438 157.894531 933.292969 165.285156 877.539062 147.984375 C 853.417969 140.5 833.097656 138.039062 817.679688 137.632812 C 840.660156 132.882812 864.710938 127.542969 871.8125 114.875 C 883.203125 94.574219 875.777344 77.242188 865.375 73.285156 C 854.980469 69.324219 830.230469 68.332031 826.765625 89.621094 C 823.300781 110.917969 837.660156 120.320312 848.054688 114.875 C 858.453125 109.429688 853.992188 95.074219 845.578125 96.558594 C 837.160156 98.039062 842.113281 106.957031 842.113281 106.957031 C 833.203125 104.972656 827.757812 91.605469 834.6875 81.210938 C 841.617188 70.8125 882.207031 71.796875 872.304688 102.992188 C 862.410156 134.183594 835.179688 123.789062 795.578125 132.207031 C 778.5625 135.824219 762.988281 142.878906 750.851562 149.765625 C 760.902344 135.824219 763.214844 124.558594 763.738281 119.804688 C 758.839844 132.46875 735.316406 157.589844 727.804688 165.40625 C 726.085938 166.886719 725.25 167.777344 725.496094 167.800781 C 724.59375 167.527344 723.695312 167.230469 722.808594 166.863281 C 722.808594 166.863281 733.203125 175.28125 758.453125 169.835938 C 783.695312 164.390625 804.488281 166.371094 804.980469 188.652344 C 805.480469 210.933594 781.222656 211.921875 774.292969 202.515625 C 767.363281 193.113281 777.265625 183.878906 782.210938 187.503906 C 782.210938 187.503906 780.722656 194.097656 788.152344 192.613281 C 795.578125 191.125 795.578125 178.253906 780.230469 181.226562 C 764.882812 184.195312 763.898438 201.875 777.265625 208.140625 C 790.625 214.402344 809.4375 208.632812 808.945312 187.503906 C 808.453125 166.371094 787.660156 159.933594 775.277344 160.925781 C 763.503906 161.867188 743.210938 173.109375 725.496094 167.800781 C 730.136719 168.1875 751.839844 159.535156 773.792969 150.226562 C 802.890625 152.335938 820.855469 172.640625 820.855469 172.640625 C 820.855469 172.640625 817.824219 203.351562 835.128906 215.894531 C 852.425781 228.433594 877.539062 219.351562 877.539062 219.351562 C 871.511719 217.191406 857.609375 202.917969 849.828125 185.679688 C 842.046875 168.4375 827.339844 171.339844 827.339844 171.339844 C 816.421875 154.433594 799.089844 147.695312 786.726562 145.011719 C 788.699219 144.359375 790.800781 143.742188 793.003906 143.148438 C 837.953125 143.039062 894.984375 169.847656 924.4375 167.8125 C 956.671875 165.578125 980 153.175781 976.976562 124.191406 Z M 949.726562 246.605469 C 950.597656 218.925781 924.4375 199.027344 924.4375 199.027344 C 924.4375 199.027344 966.597656 225.410156 949.75 262.179688 C 936.523438 291.035156 909.941406 298.945312 912.539062 287.695312 C 915.132812 276.453125 948.863281 274.292969 949.726562 246.605469 Z M 893.507812 271.695312 C 914.269531 275.585938 946.703125 262.179688 932.867188 225.410156 C 919.023438 188.640625 875.34375 190.808594 855.019531 165.71875 C 854.035156 164.507812 865.398438 181.582031 889.613281 195.925781 C 913.835938 210.273438 925.511719 226.707031 926.8125 243.578125 C 928.109375 260.445312 906.484375 272.339844 890.914062 263.476562 C 879.25 256.828125 881.015625 245.308594 890.9375 242.710938 C 890.9375 242.710938 887.886719 249.628906 897.402344 250.066406 C 906.917969 250.5 906.484375 228.007812 888.324219 232.765625 C 870.15625 237.523438 872.753906 267.800781 893.507812 271.695312 " fill-opacity="1" fill-rule="nonzero"/></g></svg>