<svg xmlns="http://www.w3.org/2000/svg" xmlns:xlink="http://www.w3.org/1999/xlink" width="1890" zoomAndPan="magnify" viewBox="0 0 1417.5 374.999991" height="500" preserveAspectRatio="xMidYMid meet" version="1.0"><defs><clipPath id="11e848b45c"><path d="M 336.316406 52.667969 L 1086.929688 52.667969 L 1086.929688 305.417969 L 336.316406 305.417969 Z M 336.316406 52.667969 " clip-rule="nonzero"/></clipPath><clipPath id="410aebd5e3"><path d="M 711.621094 245.394531 C 724.636719 245.394531 711.621094 214.105469 711.621094 214.105469 C 711.621094 214.105469 698.609375 245.394531 711.621094 245.394531 Z M 654.515625 170.195312 C 632.296875 168 636.609375 191.054688 646.59375 191.675781 C 656.585938 192.300781 685.011719 194.363281 700 208.84375 C 700 208.84375 676.742188 172.386719 654.515625 170.195312 Z M 426.253906 238.9375 C 426.253906 238.9375 413.09375 243.390625 409.277344 254.847656 C 405.460938 266.304688 396.875 277.121094 396.875 277.121094 C 396.875 277.121094 402.597656 276.488281 408.003906 264.714844 C 413.410156 252.933594 423.503906 240.210938 426.253906 238.9375 Z M 440.863281 235.808594 C 440.863281 235.808594 431.84375 244.890625 425.925781 258.582031 C 420.007812 272.273438 415.199219 286.734375 388.96875 281.15625 C 388.96875 281.15625 399.855469 251.796875 402.28125 247.683594 C 408.460938 237.222656 423.902344 235.019531 440.863281 235.808594 Z M 402.914062 170.195312 C 402.914062 170.195312 406.734375 185.789062 409.59375 191.675781 C 412.457031 197.554688 416.695312 202.90625 426.214844 213.113281 C 425.480469 212.320312 414.304688 200.140625 412.460938 191.835938 C 410.550781 183.242188 402.914062 170.195312 402.914062 170.195312 Z M 401.144531 190.25 C 401.324219 176.695312 398.1875 165.402344 398.1875 165.402344 C 416.460938 165.488281 427.179688 184.503906 429.867188 198.617188 C 432.550781 212.726562 439.78125 224.429688 438.476562 224.113281 C 417.675781 219.089844 400.972656 203.550781 401.144531 190.25 Z M 558.878906 197.46875 C 558.878906 197.46875 551.21875 207.269531 550 220.75 C 548.773438 234.226562 554.898438 244.339844 550 250.464844 C 550 250.464844 555.039062 247.707031 554.355469 233.3125 C 553.671875 218.910156 556.121094 209.476562 558.878906 199.644531 Z M 567.757812 223.507812 C 571.128906 237.289062 565.3125 253.222656 545.097656 256.589844 C 545.097656 256.589844 543.871094 240.046875 541.117188 232.390625 C 538.359375 224.726562 546.453125 195.9375 562.925781 184.90625 C 562.925781 184.90625 564.390625 209.722656 567.757812 223.507812 Z M 582.761719 194.667969 C 574.191406 188.808594 567.757812 180.925781 567.757812 180.925781 C 567.757812 187.96875 571.128906 207.269531 577.554688 209.722656 C 583.988281 212.175781 594.707031 218.605469 594.707031 218.605469 C 594.707031 210.332031 591.335938 200.53125 582.761719 194.667969 Z M 477.941406 179.46875 C 480.949219 180.640625 485.800781 183.691406 491.816406 188.875 C 500.695312 196.515625 509.433594 194.40625 509.433594 194.40625 C 509.433594 194.40625 499.164062 189.5 489.667969 183.679688 C 484.789062 180.691406 480.628906 179.773438 477.941406 179.46875 C 476.511719 178.910156 475.496094 178.769531 474.972656 179.042969 C 474.1875 179.445312 475.402344 179.183594 477.941406 179.46875 Z M 467.621094 177.558594 C 467.621094 177.558594 478.957031 171.894531 493.957031 176.253906 C 508.960938 180.617188 510.78125 192.980469 522.414062 193.484375 C 522.4375 193.484375 517.847656 202.980469 498.859375 198.382812 C 479.871094 193.789062 480.175781 180.003906 467.621094 177.558594 Z M 508.351562 158.457031 C 521.519531 171.824219 535.601562 172.347656 535.601562 172.347656 C 533.152344 172.347656 508.351562 158.457031 508.351562 158.457031 Z M 491.816406 154.882812 C 491.816406 154.882812 504.058594 148.757812 519.378906 154.882812 C 534.6875 161.015625 542.546875 171.121094 553.007812 170.816406 C 553.007812 170.816406 540.199219 182.761719 523.96875 177.863281 C 507.738281 172.957031 498.859375 155.1875 491.816406 154.882812 Z M 545.402344 137.113281 C 555.203125 149.0625 569.597656 154.882812 570.824219 154.882812 C 570.824219 154.882812 555.816406 142.941406 549.6875 136.503906 C 543.566406 130.070312 535.601562 125.171875 535.601562 125.171875 C 535.601562 125.171875 535.601562 125.171875 545.402344 137.113281 Z M 525.5 121.863281 C 525.5 121.863281 540.199219 115.976562 550.914062 127.3125 C 561.632812 138.652344 575.902344 155.351562 581.539062 155.804688 C 581.539062 155.804688 571.738281 162.851562 554.285156 153.960938 C 536.828125 145.082031 537.132812 126.832031 525.5 121.863281 Z M 599.9375 126.484375 C 613.796875 136.304688 659.414062 142.082031 659.414062 142.082031 C 622.457031 132.261719 609.179688 109.734375 602.824219 108.582031 C 596.472656 107.425781 586.082031 116.664062 599.9375 126.484375 Z M 412.460938 223.964844 C 412.460938 223.964844 385.738281 208.0625 353.925781 205.839844 C 353.925781 205.839844 398.140625 224.910156 412.460938 223.964844 Z M 633.292969 157.660156 C 597.703125 158.878906 574.441406 172.554688 553.015625 187.613281 C 553.015625 187.613281 553.007812 187.617188 553.007812 187.617188 C 552.839844 187.734375 520.257812 214.867188 519.101562 254.140625 C 517.945312 293.417969 545.917969 301.507812 553.007812 298.621094 C 553.007812 298.621094 543.929688 296.882812 546.816406 287.644531 C 549.707031 278.398438 567.03125 286.394531 561.253906 299.148438 C 555.476562 311.902344 525.453125 306.128906 513.90625 273.203125 C 506.292969 251.503906 508.398438 229.046875 520.191406 210.308594 C 510.230469 216.378906 499.5625 221.59375 487.253906 224.972656 C 465.503906 230.945312 442.441406 230.542969 422.652344 227.941406 C 416.730469 230.160156 406.296875 235.703125 388.167969 234.625 C 365.582031 233.28125 336.316406 200.546875 336.316406 200.546875 C 344.589844 203.957031 353.8125 195.871094 381.171875 197.753906 C 407.078125 199.53125 424.332031 224.195312 426.097656 226.8125 C 448.011719 227.761719 479.441406 225.410156 504.433594 208.742188 C 540.019531 185.011719 570.359375 155.382812 613.914062 149.175781 C 568.546875 143.09375 535.011719 111.808594 533.875 86.894531 C 532.476562 56.292969 552.75 46.578125 573.625 56.292969 C 594.503906 66.007812 593.050781 94.179688 579.457031 98.0625 C 565.855469 101.953125 563.914062 83.488281 570.710938 80.582031 C 577.507812 77.664062 580.421875 84.464844 580.421875 84.464844 C 586.253906 74.261719 578.480469 57.261719 560.035156 59.210938 C 550.351562 60.222656 543.496094 70.738281 543.492188 83.9375 C 550.375 87 549.347656 96.605469 549.347656 96.605469 C 549.839844 88.828125 557.121094 88.347656 557.121094 88.347656 C 554.203125 111.660156 575.679688 129.417969 575.683594 129.417969 C 598.855469 142.152344 628.011719 146.871094 640.484375 148.390625 C 641.265625 148.449219 642.050781 148.511719 642.839844 148.589844 C 644.121094 148.707031 645.363281 148.859375 646.59375 149.015625 C 654.140625 150.015625 660.761719 151.734375 666.5625 153.996094 L 666.5625 153.992188 C 667.507812 140.222656 676.765625 147.25 676.765625 147.25 C 678.601562 144.605469 681.480469 143.457031 681.480469 143.457031 C 684.578125 153.960938 695.335938 176.253906 695.335938 176.253906 C 705.929688 191.496094 707.066406 208.054688 706.332031 212.410156 C 706.636719 208.71875 701.746094 155.3125 633.292969 157.660156 Z M 706.332031 212.410156 C 706.328125 212.457031 706.320312 212.519531 706.316406 212.5625 C 706.320312 212.527344 706.328125 212.472656 706.332031 212.410156 Z M 706.503906 106.761719 C 711.523438 99.019531 706.503906 76.492188 706.503906 76.492188 C 704.847656 82.257812 706.503906 106.761719 706.503906 106.761719 Z M 693.320312 104.949219 C 693.320312 104.949219 692.492188 80.609375 708.15625 70.71875 C 708.15625 70.71875 718.460938 88.933594 719.695312 104.824219 C 719.695312 104.824219 708.15625 110.328125 708.15625 116.484375 C 708.15625 116.484375 698.265625 104.960938 693.320312 104.949219 Z M 676.007812 114.007812 C 690.019531 113.597656 701.566406 130.304688 701.566406 130.304688 C 690.433594 108.664062 676.007812 114.007812 676.007812 114.007812 Z M 664.46875 116.070312 C 664.46875 116.070312 687.132812 91.269531 708.15625 122.636719 C 708.15625 122.636719 702.796875 138.558594 704.035156 146.070312 C 704.035156 146.070312 686.722656 119.78125 664.46875 116.070312 Z M 714.335938 141.972656 C 725.46875 115.105469 743 103.289062 743 103.289062 C 718.910156 105.347656 714.007812 142.761719 714.335938 141.972656 Z M 708.15625 167.050781 C 708.15625 167.050781 708.15625 117.304688 724.382812 104.824219 C 740.609375 92.34375 758.734375 101.640625 758.734375 101.640625 C 730.175781 120.195312 708.15625 167.050781 708.15625 167.050781 Z M 768.726562 170.195312 C 746.503906 172.386719 723.246094 208.84375 723.246094 208.84375 C 738.234375 194.363281 766.65625 192.300781 776.648438 191.675781 C 786.636719 191.054688 790.945312 168 768.726562 170.195312 Z M 1026.371094 277.121094 C 1026.371094 277.121094 1017.785156 266.304688 1013.96875 254.847656 C 1010.148438 243.390625 996.988281 238.9375 996.988281 238.9375 C 999.742188 240.210938 1009.832031 252.933594 1015.238281 264.714844 C 1020.644531 276.488281 1026.371094 277.121094 1026.371094 277.121094 Z M 1020.960938 247.683594 C 1023.390625 251.796875 1034.273438 281.15625 1034.273438 281.15625 C 1008.039062 286.734375 1003.234375 272.273438 997.320312 258.582031 C 991.394531 244.890625 982.375 235.808594 982.375 235.808594 C 999.335938 235.019531 1014.78125 237.222656 1020.960938 247.683594 Z M 997.03125 213.113281 C 1006.546875 202.90625 1010.789062 197.554688 1013.648438 191.675781 C 1016.511719 185.789062 1020.328125 170.195312 1020.328125 170.195312 C 1020.328125 170.195312 1012.695312 183.242188 1010.78125 191.835938 C 1008.941406 200.140625 997.765625 212.320312 997.03125 213.113281 Z M 984.769531 224.113281 C 983.460938 224.429688 990.691406 212.726562 993.378906 198.617188 C 996.0625 184.503906 1006.785156 165.488281 1025.054688 165.402344 C 1025.054688 165.402344 1021.917969 176.695312 1022.09375 190.25 C 1022.269531 203.550781 1005.570312 219.089844 984.769531 224.113281 Z M 716.910156 212.410156 C 716.917969 212.472656 716.921875 212.527344 716.929688 212.5625 C 716.921875 212.519531 716.917969 212.457031 716.910156 212.410156 Z M 1069.320312 205.839844 C 1037.503906 208.0625 1010.78125 223.964844 1010.78125 223.964844 C 1025.097656 224.910156 1069.320312 205.839844 1069.320312 205.839844 Z M 1086.929688 200.546875 C 1086.929688 200.546875 1057.660156 233.28125 1035.078125 234.625 C 1016.945312 235.703125 1006.519531 230.160156 1000.589844 227.941406 C 980.804688 230.542969 957.742188 230.945312 935.984375 224.972656 C 923.683594 221.59375 913.015625 216.378906 903.058594 210.308594 C 914.84375 229.046875 916.949219 251.503906 909.339844 273.203125 C 897.792969 306.128906 867.765625 311.902344 861.992188 299.148438 C 856.214844 286.394531 873.539062 278.398438 876.429688 287.644531 C 879.3125 296.882812 870.234375 298.621094 870.234375 298.621094 C 877.324219 301.507812 905.296875 293.417969 904.144531 254.140625 C 902.988281 214.867188 870.40625 187.734375 870.234375 187.617188 C 870.234375 187.617188 870.230469 187.613281 870.230469 187.613281 C 848.800781 172.554688 825.539062 158.878906 789.949219 157.660156 C 721.492188 155.3125 716.605469 208.71875 716.910156 212.410156 C 716.179688 208.054688 717.316406 191.496094 727.90625 176.253906 C 727.90625 176.253906 738.667969 153.960938 741.765625 143.457031 C 741.765625 143.457031 744.644531 144.605469 746.480469 147.25 C 746.480469 147.25 755.738281 140.222656 756.6875 153.992188 L 756.683594 153.996094 C 762.480469 151.734375 769.101562 150.015625 776.648438 149.015625 C 777.882812 148.859375 779.125 148.707031 780.402344 148.589844 C 781.195312 148.511719 781.980469 148.449219 782.765625 148.390625 C 795.234375 146.871094 824.390625 142.152344 847.558594 129.417969 C 847.566406 129.417969 869.039062 111.660156 866.125 88.347656 C 866.125 88.347656 873.402344 88.828125 873.894531 96.605469 C 873.894531 96.605469 872.871094 87 879.753906 83.9375 C 879.746094 70.738281 872.894531 60.222656 863.210938 59.210938 C 844.761719 57.261719 836.992188 74.261719 842.820312 84.464844 C 842.820312 84.464844 845.734375 77.664062 852.53125 80.582031 C 859.328125 83.488281 857.386719 101.953125 843.789062 98.0625 C 830.195312 94.179688 828.742188 66.007812 849.617188 56.292969 C 870.496094 46.578125 890.765625 56.292969 889.371094 86.894531 C 888.234375 111.808594 854.695312 143.09375 809.332031 149.175781 C 852.882812 155.382812 883.226562 185.011719 918.808594 208.742188 C 943.800781 225.410156 975.234375 227.761719 997.148438 226.8125 C 998.90625 224.195312 1016.164062 199.53125 1042.074219 197.753906 C 1069.4375 195.871094 1078.65625 203.957031 1086.929688 200.546875 Z M 864.367188 199.644531 C 867.121094 209.476562 869.574219 218.910156 868.886719 233.3125 C 868.207031 247.707031 873.246094 250.464844 873.246094 250.464844 C 868.347656 244.339844 874.46875 234.226562 873.246094 220.75 C 872.023438 207.269531 864.367188 197.46875 864.367188 197.46875 Z M 855.480469 223.507812 C 858.855469 209.722656 860.320312 184.90625 860.320312 184.90625 C 876.785156 195.9375 884.886719 224.726562 882.128906 232.390625 C 879.371094 240.046875 878.148438 256.589844 878.148438 256.589844 C 857.9375 253.222656 852.117188 237.289062 855.480469 223.507812 Z M 840.480469 194.667969 C 831.90625 200.53125 828.535156 210.332031 828.535156 218.605469 C 828.535156 218.605469 839.253906 212.175781 845.6875 209.722656 C 852.117188 207.269531 855.480469 187.96875 855.480469 180.925781 C 855.480469 180.925781 849.054688 188.808594 840.480469 194.667969 Z M 933.574219 183.679688 C 924.082031 189.5 913.8125 194.40625 913.8125 194.40625 C 913.8125 194.40625 922.550781 196.515625 931.429688 188.875 C 937.453125 183.691406 942.296875 180.640625 945.304688 179.46875 C 947.84375 179.183594 949.054688 179.445312 948.277344 179.042969 C 947.75 178.769531 946.734375 178.910156 945.304688 179.46875 C 942.617188 179.773438 938.453125 180.691406 933.574219 183.679688 Z M 929.289062 176.253906 C 944.289062 171.894531 955.625 177.558594 955.625 177.558594 C 943.070312 180.003906 943.375 193.789062 924.386719 198.382812 C 905.398438 202.980469 900.804688 193.484375 900.828125 193.484375 C 912.464844 192.980469 914.28125 180.617188 929.289062 176.253906 Z M 887.640625 172.347656 C 887.640625 172.347656 901.726562 171.824219 914.890625 158.457031 C 914.890625 158.457031 890.09375 172.347656 887.640625 172.347656 Z M 870.234375 170.816406 C 880.699219 171.121094 888.554688 161.015625 903.871094 154.882812 C 919.183594 148.757812 931.429688 154.882812 931.429688 154.882812 C 924.386719 155.1875 915.507812 172.957031 899.277344 177.863281 C 883.042969 182.761719 870.234375 170.816406 870.234375 170.816406 Z M 887.640625 125.171875 C 887.640625 125.171875 879.675781 130.070312 873.554688 136.503906 C 867.425781 142.941406 852.421875 154.882812 852.421875 154.882812 C 853.644531 154.882812 868.042969 149.0625 877.84375 137.113281 C 887.640625 125.171875 887.640625 125.171875 887.640625 125.171875 Z M 897.746094 121.863281 C 886.109375 126.832031 886.414062 145.082031 868.957031 153.960938 C 851.507812 162.851562 841.707031 155.804688 841.707031 155.804688 C 847.34375 155.351562 861.609375 138.652344 872.328125 127.3125 C 883.042969 115.976562 897.746094 121.863281 897.746094 121.863281 Z M 823.304688 126.484375 C 809.449219 136.304688 763.832031 142.082031 763.832031 142.082031 C 800.785156 132.261719 814.0625 109.734375 820.421875 108.582031 C 826.769531 107.425781 837.164062 116.664062 823.304688 126.484375 Z M 823.304688 126.484375 " clip-rule="nonzero"/></clipPath><clipPath id="5b9ee47117"><path d="M 711.621094 245.394531 C 724.636719 245.394531 711.621094 214.105469 711.621094 214.105469 C 711.621094 214.105469 698.609375 245.394531 711.621094 245.394531 Z M 654.515625 170.195312 C 632.296875 168 636.609375 191.054688 646.59375 191.675781 C 656.585938 192.300781 685.011719 194.363281 700 208.84375 C 700 208.84375 676.742188 172.386719 654.515625 170.195312 Z M 426.253906 238.9375 C 426.253906 238.9375 413.09375 243.390625 409.277344 254.847656 C 405.460938 266.304688 396.875 277.121094 396.875 277.121094 C 396.875 277.121094 402.597656 276.488281 408.003906 264.714844 C 413.410156 252.933594 423.503906 240.210938 426.253906 238.9375 Z M 440.863281 235.808594 C 440.863281 235.808594 431.84375 244.890625 425.925781 258.582031 C 420.007812 272.273438 415.199219 286.734375 388.96875 281.15625 C 388.96875 281.15625 399.855469 251.796875 402.28125 247.683594 C 408.460938 237.222656 423.902344 235.019531 440.863281 235.808594 Z M 402.914062 170.195312 C 402.914062 170.195312 406.734375 185.789062 409.59375 191.675781 C 412.457031 197.554688 416.695312 202.90625 426.214844 213.113281 C 425.480469 212.320312 414.304688 200.140625 412.460938 191.835938 C 410.550781 183.242188 402.914062 170.195312 402.914062 170.195312 Z M 401.144531 190.25 C 401.324219 176.695312 398.1875 165.402344 398.1875 165.402344 C 416.460938 165.488281 427.179688 184.503906 429.867188 198.617188 C 432.550781 212.726562 439.78125 224.429688 438.476562 224.113281 C 417.675781 219.089844 400.972656 203.550781 401.144531 190.25 Z M 558.878906 197.46875 C 558.878906 197.46875 551.21875 207.269531 550 220.75 C 548.773438 234.226562 554.898438 244.339844 550 250.464844 C 550 250.464844 555.039062 247.707031 554.355469 233.3125 C 553.671875 218.910156 556.121094 209.476562 558.878906 199.644531 Z M 567.757812 223.507812 C 571.128906 237.289062 565.3125 253.222656 545.097656 256.589844 C 545.097656 256.589844 543.871094 240.046875 541.117188 232.390625 C 538.359375 224.726562 546.453125 195.9375 562.925781 184.90625 C 562.925781 184.90625 564.390625 209.722656 567.757812 223.507812 Z M 582.761719 194.667969 C 574.191406 188.808594 567.757812 180.925781 567.757812 180.925781 C 567.757812 187.96875 571.128906 207.269531 577.554688 209.722656 C 583.988281 212.175781 594.707031 218.605469 594.707031 218.605469 C 594.707031 210.332031 591.335938 200.53125 582.761719 194.667969 Z M 477.941406 179.46875 C 480.949219 180.640625 485.800781 183.691406 491.816406 188.875 C 500.695312 196.515625 509.433594 194.40625 509.433594 194.40625 C 509.433594 194.40625 499.164062 189.5 489.667969 183.679688 C 484.789062 180.691406 480.628906 179.773438 477.941406 179.46875 C 476.511719 178.910156 475.496094 178.769531 474.972656 179.042969 C 474.1875 179.445312 475.402344 179.183594 477.941406 179.46875 Z M 467.621094 177.558594 C 467.621094 177.558594 478.957031 171.894531 493.957031 176.253906 C 508.960938 180.617188 510.78125 192.980469 522.414062 193.484375 C 522.4375 193.484375 517.847656 202.980469 498.859375 198.382812 C 479.871094 193.789062 480.175781 180.003906 467.621094 177.558594 Z M 508.351562 158.457031 C 521.519531 171.824219 535.601562 172.347656 535.601562 172.347656 C 533.152344 172.347656 508.351562 158.457031 508.351562 158.457031 Z M 491.816406 154.882812 C 491.816406 154.882812 504.058594 148.757812 519.378906 154.882812 C 534.6875 161.015625 542.546875 171.121094 553.007812 170.816406 C 553.007812 170.816406 540.199219 182.761719 523.96875 177.863281 C 507.738281 172.957031 498.859375 155.1875 491.816406 154.882812 Z M 545.402344 137.113281 C 555.203125 149.0625 569.597656 154.882812 570.824219 154.882812 C 570.824219 154.882812 555.816406 142.941406 549.6875 136.503906 C 543.566406 130.070312 535.601562 125.171875 535.601562 125.171875 C 535.601562 125.171875 535.601562 125.171875 545.402344 137.113281 Z M 525.5 121.863281 C 525.5 121.863281 540.199219 115.976562 550.914062 127.3125 C 561.632812 138.652344 575.902344 155.351562 581.539062 155.804688 C 581.539062 155.804688 571.738281 162.851562 554.285156 153.960938 C 536.828125 145.082031 537.132812 126.832031 525.5 121.863281 Z M 599.9375 126.484375 C 613.796875 136.304688 659.414062 142.082031 659.414062 142.082031 C 622.457031 132.261719 609.179688 109.734375 602.824219 108.582031 C 596.472656 107.425781 586.082031 116.664062 599.9375 126.484375 Z M 412.460938 223.964844 C 412.460938 223.964844 385.738281 208.0625 353.925781 205.839844 C 353.925781 205.839844 398.140625 224.910156 412.460938 223.964844 Z M 633.292969 157.660156 C 597.703125 158.878906 574.441406 172.554688 553.015625 187.613281 C 553.015625 187.613281 553.007812 187.617188 553.007812 187.617188 C 552.839844 187.734375 520.257812 214.867188 519.101562 254.140625 C 517.945312 293.417969 545.917969 301.507812 553.007812 298.621094 C 553.007812 298.621094 543.929688 296.882812 546.816406 287.644531 C 549.707031 278.398438 567.03125 286.394531 561.253906 299.148438 C 555.476562 311.902344 525.453125 306.128906 513.90625 273.203125 C 506.292969 251.503906 508.398438 229.046875 520.191406 210.308594 C 510.230469 216.378906 499.5625 221.59375 487.253906 224.972656 C 465.503906 230.945312 442.441406 230.542969 422.652344 227.941406 C 416.730469 230.160156 406.296875 235.703125 388.167969 234.625 C 365.582031 233.28125 336.316406 200.546875 336.316406 200.546875 C 344.589844 203.957031 353.8125 195.871094 381.171875 197.753906 C 407.078125 199.53125 424.332031 224.195312 426.097656 226.8125 C 448.011719 227.761719 479.441406 225.410156 504.433594 208.742188 C 540.019531 185.011719 570.359375 155.382812 613.914062 149.175781 C 568.546875 143.09375 535.011719 111.808594 533.875 86.894531 C 532.476562 56.292969 552.75 46.578125 573.625 56.292969 C 594.503906 66.007812 593.050781 94.179688 579.457031 98.0625 C 565.855469 101.953125 563.914062 83.488281 570.710938 80.582031 C 577.507812 77.664062 580.421875 84.464844 580.421875 84.464844 C 586.253906 74.261719 578.480469 57.261719 560.035156 59.210938 C 550.351562 60.222656 543.496094 70.738281 543.492188 83.9375 C 550.375 87 549.347656 96.605469 549.347656 96.605469 C 549.839844 88.828125 557.121094 88.347656 557.121094 88.347656 C 554.203125 111.660156 575.679688 129.417969 575.683594 129.417969 C 598.855469 142.152344 628.011719 146.871094 640.484375 148.390625 C 641.265625 148.449219 642.050781 148.511719 642.839844 148.589844 C 644.121094 148.707031 645.363281 148.859375 646.59375 149.015625 C 654.140625 150.015625 660.761719 151.734375 666.5625 153.996094 L 666.5625 153.992188 C 667.507812 140.222656 676.765625 147.25 676.765625 147.25 C 678.601562 144.605469 681.480469 143.457031 681.480469 143.457031 C 684.578125 153.960938 695.335938 176.253906 695.335938 176.253906 C 705.929688 191.496094 707.066406 208.054688 706.332031 212.410156 C 706.636719 208.71875 701.746094 155.3125 633.292969 157.660156 Z M 706.332031 212.410156 C 706.328125 212.457031 706.320312 212.519531 706.316406 212.5625 C 706.320312 212.527344 706.328125 212.472656 706.332031 212.410156 Z M 706.503906 106.761719 C 711.523438 99.019531 706.503906 76.492188 706.503906 76.492188 C 704.847656 82.257812 706.503906 106.761719 706.503906 106.761719 Z M 693.320312 104.949219 C 693.320312 104.949219 692.492188 80.609375 708.15625 70.71875 C 708.15625 70.71875 718.460938 88.933594 719.695312 104.824219 C 719.695312 104.824219 708.15625 110.328125 708.15625 116.484375 C 708.15625 116.484375 698.265625 104.960938 693.320312 104.949219 Z M 676.007812 114.007812 C 690.019531 113.597656 701.566406 130.304688 701.566406 130.304688 C 690.433594 108.664062 676.007812 114.007812 676.007812 114.007812 Z M 664.46875 116.070312 C 664.46875 116.070312 687.132812 91.269531 708.15625 122.636719 C 708.15625 122.636719 702.796875 138.558594 704.035156 146.070312 C 704.035156 146.070312 686.722656 119.78125 664.46875 116.070312 Z M 714.335938 141.972656 C 725.46875 115.105469 743 103.289062 743 103.289062 C 718.910156 105.347656 714.007812 142.761719 714.335938 141.972656 Z M 708.15625 167.050781 C 708.15625 167.050781 708.15625 117.304688 724.382812 104.824219 C 740.609375 92.34375 758.734375 101.640625 758.734375 101.640625 C 730.175781 120.195312 708.15625 167.050781 708.15625 167.050781 Z M 768.726562 170.195312 C 746.503906 172.386719 723.246094 208.84375 723.246094 208.84375 C 738.234375 194.363281 766.65625 192.300781 776.648438 191.675781 C 786.636719 191.054688 790.945312 168 768.726562 170.195312 Z M 1026.371094 277.121094 C 1026.371094 277.121094 1017.785156 266.304688 1013.96875 254.847656 C 1010.148438 243.390625 996.988281 238.9375 996.988281 238.9375 C 999.742188 240.210938 1009.832031 252.933594 1015.238281 264.714844 C 1020.644531 276.488281 1026.371094 277.121094 1026.371094 277.121094 Z M 1020.960938 247.683594 C 1023.390625 251.796875 1034.273438 281.15625 1034.273438 281.15625 C 1008.039062 286.734375 1003.234375 272.273438 997.320312 258.582031 C 991.394531 244.890625 982.375 235.808594 982.375 235.808594 C 999.335938 235.019531 1014.78125 237.222656 1020.960938 247.683594 Z M 997.03125 213.113281 C 1006.546875 202.90625 1010.789062 197.554688 1013.648438 191.675781 C 1016.511719 185.789062 1020.328125 170.195312 1020.328125 170.195312 C 1020.328125 170.195312 1012.695312 183.242188 1010.78125 191.835938 C 1008.941406 200.140625 997.765625 212.320312 997.03125 213.113281 Z M 984.769531 224.113281 C 983.460938 224.429688 990.691406 212.726562 993.378906 198.617188 C 996.0625 184.503906 1006.785156 165.488281 1025.054688 165.402344 C 1025.054688 165.402344 1021.917969 176.695312 1022.09375 190.25 C 1022.269531 203.550781 1005.570312 219.089844 984.769531 224.113281 Z M 716.910156 212.410156 C 716.917969 212.472656 716.921875 212.527344 716.929688 212.5625 C 716.921875 212.519531 716.917969 212.457031 716.910156 212.410156 Z M 1069.320312 205.839844 C 1037.503906 208.0625 1010.78125 223.964844 1010.78125 223.964844 C 1025.097656 224.910156 1069.320312 205.839844 1069.320312 205.839844 Z M 1086.929688 200.546875 C 1086.929688 200.546875 1057.660156 233.28125 1035.078125 234.625 C 1016.945312 235.703125 1006.519531 230.160156 1000.589844 227.941406 C 980.804688 230.542969 957.742188 230.945312 935.984375 224.972656 C 923.683594 221.59375 913.015625 216.378906 903.058594 210.308594 C 914.84375 229.046875 916.949219 251.503906 909.339844 273.203125 C 897.792969 306.128906 867.765625 311.902344 861.992188 299.148438 C 856.214844 286.394531 873.539062 278.398438 876.429688 287.644531 C 879.3125 296.882812 870.234375 298.621094 870.234375 298.621094 C 877.324219 301.507812 905.296875 293.417969 904.144531 254.140625 C 902.988281 214.867188 870.40625 187.734375 870.234375 187.617188 C 870.234375 187.617188 870.230469 187.613281 870.230469 187.613281 C 848.800781 172.554688 825.539062 158.878906 789.949219 157.660156 C 721.492188 155.3125 716.605469 208.71875 716.910156 212.410156 C 716.179688 208.054688 717.316406 191.496094 727.90625 176.253906 C 727.90625 176.253906 738.667969 153.960938 741.765625 143.457031 C 741.765625 143.457031 744.644531 144.605469 746.480469 147.25 C 746.480469 147.25 755.738281 140.222656 756.6875 153.992188 L 756.683594 153.996094 C 762.480469 151.734375 769.101562 150.015625 776.648438 149.015625 C 777.882812 148.859375 779.125 148.707031 780.402344 148.589844 C 781.195312 148.511719 781.980469 148.449219 782.765625 148.390625 C 795.234375 146.871094 824.390625 142.152344 847.558594 129.417969 C 847.566406 129.417969 869.039062 111.660156 866.125 88.347656 C 866.125 88.347656 873.402344 88.828125 873.894531 96.605469 C 873.894531 96.605469 872.871094 87 879.753906 83.9375 C 879.746094 70.738281 872.894531 60.222656 863.210938 59.210938 C 844.761719 57.261719 836.992188 74.261719 842.820312 84.464844 C 842.820312 84.464844 845.734375 77.664062 852.53125 80.582031 C 859.328125 83.488281 857.386719 101.953125 843.789062 98.0625 C 830.195312 94.179688 828.742188 66.007812 849.617188 56.292969 C 870.496094 46.578125 890.765625 56.292969 889.371094 86.894531 C 888.234375 111.808594 854.695312 143.09375 809.332031 149.175781 C 852.882812 155.382812 883.226562 185.011719 918.808594 208.742188 C 943.800781 225.410156 975.234375 227.761719 997.148438 226.8125 C 998.90625 224.195312 1016.164062 199.53125 1042.074219 197.753906 C 1069.4375 195.871094 1078.65625 203.957031 1086.929688 200.546875 Z M 864.367188 199.644531 C 867.121094 209.476562 869.574219 218.910156 868.886719 233.3125 C 868.207031 247.707031 873.246094 250.464844 873.246094 250.464844 C 868.347656 244.339844 874.46875 234.226562 873.246094 220.75 C 872.023438 207.269531 864.367188 197.46875 864.367188 197.46875 Z M 855.480469 223.507812 C 858.855469 209.722656 860.320312 184.90625 860.320312 184.90625 C 876.785156 195.9375 884.886719 224.726562 882.128906 232.390625 C 879.371094 240.046875 878.148438 256.589844 878.148438 256.589844 C 857.9375 253.222656 852.117188 237.289062 855.480469 223.507812 Z M 840.480469 194.667969 C 831.90625 200.53125 828.535156 210.332031 828.535156 218.605469 C 828.535156 218.605469 839.253906 212.175781 845.6875 209.722656 C 852.117188 207.269531 855.480469 187.96875 855.480469 180.925781 C 855.480469 180.925781 849.054688 188.808594 840.480469 194.667969 Z M 933.574219 183.679688 C 924.082031 189.5 913.8125 194.40625 913.8125 194.40625 C 913.8125 194.40625 922.550781 196.515625 931.429688 188.875 C 937.453125 183.691406 942.296875 180.640625 945.304688 179.46875 C 947.84375 179.183594 949.054688 179.445312 948.277344 179.042969 C 947.75 178.769531 946.734375 178.910156 945.304688 179.46875 C 942.617188 179.773438 938.453125 180.691406 933.574219 183.679688 Z M 929.289062 176.253906 C 944.289062 171.894531 955.625 177.558594 955.625 177.558594 C 943.070312 180.003906 943.375 193.789062 924.386719 198.382812 C 905.398438 202.980469 900.804688 193.484375 900.828125 193.484375 C 912.464844 192.980469 914.28125 180.617188 929.289062 176.253906 Z M 887.640625 172.347656 C 887.640625 172.347656 901.726562 171.824219 914.890625 158.457031 C 914.890625 158.457031 890.09375 172.347656 887.640625 172.347656 Z M 870.234375 170.816406 C 880.699219 171.121094 888.554688 161.015625 903.871094 154.882812 C 919.183594 148.757812 931.429688 154.882812 931.429688 154.882812 C 924.386719 155.1875 915.507812 172.957031 899.277344 177.863281 C 883.042969 182.761719 870.234375 170.816406 870.234375 170.816406 Z M 887.640625 125.171875 C 887.640625 125.171875 879.675781 130.070312 873.554688 136.503906 C 867.425781 142.941406 852.421875 154.882812 852.421875 154.882812 C 853.644531 154.882812 868.042969 149.0625 877.84375 137.113281 C 887.640625 125.171875 887.640625 125.171875 887.640625 125.171875 Z M 897.746094 121.863281 C 886.109375 126.832031 886.414062 145.082031 868.957031 153.960938 C 851.507812 162.851562 841.707031 155.804688 841.707031 155.804688 C 847.34375 155.351562 861.609375 138.652344 872.328125 127.3125 C 883.042969 115.976562 897.746094 121.863281 897.746094 121.863281 Z M 823.304688 126.484375 C 809.449219 136.304688 763.832031 142.082031 763.832031 142.082031 C 800.785156 132.261719 814.0625 109.734375 820.421875 108.582031 C 826.769531 107.425781 837.164062 116.664062 823.304688 126.484375 " clip-rule="nonzero"/></clipPath><clipPath id="825189b0bc"><path d="M 354.578125 -63.011719 L 297.394531 299.273438 L 1068.667969 421.097656 L 1125.847656 58.816406 Z M 354.578125 -63.011719 " clip-rule="nonzero"/></clipPath><radialGradient gradientTransform="matrix(0.987579, 0.155998, -0.15594, 0.987945, 714.161541, 160.887563)" gradientUnits="userSpaceOnUse" r="328.20481" cx="0" id="b9f00af3cc" cy="0" fx="0" fy="0"><stop stop-opacity="1" stop-color="rgb(95.503235%, 88.804626%, 37.103271%)" offset="0"/><stop stop-opacity="1" stop-color="rgb(95.303345%, 88.60321%, 36.903381%)" offset="0.0078125"/><stop stop-opacity="1" stop-color="rgb(95.298767%, 88.598633%, 36.717224%)" offset="0.0117188"/><stop stop-opacity="1" stop-color="rgb(95.121765%, 88.421631%, 36.517334%)" offset="0.015625"/><stop stop-opacity="1" stop-color="rgb(94.900513%, 88.021851%, 36.499023%)" offset="0.0195312"/><stop stop-opacity="1" stop-color="rgb(94.659424%, 87.785339%, 36.482239%)" offset="0.0234375"/><stop stop-opacity="1" stop-color="rgb(94.281006%, 87.631226%, 36.282349%)" offset="0.0273438"/><stop stop-opacity="1" stop-color="rgb(94.099426%, 87.295532%, 36.099243%)" offset="0.03125"/><stop stop-opacity="1" stop-color="rgb(94.099426%, 87.098694%, 36.099243%)" offset="0.0429688"/><stop stop-opacity="1" stop-color="rgb(93.910217%, 87.098694%, 35.910034%)" offset="0.046875"/><stop stop-opacity="1" stop-color="rgb(93.710327%, 86.914062%, 35.710144%)" offset="0.0507812"/><stop stop-opacity="1" stop-color="rgb(93.699646%, 86.714172%, 35.519409%)" offset="0.0546875"/><stop stop-opacity="1" stop-color="rgb(93.699646%, 86.523438%, 35.319519%)" offset="0.0585938"/><stop stop-opacity="1" stop-color="rgb(93.499756%, 86.303711%, 35.27832%)" offset="0.0625"/><stop stop-opacity="1" stop-color="rgb(93.299866%, 86.077881%, 35.07843%)" offset="0.0664062"/><stop stop-opacity="1" stop-color="rgb(93.287659%, 85.888672%, 34.899902%)" offset="0.0703125"/><stop stop-opacity="1" stop-color="rgb(93.087769%, 85.688782%, 34.899902%)" offset="0.0742188"/><stop stop-opacity="1" stop-color="rgb(92.89856%, 85.499573%, 34.898376%)" offset="0.078125"/><stop stop-opacity="1" stop-color="rgb(92.89856%, 85.499573%, 34.701538%)" offset="0.0820312"/><stop stop-opacity="1" stop-color="rgb(92.89856%, 85.307312%, 34.501648%)" offset="0.0859375"/><stop stop-opacity="1" stop-color="rgb(92.710876%, 85.107422%, 34.310913%)" offset="0.0898438"/><stop stop-opacity="1" stop-color="rgb(92.510986%, 84.916687%, 34.111023%)" offset="0.09375"/><stop stop-opacity="1" stop-color="rgb(92.498779%, 84.715271%, 34.098816%)" offset="0.0976562"/><stop stop-opacity="1" stop-color="rgb(92.480469%, 84.498596%, 34.075928%)" offset="0.101562"/><stop stop-opacity="1" stop-color="rgb(92.330933%, 84.280396%, 33.876038%)" offset="0.105469"/><stop stop-opacity="1" stop-color="rgb(92.199707%, 84.080505%, 33.699036%)" offset="0.109375"/><stop stop-opacity="1" stop-color="rgb(92.199707%, 83.889771%, 33.68988%)" offset="0.113281"/><stop stop-opacity="1" stop-color="rgb(92.195129%, 83.68988%, 33.48999%)" offset="0.117188"/><stop stop-opacity="1" stop-color="rgb(91.995239%, 83.36792%, 33.16803%)" offset="0.121094"/><stop stop-opacity="1" stop-color="rgb(91.799927%, 83.172607%, 32.972717%)" offset="0.132812"/><stop stop-opacity="1" stop-color="rgb(91.618347%, 83.103943%, 32.904053%)" offset="0.136719"/><stop stop-opacity="1" stop-color="rgb(91.416931%, 82.922363%, 32.899475%)" offset="0.140625"/><stop stop-opacity="1" stop-color="rgb(91.19873%, 82.705688%, 32.876587%)" offset="0.144531"/><stop stop-opacity="1" stop-color="rgb(90.982056%, 82.531738%, 32.676697%)" offset="0.148438"/><stop stop-opacity="1" stop-color="rgb(90.782166%, 82.38678%, 32.499695%)" offset="0.152344"/><stop stop-opacity="1" stop-color="rgb(90.59906%, 82.18689%, 32.493591%)" offset="0.15625"/><stop stop-opacity="1" stop-color="rgb(90.59906%, 81.996155%, 32.342529%)" offset="0.160156"/><stop stop-opacity="1" stop-color="rgb(90.59906%, 81.797791%, 32.199097%)" offset="0.164062"/><stop stop-opacity="1" stop-color="rgb(90.405273%, 81.600952%, 32.199097%)" offset="0.167969"/><stop stop-opacity="1" stop-color="rgb(90.205383%, 81.410217%, 32.009888%)" offset="0.171875"/><stop stop-opacity="1" stop-color="rgb(90.19928%, 81.210327%, 31.809998%)" offset="0.175781"/><stop stop-opacity="1" stop-color="rgb(90.19928%, 81.019592%, 31.799316%)" offset="0.179688"/><stop stop-opacity="1" stop-color="rgb(90.023804%, 80.819702%, 31.799316%)" offset="0.183594"/><stop stop-opacity="1" stop-color="rgb(89.804077%, 80.59845%, 31.599426%)" offset="0.1875"/><stop stop-opacity="1" stop-color="rgb(89.578247%, 80.383301%, 31.399536%)" offset="0.191406"/><stop stop-opacity="1" stop-color="rgb(89.387512%, 80.183411%, 31.387329%)" offset="0.195312"/><stop stop-opacity="1" stop-color="rgb(89.187622%, 79.992676%, 31.187439%)" offset="0.199219"/><stop stop-opacity="1" stop-color="rgb(88.999939%, 79.792786%, 30.999756%)" offset="0.203125"/><stop stop-opacity="1" stop-color="rgb(88.999939%, 79.598999%, 30.999756%)" offset="0.207031"/><stop stop-opacity="1" stop-color="rgb(88.999939%, 79.406738%, 30.807495%)" offset="0.210938"/><stop stop-opacity="1" stop-color="rgb(88.812256%, 79.206848%, 30.607605%)" offset="0.214844"/><stop stop-opacity="1" stop-color="rgb(88.61084%, 79.016113%, 30.41687%)" offset="0.21875"/><stop stop-opacity="1" stop-color="rgb(88.598633%, 78.816223%, 30.215454%)" offset="0.222656"/><stop stop-opacity="1" stop-color="rgb(88.575745%, 78.599548%, 30.175781%)" offset="0.226562"/><stop stop-opacity="1" stop-color="rgb(88.375854%, 78.379822%, 29.975891%)" offset="0.230469"/><stop stop-opacity="1" stop-color="rgb(88.18512%, 78.179932%, 29.798889%)" offset="0.234375"/><stop stop-opacity="1" stop-color="rgb(87.985229%, 77.999878%, 29.798889%)" offset="0.238281"/><stop stop-opacity="1" stop-color="rgb(87.796021%, 77.993774%, 29.794312%)" offset="0.242188"/><stop stop-opacity="1" stop-color="rgb(87.646484%, 77.793884%, 29.594421%)" offset="0.246094"/><stop stop-opacity="1" stop-color="rgb(87.306213%, 77.453613%, 29.205322%)" offset="0.25"/><stop stop-opacity="1" stop-color="rgb(87.106323%, 77.116394%, 29.005432%)" offset="0.261719"/><stop stop-opacity="1" stop-color="rgb(87.001038%, 76.812744%, 28.900146%)" offset="0.269531"/><stop stop-opacity="1" stop-color="rgb(86.801147%, 76.591492%, 28.700256%)" offset="0.273438"/><stop stop-opacity="1" stop-color="rgb(86.694336%, 76.286316%, 28.594971%)" offset="0.277344"/><stop stop-opacity="1" stop-color="rgb(86.495972%, 75.895691%, 28.396606%)" offset="0.285156"/><stop stop-opacity="1" stop-color="rgb(86.299133%, 75.505066%, 28.005981%)" offset="0.292969"/><stop stop-opacity="1" stop-color="rgb(86.108398%, 75.114441%, 27.804565%)" offset="0.300781"/><stop stop-opacity="1" stop-color="rgb(85.809326%, 74.809265%, 27.723694%)" offset="0.308594"/><stop stop-opacity="1" stop-color="rgb(85.598755%, 74.598694%, 27.46582%)" offset="0.3125"/><stop stop-opacity="1" stop-color="rgb(85.395813%, 74.395752%, 27.191162%)" offset="0.320312"/><stop stop-opacity="1" stop-color="rgb(85.195923%, 74.098206%, 27.000427%)" offset="0.328125"/><stop stop-opacity="1" stop-color="rgb(85.005188%, 73.707581%, 26.800537%)" offset="0.335938"/><stop stop-opacity="1" stop-color="rgb(84.814453%, 73.414612%, 26.699829%)" offset="0.34375"/><stop stop-opacity="1" stop-color="rgb(84.707642%, 73.205566%, 26.699829%)" offset="0.347656"/><stop stop-opacity="1" stop-color="rgb(84.686279%, 72.98584%, 26.687622%)" offset="0.351562"/><stop stop-opacity="1" stop-color="rgb(84.480286%, 72.68219%, 26.480103%)" offset="0.355469"/><stop stop-opacity="1" stop-color="rgb(84.089661%, 72.340393%, 26.091003%)" offset="0.363281"/><stop stop-opacity="1" stop-color="rgb(83.699036%, 71.998596%, 25.898743%)" offset="0.371094"/><stop stop-opacity="1" stop-color="rgb(83.500671%, 71.607971%, 25.704956%)" offset="0.378906"/><stop stop-opacity="1" stop-color="rgb(83.309937%, 71.217346%, 25.505066%)" offset="0.386719"/><stop stop-opacity="1" stop-color="rgb(83.110046%, 71.009827%, 25.39978%)" offset="0.394531"/><stop stop-opacity="1" stop-color="rgb(82.992554%, 70.892334%, 25.19989%)" offset="0.398438"/><stop stop-opacity="1" stop-color="rgb(82.792664%, 70.591736%, 25.099182%)" offset="0.40625"/><stop stop-opacity="1" stop-color="rgb(82.626343%, 70.297241%, 25.001526%)" offset="0.414062"/><stop stop-opacity="1" stop-color="rgb(82.476807%, 70.106506%, 24.710083%)" offset="0.421875"/><stop stop-opacity="1" stop-color="rgb(82.398987%, 69.917297%, 24.417114%)" offset="0.429688"/><stop stop-opacity="1" stop-color="rgb(82.298279%, 69.709778%, 24.308777%)" offset="0.433594"/><stop stop-opacity="1" stop-color="rgb(82.098389%, 69.488525%, 24.28894%)" offset="0.4375"/><stop stop-opacity="1" stop-color="rgb(81.993103%, 69.18335%, 24.082947%)" offset="0.441406"/><stop stop-opacity="1" stop-color="rgb(81.793213%, 68.792725%, 23.692322%)" offset="0.449219"/><stop stop-opacity="1" stop-color="rgb(81.407166%, 68.406677%, 23.3078%)" offset="0.464844"/><stop stop-opacity="1" stop-color="rgb(81.207275%, 68.106079%, 23.10791%)" offset="0.472656"/><stop stop-opacity="1" stop-color="rgb(81.089783%, 67.814636%, 22.988892%)" offset="0.476562"/><stop stop-opacity="1" stop-color="rgb(80.784607%, 67.462158%, 22.789001%)" offset="0.484375"/><stop stop-opacity="1" stop-color="rgb(80.493164%, 67.094421%, 22.624207%)" offset="0.492188"/><stop stop-opacity="1" stop-color="rgb(80.39856%, 66.798401%, 22.47467%)" offset="0.5"/><stop stop-opacity="1" stop-color="rgb(80.212402%, 66.513062%, 22.399902%)" offset="0.507812"/><stop stop-opacity="1" stop-color="rgb(80.012512%, 66.313171%, 22.218323%)" offset="0.511719"/><stop stop-opacity="1" stop-color="rgb(79.821777%, 66.122437%, 22.016907%)" offset="0.515625"/><stop stop-opacity="1" stop-color="rgb(79.484558%, 65.783691%, 21.861267%)" offset="0.519531"/><stop stop-opacity="1" stop-color="rgb(79.26178%, 65.560913%, 21.661377%)" offset="0.53125"/><stop stop-opacity="1" stop-color="rgb(79.199219%, 65.306091%, 21.598816%)" offset="0.542969"/><stop stop-opacity="1" stop-color="rgb(79.01001%, 65.104675%, 21.598816%)" offset="0.546875"/><stop stop-opacity="1" stop-color="rgb(78.81012%, 64.91394%, 21.598816%)" offset="0.550781"/><stop stop-opacity="1" stop-color="rgb(78.799438%, 64.71405%, 21.418762%)" offset="0.554688"/><stop stop-opacity="1" stop-color="rgb(78.623962%, 64.523315%, 21.218872%)" offset="0.558594"/><stop stop-opacity="1" stop-color="rgb(78.40271%, 64.303589%, 21.179199%)" offset="0.5625"/><stop stop-opacity="1" stop-color="rgb(78.178406%, 64.073181%, 20.973206%)" offset="0.566406"/><stop stop-opacity="1" stop-color="rgb(77.807617%, 63.693237%, 20.593262%)" offset="0.578125"/><stop stop-opacity="1" stop-color="rgb(77.606201%, 63.311768%, 20.211792%)" offset="0.589844"/><stop stop-opacity="1" stop-color="rgb(77.598572%, 63.111877%, 20.011902%)" offset="0.59375"/><stop stop-opacity="1" stop-color="rgb(77.598572%, 62.921143%, 19.999695%)" offset="0.597656"/><stop stop-opacity="1" stop-color="rgb(77.449036%, 62.702942%, 19.799805%)" offset="0.601562"/><stop stop-opacity="1" stop-color="rgb(77.279663%, 62.532043%, 19.599915%)" offset="0.605469"/><stop stop-opacity="1" stop-color="rgb(77.079773%, 62.385559%, 19.584656%)" offset="0.609375"/><stop stop-opacity="1" stop-color="rgb(76.899719%, 62.185669%, 19.384766%)" offset="0.613281"/><stop stop-opacity="1" stop-color="rgb(76.899719%, 61.994934%, 19.198608%)" offset="0.617188"/><stop stop-opacity="1" stop-color="rgb(76.899719%, 61.795044%, 19.198608%)" offset="0.621094"/><stop stop-opacity="1" stop-color="rgb(76.704407%, 61.599731%, 19.003296%)" offset="0.625"/><stop stop-opacity="1" stop-color="rgb(76.504517%, 61.413574%, 18.803406%)" offset="0.628906"/><stop stop-opacity="1" stop-color="rgb(76.318359%, 61.032104%, 18.617249%)" offset="0.636719"/><stop stop-opacity="1" stop-color="rgb(75.941467%, 60.816956%, 18.417358%)" offset="0.640625"/><stop stop-opacity="1" stop-color="rgb(75.721741%, 60.588074%, 18.199158%)" offset="0.644531"/><stop stop-opacity="1" stop-color="rgb(75.692749%, 60.188293%, 17.993164%)" offset="0.648438"/><stop stop-opacity="1" stop-color="rgb(75.492859%, 59.997559%, 17.793274%)" offset="0.65625"/><stop stop-opacity="1" stop-color="rgb(75.299072%, 59.80072%, 17.599487%)" offset="0.664062"/><stop stop-opacity="1" stop-color="rgb(75.106812%, 59.410095%, 17.454529%)" offset="0.671875"/><stop stop-opacity="1" stop-color="rgb(74.906921%, 59.01947%, 17.304993%)" offset="0.679688"/><stop stop-opacity="1" stop-color="rgb(74.801636%, 58.714294%, 17.201233%)" offset="0.6875"/><stop stop-opacity="1" stop-color="rgb(74.594116%, 58.493042%, 17.001343%)" offset="0.691406"/><stop stop-opacity="1" stop-color="rgb(74.291992%, 58.190918%, 16.896057%)" offset="0.695312"/><stop stop-opacity="1" stop-color="rgb(74.099731%, 57.998657%, 16.697693%)" offset="0.703125"/><stop stop-opacity="1" stop-color="rgb(73.907471%, 57.806396%, 16.500854%)" offset="0.710938"/><stop stop-opacity="1" stop-color="rgb(73.707581%, 57.606506%, 16.316223%)" offset="0.714844"/><stop stop-opacity="1" stop-color="rgb(73.521423%, 57.4646%, 16.116333%)" offset="0.722656"/><stop stop-opacity="1" stop-color="rgb(73.309326%, 57.302856%, 15.887451%)" offset="0.726562"/><stop stop-opacity="1" stop-color="rgb(73.086548%, 57.080078%, 15.487671%)" offset="0.730469"/><stop stop-opacity="1" stop-color="rgb(72.895813%, 56.689453%, 15.296936%)" offset="0.738281"/><stop stop-opacity="1" stop-color="rgb(72.698975%, 56.298828%, 15.098572%)" offset="0.746094"/><stop stop-opacity="1" stop-color="rgb(72.50061%, 55.909729%, 14.900208%)" offset="0.753906"/><stop stop-opacity="1" stop-color="rgb(72.499084%, 55.708313%, 14.898682%)" offset="0.757812"/><stop stop-opacity="1" stop-color="rgb(72.499084%, 55.699158%, 14.717102%)" offset="0.761719"/><stop stop-opacity="1" stop-color="rgb(72.499084%, 55.699158%, 14.517212%)" offset="0.765625"/><stop stop-opacity="1" stop-color="rgb(72.348022%, 55.499268%, 14.477539%)" offset="0.769531"/><stop stop-opacity="1" stop-color="rgb(72.198486%, 55.299377%, 14.277649%)" offset="0.773438"/><stop stop-opacity="1" stop-color="rgb(72.186279%, 55.28717%, 14.099121%)" offset="0.777344"/><stop stop-opacity="1" stop-color="rgb(71.986389%, 55.079651%, 14.091492%)" offset="0.78125"/><stop stop-opacity="1" stop-color="rgb(71.795654%, 54.692078%, 13.891602%)" offset="0.785156"/><stop stop-opacity="1" stop-color="rgb(71.59729%, 54.499817%, 13.699341%)" offset="0.789062"/><stop stop-opacity="1" stop-color="rgb(71.400452%, 54.304504%, 13.504028%)" offset="0.792969"/><stop stop-opacity="1" stop-color="rgb(71.398926%, 54.103088%, 13.304138%)" offset="0.804688"/><stop stop-opacity="1" stop-color="rgb(71.398926%, 53.923035%, 13.299561%)" offset="0.808594"/><stop stop-opacity="1" stop-color="rgb(71.188354%, 53.713989%, 13.09967%)" offset="0.8125"/><stop stop-opacity="1" stop-color="rgb(70.788574%, 53.483582%, 12.89978%)" offset="0.816406"/><stop stop-opacity="1" stop-color="rgb(70.597839%, 53.092957%, 12.898254%)" offset="0.824219"/><stop stop-opacity="1" stop-color="rgb(70.402527%, 52.702332%, 12.702942%)" offset="0.832031"/><stop stop-opacity="1" stop-color="rgb(70.011902%, 52.359009%, 12.503052%)" offset="0.839844"/><stop stop-opacity="1" stop-color="rgb(69.807434%, 52.104187%, 12.5%)" offset="0.847656"/><stop stop-opacity="1" stop-color="rgb(69.787598%, 51.885986%, 12.5%)" offset="0.851562"/><stop stop-opacity="1" stop-color="rgb(69.584656%, 51.585388%, 12.348938%)" offset="0.855469"/><stop stop-opacity="1" stop-color="rgb(69.198608%, 51.199341%, 12.199402%)" offset="0.871094"/><stop stop-opacity="1" stop-color="rgb(69.000244%, 51.000977%, 12.199402%)" offset="0.878906"/><stop stop-opacity="1" stop-color="rgb(68.998718%, 50.813293%, 12.013245%)" offset="0.882812"/><stop stop-opacity="1" stop-color="rgb(68.817139%, 50.613403%, 11.813354%)" offset="0.886719"/><stop stop-opacity="1" stop-color="rgb(68.617249%, 50.59967%, 11.799622%)" offset="0.890625"/><stop stop-opacity="1" stop-color="rgb(68.598938%, 50.39978%, 11.799622%)" offset="0.894531"/><stop stop-opacity="1" stop-color="rgb(68.582153%, 50.18158%, 11.781311%)" offset="0.898438"/><stop stop-opacity="1" stop-color="rgb(68.382263%, 49.969482%, 11.581421%)" offset="0.902344"/><stop stop-opacity="1" stop-color="rgb(68.19458%, 49.581909%, 11.399841%)" offset="0.90625"/><stop stop-opacity="1" stop-color="rgb(67.996216%, 49.195862%, 11.399841%)" offset="0.910156"/><stop stop-opacity="1" stop-color="rgb(67.654419%, 48.999023%, 11.399841%)" offset="0.917969"/><stop stop-opacity="1" stop-color="rgb(67.503357%, 48.808289%, 11.399841%)" offset="0.925781"/><stop stop-opacity="1" stop-color="rgb(67.498779%, 48.509216%, 11.399841%)" offset="0.933594"/><stop stop-opacity="1" stop-color="rgb(67.478943%, 48.298645%, 11.399841%)" offset="0.9375"/><stop stop-opacity="1" stop-color="rgb(67.279053%, 48.182678%, 11.399841%)" offset="0.941406"/><stop stop-opacity="1" stop-color="rgb(67.098999%, 47.982788%, 11.399841%)" offset="0.945312"/><stop stop-opacity="1" stop-color="rgb(67.092896%, 47.795105%, 11.399841%)" offset="0.949219"/><stop stop-opacity="1" stop-color="rgb(66.891479%, 47.644043%, 11.399841%)" offset="0.953125"/><stop stop-opacity="1" stop-color="rgb(66.50238%, 47.302246%, 11.399841%)" offset="0.957031"/><stop stop-opacity="1" stop-color="rgb(66.30249%, 47.102356%, 11.399841%)" offset="0.964844"/><stop stop-opacity="1" stop-color="rgb(66.299438%, 46.920776%, 11.399841%)" offset="0.972656"/><stop stop-opacity="1" stop-color="rgb(66.099548%, 46.708679%, 11.399841%)" offset="0.976562"/><stop stop-opacity="1" stop-color="rgb(65.899658%, 46.577454%, 11.399841%)" offset="0.980469"/><stop stop-opacity="1" stop-color="rgb(65.884399%, 46.374512%, 11.399841%)" offset="0.984375"/><stop stop-opacity="1" stop-color="rgb(65.684509%, 46.084595%, 11.399841%)" offset="0.988281"/><stop stop-opacity="1" stop-color="rgb(65.499878%, 45.899963%, 11.399841%)" offset="1"/></radialGradient><clipPath id="0958f22e77"><path d="M 328.355469 50 L 1082.855469 50 L 1082.855469 305 L 328.355469 305 Z M 328.355469 50 " clip-rule="nonzero"/></clipPath><clipPath id="20a83a06aa"><path d="M 584.117188 198.480469 L 839.117188 198.480469 L 839.117188 330.480469 L 584.117188 330.480469 Z M 584.117188 198.480469 " clip-rule="nonzero"/></clipPath><clipPath id="79fce84da8"><path d="M 588 200 L 835 200 L 835 330.480469 L 588 330.480469 Z M 588 200 " clip-rule="nonzero"/></clipPath></defs><g clip-path="url(#11e848b45c)"><g clip-path="url(#410aebd5e3)"><g clip-path="url(#5b9ee47117)"><g clip-path="url(#825189b0bc)"><path fill="url(#b9f00af3cc)" d="M 354.574219 -63.015625 L 297.390625 299.269531 L 1068.667969 421.101562 L 1125.851562 58.816406 Z M 354.574219 -63.015625 " fill-rule="nonzero"/></g></g></g></g><g clip-path="url(#0958f22e77)"><path fill="#100f0d" d="M 705.605469 244.464844 C 718.6875 244.464844 705.605469 213.011719 705.605469 213.011719 C 705.605469 213.011719 692.527344 244.464844 705.605469 244.464844 Z M 648.207031 168.875 C 625.871094 166.667969 630.203125 189.84375 640.242188 190.46875 C 650.285156 191.09375 678.855469 193.167969 693.921875 207.722656 C 693.921875 207.722656 670.546875 171.078125 648.207031 168.875 Z M 418.761719 237.964844 C 418.761719 237.964844 405.535156 242.445312 401.695312 253.964844 C 397.859375 265.480469 389.230469 276.351562 389.230469 276.351562 C 389.230469 276.351562 394.980469 275.714844 400.417969 263.875 C 405.851562 252.046875 415.996094 239.25 418.761719 237.964844 Z M 433.445312 234.828125 C 433.445312 234.828125 424.378906 243.957031 418.429688 257.71875 C 412.484375 271.480469 407.648438 286.015625 381.285156 280.410156 C 381.285156 280.410156 392.222656 250.898438 394.664062 246.761719 C 400.875 236.25 416.398438 234.027344 433.445312 234.828125 Z M 395.300781 168.875 C 395.300781 168.875 399.136719 184.546875 402.015625 190.46875 C 404.890625 196.375 409.152344 201.753906 418.71875 212.015625 C 417.984375 211.21875 406.746094 198.976562 404.898438 190.625 C 402.976562 181.988281 395.300781 168.875 395.300781 168.875 Z M 393.519531 189.035156 C 393.703125 175.40625 390.550781 164.054688 390.550781 164.054688 C 408.917969 164.144531 419.691406 183.257812 422.390625 197.445312 C 425.089844 211.625 432.359375 223.390625 431.046875 223.070312 C 410.136719 218.023438 393.347656 202.402344 393.519531 189.035156 Z M 552.070312 196.289062 C 552.070312 196.289062 544.375 206.140625 543.148438 219.6875 C 541.914062 233.234375 548.070312 243.402344 543.148438 249.558594 C 543.148438 249.558594 548.210938 246.785156 547.527344 232.308594 C 546.835938 217.839844 549.300781 208.359375 552.070312 198.46875 Z M 560.996094 222.464844 C 564.386719 236.320312 558.539062 252.328125 538.21875 255.714844 C 538.21875 255.714844 536.988281 239.089844 534.21875 231.390625 C 531.445312 223.691406 539.582031 194.75 556.140625 183.664062 C 556.140625 183.664062 557.613281 208.605469 560.996094 222.464844 Z M 576.078125 193.476562 C 567.460938 187.589844 560.996094 179.660156 560.996094 179.660156 C 560.996094 186.742188 564.386719 206.140625 570.84375 208.605469 C 577.3125 211.070312 588.085938 217.535156 588.085938 217.535156 C 588.085938 209.21875 584.699219 199.367188 576.078125 193.476562 Z M 470.714844 178.195312 C 473.738281 179.375 478.613281 182.441406 484.660156 187.648438 C 493.585938 195.332031 502.367188 193.210938 502.367188 193.210938 C 502.367188 193.210938 492.046875 188.28125 482.503906 182.429688 C 477.601562 179.421875 473.414062 178.503906 470.714844 178.195312 C 469.277344 177.636719 468.257812 177.496094 467.734375 177.765625 C 466.941406 178.171875 468.164062 177.90625 470.714844 178.195312 Z M 460.339844 176.269531 C 460.339844 176.269531 471.734375 170.585938 486.8125 174.964844 C 501.898438 179.351562 503.722656 191.777344 515.417969 192.285156 C 515.441406 192.285156 510.828125 201.832031 491.742188 197.214844 C 472.65625 192.589844 472.960938 178.734375 460.339844 176.269531 Z M 501.285156 157.074219 C 514.515625 170.511719 528.675781 171.039062 528.675781 171.039062 C 526.210938 171.039062 501.285156 157.074219 501.285156 157.074219 Z M 484.660156 153.484375 C 484.660156 153.484375 496.96875 147.328125 512.367188 153.484375 C 527.757812 159.644531 535.65625 169.804688 546.171875 169.5 C 546.171875 169.5 533.296875 181.503906 516.980469 176.582031 C 500.664062 171.652344 491.742188 153.789062 484.660156 153.484375 Z M 538.527344 135.621094 C 548.375 147.632812 562.847656 153.484375 564.078125 153.484375 C 564.078125 153.484375 548.996094 141.476562 542.835938 135.007812 C 536.679688 128.539062 528.675781 123.617188 528.675781 123.617188 C 528.675781 123.617188 528.675781 123.617188 538.527344 135.621094 Z M 518.519531 120.292969 C 518.519531 120.292969 533.296875 114.378906 544.066406 125.769531 C 554.84375 137.167969 569.183594 153.957031 574.847656 154.410156 C 574.847656 154.410156 565 161.492188 547.457031 152.558594 C 529.90625 143.628906 530.214844 125.285156 518.519531 120.292969 Z M 593.34375 124.9375 C 607.273438 134.808594 653.128906 140.617188 653.128906 140.617188 C 615.980469 130.746094 602.636719 108.101562 596.246094 106.941406 C 589.863281 105.78125 579.417969 115.066406 593.34375 124.9375 Z M 700.289062 211.304688 C 700.285156 211.355469 700.277344 211.417969 700.273438 211.460938 C 700.277344 211.425781 700.285156 211.371094 700.289062 211.304688 Z M 404.898438 222.921875 C 404.898438 222.921875 378.035156 206.941406 346.058594 204.703125 C 346.058594 204.703125 390.503906 223.871094 404.898438 222.921875 Z M 626.875 156.273438 C 591.097656 157.5 567.714844 171.246094 546.175781 186.382812 C 546.175781 186.382812 546.171875 186.386719 546.171875 186.386719 C 546 186.503906 513.25 213.769531 512.089844 253.253906 C 510.925781 292.738281 539.042969 300.863281 546.171875 297.964844 C 546.171875 297.964844 537.046875 296.21875 539.945312 286.929688 C 542.851562 277.644531 560.265625 285.675781 554.457031 298.496094 C 548.652344 311.3125 518.472656 305.511719 506.867188 272.414062 C 499.214844 250.601562 501.332031 228.03125 513.183594 209.195312 C 503.171875 215.296875 492.449219 220.539062 480.074219 223.9375 C 458.214844 229.941406 435.03125 229.53125 415.140625 226.921875 C 409.1875 229.15625 398.703125 234.722656 380.476562 233.636719 C 357.777344 232.28125 328.355469 199.382812 328.355469 199.382812 C 336.671875 202.808594 345.945312 194.683594 373.445312 196.578125 C 399.484375 198.363281 416.828125 223.152344 418.601562 225.78125 C 440.628906 226.738281 472.222656 224.375 497.347656 207.621094 C 533.113281 183.769531 563.613281 153.984375 607.390625 147.746094 C 561.792969 141.632812 528.082031 110.183594 526.9375 85.140625 C 525.535156 54.378906 545.910156 44.621094 566.894531 54.378906 C 587.878906 64.148438 586.417969 92.464844 572.753906 96.367188 C 559.085938 100.277344 557.136719 81.722656 563.964844 78.796875 C 570.796875 75.867188 573.726562 82.699219 573.726562 82.699219 C 579.585938 72.445312 571.777344 55.355469 553.234375 57.316406 C 543.5 58.335938 536.609375 68.902344 536.605469 82.167969 C 543.523438 85.242188 542.492188 94.90625 542.492188 94.90625 C 542.988281 87.085938 550.304688 86.605469 550.304688 86.605469 C 547.375 110.035156 568.960938 127.886719 568.964844 127.886719 C 592.253906 140.6875 621.5625 145.429688 634.101562 146.957031 C 634.882812 147.015625 635.671875 147.078125 636.46875 147.15625 C 637.753906 147.273438 639.003906 147.429688 640.242188 147.585938 C 647.828125 148.589844 654.484375 150.316406 660.3125 152.59375 L 660.3125 152.585938 C 661.261719 138.746094 670.570312 145.8125 670.570312 145.8125 C 672.414062 143.152344 675.308594 142.003906 675.308594 142.003906 C 678.421875 152.558594 689.238281 174.964844 689.238281 174.964844 C 699.882812 190.285156 701.027344 206.925781 700.289062 211.304688 C 700.597656 207.597656 695.679688 153.914062 626.875 156.273438 Z M 700.460938 105.113281 C 705.507812 97.328125 700.460938 74.679688 700.460938 74.679688 C 698.796875 80.484375 700.460938 105.113281 700.460938 105.113281 Z M 687.210938 103.292969 C 687.210938 103.292969 686.378906 78.824219 702.121094 68.882812 C 702.121094 68.882812 712.480469 87.195312 713.722656 103.167969 C 713.722656 103.167969 702.121094 108.699219 702.121094 114.882812 C 702.121094 114.882812 692.179688 103.304688 687.210938 103.292969 Z M 669.808594 112.394531 C 683.890625 111.984375 695.496094 128.777344 695.496094 128.777344 C 684.308594 107.023438 669.808594 112.394531 669.808594 112.394531 Z M 658.207031 114.472656 C 658.207031 114.472656 680.992188 89.539062 702.121094 121.070312 C 702.121094 121.070312 696.734375 137.066406 697.980469 144.628906 C 697.980469 144.628906 680.578125 118.199219 658.207031 114.472656 Z M 708.335938 140.503906 C 719.523438 113.5 737.148438 101.621094 737.148438 101.621094 C 712.933594 103.691406 708.003906 141.300781 708.335938 140.503906 Z M 702.121094 165.714844 C 702.121094 165.714844 702.121094 115.710938 718.433594 103.167969 C 734.742188 90.621094 752.964844 99.964844 752.964844 99.964844 C 724.257812 118.617188 702.121094 165.714844 702.121094 165.714844 Z M 763.007812 168.875 C 740.667969 171.078125 717.289062 207.722656 717.289062 207.722656 C 732.355469 193.167969 760.925781 191.09375 770.972656 190.46875 C 781.007812 189.84375 785.339844 166.667969 763.007812 168.875 Z M 1021.984375 276.351562 C 1021.984375 276.351562 1013.355469 265.480469 1009.515625 253.964844 C 1005.679688 242.445312 992.453125 237.964844 992.453125 237.964844 C 995.214844 239.25 1005.359375 252.046875 1010.796875 263.875 C 1016.230469 275.714844 1021.984375 276.351562 1021.984375 276.351562 Z M 1016.546875 246.761719 C 1018.988281 250.898438 1029.929688 280.410156 1029.929688 280.410156 C 1003.558594 286.015625 998.730469 271.480469 992.78125 257.71875 C 986.828125 243.957031 977.761719 234.828125 977.761719 234.828125 C 994.808594 234.027344 1010.335938 236.25 1016.546875 246.761719 Z M 992.492188 212.015625 C 1002.058594 201.753906 1006.320312 196.375 1009.199219 190.46875 C 1012.074219 184.546875 1015.910156 168.875 1015.910156 168.875 C 1015.910156 168.875 1008.238281 181.988281 1006.316406 190.625 C 1004.464844 198.976562 993.230469 211.21875 992.492188 212.015625 Z M 980.167969 223.070312 C 978.851562 223.390625 986.121094 211.625 988.820312 197.445312 C 991.519531 183.257812 1002.296875 164.144531 1020.664062 164.054688 C 1020.664062 164.054688 1017.507812 175.40625 1017.6875 189.035156 C 1017.863281 202.402344 1001.074219 218.023438 980.167969 223.070312 Z M 1065.15625 204.703125 C 1033.175781 206.941406 1006.316406 222.921875 1006.316406 222.921875 C 1020.703125 223.871094 1065.15625 204.703125 1065.15625 204.703125 Z M 1082.855469 199.382812 C 1082.855469 199.382812 1053.4375 232.28125 1030.738281 233.636719 C 1012.511719 234.722656 1002.03125 229.15625 996.070312 226.921875 C 976.183594 229.53125 953 229.941406 931.132812 223.9375 C 918.765625 220.539062 908.042969 215.296875 898.035156 209.195312 C 909.882812 228.03125 911.996094 250.601562 904.347656 272.414062 C 892.738281 305.511719 862.558594 311.3125 856.753906 298.496094 C 850.949219 285.675781 868.359375 277.644531 871.265625 286.929688 C 874.167969 296.21875 865.042969 297.964844 865.042969 297.964844 C 872.167969 300.863281 900.285156 292.738281 899.125 253.253906 C 897.960938 213.769531 865.210938 186.503906 865.042969 186.386719 L 865.035156 186.382812 C 843.496094 171.246094 820.113281 157.5 784.339844 156.273438 C 715.527344 153.914062 710.617188 207.597656 710.921875 211.304688 C 710.1875 206.925781 711.328125 190.285156 721.976562 174.964844 C 721.976562 174.964844 732.792969 152.558594 735.902344 142.003906 C 735.902344 142.003906 738.796875 143.152344 740.644531 145.8125 C 740.644531 145.8125 749.949219 138.746094 750.90625 152.585938 L 750.898438 152.59375 C 756.730469 150.316406 763.382812 148.589844 770.972656 147.585938 C 772.207031 147.429688 773.457031 147.273438 774.742188 147.15625 C 775.539062 147.078125 776.328125 147.015625 777.117188 146.957031 C 789.652344 145.429688 818.957031 140.6875 842.246094 127.886719 C 842.253906 127.886719 863.839844 110.035156 860.910156 86.605469 C 860.910156 86.605469 868.226562 87.085938 868.71875 94.90625 C 868.71875 94.90625 867.6875 85.242188 874.609375 82.167969 C 874.601562 68.902344 867.710938 58.335938 857.980469 57.316406 C 839.4375 55.355469 831.625 72.445312 837.484375 82.699219 C 837.484375 82.699219 840.414062 75.867188 847.246094 78.796875 C 854.078125 81.722656 852.125 100.277344 838.457031 96.367188 C 824.792969 92.464844 823.332031 64.148438 844.316406 54.378906 C 865.300781 44.621094 885.679688 54.378906 884.277344 85.140625 C 883.132812 110.183594 849.421875 141.632812 803.820312 147.746094 C 847.601562 153.984375 878.097656 183.769531 913.867188 207.621094 C 938.988281 224.375 970.582031 226.738281 992.609375 225.78125 C 994.378906 223.152344 1011.726562 198.363281 1037.769531 196.578125 C 1065.273438 194.683594 1074.539062 202.808594 1082.855469 199.382812 Z M 710.921875 211.304688 C 710.929688 211.371094 710.933594 211.425781 710.941406 211.460938 C 710.933594 211.417969 710.929688 211.355469 710.921875 211.304688 Z M 859.140625 198.46875 C 861.910156 208.359375 864.375 217.839844 863.6875 232.308594 C 863.003906 246.785156 868.066406 249.558594 868.066406 249.558594 C 863.144531 243.402344 869.296875 233.234375 868.066406 219.6875 C 866.839844 206.140625 859.140625 196.289062 859.140625 196.289062 Z M 850.210938 222.464844 C 853.601562 208.605469 855.074219 183.664062 855.074219 183.664062 C 871.625 194.75 879.765625 223.691406 876.996094 231.390625 C 874.226562 239.089844 872.992188 255.714844 872.992188 255.714844 C 852.679688 252.328125 846.828125 236.320312 850.210938 222.464844 Z M 835.132812 193.476562 C 826.515625 199.367188 823.125 209.21875 823.125 217.535156 C 823.125 217.535156 833.902344 211.070312 840.367188 208.605469 C 846.828125 206.140625 850.210938 186.742188 850.210938 179.660156 C 850.210938 179.660156 843.75 187.589844 835.132812 193.476562 Z M 928.707031 182.429688 C 919.164062 188.28125 908.84375 193.210938 908.84375 193.210938 C 908.84375 193.210938 917.625 195.332031 926.550781 187.648438 C 932.605469 182.441406 937.472656 179.375 940.496094 178.195312 C 943.050781 177.90625 944.269531 178.171875 943.484375 177.765625 C 942.957031 177.496094 941.9375 177.636719 940.496094 178.195312 C 937.796875 178.503906 933.613281 179.421875 928.707031 182.429688 Z M 924.398438 174.964844 C 939.476562 170.585938 950.871094 176.269531 950.871094 176.269531 C 938.25 178.734375 938.558594 192.589844 919.472656 197.214844 C 900.386719 201.832031 895.769531 192.285156 895.792969 192.285156 C 907.488281 191.777344 909.316406 179.351562 924.398438 174.964844 Z M 882.535156 171.039062 C 882.535156 171.039062 896.695312 170.511719 909.929688 157.074219 C 909.929688 157.074219 885 171.039062 882.535156 171.039062 Z M 865.042969 169.5 C 875.558594 169.804688 883.457031 159.644531 898.851562 153.484375 C 914.242188 147.328125 926.550781 153.484375 926.550781 153.484375 C 919.472656 153.789062 910.546875 171.652344 894.230469 176.582031 C 877.914062 181.503906 865.042969 169.5 865.042969 169.5 Z M 882.535156 123.617188 C 882.535156 123.617188 874.53125 128.539062 868.378906 135.007812 C 862.21875 141.476562 847.132812 153.484375 847.132812 153.484375 C 848.367188 153.484375 862.835938 147.632812 872.6875 135.621094 C 882.535156 123.617188 882.535156 123.617188 882.535156 123.617188 Z M 892.691406 120.292969 C 881 125.285156 881.304688 143.628906 863.757812 152.558594 C 846.214844 161.492188 836.363281 154.410156 836.363281 154.410156 C 842.03125 153.957031 856.371094 137.167969 867.144531 125.769531 C 877.914062 114.378906 892.691406 120.292969 892.691406 120.292969 Z M 817.867188 124.9375 C 803.9375 134.808594 758.085938 140.617188 758.085938 140.617188 C 795.234375 130.746094 808.578125 108.101562 814.96875 106.941406 C 821.351562 105.78125 831.796875 115.066406 817.867188 124.9375 " fill-opacity="1" fill-rule="nonzero"/></g><g clip-path="url(#20a83a06aa)"><path fill="#eaa418" d="M 810.230469 330.46875 L 613 330.46875 C 597.117188 330.46875 584.125 317.503906 584.125 301.652344 L 584.125 227.300781 C 584.125 211.453125 597.117188 198.484375 613 198.484375 L 810.230469 198.484375 C 826.113281 198.484375 839.109375 211.453125 839.109375 227.300781 L 839.109375 301.652344 C 839.109375 317.503906 826.113281 330.46875 810.230469 330.46875 " fill-opacity="1" fill-rule="nonzero"/></g><g clip-path="url(#79fce84da8)"><path fill="#ffbd21" d="M 806.058594 330.46875 L 616.917969 330.46875 C 601.035156 330.46875 588.039062 317.503906 588.039062 301.652344 L 588.039062 229.328125 C 588.039062 213.480469 601.035156 200.511719 616.917969 200.511719 L 806.058594 200.511719 C 821.941406 200.511719 834.9375 213.480469 834.9375 229.328125 L 834.9375 301.652344 C 834.9375 317.503906 821.941406 330.46875 806.058594 330.46875 " fill-opacity="1" fill-rule="nonzero"/></g><path fill="#ffbd21" d="M 809.378906 318.375 L 613.851562 318.375 C 604.503906 318.375 596.855469 310.746094 596.855469 301.417969 L 596.855469 225.691406 C 596.855469 216.363281 604.503906 208.730469 613.851562 208.730469 L 809.378906 208.730469 C 818.726562 208.730469 826.375 216.363281 826.375 225.691406 L 826.375 301.417969 C 826.375 310.746094 818.726562 318.375 809.378906 318.375 " fill-opacity="1" fill-rule="nonzero"/><path fill="#ffffff" d="M 819.484375 316.480469 C 819.484375 319.53125 817.003906 322.003906 813.949219 322.003906 C 810.890625 322.003906 808.410156 319.53125 808.410156 316.480469 C 808.410156 313.429688 810.890625 310.957031 813.949219 310.957031 C 817.003906 310.957031 819.484375 313.429688 819.484375 316.480469 " fill-opacity="1" fill-rule="nonzero"/><path fill="#ffffff" d="M 829.988281 306.03125 C 829.988281 309.082031 827.511719 311.554688 824.453125 311.554688 C 821.394531 311.554688 818.917969 309.082031 818.917969 306.03125 C 818.917969 302.980469 821.394531 300.503906 824.453125 300.503906 C 827.511719 300.503906 829.988281 302.980469 829.988281 306.03125 " fill-opacity="1" fill-rule="nonzero"/><path fill="#ffffff" d="M 831.910156 290.398438 C 831.910156 293.449219 829.433594 295.925781 826.375 295.925781 C 823.316406 295.925781 820.839844 293.449219 820.839844 290.398438 C 820.839844 287.347656 823.316406 284.875 826.375 284.875 C 829.433594 284.875 831.910156 287.347656 831.910156 290.398438 " fill-opacity="1" fill-rule="nonzero"/><path fill="#ffffff" d="M 831.910156 274.386719 C 831.910156 277.4375 829.433594 279.910156 826.375 279.910156 C 823.316406 279.910156 820.839844 277.4375 820.839844 274.386719 C 820.839844 271.335938 823.316406 268.863281 826.375 268.863281 C 829.433594 268.863281 831.910156 271.335938 831.910156 274.386719 " fill-opacity="1" fill-rule="nonzero"/><path fill="#ffffff" d="M 831.910156 258.375 C 831.910156 261.425781 829.433594 263.898438 826.375 263.898438 C 823.316406 263.898438 820.839844 261.425781 820.839844 258.375 C 820.839844 255.320312 823.316406 252.847656 826.375 252.847656 C 829.433594 252.847656 831.910156 255.320312 831.910156 258.375 " fill-opacity="1" fill-rule="nonzero"/><path fill="#ffffff" d="M 831.910156 242.359375 C 831.910156 245.410156 829.433594 247.882812 826.375 247.882812 C 823.316406 247.882812 820.839844 245.410156 820.839844 242.359375 C 820.839844 239.308594 823.316406 236.835938 826.375 236.835938 C 829.433594 236.835938 831.910156 239.308594 831.910156 242.359375 " fill-opacity="1" fill-rule="nonzero"/><path fill="#ffffff" d="M 831.910156 226.347656 C 831.910156 229.398438 829.433594 231.871094 826.375 231.871094 C 823.316406 231.871094 820.839844 229.398438 820.839844 226.347656 C 820.839844 223.296875 823.316406 220.820312 826.375 220.820312 C 829.433594 220.820312 831.910156 223.296875 831.910156 226.347656 " fill-opacity="1" fill-rule="nonzero"/><path fill="#ffffff" d="M 824.710938 212.796875 C 824.710938 215.847656 822.234375 218.320312 819.175781 218.320312 C 816.117188 218.320312 813.640625 215.847656 813.640625 212.796875 C 813.640625 209.746094 816.117188 207.273438 819.175781 207.273438 C 822.234375 207.273438 824.710938 209.746094 824.710938 212.796875 " fill-opacity="1" fill-rule="nonzero"/><path fill="#ffffff" d="M 809.480469 208.730469 C 809.480469 211.78125 807 214.253906 803.945312 214.253906 C 800.886719 214.253906 798.40625 211.78125 798.40625 208.730469 C 798.40625 205.679688 800.886719 203.207031 803.945312 203.207031 C 807 203.207031 809.480469 205.679688 809.480469 208.730469 " fill-opacity="1" fill-rule="nonzero"/><path fill="#ffffff" d="M 793.429688 208.730469 C 793.429688 211.78125 790.953125 214.253906 787.894531 214.253906 C 784.839844 214.253906 782.359375 211.78125 782.359375 208.730469 C 782.359375 205.679688 784.839844 203.207031 787.894531 203.207031 C 790.953125 203.207031 793.429688 205.679688 793.429688 208.730469 " fill-opacity="1" fill-rule="nonzero"/><path fill="#ffffff" d="M 777.382812 208.730469 C 777.382812 211.78125 774.90625 214.253906 771.847656 214.253906 C 768.792969 214.253906 766.3125 211.78125 766.3125 208.730469 C 766.3125 205.679688 768.792969 203.207031 771.847656 203.207031 C 774.90625 203.207031 777.382812 205.679688 777.382812 208.730469 " fill-opacity="1" fill-rule="nonzero"/><path fill="#ffffff" d="M 761.335938 208.730469 C 761.335938 211.78125 758.859375 214.253906 755.800781 214.253906 C 752.746094 214.253906 750.265625 211.78125 750.265625 208.730469 C 750.265625 205.679688 752.746094 203.207031 755.800781 203.207031 C 758.859375 203.207031 761.335938 205.679688 761.335938 208.730469 " fill-opacity="1" fill-rule="nonzero"/><path fill="#ffffff" d="M 745.292969 208.730469 C 745.292969 211.78125 742.8125 214.253906 739.753906 214.253906 C 736.695312 214.253906 734.21875 211.78125 734.21875 208.730469 C 734.21875 205.679688 736.695312 203.207031 739.753906 203.207031 C 742.8125 203.207031 745.292969 205.679688 745.292969 208.730469 " fill-opacity="1" fill-rule="nonzero"/><path fill="#ffffff" d="M 729.242188 208.730469 C 729.242188 211.78125 726.765625 214.253906 723.707031 214.253906 C 720.648438 214.253906 718.171875 211.78125 718.171875 208.730469 C 718.171875 205.679688 720.648438 203.207031 723.707031 203.207031 C 726.765625 203.207031 729.242188 205.679688 729.242188 208.730469 " fill-opacity="1" fill-rule="nonzero"/><path fill="#ffffff" d="M 713.199219 208.730469 C 713.199219 211.78125 710.71875 214.253906 707.660156 214.253906 C 704.601562 214.253906 702.125 211.78125 702.125 208.730469 C 702.125 205.679688 704.601562 203.207031 707.660156 203.207031 C 710.71875 203.207031 713.199219 205.679688 713.199219 208.730469 " fill-opacity="1" fill-rule="nonzero"/><path fill="#ffffff" d="M 697.152344 208.730469 C 697.152344 211.78125 694.671875 214.253906 691.613281 214.253906 C 688.554688 214.253906 686.078125 211.78125 686.078125 208.730469 C 686.078125 205.679688 688.554688 203.207031 691.613281 203.207031 C 694.671875 203.207031 697.152344 205.679688 697.152344 208.730469 " fill-opacity="1" fill-rule="nonzero"/><path fill="#ffffff" d="M 681.101562 208.730469 C 681.101562 211.78125 678.625 214.253906 675.566406 214.253906 C 672.507812 214.253906 670.03125 211.78125 670.03125 208.730469 C 670.03125 205.679688 672.507812 203.207031 675.566406 203.207031 C 678.625 203.207031 681.101562 205.679688 681.101562 208.730469 " fill-opacity="1" fill-rule="nonzero"/><path fill="#ffffff" d="M 665.054688 208.730469 C 665.054688 211.78125 662.578125 214.253906 659.519531 214.253906 C 656.460938 214.253906 653.984375 211.78125 653.984375 208.730469 C 653.984375 205.679688 656.460938 203.207031 659.519531 203.207031 C 662.578125 203.207031 665.054688 205.679688 665.054688 208.730469 " fill-opacity="1" fill-rule="nonzero"/><path fill="#ffffff" d="M 649.007812 208.730469 C 649.007812 211.78125 646.53125 214.253906 643.472656 214.253906 C 640.414062 214.253906 637.9375 211.78125 637.9375 208.730469 C 637.9375 205.679688 640.414062 203.207031 643.472656 203.207031 C 646.53125 203.207031 649.007812 205.679688 649.007812 208.730469 " fill-opacity="1" fill-rule="nonzero"/><path fill="#ffffff" d="M 632.960938 208.730469 C 632.960938 211.78125 630.484375 214.253906 627.425781 214.253906 C 624.367188 214.253906 621.890625 211.78125 621.890625 208.730469 C 621.890625 205.679688 624.367188 203.207031 627.425781 203.207031 C 630.484375 203.207031 632.960938 205.679688 632.960938 208.730469 " fill-opacity="1" fill-rule="nonzero"/><path fill="#ffffff" d="M 617.105469 209.679688 C 617.105469 212.730469 614.625 215.203125 611.570312 215.203125 C 608.511719 215.203125 606.03125 212.730469 606.03125 209.679688 C 606.03125 206.628906 608.511719 204.152344 611.570312 204.152344 C 614.625 204.152344 617.105469 206.628906 617.105469 209.679688 " fill-opacity="1" fill-rule="nonzero"/><path fill="#ffffff" d="M 605.265625 218.800781 C 605.265625 221.851562 602.785156 224.324219 599.730469 224.324219 C 596.671875 224.324219 594.191406 221.851562 594.191406 218.800781 C 594.191406 215.746094 596.671875 213.277344 599.730469 213.277344 C 602.785156 213.277344 605.265625 215.746094 605.265625 218.800781 " fill-opacity="1" fill-rule="nonzero"/><path fill="#ffffff" d="M 602.394531 234.242188 C 602.394531 237.292969 599.914062 239.765625 596.855469 239.765625 C 593.800781 239.765625 591.320312 237.292969 591.320312 234.242188 C 591.320312 231.1875 593.800781 228.714844 596.855469 228.714844 C 599.914062 228.714844 602.394531 231.1875 602.394531 234.242188 " fill-opacity="1" fill-rule="nonzero"/><path fill="#ffffff" d="M 602.394531 250.253906 C 602.394531 253.304688 599.914062 255.777344 596.855469 255.777344 C 593.800781 255.777344 591.320312 253.304688 591.320312 250.253906 C 591.320312 247.203125 593.800781 244.730469 596.855469 244.730469 C 599.914062 244.730469 602.394531 247.203125 602.394531 250.253906 " fill-opacity="1" fill-rule="nonzero"/><path fill="#ffffff" d="M 602.394531 266.265625 C 602.394531 269.320312 599.914062 271.789062 596.855469 271.789062 C 593.800781 271.789062 591.320312 269.320312 591.320312 266.265625 C 591.320312 263.214844 593.800781 260.742188 596.855469 260.742188 C 599.914062 260.742188 602.394531 263.214844 602.394531 266.265625 " fill-opacity="1" fill-rule="nonzero"/><path fill="#ffffff" d="M 602.394531 282.28125 C 602.394531 285.332031 599.914062 287.804688 596.855469 287.804688 C 593.800781 287.804688 591.320312 285.332031 591.320312 282.28125 C 591.320312 279.230469 593.800781 276.753906 596.855469 276.753906 C 599.914062 276.753906 602.394531 279.230469 602.394531 282.28125 " fill-opacity="1" fill-rule="nonzero"/><path fill="#ffffff" d="M 602.394531 298.292969 C 602.394531 301.34375 599.914062 303.816406 596.855469 303.816406 C 593.800781 303.816406 591.320312 301.34375 591.320312 298.292969 C 591.320312 295.242188 593.800781 292.769531 596.855469 292.769531 C 599.914062 292.769531 602.394531 295.242188 602.394531 298.292969 " fill-opacity="1" fill-rule="nonzero"/><path fill="#ffffff" d="M 607.355469 313.320312 C 607.355469 316.371094 604.875 318.84375 601.816406 318.84375 C 598.761719 318.84375 596.28125 316.371094 596.28125 313.320312 C 596.28125 310.265625 598.761719 307.792969 601.816406 307.792969 C 604.875 307.792969 607.355469 310.265625 607.355469 313.320312 " fill-opacity="1" fill-rule="nonzero"/><path fill="#ffffff" d="M 622.351562 318.375 C 622.351562 321.429688 619.875 323.902344 616.816406 323.902344 C 613.757812 323.902344 611.28125 321.429688 611.28125 318.375 C 611.28125 315.328125 613.757812 312.851562 616.816406 312.851562 C 619.875 312.851562 622.351562 315.328125 622.351562 318.375 " fill-opacity="1" fill-rule="nonzero"/><path fill="#ffffff" d="M 638.398438 318.375 C 638.398438 321.429688 635.921875 323.902344 632.863281 323.902344 C 629.804688 323.902344 627.328125 321.429688 627.328125 318.375 C 627.328125 315.328125 629.804688 312.851562 632.863281 312.851562 C 635.921875 312.851562 638.398438 315.328125 638.398438 318.375 " fill-opacity="1" fill-rule="nonzero"/><path fill="#ffffff" d="M 654.445312 318.375 C 654.445312 321.429688 651.96875 323.902344 648.910156 323.902344 C 645.851562 323.902344 643.375 321.429688 643.375 318.375 C 643.375 315.328125 645.851562 312.851562 648.910156 312.851562 C 651.96875 312.851562 654.445312 315.328125 654.445312 318.375 " fill-opacity="1" fill-rule="nonzero"/><path fill="#ffffff" d="M 670.492188 318.375 C 670.492188 321.429688 668.015625 323.902344 664.957031 323.902344 C 661.898438 323.902344 659.421875 321.429688 659.421875 318.375 C 659.421875 315.328125 661.898438 312.851562 664.957031 312.851562 C 668.015625 312.851562 670.492188 315.328125 670.492188 318.375 " fill-opacity="1" fill-rule="nonzero"/><path fill="#ffffff" d="M 686.539062 318.375 C 686.539062 321.429688 684.0625 323.902344 681.003906 323.902344 C 677.945312 323.902344 675.46875 321.429688 675.46875 318.375 C 675.46875 315.328125 677.945312 312.851562 681.003906 312.851562 C 684.0625 312.851562 686.539062 315.328125 686.539062 318.375 " fill-opacity="1" fill-rule="nonzero"/><path fill="#ffffff" d="M 702.589844 318.375 C 702.589844 321.429688 700.109375 323.902344 697.050781 323.902344 C 693.992188 323.902344 691.515625 321.429688 691.515625 318.375 C 691.515625 315.328125 693.992188 312.851562 697.050781 312.851562 C 700.109375 312.851562 702.589844 315.328125 702.589844 318.375 " fill-opacity="1" fill-rule="nonzero"/><path fill="#ffffff" d="M 718.636719 318.375 C 718.636719 321.429688 716.15625 323.902344 713.097656 323.902344 C 710.039062 323.902344 707.5625 321.429688 707.5625 318.375 C 707.5625 315.328125 710.039062 312.851562 713.097656 312.851562 C 716.15625 312.851562 718.636719 315.328125 718.636719 318.375 " fill-opacity="1" fill-rule="nonzero"/><path fill="#ffffff" d="M 734.683594 318.375 C 734.683594 321.429688 732.203125 323.902344 729.144531 323.902344 C 726.085938 323.902344 723.609375 321.429688 723.609375 318.375 C 723.609375 315.328125 726.085938 312.851562 729.144531 312.851562 C 732.203125 312.851562 734.683594 315.328125 734.683594 318.375 " fill-opacity="1" fill-rule="nonzero"/><path fill="#ffffff" d="M 750.730469 318.375 C 750.730469 321.429688 748.25 323.902344 745.191406 323.902344 C 742.136719 323.902344 739.65625 321.429688 739.65625 318.375 C 739.65625 315.328125 742.136719 312.851562 745.191406 312.851562 C 748.25 312.851562 750.730469 315.328125 750.730469 318.375 " fill-opacity="1" fill-rule="nonzero"/><path fill="#ffffff" d="M 766.773438 318.375 C 766.773438 321.429688 764.296875 323.902344 761.238281 323.902344 C 758.183594 323.902344 755.703125 321.429688 755.703125 318.375 C 755.703125 315.328125 758.183594 312.851562 761.238281 312.851562 C 764.296875 312.851562 766.773438 315.328125 766.773438 318.375 " fill-opacity="1" fill-rule="nonzero"/><path fill="#ffffff" d="M 782.824219 318.375 C 782.824219 321.429688 780.34375 323.902344 777.285156 323.902344 C 774.230469 323.902344 771.75 321.429688 771.75 318.375 C 771.75 315.328125 774.230469 312.851562 777.285156 312.851562 C 780.34375 312.851562 782.824219 315.328125 782.824219 318.375 " fill-opacity="1" fill-rule="nonzero"/><path fill="#ffffff" d="M 798.871094 318.375 C 798.871094 321.429688 796.390625 323.902344 793.335938 323.902344 C 790.277344 323.902344 787.796875 321.429688 787.796875 318.375 C 787.796875 315.328125 790.277344 312.851562 793.335938 312.851562 C 796.390625 312.851562 798.871094 315.328125 798.871094 318.375 " fill-opacity="1" fill-rule="nonzero"/><path fill="#ffffff" d="M 814.917969 318.375 C 814.917969 321.429688 812.4375 323.902344 809.378906 323.902344 C 806.324219 323.902344 803.84375 321.429688 803.84375 318.375 C 803.84375 315.328125 806.324219 312.851562 809.378906 312.851562 C 812.4375 312.851562 814.917969 315.328125 814.917969 318.375 " fill-opacity="1" fill-rule="nonzero"/><path fill="#d62628" d="M 791.230469 302.773438 L 632 302.773438 C 622.65625 302.773438 615.007812 295.140625 615.007812 285.8125 L 615.007812 243.140625 C 615.007812 233.8125 622.65625 226.179688 632 226.179688 L 791.230469 226.179688 C 800.578125 226.179688 808.222656 233.8125 808.222656 243.140625 L 808.222656 285.8125 C 808.222656 295.140625 800.578125 302.773438 791.230469 302.773438 " fill-opacity="1" fill-rule="nonzero"/><path fill="#ea363f" d="M 784.847656 294.3125 L 635.785156 294.3125 C 627.035156 294.3125 619.875 288.183594 619.875 280.691406 L 619.875 246.40625 C 619.875 238.910156 627.035156 232.78125 635.785156 232.78125 L 784.847656 232.78125 C 793.597656 232.78125 800.757812 238.910156 800.757812 246.40625 L 800.757812 280.691406 C 800.757812 288.183594 793.597656 294.3125 784.847656 294.3125 " fill-opacity="1" fill-rule="nonzero"/><path fill="#ffffff" d="M 802.46875 298.742188 C 802.46875 299.582031 801.785156 300.261719 800.941406 300.261719 C 800.101562 300.261719 799.417969 299.582031 799.417969 298.742188 C 799.417969 297.902344 800.101562 297.222656 800.941406 297.222656 C 801.785156 297.222656 802.46875 297.902344 802.46875 298.742188 " fill-opacity="1" fill-rule="nonzero"/><path fill="#ffffff" d="M 809.75 285.246094 C 809.75 286.085938 809.066406 286.769531 808.222656 286.769531 C 807.382812 286.769531 806.699219 286.085938 806.699219 285.246094 C 806.699219 284.40625 807.382812 283.726562 808.222656 283.726562 C 809.066406 283.726562 809.75 284.40625 809.75 285.246094 " fill-opacity="1" fill-rule="nonzero"/><path fill="#ffffff" d="M 809.75 269.234375 C 809.75 270.074219 809.066406 270.753906 808.222656 270.753906 C 807.382812 270.753906 806.699219 270.074219 806.699219 269.234375 C 806.699219 268.394531 807.382812 267.710938 808.222656 267.710938 C 809.066406 267.710938 809.75 268.394531 809.75 269.234375 " fill-opacity="1" fill-rule="nonzero"/><path fill="#ffffff" d="M 809.75 253.21875 C 809.75 254.058594 809.066406 254.742188 808.222656 254.742188 C 807.382812 254.742188 806.699219 254.058594 806.699219 253.21875 C 806.699219 252.378906 807.382812 251.699219 808.222656 251.699219 C 809.066406 251.699219 809.75 252.378906 809.75 253.21875 " fill-opacity="1" fill-rule="nonzero"/><path fill="#ffffff" d="M 807.464844 237.660156 C 807.464844 238.503906 806.78125 239.183594 805.941406 239.183594 C 805.097656 239.183594 804.417969 238.503906 804.417969 237.660156 C 804.417969 236.820312 805.097656 236.140625 805.941406 236.140625 C 806.78125 236.140625 807.464844 236.820312 807.464844 237.660156 " fill-opacity="1" fill-rule="nonzero"/><path fill="#ffffff" d="M 796.453125 227.714844 C 796.453125 228.554688 795.769531 229.238281 794.929688 229.238281 C 794.085938 229.238281 793.402344 228.554688 793.402344 227.714844 C 793.402344 226.875 794.085938 226.195312 794.929688 226.195312 C 795.769531 226.195312 796.453125 226.875 796.453125 227.714844 " fill-opacity="1" fill-rule="nonzero"/><path fill="#ffffff" d="M 780.714844 226.179688 C 780.714844 227.023438 780.03125 227.703125 779.191406 227.703125 C 778.347656 227.703125 777.664062 227.023438 777.664062 226.179688 C 777.664062 225.339844 778.347656 224.660156 779.191406 224.660156 C 780.03125 224.660156 780.714844 225.339844 780.714844 226.179688 " fill-opacity="1" fill-rule="nonzero"/><path fill="#ffffff" d="M 764.664062 226.179688 C 764.664062 227.023438 763.984375 227.703125 763.140625 227.703125 C 762.300781 227.703125 761.617188 227.023438 761.617188 226.179688 C 761.617188 225.339844 762.300781 224.660156 763.140625 224.660156 C 763.984375 224.660156 764.664062 225.339844 764.664062 226.179688 " fill-opacity="1" fill-rule="nonzero"/><path fill="#ffffff" d="M 748.621094 226.179688 C 748.621094 227.023438 747.9375 227.703125 747.09375 227.703125 C 746.253906 227.703125 745.570312 227.023438 745.570312 226.179688 C 745.570312 225.339844 746.253906 224.660156 747.09375 224.660156 C 747.9375 224.660156 748.621094 225.339844 748.621094 226.179688 " fill-opacity="1" fill-rule="nonzero"/><path fill="#ffffff" d="M 732.574219 226.179688 C 732.574219 227.023438 731.890625 227.703125 731.046875 227.703125 C 730.207031 227.703125 729.523438 227.023438 729.523438 226.179688 C 729.523438 225.339844 730.207031 224.660156 731.046875 224.660156 C 731.890625 224.660156 732.574219 225.339844 732.574219 226.179688 " fill-opacity="1" fill-rule="nonzero"/><path fill="#ffffff" d="M 716.527344 226.179688 C 716.527344 227.023438 715.84375 227.703125 715 227.703125 C 714.160156 227.703125 713.476562 227.023438 713.476562 226.179688 C 713.476562 225.339844 714.160156 224.660156 715 224.660156 C 715.84375 224.660156 716.527344 225.339844 716.527344 226.179688 " fill-opacity="1" fill-rule="nonzero"/><path fill="#ffffff" d="M 700.480469 226.179688 C 700.480469 227.023438 699.796875 227.703125 698.953125 227.703125 C 698.113281 227.703125 697.429688 227.023438 697.429688 226.179688 C 697.429688 225.339844 698.113281 224.660156 698.953125 224.660156 C 699.796875 224.660156 700.480469 225.339844 700.480469 226.179688 " fill-opacity="1" fill-rule="nonzero"/><path fill="#ffffff" d="M 684.429688 226.179688 C 684.429688 227.023438 683.75 227.703125 682.90625 227.703125 C 682.066406 227.703125 681.382812 227.023438 681.382812 226.179688 C 681.382812 225.339844 682.066406 224.660156 682.90625 224.660156 C 683.75 224.660156 684.429688 225.339844 684.429688 226.179688 " fill-opacity="1" fill-rule="nonzero"/><path fill="#ffffff" d="M 668.382812 226.179688 C 668.382812 227.023438 667.703125 227.703125 666.859375 227.703125 C 666.019531 227.703125 665.335938 227.023438 665.335938 226.179688 C 665.335938 225.339844 666.019531 224.660156 666.859375 224.660156 C 667.703125 224.660156 668.382812 225.339844 668.382812 226.179688 " fill-opacity="1" fill-rule="nonzero"/><path fill="#ffffff" d="M 652.335938 226.179688 C 652.335938 227.023438 651.65625 227.703125 650.8125 227.703125 C 649.972656 227.703125 649.289062 227.023438 649.289062 226.179688 C 649.289062 225.339844 649.972656 224.660156 650.8125 224.660156 C 651.65625 224.660156 652.335938 225.339844 652.335938 226.179688 " fill-opacity="1" fill-rule="nonzero"/><path fill="#ffffff" d="M 636.289062 226.179688 C 636.289062 227.023438 635.609375 227.703125 634.765625 227.703125 C 633.921875 227.703125 633.242188 227.023438 633.242188 226.179688 C 633.242188 225.339844 633.921875 224.660156 634.765625 224.660156 C 635.609375 224.660156 636.289062 225.339844 636.289062 226.179688 " fill-opacity="1" fill-rule="nonzero"/><path fill="#ffffff" d="M 621.414062 231.425781 C 621.414062 232.265625 620.730469 232.945312 619.890625 232.945312 C 619.050781 232.945312 618.367188 232.265625 618.367188 231.425781 C 618.367188 230.585938 619.050781 229.902344 619.890625 229.902344 C 620.730469 229.902344 621.414062 230.585938 621.414062 231.425781 " fill-opacity="1" fill-rule="nonzero"/><path fill="#ffffff" d="M 616.53125 246.464844 C 616.53125 247.304688 615.851562 247.988281 615.007812 247.988281 C 614.164062 247.988281 613.484375 247.304688 613.484375 246.464844 C 613.484375 245.625 614.164062 244.945312 615.007812 244.945312 C 615.851562 244.945312 616.53125 245.625 616.53125 246.464844 " fill-opacity="1" fill-rule="nonzero"/><path fill="#ffffff" d="M 616.53125 262.480469 C 616.53125 263.320312 615.851562 264 615.007812 264 C 614.164062 264 613.484375 263.320312 613.484375 262.480469 C 613.484375 261.636719 614.164062 260.957031 615.007812 260.957031 C 615.851562 260.957031 616.53125 261.636719 616.53125 262.480469 " fill-opacity="1" fill-rule="nonzero"/><path fill="#ffffff" d="M 616.53125 278.492188 C 616.53125 279.332031 615.851562 280.015625 615.007812 280.015625 C 614.164062 280.015625 613.484375 279.332031 613.484375 278.492188 C 613.484375 277.652344 614.164062 276.972656 615.007812 276.972656 C 615.851562 276.972656 616.53125 277.652344 616.53125 278.492188 " fill-opacity="1" fill-rule="nonzero"/><path fill="#ffffff" d="M 619.875 293.839844 C 619.875 294.679688 619.195312 295.359375 618.351562 295.359375 C 617.511719 295.359375 616.828125 294.679688 616.828125 293.839844 C 616.828125 292.996094 617.511719 292.316406 618.351562 292.316406 C 619.195312 292.316406 619.875 292.996094 619.875 293.839844 " fill-opacity="1" fill-rule="nonzero"/><path fill="#ffffff" d="M 632.378906 302.296875 C 632.378906 303.136719 631.699219 303.816406 630.855469 303.816406 C 630.011719 303.816406 629.332031 303.136719 629.332031 302.296875 C 629.332031 301.457031 630.011719 300.773438 630.855469 300.773438 C 631.699219 300.773438 632.378906 301.457031 632.378906 302.296875 " fill-opacity="1" fill-rule="nonzero"/><path fill="#ffffff" d="M 648.332031 302.773438 C 648.332031 303.613281 647.648438 304.292969 646.804688 304.292969 C 645.964844 304.292969 645.28125 303.613281 645.28125 302.773438 C 645.28125 301.933594 645.964844 301.25 646.804688 301.25 C 647.648438 301.25 648.332031 301.933594 648.332031 302.773438 " fill-opacity="1" fill-rule="nonzero"/><path fill="#ffffff" d="M 664.378906 302.773438 C 664.378906 303.613281 663.695312 304.292969 662.855469 304.292969 C 662.011719 304.292969 661.328125 303.613281 661.328125 302.773438 C 661.328125 301.933594 662.011719 301.25 662.855469 301.25 C 663.695312 301.25 664.378906 301.933594 664.378906 302.773438 " fill-opacity="1" fill-rule="nonzero"/><path fill="#ffffff" d="M 680.425781 302.773438 C 680.425781 303.613281 679.742188 304.292969 678.902344 304.292969 C 678.058594 304.292969 677.375 303.613281 677.375 302.773438 C 677.375 301.933594 678.058594 301.25 678.902344 301.25 C 679.742188 301.25 680.425781 301.933594 680.425781 302.773438 " fill-opacity="1" fill-rule="nonzero"/><path fill="#ffffff" d="M 696.472656 302.773438 C 696.472656 303.613281 695.789062 304.292969 694.949219 304.292969 C 694.105469 304.292969 693.421875 303.613281 693.421875 302.773438 C 693.421875 301.933594 694.105469 301.25 694.949219 301.25 C 695.789062 301.25 696.472656 301.933594 696.472656 302.773438 " fill-opacity="1" fill-rule="nonzero"/><path fill="#ffffff" d="M 712.519531 302.773438 C 712.519531 303.613281 711.835938 304.292969 710.996094 304.292969 C 710.152344 304.292969 709.46875 303.613281 709.46875 302.773438 C 709.46875 301.933594 710.152344 301.25 710.996094 301.25 C 711.835938 301.25 712.519531 301.933594 712.519531 302.773438 " fill-opacity="1" fill-rule="nonzero"/><path fill="#ffffff" d="M 728.566406 302.773438 C 728.566406 303.613281 727.882812 304.292969 727.042969 304.292969 C 726.199219 304.292969 725.519531 303.613281 725.519531 302.773438 C 725.519531 301.933594 726.199219 301.25 727.042969 301.25 C 727.882812 301.25 728.566406 301.933594 728.566406 302.773438 " fill-opacity="1" fill-rule="nonzero"/><path fill="#ffffff" d="M 744.613281 302.773438 C 744.613281 303.613281 743.929688 304.292969 743.089844 304.292969 C 742.246094 304.292969 741.566406 303.613281 741.566406 302.773438 C 741.566406 301.933594 742.246094 301.25 743.089844 301.25 C 743.929688 301.25 744.613281 301.933594 744.613281 302.773438 " fill-opacity="1" fill-rule="nonzero"/><path fill="#ffffff" d="M 760.660156 302.773438 C 760.660156 303.613281 759.976562 304.292969 759.136719 304.292969 C 758.292969 304.292969 757.613281 303.613281 757.613281 302.773438 C 757.613281 301.933594 758.292969 301.25 759.136719 301.25 C 759.976562 301.25 760.660156 301.933594 760.660156 302.773438 " fill-opacity="1" fill-rule="nonzero"/><path fill="#ffffff" d="M 776.707031 302.773438 C 776.707031 303.613281 776.027344 304.292969 775.183594 304.292969 C 774.339844 304.292969 773.660156 303.613281 773.660156 302.773438 C 773.660156 301.933594 774.339844 301.25 775.183594 301.25 C 776.027344 301.25 776.707031 301.933594 776.707031 302.773438 " fill-opacity="1" fill-rule="nonzero"/><path fill="#ffffff" d="M 792.753906 302.773438 C 792.753906 303.613281 792.074219 304.292969 791.230469 304.292969 C 790.386719 304.292969 789.703125 303.613281 789.703125 302.773438 C 789.703125 301.933594 790.386719 301.25 791.230469 301.25 C 792.074219 301.25 792.753906 301.933594 792.753906 302.773438 " fill-opacity="1" fill-rule="nonzero"/><path fill="#ffffff" d="M 654.113281 279.761719 C 652.8125 280.386719 649.722656 281.160156 645.8125 281.160156 C 634.5625 281.160156 628.769531 274.125 628.769531 264.878906 C 628.769531 253.792969 636.6875 247.675781 646.535156 247.675781 C 650.347656 247.675781 653.246094 248.402344 654.546875 249.121094 L 653.003906 254.902344 C 651.554688 254.277344 649.480469 253.699219 646.824219 253.699219 C 641.03125 253.699219 636.492188 257.214844 636.492188 264.445312 C 636.492188 270.945312 640.355469 275.042969 646.871094 275.042969 C 649.140625 275.042969 651.554688 274.609375 653.050781 273.980469 L 654.113281 279.761719 " fill-opacity="1" fill-rule="nonzero"/><path fill="#ffffff" d="M 675.304688 266.800781 L 673.277344 259.914062 C 672.699219 257.988281 672.117188 255.578125 671.636719 253.648438 L 671.539062 253.648438 C 671.058594 255.578125 670.574219 258.035156 670.042969 259.914062 L 668.113281 266.800781 Z M 667.050781 272.296875 L 664.734375 280.628906 L 657.152344 280.628906 L 667.050781 248.160156 L 676.707031 248.160156 L 686.84375 280.628906 L 678.878906 280.628906 L 676.367188 272.296875 L 667.050781 272.296875 " fill-opacity="1" fill-rule="nonzero"/><path fill="#ffffff" d="M 691.378906 273.066406 C 693.3125 274.078125 696.398438 275.089844 699.539062 275.089844 C 702.917969 275.089844 704.703125 273.691406 704.703125 271.574219 C 704.703125 269.550781 703.160156 268.394531 699.25 267.042969 C 693.839844 265.117188 690.269531 262.128906 690.269531 257.40625 C 690.269531 251.867188 694.953125 247.675781 702.578125 247.675781 C 706.296875 247.675781 708.953125 248.402344 710.882812 249.316406 L 709.242188 255.195312 C 707.984375 254.566406 705.621094 253.648438 702.484375 253.648438 C 699.296875 253.648438 697.75 255.144531 697.75 256.78125 C 697.75 258.855469 699.539062 259.769531 703.785156 261.359375 C 709.53125 263.476562 712.1875 266.464844 712.1875 271.042969 C 712.1875 276.484375 708.035156 281.113281 699.101562 281.113281 C 695.386719 281.113281 691.71875 280.097656 689.882812 279.089844 L 691.378906 273.066406 " fill-opacity="1" fill-rule="nonzero"/><path fill="#ffffff" d="M 724.589844 248.160156 L 724.589844 280.628906 L 717.253906 280.628906 L 717.253906 248.160156 L 724.589844 248.160156 " fill-opacity="1" fill-rule="nonzero"/><path fill="#ffffff" d="M 730.960938 280.628906 L 730.960938 248.160156 L 739.554688 248.160156 L 746.3125 260.058594 C 748.246094 263.476562 750.128906 267.527344 751.625 271.1875 L 751.722656 271.1875 C 751.289062 266.898438 751.140625 262.515625 751.140625 257.601562 L 751.140625 248.160156 L 757.902344 248.160156 L 757.902344 280.628906 L 750.175781 280.628906 L 743.226562 268.101562 C 741.292969 264.636719 739.121094 260.441406 737.578125 256.636719 L 737.382812 256.636719 C 737.625 260.972656 737.722656 265.550781 737.722656 270.851562 L 737.722656 280.628906 L 730.960938 280.628906 " fill-opacity="1" fill-rule="nonzero"/><path fill="#ffffff" d="M 770.546875 264.445312 C 770.546875 270.851562 773.539062 275.328125 778.464844 275.328125 C 783.4375 275.328125 786.285156 270.609375 786.285156 264.296875 C 786.285156 258.421875 783.535156 253.410156 778.464844 253.410156 C 773.441406 253.410156 770.546875 258.132812 770.546875 264.445312 Z M 794.058594 264.054688 C 794.058594 274.75 787.636719 281.160156 778.078125 281.160156 C 768.472656 281.160156 762.773438 273.882812 762.773438 264.585938 C 762.773438 254.855469 769.050781 247.582031 778.609375 247.582031 C 788.601562 247.582031 794.058594 255.050781 794.058594 264.054688 " fill-opacity="1" fill-rule="nonzero"/></svg>