<svg xmlns="http://www.w3.org/2000/svg" xmlns:xlink="http://www.w3.org/1999/xlink" width="1890" zoomAndPan="magnify" viewBox="0 0 1417.5 675.000002" height="900" preserveAspectRatio="xMidYMid meet" version="1.0"><defs><clipPath id="bb5d889e93"><path d="M 207.75 78.519531 L 1217.398438 78.519531 L 1217.398438 418.636719 L 207.75 418.636719 Z M 207.75 78.519531 " clip-rule="nonzero"/></clipPath><clipPath id="96c38f3ef2"><path d="M 712.574219 337.863281 C 730.078125 337.863281 712.574219 295.757812 712.574219 295.757812 C 712.574219 295.757812 695.070312 337.863281 712.574219 337.863281 Z M 635.761719 236.671875 C 605.875 233.71875 611.671875 264.742188 625.105469 265.578125 C 638.546875 266.414062 676.777344 269.195312 696.941406 288.675781 C 696.941406 288.675781 665.65625 239.621094 635.761719 236.671875 Z M 328.726562 329.171875 C 328.726562 329.171875 311.027344 335.164062 305.890625 350.582031 C 300.757812 366 289.207031 380.554688 289.207031 380.554688 C 289.207031 380.554688 296.90625 379.703125 304.179688 363.859375 C 311.453125 348.007812 325.027344 330.886719 328.726562 329.171875 Z M 348.375 324.964844 C 348.375 324.964844 336.242188 337.1875 328.285156 355.609375 C 320.328125 374.035156 313.859375 393.496094 278.574219 385.988281 C 278.574219 385.988281 293.214844 346.476562 296.480469 340.945312 C 304.796875 326.867188 325.5625 323.902344 348.375 324.964844 Z M 297.332031 236.671875 C 297.332031 236.671875 302.46875 257.652344 306.316406 265.578125 C 310.167969 273.488281 315.871094 280.6875 328.671875 294.425781 C 327.6875 293.359375 312.652344 276.96875 310.175781 265.792969 C 307.601562 254.226562 297.332031 236.671875 297.332031 236.671875 Z M 294.949219 263.660156 C 295.195312 245.417969 290.976562 230.222656 290.976562 230.222656 C 315.554688 230.339844 329.972656 255.925781 333.585938 274.917969 C 337.199219 293.902344 346.925781 309.652344 345.164062 309.226562 C 317.1875 302.46875 294.722656 281.554688 294.949219 263.660156 Z M 507.117188 273.371094 C 507.117188 273.371094 496.816406 286.5625 495.175781 304.703125 C 493.527344 322.835938 501.761719 336.445312 495.175781 344.6875 C 495.175781 344.6875 501.953125 340.976562 501.039062 321.601562 C 500.113281 302.222656 503.410156 289.53125 507.117188 276.300781 Z M 519.0625 308.414062 C 523.597656 326.957031 515.773438 348.394531 488.582031 352.925781 C 488.582031 352.925781 486.933594 330.664062 483.226562 320.363281 C 479.519531 310.054688 490.40625 271.308594 512.5625 256.46875 C 512.5625 256.46875 514.535156 289.859375 519.0625 308.414062 Z M 539.246094 269.605469 C 527.714844 261.71875 519.0625 251.109375 519.0625 251.109375 C 519.0625 260.589844 523.597656 286.5625 532.242188 289.859375 C 540.894531 293.160156 555.3125 301.8125 555.3125 301.8125 C 555.3125 290.683594 550.777344 277.492188 539.246094 269.605469 Z M 398.25 249.152344 C 402.296875 250.730469 408.820312 254.835938 416.914062 261.804688 C 428.855469 272.089844 440.609375 269.25 440.609375 269.25 C 440.609375 269.25 426.796875 262.648438 414.027344 254.820312 C 407.464844 250.792969 401.863281 249.5625 398.25 249.152344 C 396.324219 248.402344 394.960938 248.210938 394.257812 248.574219 C 393.203125 249.121094 394.835938 248.765625 398.25 249.152344 Z M 384.367188 246.578125 C 384.367188 246.578125 399.613281 238.960938 419.792969 244.824219 C 439.976562 250.699219 442.421875 267.332031 458.070312 268.011719 C 458.105469 268.011719 451.925781 280.789062 426.386719 274.601562 C 400.84375 268.421875 401.253906 249.871094 384.367188 246.578125 Z M 439.15625 220.875 C 456.863281 238.863281 475.8125 239.566406 475.8125 239.566406 C 472.515625 239.566406 439.15625 220.875 439.15625 220.875 Z M 416.914062 216.066406 C 416.914062 216.066406 433.382812 207.824219 453.984375 216.066406 C 474.582031 224.316406 485.152344 237.917969 499.222656 237.507812 C 499.222656 237.507812 481.996094 253.578125 460.164062 246.988281 C 438.328125 240.390625 426.386719 216.476562 416.914062 216.066406 Z M 488.992188 192.15625 C 502.171875 208.234375 521.539062 216.066406 523.1875 216.066406 C 523.1875 216.066406 503 199.996094 494.757812 191.335938 C 486.523438 182.675781 475.8125 176.082031 475.8125 176.082031 C 475.8125 176.082031 475.8125 176.082031 488.992188 192.15625 Z M 462.222656 171.632812 C 462.222656 171.632812 481.996094 163.714844 496.40625 178.964844 C 510.824219 194.222656 530.015625 216.699219 537.597656 217.304688 C 537.597656 217.304688 524.417969 226.789062 500.941406 214.828125 C 477.460938 202.875 477.871094 178.316406 462.222656 171.632812 Z M 562.351562 177.851562 C 580.988281 191.066406 642.347656 198.84375 642.347656 198.84375 C 592.640625 185.628906 574.78125 155.3125 566.230469 153.757812 C 557.6875 152.203125 543.710938 164.636719 562.351562 177.851562 Z M 310.175781 309.027344 C 310.175781 309.027344 274.230469 287.628906 231.4375 284.636719 C 231.4375 284.636719 290.914062 310.300781 310.175781 309.027344 Z M 607.214844 219.800781 C 559.34375 221.441406 528.054688 239.84375 499.230469 260.109375 C 499.230469 260.109375 499.222656 260.117188 499.222656 260.117188 C 498.996094 260.273438 455.167969 296.785156 453.617188 349.636719 C 452.0625 402.488281 489.6875 413.371094 499.222656 409.488281 C 499.222656 409.488281 487.011719 407.152344 490.894531 394.71875 C 494.78125 382.277344 518.082031 393.039062 510.3125 410.199219 C 502.542969 427.359375 462.15625 419.59375 446.625 375.285156 C 436.386719 346.082031 439.21875 315.863281 455.082031 290.652344 C 441.679688 298.820312 427.332031 305.839844 410.777344 310.386719 C 381.519531 318.421875 350.496094 317.878906 323.882812 314.378906 C 315.917969 317.363281 301.882812 324.824219 277.496094 323.371094 C 247.117188 321.5625 207.75 277.515625 207.75 277.515625 C 218.878906 282.101562 231.289062 271.222656 268.085938 273.757812 C 302.933594 276.148438 326.140625 309.335938 328.515625 312.855469 C 357.992188 314.136719 400.269531 310.96875 433.886719 288.542969 C 481.75 256.609375 522.5625 216.738281 581.144531 208.386719 C 520.125 200.199219 475.015625 158.101562 473.484375 124.574219 C 471.609375 83.398438 498.875 70.324219 526.957031 83.398438 C 555.039062 96.472656 553.082031 134.378906 534.796875 139.605469 C 516.503906 144.839844 513.894531 119.996094 523.035156 116.082031 C 532.179688 112.15625 536.097656 121.304688 536.097656 121.304688 C 543.9375 107.578125 533.488281 84.699219 508.671875 87.320312 C 495.648438 88.6875 486.429688 102.832031 486.421875 120.59375 C 495.679688 124.714844 494.300781 137.648438 494.300781 137.648438 C 494.964844 127.179688 504.753906 126.53125 504.753906 126.53125 C 500.832031 157.902344 529.71875 181.796875 529.726562 181.796875 C 560.890625 198.9375 600.109375 205.285156 616.886719 207.328125 C 617.933594 207.40625 618.992188 207.492188 620.058594 207.597656 C 621.777344 207.753906 623.449219 207.960938 625.105469 208.171875 C 635.257812 209.515625 644.164062 211.828125 651.964844 214.875 L 651.964844 214.867188 C 653.234375 196.339844 665.6875 205.796875 665.6875 205.796875 C 668.15625 202.238281 672.03125 200.6875 672.03125 200.6875 C 676.195312 214.828125 690.667969 244.824219 690.667969 244.824219 C 704.914062 265.335938 706.445312 287.621094 705.460938 293.476562 C 705.871094 288.511719 699.289062 216.644531 607.214844 219.800781 Z M 705.460938 293.476562 C 705.453125 293.539062 705.445312 293.625 705.433594 293.683594 C 705.445312 293.632812 705.453125 293.5625 705.460938 293.476562 Z M 705.6875 151.3125 C 712.441406 140.890625 705.6875 110.578125 705.6875 110.578125 C 703.464844 118.335938 705.6875 151.3125 705.6875 151.3125 Z M 687.957031 148.871094 C 687.957031 148.871094 686.84375 116.121094 707.914062 102.808594 C 707.914062 102.808594 721.769531 127.320312 723.4375 148.707031 C 723.4375 148.707031 707.914062 156.109375 707.914062 164.390625 C 707.914062 164.390625 694.605469 148.886719 687.957031 148.871094 Z M 664.671875 161.0625 C 683.515625 160.507812 699.046875 182.992188 699.046875 182.992188 C 684.074219 153.871094 664.671875 161.0625 664.671875 161.0625 Z M 649.148438 163.839844 C 649.148438 163.839844 679.632812 130.464844 707.914062 172.671875 C 707.914062 172.671875 700.703125 194.097656 702.367188 204.210938 C 702.367188 204.210938 679.082031 168.828125 649.148438 163.839844 Z M 716.226562 198.691406 C 731.199219 162.535156 754.78125 146.636719 754.78125 146.636719 C 722.378906 149.410156 715.785156 199.757812 716.226562 198.691406 Z M 707.914062 232.4375 C 707.914062 232.4375 707.914062 165.496094 729.738281 148.707031 C 751.5625 131.90625 775.945312 144.421875 775.945312 144.421875 C 737.53125 169.390625 707.914062 232.4375 707.914062 232.4375 Z M 789.386719 236.671875 C 759.492188 239.621094 728.207031 288.675781 728.207031 288.675781 C 748.371094 269.195312 786.601562 266.414062 800.042969 265.578125 C 813.476562 264.742188 819.273438 233.71875 789.386719 236.671875 Z M 1135.9375 380.554688 C 1135.9375 380.554688 1124.390625 366 1119.257812 350.582031 C 1114.121094 335.164062 1096.421875 329.171875 1096.421875 329.171875 C 1100.121094 330.886719 1113.695312 348.007812 1120.96875 363.859375 C 1128.242188 379.703125 1135.9375 380.554688 1135.9375 380.554688 Z M 1128.667969 340.945312 C 1131.933594 346.476562 1146.570312 385.988281 1146.570312 385.988281 C 1111.28125 393.496094 1104.820312 374.035156 1096.863281 355.609375 C 1088.894531 337.1875 1076.765625 324.964844 1076.765625 324.964844 C 1099.578125 323.902344 1120.351562 326.867188 1128.667969 340.945312 Z M 1096.476562 294.425781 C 1109.277344 280.6875 1114.980469 273.488281 1118.832031 265.578125 C 1122.679688 257.652344 1127.816406 236.671875 1127.816406 236.671875 C 1127.816406 236.671875 1117.542969 254.226562 1114.972656 265.792969 C 1112.496094 276.96875 1097.460938 293.359375 1096.476562 294.425781 Z M 1079.984375 309.226562 C 1078.222656 309.652344 1087.949219 293.902344 1091.5625 274.917969 C 1095.175781 255.925781 1109.59375 230.339844 1134.171875 230.222656 C 1134.171875 230.222656 1129.953125 245.417969 1130.1875 263.660156 C 1130.425781 281.554688 1107.960938 302.46875 1079.984375 309.226562 Z M 719.6875 293.476562 C 719.695312 293.5625 719.703125 293.632812 719.710938 293.683594 C 719.703125 293.625 719.695312 293.539062 719.6875 293.476562 Z M 1193.710938 284.636719 C 1150.917969 287.628906 1114.972656 309.027344 1114.972656 309.027344 C 1134.226562 310.300781 1193.710938 284.636719 1193.710938 284.636719 Z M 1217.398438 277.515625 C 1217.398438 277.515625 1178.027344 321.5625 1147.652344 323.371094 C 1123.261719 324.824219 1109.238281 317.363281 1101.265625 314.378906 C 1074.652344 317.878906 1043.628906 318.421875 1014.363281 310.386719 C 997.816406 305.839844 983.46875 298.820312 970.074219 290.652344 C 985.929688 315.863281 988.757812 346.082031 978.519531 375.285156 C 962.988281 419.59375 922.605469 427.359375 914.835938 410.199219 C 907.066406 393.039062 930.367188 382.277344 934.253906 394.71875 C 938.136719 407.152344 925.925781 409.488281 925.925781 409.488281 C 935.460938 413.371094 973.085938 402.488281 971.53125 349.636719 C 969.980469 296.785156 926.152344 260.273438 925.925781 260.117188 C 925.925781 260.117188 925.917969 260.109375 925.917969 260.109375 C 897.09375 239.84375 865.804688 221.441406 817.933594 219.800781 C 725.847656 216.644531 719.277344 288.511719 719.6875 293.476562 C 718.703125 287.621094 720.234375 265.335938 734.480469 244.824219 C 734.480469 244.824219 748.953125 214.828125 753.117188 200.6875 C 753.117188 200.6875 756.992188 202.238281 759.460938 205.796875 C 759.460938 205.796875 771.914062 196.339844 773.191406 214.867188 L 773.183594 214.875 C 780.984375 211.828125 789.890625 209.515625 800.042969 208.171875 C 801.699219 207.960938 803.371094 207.753906 805.089844 207.597656 C 806.15625 207.492188 807.210938 207.40625 808.269531 207.328125 C 825.039062 205.285156 864.257812 198.9375 895.421875 181.796875 C 895.429688 181.796875 924.316406 157.902344 920.394531 126.53125 C 920.394531 126.53125 930.183594 127.179688 930.847656 137.648438 C 930.847656 137.648438 929.464844 124.714844 938.726562 120.59375 C 938.71875 102.832031 929.5 88.6875 916.476562 87.320312 C 891.660156 84.699219 881.207031 107.578125 889.050781 121.304688 C 889.050781 121.304688 892.96875 112.15625 902.113281 116.082031 C 911.253906 119.996094 908.644531 144.839844 890.351562 139.605469 C 872.066406 134.378906 870.109375 96.472656 898.191406 83.398438 C 926.273438 70.324219 953.539062 83.398438 951.664062 124.574219 C 950.132812 158.101562 905.023438 200.199219 844 208.386719 C 902.585938 216.738281 943.398438 256.609375 991.261719 288.542969 C 1024.878906 310.96875 1067.15625 314.136719 1096.632812 312.855469 C 1099 309.335938 1122.214844 276.148438 1157.0625 273.757812 C 1193.867188 271.222656 1206.265625 282.101562 1217.398438 277.515625 Z M 918.027344 276.300781 C 921.738281 289.53125 925.035156 302.222656 924.109375 321.601562 C 923.195312 340.976562 929.972656 344.6875 929.972656 344.6875 C 923.386719 336.445312 931.621094 322.835938 929.972656 304.703125 C 928.332031 286.5625 918.027344 273.371094 918.027344 273.371094 Z M 906.078125 308.414062 C 910.613281 289.859375 912.585938 256.46875 912.585938 256.46875 C 934.734375 271.308594 945.628906 310.054688 941.921875 320.363281 C 938.214844 330.664062 936.566406 352.925781 936.566406 352.925781 C 909.382812 348.394531 901.550781 326.957031 906.078125 308.414062 Z M 885.902344 269.605469 C 874.371094 277.492188 869.835938 290.683594 869.835938 301.8125 C 869.835938 301.8125 884.253906 293.160156 892.90625 289.859375 C 901.550781 286.5625 906.078125 260.589844 906.078125 251.109375 C 906.078125 251.109375 897.433594 261.71875 885.902344 269.605469 Z M 1011.121094 254.820312 C 998.351562 262.648438 984.539062 269.25 984.539062 269.25 C 984.539062 269.25 996.292969 272.089844 1008.234375 261.804688 C 1016.335938 254.835938 1022.851562 250.730469 1026.898438 249.152344 C 1030.3125 248.765625 1031.945312 249.121094 1030.898438 248.574219 C 1030.1875 248.210938 1028.820312 248.402344 1026.898438 249.152344 C 1023.285156 249.5625 1017.683594 250.792969 1011.121094 254.820312 Z M 1005.355469 244.824219 C 1025.53125 238.960938 1040.78125 246.578125 1040.78125 246.578125 C 1023.890625 249.871094 1024.300781 268.421875 998.761719 274.601562 C 973.21875 280.789062 967.042969 268.011719 967.074219 268.011719 C 982.726562 267.332031 985.171875 250.699219 1005.355469 244.824219 Z M 949.335938 239.566406 C 949.335938 239.566406 968.28125 238.863281 985.992188 220.875 C 985.992188 220.875 952.632812 239.566406 949.335938 239.566406 Z M 925.925781 237.507812 C 939.996094 237.917969 950.566406 224.316406 971.167969 216.066406 C 991.765625 207.824219 1008.234375 216.066406 1008.234375 216.066406 C 998.761719 216.476562 986.820312 240.390625 964.984375 246.988281 C 943.152344 253.578125 925.925781 237.507812 925.925781 237.507812 Z M 949.335938 176.082031 C 949.335938 176.082031 938.625 182.675781 930.390625 191.335938 C 922.148438 199.996094 901.960938 216.066406 901.960938 216.066406 C 903.609375 216.066406 922.976562 208.234375 936.15625 192.15625 C 949.335938 176.082031 949.335938 176.082031 949.335938 176.082031 Z M 962.925781 171.632812 C 947.277344 178.316406 947.6875 202.875 924.207031 214.828125 C 900.730469 226.789062 887.550781 217.304688 887.550781 217.304688 C 895.128906 216.699219 914.320312 194.222656 928.742188 178.964844 C 943.152344 163.714844 962.925781 171.632812 962.925781 171.632812 Z M 862.796875 177.851562 C 844.160156 191.066406 782.800781 198.84375 782.800781 198.84375 C 832.507812 185.628906 850.367188 155.3125 858.917969 153.757812 C 867.460938 152.203125 881.4375 164.636719 862.796875 177.851562 Z M 862.796875 177.851562 " clip-rule="nonzero"/></clipPath><clipPath id="7fe69da7b8"><path d="M 712.574219 337.863281 C 730.078125 337.863281 712.574219 295.757812 712.574219 295.757812 C 712.574219 295.757812 695.070312 337.863281 712.574219 337.863281 Z M 635.761719 236.671875 C 605.875 233.71875 611.671875 264.742188 625.105469 265.578125 C 638.546875 266.414062 676.777344 269.195312 696.941406 288.675781 C 696.941406 288.675781 665.65625 239.621094 635.761719 236.671875 Z M 328.726562 329.171875 C 328.726562 329.171875 311.027344 335.164062 305.890625 350.582031 C 300.757812 366 289.207031 380.554688 289.207031 380.554688 C 289.207031 380.554688 296.90625 379.703125 304.179688 363.859375 C 311.453125 348.007812 325.027344 330.886719 328.726562 329.171875 Z M 348.375 324.964844 C 348.375 324.964844 336.242188 337.1875 328.285156 355.609375 C 320.328125 374.035156 313.859375 393.496094 278.574219 385.988281 C 278.574219 385.988281 293.214844 346.476562 296.480469 340.945312 C 304.796875 326.867188 325.5625 323.902344 348.375 324.964844 Z M 297.332031 236.671875 C 297.332031 236.671875 302.46875 257.652344 306.316406 265.578125 C 310.167969 273.488281 315.871094 280.6875 328.671875 294.425781 C 327.6875 293.359375 312.652344 276.96875 310.175781 265.792969 C 307.601562 254.226562 297.332031 236.671875 297.332031 236.671875 Z M 294.949219 263.660156 C 295.195312 245.417969 290.976562 230.222656 290.976562 230.222656 C 315.554688 230.339844 329.972656 255.925781 333.585938 274.917969 C 337.199219 293.902344 346.925781 309.652344 345.164062 309.226562 C 317.1875 302.46875 294.722656 281.554688 294.949219 263.660156 Z M 507.117188 273.371094 C 507.117188 273.371094 496.816406 286.5625 495.175781 304.703125 C 493.527344 322.835938 501.761719 336.445312 495.175781 344.6875 C 495.175781 344.6875 501.953125 340.976562 501.039062 321.601562 C 500.113281 302.222656 503.410156 289.53125 507.117188 276.300781 Z M 519.0625 308.414062 C 523.597656 326.957031 515.773438 348.394531 488.582031 352.925781 C 488.582031 352.925781 486.933594 330.664062 483.226562 320.363281 C 479.519531 310.054688 490.40625 271.308594 512.5625 256.46875 C 512.5625 256.46875 514.535156 289.859375 519.0625 308.414062 Z M 539.246094 269.605469 C 527.714844 261.71875 519.0625 251.109375 519.0625 251.109375 C 519.0625 260.589844 523.597656 286.5625 532.242188 289.859375 C 540.894531 293.160156 555.3125 301.8125 555.3125 301.8125 C 555.3125 290.683594 550.777344 277.492188 539.246094 269.605469 Z M 398.25 249.152344 C 402.296875 250.730469 408.820312 254.835938 416.914062 261.804688 C 428.855469 272.089844 440.609375 269.25 440.609375 269.25 C 440.609375 269.25 426.796875 262.648438 414.027344 254.820312 C 407.464844 250.792969 401.863281 249.5625 398.25 249.152344 C 396.324219 248.402344 394.960938 248.210938 394.257812 248.574219 C 393.203125 249.121094 394.835938 248.765625 398.25 249.152344 Z M 384.367188 246.578125 C 384.367188 246.578125 399.613281 238.960938 419.792969 244.824219 C 439.976562 250.699219 442.421875 267.332031 458.070312 268.011719 C 458.105469 268.011719 451.925781 280.789062 426.386719 274.601562 C 400.84375 268.421875 401.253906 249.871094 384.367188 246.578125 Z M 439.15625 220.875 C 456.863281 238.863281 475.8125 239.566406 475.8125 239.566406 C 472.515625 239.566406 439.15625 220.875 439.15625 220.875 Z M 416.914062 216.066406 C 416.914062 216.066406 433.382812 207.824219 453.984375 216.066406 C 474.582031 224.316406 485.152344 237.917969 499.222656 237.507812 C 499.222656 237.507812 481.996094 253.578125 460.164062 246.988281 C 438.328125 240.390625 426.386719 216.476562 416.914062 216.066406 Z M 488.992188 192.15625 C 502.171875 208.234375 521.539062 216.066406 523.1875 216.066406 C 523.1875 216.066406 503 199.996094 494.757812 191.335938 C 486.523438 182.675781 475.8125 176.082031 475.8125 176.082031 C 475.8125 176.082031 475.8125 176.082031 488.992188 192.15625 Z M 462.222656 171.632812 C 462.222656 171.632812 481.996094 163.714844 496.40625 178.964844 C 510.824219 194.222656 530.015625 216.699219 537.597656 217.304688 C 537.597656 217.304688 524.417969 226.789062 500.941406 214.828125 C 477.460938 202.875 477.871094 178.316406 462.222656 171.632812 Z M 562.351562 177.851562 C 580.988281 191.066406 642.347656 198.84375 642.347656 198.84375 C 592.640625 185.628906 574.78125 155.3125 566.230469 153.757812 C 557.6875 152.203125 543.710938 164.636719 562.351562 177.851562 Z M 310.175781 309.027344 C 310.175781 309.027344 274.230469 287.628906 231.4375 284.636719 C 231.4375 284.636719 290.914062 310.300781 310.175781 309.027344 Z M 607.214844 219.800781 C 559.34375 221.441406 528.054688 239.84375 499.230469 260.109375 C 499.230469 260.109375 499.222656 260.117188 499.222656 260.117188 C 498.996094 260.273438 455.167969 296.785156 453.617188 349.636719 C 452.0625 402.488281 489.6875 413.371094 499.222656 409.488281 C 499.222656 409.488281 487.011719 407.152344 490.894531 394.71875 C 494.78125 382.277344 518.082031 393.039062 510.3125 410.199219 C 502.542969 427.359375 462.15625 419.59375 446.625 375.285156 C 436.386719 346.082031 439.21875 315.863281 455.082031 290.652344 C 441.679688 298.820312 427.332031 305.839844 410.777344 310.386719 C 381.519531 318.421875 350.496094 317.878906 323.882812 314.378906 C 315.917969 317.363281 301.882812 324.824219 277.496094 323.371094 C 247.117188 321.5625 207.75 277.515625 207.75 277.515625 C 218.878906 282.101562 231.289062 271.222656 268.085938 273.757812 C 302.933594 276.148438 326.140625 309.335938 328.515625 312.855469 C 357.992188 314.136719 400.269531 310.96875 433.886719 288.542969 C 481.75 256.609375 522.5625 216.738281 581.144531 208.386719 C 520.125 200.199219 475.015625 158.101562 473.484375 124.574219 C 471.609375 83.398438 498.875 70.324219 526.957031 83.398438 C 555.039062 96.472656 553.082031 134.378906 534.796875 139.605469 C 516.503906 144.839844 513.894531 119.996094 523.035156 116.082031 C 532.179688 112.15625 536.097656 121.304688 536.097656 121.304688 C 543.9375 107.578125 533.488281 84.699219 508.671875 87.320312 C 495.648438 88.6875 486.429688 102.832031 486.421875 120.59375 C 495.679688 124.714844 494.300781 137.648438 494.300781 137.648438 C 494.964844 127.179688 504.753906 126.53125 504.753906 126.53125 C 500.832031 157.902344 529.71875 181.796875 529.726562 181.796875 C 560.890625 198.9375 600.109375 205.285156 616.886719 207.328125 C 617.933594 207.40625 618.992188 207.492188 620.058594 207.597656 C 621.777344 207.753906 623.449219 207.960938 625.105469 208.171875 C 635.257812 209.515625 644.164062 211.828125 651.964844 214.875 L 651.964844 214.867188 C 653.234375 196.339844 665.6875 205.796875 665.6875 205.796875 C 668.15625 202.238281 672.03125 200.6875 672.03125 200.6875 C 676.195312 214.828125 690.667969 244.824219 690.667969 244.824219 C 704.914062 265.335938 706.445312 287.621094 705.460938 293.476562 C 705.871094 288.511719 699.289062 216.644531 607.214844 219.800781 Z M 705.460938 293.476562 C 705.453125 293.539062 705.445312 293.625 705.433594 293.683594 C 705.445312 293.632812 705.453125 293.5625 705.460938 293.476562 Z M 705.6875 151.3125 C 712.441406 140.890625 705.6875 110.578125 705.6875 110.578125 C 703.464844 118.335938 705.6875 151.3125 705.6875 151.3125 Z M 687.957031 148.871094 C 687.957031 148.871094 686.84375 116.121094 707.914062 102.808594 C 707.914062 102.808594 721.769531 127.320312 723.4375 148.707031 C 723.4375 148.707031 707.914062 156.109375 707.914062 164.390625 C 707.914062 164.390625 694.605469 148.886719 687.957031 148.871094 Z M 664.671875 161.0625 C 683.515625 160.507812 699.046875 182.992188 699.046875 182.992188 C 684.074219 153.871094 664.671875 161.0625 664.671875 161.0625 Z M 649.148438 163.839844 C 649.148438 163.839844 679.632812 130.464844 707.914062 172.671875 C 707.914062 172.671875 700.703125 194.097656 702.367188 204.210938 C 702.367188 204.210938 679.082031 168.828125 649.148438 163.839844 Z M 716.226562 198.691406 C 731.199219 162.535156 754.78125 146.636719 754.78125 146.636719 C 722.378906 149.410156 715.785156 199.757812 716.226562 198.691406 Z M 707.914062 232.4375 C 707.914062 232.4375 707.914062 165.496094 729.738281 148.707031 C 751.5625 131.90625 775.945312 144.421875 775.945312 144.421875 C 737.53125 169.390625 707.914062 232.4375 707.914062 232.4375 Z M 789.386719 236.671875 C 759.492188 239.621094 728.207031 288.675781 728.207031 288.675781 C 748.371094 269.195312 786.601562 266.414062 800.042969 265.578125 C 813.476562 264.742188 819.273438 233.71875 789.386719 236.671875 Z M 1135.9375 380.554688 C 1135.9375 380.554688 1124.390625 366 1119.257812 350.582031 C 1114.121094 335.164062 1096.421875 329.171875 1096.421875 329.171875 C 1100.121094 330.886719 1113.695312 348.007812 1120.96875 363.859375 C 1128.242188 379.703125 1135.9375 380.554688 1135.9375 380.554688 Z M 1128.667969 340.945312 C 1131.933594 346.476562 1146.570312 385.988281 1146.570312 385.988281 C 1111.28125 393.496094 1104.820312 374.035156 1096.863281 355.609375 C 1088.894531 337.1875 1076.765625 324.964844 1076.765625 324.964844 C 1099.578125 323.902344 1120.351562 326.867188 1128.667969 340.945312 Z M 1096.476562 294.425781 C 1109.277344 280.6875 1114.980469 273.488281 1118.832031 265.578125 C 1122.679688 257.652344 1127.816406 236.671875 1127.816406 236.671875 C 1127.816406 236.671875 1117.542969 254.226562 1114.972656 265.792969 C 1112.496094 276.96875 1097.460938 293.359375 1096.476562 294.425781 Z M 1079.984375 309.226562 C 1078.222656 309.652344 1087.949219 293.902344 1091.5625 274.917969 C 1095.175781 255.925781 1109.59375 230.339844 1134.171875 230.222656 C 1134.171875 230.222656 1129.953125 245.417969 1130.1875 263.660156 C 1130.425781 281.554688 1107.960938 302.46875 1079.984375 309.226562 Z M 719.6875 293.476562 C 719.695312 293.5625 719.703125 293.632812 719.710938 293.683594 C 719.703125 293.625 719.695312 293.539062 719.6875 293.476562 Z M 1193.710938 284.636719 C 1150.917969 287.628906 1114.972656 309.027344 1114.972656 309.027344 C 1134.226562 310.300781 1193.710938 284.636719 1193.710938 284.636719 Z M 1217.398438 277.515625 C 1217.398438 277.515625 1178.027344 321.5625 1147.652344 323.371094 C 1123.261719 324.824219 1109.238281 317.363281 1101.265625 314.378906 C 1074.652344 317.878906 1043.628906 318.421875 1014.363281 310.386719 C 997.816406 305.839844 983.46875 298.820312 970.074219 290.652344 C 985.929688 315.863281 988.757812 346.082031 978.519531 375.285156 C 962.988281 419.59375 922.605469 427.359375 914.835938 410.199219 C 907.066406 393.039062 930.367188 382.277344 934.253906 394.71875 C 938.136719 407.152344 925.925781 409.488281 925.925781 409.488281 C 935.460938 413.371094 973.085938 402.488281 971.53125 349.636719 C 969.980469 296.785156 926.152344 260.273438 925.925781 260.117188 C 925.925781 260.117188 925.917969 260.109375 925.917969 260.109375 C 897.09375 239.84375 865.804688 221.441406 817.933594 219.800781 C 725.847656 216.644531 719.277344 288.511719 719.6875 293.476562 C 718.703125 287.621094 720.234375 265.335938 734.480469 244.824219 C 734.480469 244.824219 748.953125 214.828125 753.117188 200.6875 C 753.117188 200.6875 756.992188 202.238281 759.460938 205.796875 C 759.460938 205.796875 771.914062 196.339844 773.191406 214.867188 L 773.183594 214.875 C 780.984375 211.828125 789.890625 209.515625 800.042969 208.171875 C 801.699219 207.960938 803.371094 207.753906 805.089844 207.597656 C 806.15625 207.492188 807.210938 207.40625 808.269531 207.328125 C 825.039062 205.285156 864.257812 198.9375 895.421875 181.796875 C 895.429688 181.796875 924.316406 157.902344 920.394531 126.53125 C 920.394531 126.53125 930.183594 127.179688 930.847656 137.648438 C 930.847656 137.648438 929.464844 124.714844 938.726562 120.59375 C 938.71875 102.832031 929.5 88.6875 916.476562 87.320312 C 891.660156 84.699219 881.207031 107.578125 889.050781 121.304688 C 889.050781 121.304688 892.96875 112.15625 902.113281 116.082031 C 911.253906 119.996094 908.644531 144.839844 890.351562 139.605469 C 872.066406 134.378906 870.109375 96.472656 898.191406 83.398438 C 926.273438 70.324219 953.539062 83.398438 951.664062 124.574219 C 950.132812 158.101562 905.023438 200.199219 844 208.386719 C 902.585938 216.738281 943.398438 256.609375 991.261719 288.542969 C 1024.878906 310.96875 1067.15625 314.136719 1096.632812 312.855469 C 1099 309.335938 1122.214844 276.148438 1157.0625 273.757812 C 1193.867188 271.222656 1206.265625 282.101562 1217.398438 277.515625 Z M 918.027344 276.300781 C 921.738281 289.53125 925.035156 302.222656 924.109375 321.601562 C 923.195312 340.976562 929.972656 344.6875 929.972656 344.6875 C 923.386719 336.445312 931.621094 322.835938 929.972656 304.703125 C 928.332031 286.5625 918.027344 273.371094 918.027344 273.371094 Z M 906.078125 308.414062 C 910.613281 289.859375 912.585938 256.46875 912.585938 256.46875 C 934.734375 271.308594 945.628906 310.054688 941.921875 320.363281 C 938.214844 330.664062 936.566406 352.925781 936.566406 352.925781 C 909.382812 348.394531 901.550781 326.957031 906.078125 308.414062 Z M 885.902344 269.605469 C 874.371094 277.492188 869.835938 290.683594 869.835938 301.8125 C 869.835938 301.8125 884.253906 293.160156 892.90625 289.859375 C 901.550781 286.5625 906.078125 260.589844 906.078125 251.109375 C 906.078125 251.109375 897.433594 261.71875 885.902344 269.605469 Z M 1011.121094 254.820312 C 998.351562 262.648438 984.539062 269.25 984.539062 269.25 C 984.539062 269.25 996.292969 272.089844 1008.234375 261.804688 C 1016.335938 254.835938 1022.851562 250.730469 1026.898438 249.152344 C 1030.3125 248.765625 1031.945312 249.121094 1030.898438 248.574219 C 1030.1875 248.210938 1028.820312 248.402344 1026.898438 249.152344 C 1023.285156 249.5625 1017.683594 250.792969 1011.121094 254.820312 Z M 1005.355469 244.824219 C 1025.53125 238.960938 1040.78125 246.578125 1040.78125 246.578125 C 1023.890625 249.871094 1024.300781 268.421875 998.761719 274.601562 C 973.21875 280.789062 967.042969 268.011719 967.074219 268.011719 C 982.726562 267.332031 985.171875 250.699219 1005.355469 244.824219 Z M 949.335938 239.566406 C 949.335938 239.566406 968.28125 238.863281 985.992188 220.875 C 985.992188 220.875 952.632812 239.566406 949.335938 239.566406 Z M 925.925781 237.507812 C 939.996094 237.917969 950.566406 224.316406 971.167969 216.066406 C 991.765625 207.824219 1008.234375 216.066406 1008.234375 216.066406 C 998.761719 216.476562 986.820312 240.390625 964.984375 246.988281 C 943.152344 253.578125 925.925781 237.507812 925.925781 237.507812 Z M 949.335938 176.082031 C 949.335938 176.082031 938.625 182.675781 930.390625 191.335938 C 922.148438 199.996094 901.960938 216.066406 901.960938 216.066406 C 903.609375 216.066406 922.976562 208.234375 936.15625 192.15625 C 949.335938 176.082031 949.335938 176.082031 949.335938 176.082031 Z M 962.925781 171.632812 C 947.277344 178.316406 947.6875 202.875 924.207031 214.828125 C 900.730469 226.789062 887.550781 217.304688 887.550781 217.304688 C 895.128906 216.699219 914.320312 194.222656 928.742188 178.964844 C 943.152344 163.714844 962.925781 171.632812 962.925781 171.632812 Z M 862.796875 177.851562 C 844.160156 191.066406 782.800781 198.84375 782.800781 198.84375 C 832.507812 185.628906 850.367188 155.3125 858.917969 153.757812 C 867.460938 152.203125 881.4375 164.636719 862.796875 177.851562 " clip-rule="nonzero"/></clipPath><clipPath id="4ad384f43a"><path d="M 232.3125 -77.144531 L 155.398438 410.363281 L 1192.835938 574.300781 L 1269.75 86.792969 Z M 232.3125 -77.144531 " clip-rule="nonzero"/></clipPath><radialGradient gradientTransform="matrix(0.987371, 0.156031, -0.155907, 0.988153, 715.989515, 224.146412)" gradientUnits="userSpaceOnUse" r="441.559967" cx="0" id="9cdecddef5" cy="0" fx="0" fy="0"><stop stop-opacity="1" stop-color="rgb(95.503235%, 88.804626%, 37.103271%)" offset="0"/><stop stop-opacity="1" stop-color="rgb(95.303345%, 88.60321%, 36.903381%)" offset="0.0078125"/><stop stop-opacity="1" stop-color="rgb(95.298767%, 88.598633%, 36.717224%)" offset="0.0117188"/><stop stop-opacity="1" stop-color="rgb(95.121765%, 88.421631%, 36.517334%)" offset="0.015625"/><stop stop-opacity="1" stop-color="rgb(94.900513%, 88.021851%, 36.499023%)" offset="0.0195312"/><stop stop-opacity="1" stop-color="rgb(94.659424%, 87.785339%, 36.482239%)" offset="0.0234375"/><stop stop-opacity="1" stop-color="rgb(94.281006%, 87.631226%, 36.282349%)" offset="0.0273438"/><stop stop-opacity="1" stop-color="rgb(94.099426%, 87.295532%, 36.099243%)" offset="0.03125"/><stop stop-opacity="1" stop-color="rgb(94.099426%, 87.098694%, 36.099243%)" offset="0.0429688"/><stop stop-opacity="1" stop-color="rgb(93.910217%, 87.098694%, 35.910034%)" offset="0.046875"/><stop stop-opacity="1" stop-color="rgb(93.710327%, 86.914062%, 35.710144%)" offset="0.0507812"/><stop stop-opacity="1" stop-color="rgb(93.699646%, 86.714172%, 35.519409%)" offset="0.0546875"/><stop stop-opacity="1" stop-color="rgb(93.699646%, 86.523438%, 35.319519%)" offset="0.0585938"/><stop stop-opacity="1" stop-color="rgb(93.499756%, 86.303711%, 35.27832%)" offset="0.0625"/><stop stop-opacity="1" stop-color="rgb(93.299866%, 86.077881%, 35.07843%)" offset="0.0664062"/><stop stop-opacity="1" stop-color="rgb(93.287659%, 85.888672%, 34.899902%)" offset="0.0703125"/><stop stop-opacity="1" stop-color="rgb(93.087769%, 85.688782%, 34.899902%)" offset="0.0742188"/><stop stop-opacity="1" stop-color="rgb(92.89856%, 85.499573%, 34.898376%)" offset="0.078125"/><stop stop-opacity="1" stop-color="rgb(92.89856%, 85.499573%, 34.701538%)" offset="0.0820312"/><stop stop-opacity="1" stop-color="rgb(92.89856%, 85.307312%, 34.501648%)" offset="0.0859375"/><stop stop-opacity="1" stop-color="rgb(92.710876%, 85.107422%, 34.310913%)" offset="0.0898438"/><stop stop-opacity="1" stop-color="rgb(92.510986%, 84.916687%, 34.111023%)" offset="0.09375"/><stop stop-opacity="1" stop-color="rgb(92.498779%, 84.715271%, 34.098816%)" offset="0.0976562"/><stop stop-opacity="1" stop-color="rgb(92.480469%, 84.498596%, 34.075928%)" offset="0.101562"/><stop stop-opacity="1" stop-color="rgb(92.330933%, 84.280396%, 33.876038%)" offset="0.105469"/><stop stop-opacity="1" stop-color="rgb(92.199707%, 84.080505%, 33.699036%)" offset="0.109375"/><stop stop-opacity="1" stop-color="rgb(92.199707%, 83.889771%, 33.68988%)" offset="0.113281"/><stop stop-opacity="1" stop-color="rgb(92.195129%, 83.68988%, 33.48999%)" offset="0.117188"/><stop stop-opacity="1" stop-color="rgb(91.995239%, 83.36792%, 33.16803%)" offset="0.121094"/><stop stop-opacity="1" stop-color="rgb(91.799927%, 83.172607%, 32.972717%)" offset="0.132812"/><stop stop-opacity="1" stop-color="rgb(91.618347%, 83.103943%, 32.904053%)" offset="0.136719"/><stop stop-opacity="1" stop-color="rgb(91.416931%, 82.922363%, 32.899475%)" offset="0.140625"/><stop stop-opacity="1" stop-color="rgb(91.19873%, 82.705688%, 32.876587%)" offset="0.144531"/><stop stop-opacity="1" stop-color="rgb(90.982056%, 82.531738%, 32.676697%)" offset="0.148438"/><stop stop-opacity="1" stop-color="rgb(90.782166%, 82.38678%, 32.499695%)" offset="0.152344"/><stop stop-opacity="1" stop-color="rgb(90.59906%, 82.18689%, 32.493591%)" offset="0.15625"/><stop stop-opacity="1" stop-color="rgb(90.59906%, 81.996155%, 32.342529%)" offset="0.160156"/><stop stop-opacity="1" stop-color="rgb(90.59906%, 81.797791%, 32.199097%)" offset="0.164062"/><stop stop-opacity="1" stop-color="rgb(90.405273%, 81.600952%, 32.199097%)" offset="0.167969"/><stop stop-opacity="1" stop-color="rgb(90.205383%, 81.410217%, 32.009888%)" offset="0.171875"/><stop stop-opacity="1" stop-color="rgb(90.19928%, 81.210327%, 31.809998%)" offset="0.175781"/><stop stop-opacity="1" stop-color="rgb(90.19928%, 81.019592%, 31.799316%)" offset="0.179688"/><stop stop-opacity="1" stop-color="rgb(90.023804%, 80.819702%, 31.799316%)" offset="0.183594"/><stop stop-opacity="1" stop-color="rgb(89.804077%, 80.59845%, 31.599426%)" offset="0.1875"/><stop stop-opacity="1" stop-color="rgb(89.578247%, 80.383301%, 31.399536%)" offset="0.191406"/><stop stop-opacity="1" stop-color="rgb(89.387512%, 80.183411%, 31.387329%)" offset="0.195312"/><stop stop-opacity="1" stop-color="rgb(89.187622%, 79.992676%, 31.187439%)" offset="0.199219"/><stop stop-opacity="1" stop-color="rgb(88.999939%, 79.792786%, 30.999756%)" offset="0.203125"/><stop stop-opacity="1" stop-color="rgb(88.999939%, 79.598999%, 30.999756%)" offset="0.207031"/><stop stop-opacity="1" stop-color="rgb(88.999939%, 79.406738%, 30.807495%)" offset="0.210938"/><stop stop-opacity="1" stop-color="rgb(88.812256%, 79.206848%, 30.607605%)" offset="0.214844"/><stop stop-opacity="1" stop-color="rgb(88.61084%, 79.016113%, 30.41687%)" offset="0.21875"/><stop stop-opacity="1" stop-color="rgb(88.598633%, 78.816223%, 30.215454%)" offset="0.222656"/><stop stop-opacity="1" stop-color="rgb(88.575745%, 78.599548%, 30.175781%)" offset="0.226562"/><stop stop-opacity="1" stop-color="rgb(88.375854%, 78.379822%, 29.975891%)" offset="0.230469"/><stop stop-opacity="1" stop-color="rgb(88.18512%, 78.179932%, 29.798889%)" offset="0.234375"/><stop stop-opacity="1" stop-color="rgb(87.985229%, 77.999878%, 29.798889%)" offset="0.238281"/><stop stop-opacity="1" stop-color="rgb(87.796021%, 77.993774%, 29.794312%)" offset="0.242188"/><stop stop-opacity="1" stop-color="rgb(87.646484%, 77.793884%, 29.594421%)" offset="0.246094"/><stop stop-opacity="1" stop-color="rgb(87.306213%, 77.453613%, 29.205322%)" offset="0.25"/><stop stop-opacity="1" stop-color="rgb(87.106323%, 77.116394%, 29.005432%)" offset="0.261719"/><stop stop-opacity="1" stop-color="rgb(87.001038%, 76.812744%, 28.900146%)" offset="0.269531"/><stop stop-opacity="1" stop-color="rgb(86.801147%, 76.591492%, 28.700256%)" offset="0.273438"/><stop stop-opacity="1" stop-color="rgb(86.694336%, 76.286316%, 28.594971%)" offset="0.277344"/><stop stop-opacity="1" stop-color="rgb(86.495972%, 75.895691%, 28.396606%)" offset="0.285156"/><stop stop-opacity="1" stop-color="rgb(86.299133%, 75.505066%, 28.005981%)" offset="0.292969"/><stop stop-opacity="1" stop-color="rgb(86.108398%, 75.114441%, 27.804565%)" offset="0.300781"/><stop stop-opacity="1" stop-color="rgb(85.809326%, 74.809265%, 27.723694%)" offset="0.308594"/><stop stop-opacity="1" stop-color="rgb(85.598755%, 74.598694%, 27.46582%)" offset="0.3125"/><stop stop-opacity="1" stop-color="rgb(85.395813%, 74.395752%, 27.191162%)" offset="0.320312"/><stop stop-opacity="1" stop-color="rgb(85.195923%, 74.098206%, 27.000427%)" offset="0.328125"/><stop stop-opacity="1" stop-color="rgb(85.005188%, 73.707581%, 26.800537%)" offset="0.335938"/><stop stop-opacity="1" stop-color="rgb(84.814453%, 73.414612%, 26.699829%)" offset="0.34375"/><stop stop-opacity="1" stop-color="rgb(84.707642%, 73.205566%, 26.699829%)" offset="0.347656"/><stop stop-opacity="1" stop-color="rgb(84.686279%, 72.98584%, 26.687622%)" offset="0.351562"/><stop stop-opacity="1" stop-color="rgb(84.480286%, 72.68219%, 26.480103%)" offset="0.355469"/><stop stop-opacity="1" stop-color="rgb(84.089661%, 72.340393%, 26.091003%)" offset="0.363281"/><stop stop-opacity="1" stop-color="rgb(83.699036%, 71.998596%, 25.898743%)" offset="0.371094"/><stop stop-opacity="1" stop-color="rgb(83.500671%, 71.607971%, 25.704956%)" offset="0.378906"/><stop stop-opacity="1" stop-color="rgb(83.309937%, 71.217346%, 25.505066%)" offset="0.386719"/><stop stop-opacity="1" stop-color="rgb(83.110046%, 71.009827%, 25.39978%)" offset="0.394531"/><stop stop-opacity="1" stop-color="rgb(82.992554%, 70.892334%, 25.19989%)" offset="0.398438"/><stop stop-opacity="1" stop-color="rgb(82.792664%, 70.591736%, 25.099182%)" offset="0.40625"/><stop stop-opacity="1" stop-color="rgb(82.626343%, 70.297241%, 25.001526%)" offset="0.414062"/><stop stop-opacity="1" stop-color="rgb(82.476807%, 70.106506%, 24.710083%)" offset="0.421875"/><stop stop-opacity="1" stop-color="rgb(82.398987%, 69.917297%, 24.417114%)" offset="0.429688"/><stop stop-opacity="1" stop-color="rgb(82.298279%, 69.709778%, 24.308777%)" offset="0.433594"/><stop stop-opacity="1" stop-color="rgb(82.098389%, 69.488525%, 24.28894%)" offset="0.4375"/><stop stop-opacity="1" stop-color="rgb(81.993103%, 69.18335%, 24.082947%)" offset="0.441406"/><stop stop-opacity="1" stop-color="rgb(81.793213%, 68.792725%, 23.692322%)" offset="0.449219"/><stop stop-opacity="1" stop-color="rgb(81.407166%, 68.406677%, 23.3078%)" offset="0.464844"/><stop stop-opacity="1" stop-color="rgb(81.207275%, 68.106079%, 23.10791%)" offset="0.472656"/><stop stop-opacity="1" stop-color="rgb(81.089783%, 67.814636%, 22.988892%)" offset="0.476562"/><stop stop-opacity="1" stop-color="rgb(80.784607%, 67.462158%, 22.789001%)" offset="0.484375"/><stop stop-opacity="1" stop-color="rgb(80.493164%, 67.094421%, 22.624207%)" offset="0.492188"/><stop stop-opacity="1" stop-color="rgb(80.39856%, 66.798401%, 22.47467%)" offset="0.5"/><stop stop-opacity="1" stop-color="rgb(80.212402%, 66.513062%, 22.399902%)" offset="0.507812"/><stop stop-opacity="1" stop-color="rgb(80.012512%, 66.313171%, 22.218323%)" offset="0.511719"/><stop stop-opacity="1" stop-color="rgb(79.821777%, 66.122437%, 22.016907%)" offset="0.515625"/><stop stop-opacity="1" stop-color="rgb(79.484558%, 65.783691%, 21.861267%)" offset="0.519531"/><stop stop-opacity="1" stop-color="rgb(79.26178%, 65.560913%, 21.661377%)" offset="0.53125"/><stop stop-opacity="1" stop-color="rgb(79.199219%, 65.306091%, 21.598816%)" offset="0.542969"/><stop stop-opacity="1" stop-color="rgb(79.01001%, 65.104675%, 21.598816%)" offset="0.546875"/><stop stop-opacity="1" stop-color="rgb(78.81012%, 64.91394%, 21.598816%)" offset="0.550781"/><stop stop-opacity="1" stop-color="rgb(78.799438%, 64.71405%, 21.418762%)" offset="0.554688"/><stop stop-opacity="1" stop-color="rgb(78.623962%, 64.523315%, 21.218872%)" offset="0.558594"/><stop stop-opacity="1" stop-color="rgb(78.40271%, 64.303589%, 21.179199%)" offset="0.5625"/><stop stop-opacity="1" stop-color="rgb(78.178406%, 64.073181%, 20.973206%)" offset="0.566406"/><stop stop-opacity="1" stop-color="rgb(77.807617%, 63.693237%, 20.593262%)" offset="0.578125"/><stop stop-opacity="1" stop-color="rgb(77.606201%, 63.311768%, 20.211792%)" offset="0.589844"/><stop stop-opacity="1" stop-color="rgb(77.598572%, 63.111877%, 20.011902%)" offset="0.59375"/><stop stop-opacity="1" stop-color="rgb(77.598572%, 62.921143%, 19.999695%)" offset="0.597656"/><stop stop-opacity="1" stop-color="rgb(77.449036%, 62.702942%, 19.799805%)" offset="0.601562"/><stop stop-opacity="1" stop-color="rgb(77.279663%, 62.532043%, 19.599915%)" offset="0.605469"/><stop stop-opacity="1" stop-color="rgb(77.079773%, 62.385559%, 19.584656%)" offset="0.609375"/><stop stop-opacity="1" stop-color="rgb(76.899719%, 62.185669%, 19.384766%)" offset="0.613281"/><stop stop-opacity="1" stop-color="rgb(76.899719%, 61.994934%, 19.198608%)" offset="0.617188"/><stop stop-opacity="1" stop-color="rgb(76.899719%, 61.795044%, 19.198608%)" offset="0.621094"/><stop stop-opacity="1" stop-color="rgb(76.704407%, 61.599731%, 19.003296%)" offset="0.625"/><stop stop-opacity="1" stop-color="rgb(76.504517%, 61.413574%, 18.803406%)" offset="0.628906"/><stop stop-opacity="1" stop-color="rgb(76.318359%, 61.032104%, 18.617249%)" offset="0.636719"/><stop stop-opacity="1" stop-color="rgb(75.941467%, 60.816956%, 18.417358%)" offset="0.640625"/><stop stop-opacity="1" stop-color="rgb(75.721741%, 60.588074%, 18.199158%)" offset="0.644531"/><stop stop-opacity="1" stop-color="rgb(75.692749%, 60.188293%, 17.993164%)" offset="0.648438"/><stop stop-opacity="1" stop-color="rgb(75.492859%, 59.997559%, 17.793274%)" offset="0.65625"/><stop stop-opacity="1" stop-color="rgb(75.299072%, 59.80072%, 17.599487%)" offset="0.664062"/><stop stop-opacity="1" stop-color="rgb(75.106812%, 59.410095%, 17.454529%)" offset="0.671875"/><stop stop-opacity="1" stop-color="rgb(74.906921%, 59.01947%, 17.304993%)" offset="0.679688"/><stop stop-opacity="1" stop-color="rgb(74.801636%, 58.714294%, 17.201233%)" offset="0.6875"/><stop stop-opacity="1" stop-color="rgb(74.594116%, 58.493042%, 17.001343%)" offset="0.691406"/><stop stop-opacity="1" stop-color="rgb(74.291992%, 58.190918%, 16.896057%)" offset="0.695312"/><stop stop-opacity="1" stop-color="rgb(74.099731%, 57.998657%, 16.697693%)" offset="0.703125"/><stop stop-opacity="1" stop-color="rgb(73.907471%, 57.806396%, 16.500854%)" offset="0.710938"/><stop stop-opacity="1" stop-color="rgb(73.707581%, 57.606506%, 16.316223%)" offset="0.714844"/><stop stop-opacity="1" stop-color="rgb(73.521423%, 57.4646%, 16.116333%)" offset="0.722656"/><stop stop-opacity="1" stop-color="rgb(73.309326%, 57.302856%, 15.887451%)" offset="0.726562"/><stop stop-opacity="1" stop-color="rgb(73.086548%, 57.080078%, 15.487671%)" offset="0.730469"/><stop stop-opacity="1" stop-color="rgb(72.895813%, 56.689453%, 15.296936%)" offset="0.738281"/><stop stop-opacity="1" stop-color="rgb(72.698975%, 56.298828%, 15.098572%)" offset="0.746094"/><stop stop-opacity="1" stop-color="rgb(72.50061%, 55.909729%, 14.900208%)" offset="0.753906"/><stop stop-opacity="1" stop-color="rgb(72.499084%, 55.708313%, 14.898682%)" offset="0.757812"/><stop stop-opacity="1" stop-color="rgb(72.499084%, 55.699158%, 14.717102%)" offset="0.761719"/><stop stop-opacity="1" stop-color="rgb(72.499084%, 55.699158%, 14.517212%)" offset="0.765625"/><stop stop-opacity="1" stop-color="rgb(72.348022%, 55.499268%, 14.477539%)" offset="0.769531"/><stop stop-opacity="1" stop-color="rgb(72.198486%, 55.299377%, 14.277649%)" offset="0.773438"/><stop stop-opacity="1" stop-color="rgb(72.186279%, 55.28717%, 14.099121%)" offset="0.777344"/><stop stop-opacity="1" stop-color="rgb(71.986389%, 55.079651%, 14.091492%)" offset="0.78125"/><stop stop-opacity="1" stop-color="rgb(71.795654%, 54.692078%, 13.891602%)" offset="0.785156"/><stop stop-opacity="1" stop-color="rgb(71.59729%, 54.499817%, 13.699341%)" offset="0.789062"/><stop stop-opacity="1" stop-color="rgb(71.400452%, 54.304504%, 13.504028%)" offset="0.792969"/><stop stop-opacity="1" stop-color="rgb(71.398926%, 54.103088%, 13.304138%)" offset="0.804688"/><stop stop-opacity="1" stop-color="rgb(71.398926%, 53.923035%, 13.299561%)" offset="0.808594"/><stop stop-opacity="1" stop-color="rgb(71.188354%, 53.713989%, 13.09967%)" offset="0.8125"/><stop stop-opacity="1" stop-color="rgb(70.788574%, 53.483582%, 12.89978%)" offset="0.816406"/><stop stop-opacity="1" stop-color="rgb(70.597839%, 53.092957%, 12.898254%)" offset="0.824219"/><stop stop-opacity="1" stop-color="rgb(70.402527%, 52.702332%, 12.702942%)" offset="0.832031"/><stop stop-opacity="1" stop-color="rgb(70.011902%, 52.359009%, 12.503052%)" offset="0.839844"/><stop stop-opacity="1" stop-color="rgb(69.807434%, 52.104187%, 12.5%)" offset="0.847656"/><stop stop-opacity="1" stop-color="rgb(69.787598%, 51.885986%, 12.5%)" offset="0.851562"/><stop stop-opacity="1" stop-color="rgb(69.584656%, 51.585388%, 12.348938%)" offset="0.855469"/><stop stop-opacity="1" stop-color="rgb(69.198608%, 51.199341%, 12.199402%)" offset="0.871094"/><stop stop-opacity="1" stop-color="rgb(69.000244%, 51.000977%, 12.199402%)" offset="0.878906"/><stop stop-opacity="1" stop-color="rgb(68.998718%, 50.813293%, 12.013245%)" offset="0.882812"/><stop stop-opacity="1" stop-color="rgb(68.817139%, 50.613403%, 11.813354%)" offset="0.886719"/><stop stop-opacity="1" stop-color="rgb(68.617249%, 50.59967%, 11.799622%)" offset="0.890625"/><stop stop-opacity="1" stop-color="rgb(68.598938%, 50.39978%, 11.799622%)" offset="0.894531"/><stop stop-opacity="1" stop-color="rgb(68.582153%, 50.18158%, 11.781311%)" offset="0.898438"/><stop stop-opacity="1" stop-color="rgb(68.382263%, 49.969482%, 11.581421%)" offset="0.902344"/><stop stop-opacity="1" stop-color="rgb(68.19458%, 49.581909%, 11.399841%)" offset="0.90625"/><stop stop-opacity="1" stop-color="rgb(67.996216%, 49.195862%, 11.399841%)" offset="0.910156"/><stop stop-opacity="1" stop-color="rgb(67.654419%, 48.999023%, 11.399841%)" offset="0.917969"/><stop stop-opacity="1" stop-color="rgb(67.503357%, 48.808289%, 11.399841%)" offset="0.925781"/><stop stop-opacity="1" stop-color="rgb(67.498779%, 48.509216%, 11.399841%)" offset="0.933594"/><stop stop-opacity="1" stop-color="rgb(67.478943%, 48.298645%, 11.399841%)" offset="0.9375"/><stop stop-opacity="1" stop-color="rgb(67.279053%, 48.182678%, 11.399841%)" offset="0.941406"/><stop stop-opacity="1" stop-color="rgb(67.098999%, 47.982788%, 11.399841%)" offset="0.945312"/><stop stop-opacity="1" stop-color="rgb(67.092896%, 47.795105%, 11.399841%)" offset="0.949219"/><stop stop-opacity="1" stop-color="rgb(66.891479%, 47.644043%, 11.399841%)" offset="0.953125"/><stop stop-opacity="1" stop-color="rgb(66.50238%, 47.302246%, 11.399841%)" offset="0.957031"/><stop stop-opacity="1" stop-color="rgb(66.30249%, 47.102356%, 11.399841%)" offset="0.964844"/><stop stop-opacity="1" stop-color="rgb(66.299438%, 46.920776%, 11.399841%)" offset="0.972656"/><stop stop-opacity="1" stop-color="rgb(66.099548%, 46.708679%, 11.399841%)" offset="0.976562"/><stop stop-opacity="1" stop-color="rgb(65.899658%, 46.577454%, 11.399841%)" offset="0.980469"/><stop stop-opacity="1" stop-color="rgb(65.884399%, 46.374512%, 11.399841%)" offset="0.984375"/><stop stop-opacity="1" stop-color="rgb(65.684509%, 46.084595%, 11.399841%)" offset="0.988281"/><stop stop-opacity="1" stop-color="rgb(65.499878%, 45.899963%, 11.399841%)" offset="1"/></radialGradient><clipPath id="a68d69b3b7"><path d="M 197.058594 75 L 1212.164062 75 L 1212.164062 418 L 197.058594 418 Z M 197.058594 75 " clip-rule="nonzero"/></clipPath><clipPath id="6424d8c164"><path d="M 541.101562 274.660156 L 884.210938 274.660156 L 884.210938 452.210938 L 541.101562 452.210938 Z M 541.101562 274.660156 " clip-rule="nonzero"/></clipPath><clipPath id="998a2b398a"><path d="M 546 277 L 879 277 L 879 452.210938 L 546 452.210938 Z M 546 277 " clip-rule="nonzero"/></clipPath></defs><g clip-path="url(#bb5d889e93)"><g clip-path="url(#96c38f3ef2)"><g clip-path="url(#7fe69da7b8)"><g clip-path="url(#4ad384f43a)"><path fill="url(#9cdecddef5)" d="M 232.3125 -77.148438 L 155.394531 410.363281 L 1192.835938 574.304688 L 1269.753906 86.792969 Z M 232.3125 -77.148438 " fill-rule="nonzero"/></g></g></g></g><g clip-path="url(#a68d69b3b7)"><path fill="#100f0d" d="M 704.613281 336.28125 C 722.210938 336.28125 704.613281 294.007812 704.613281 294.007812 C 704.613281 294.007812 687.015625 336.28125 704.613281 336.28125 Z M 627.382812 234.6875 C 597.335938 231.726562 603.164062 262.871094 616.671875 263.710938 C 630.183594 264.550781 668.621094 267.339844 688.894531 286.902344 C 688.894531 286.902344 657.441406 237.652344 627.382812 234.6875 Z M 318.6875 327.546875 C 318.6875 327.546875 300.894531 333.570312 295.730469 349.050781 C 290.566406 364.527344 278.957031 379.140625 278.957031 379.140625 C 278.957031 379.140625 286.699219 378.285156 294.007812 362.371094 C 301.320312 346.472656 314.96875 329.277344 318.6875 327.546875 Z M 338.445312 323.332031 C 338.445312 323.332031 326.246094 335.601562 318.246094 354.097656 C 310.242188 372.59375 303.742188 392.132812 268.265625 384.59375 C 268.265625 384.59375 282.984375 344.929688 286.269531 339.375 C 294.628906 325.242188 315.507812 322.253906 338.445312 323.332031 Z M 287.125 234.6875 C 287.125 234.6875 292.289062 255.753906 296.160156 263.710938 C 300.027344 271.652344 305.761719 278.878906 318.632812 292.671875 C 317.640625 291.601562 302.527344 275.148438 300.035156 263.925781 C 297.453125 252.316406 287.125 234.6875 287.125 234.6875 Z M 284.730469 261.785156 C 284.976562 243.46875 280.734375 228.214844 280.734375 228.214844 C 305.445312 228.332031 319.941406 254.019531 323.574219 273.085938 C 327.207031 292.148438 336.984375 307.957031 335.214844 307.53125 C 307.085938 300.746094 284.5 279.75 284.730469 261.785156 Z M 498.046875 271.535156 C 498.046875 271.535156 487.6875 284.777344 486.039062 302.980469 C 484.382812 321.191406 492.660156 334.855469 486.039062 343.128906 C 486.039062 343.128906 492.851562 339.40625 491.929688 319.949219 C 491.003906 300.5 494.316406 287.757812 498.046875 274.464844 Z M 510.050781 306.714844 C 514.613281 325.335938 506.746094 346.855469 479.410156 351.402344 C 479.410156 351.402344 477.75 329.0625 474.023438 318.710938 C 470.296875 308.363281 481.242188 269.464844 503.519531 254.566406 C 503.519531 254.566406 505.5 288.089844 510.050781 306.714844 Z M 530.347656 267.753906 C 518.753906 259.84375 510.050781 249.183594 510.050781 249.183594 C 510.050781 258.703125 514.613281 284.777344 523.304688 288.089844 C 532.003906 291.402344 546.5 300.089844 546.5 300.089844 C 546.5 288.914062 541.941406 275.671875 530.347656 267.753906 Z M 388.589844 247.21875 C 392.65625 248.804688 399.214844 252.925781 407.351562 259.921875 C 419.359375 270.25 431.175781 267.398438 431.175781 267.398438 C 431.175781 267.398438 417.289062 260.769531 404.449219 252.910156 C 397.851562 248.867188 392.222656 247.632812 388.589844 247.21875 C 386.652344 246.464844 385.28125 246.277344 384.574219 246.640625 C 383.511719 247.1875 385.15625 246.832031 388.589844 247.21875 Z M 374.632812 244.628906 C 374.632812 244.628906 389.960938 236.988281 410.246094 242.875 C 430.542969 248.773438 433 265.46875 448.734375 266.152344 C 448.765625 266.152344 442.554688 278.984375 416.875 272.777344 C 391.199219 266.5625 391.609375 247.941406 374.632812 244.628906 Z M 429.714844 218.832031 C 447.519531 236.890625 466.570312 237.597656 466.570312 237.597656 C 463.253906 237.597656 429.714844 218.832031 429.714844 218.832031 Z M 407.351562 214.003906 C 407.351562 214.003906 423.910156 205.730469 444.625 214.003906 C 465.332031 222.285156 475.960938 235.941406 490.105469 235.527344 C 490.105469 235.527344 472.785156 251.664062 450.835938 245.046875 C 428.882812 238.421875 416.875 214.417969 407.351562 214.003906 Z M 479.820312 190 C 493.074219 206.144531 512.542969 214.003906 514.199219 214.003906 C 514.199219 214.003906 493.90625 197.867188 485.617188 189.175781 C 477.339844 180.480469 466.570312 173.863281 466.570312 173.863281 C 466.570312 173.863281 466.570312 173.863281 479.820312 190 Z M 452.90625 169.394531 C 452.90625 169.394531 472.785156 161.445312 487.277344 176.757812 C 501.773438 192.074219 521.066406 214.636719 528.6875 215.25 C 528.6875 215.25 515.4375 224.765625 491.835938 212.761719 C 468.226562 200.761719 468.640625 176.105469 452.90625 169.394531 Z M 553.574219 175.636719 C 572.316406 188.90625 634.007812 196.710938 634.007812 196.710938 C 584.027344 183.445312 566.074219 153.011719 557.476562 151.449219 C 548.886719 149.890625 534.835938 162.371094 553.574219 175.636719 Z M 697.457031 291.71875 C 697.449219 291.78125 697.441406 291.871094 697.433594 291.925781 C 697.441406 291.878906 697.449219 291.804688 697.457031 291.71875 Z M 300.035156 307.332031 C 300.035156 307.332031 263.898438 285.855469 220.875 282.84375 C 220.875 282.84375 280.671875 308.609375 300.035156 307.332031 Z M 598.683594 217.753906 C 550.554688 219.402344 519.09375 237.875 490.113281 258.21875 C 490.113281 258.21875 490.105469 258.226562 490.105469 258.226562 C 489.878906 258.386719 445.816406 295.03125 444.253906 348.097656 C 442.691406 401.164062 480.519531 412.085938 490.105469 408.1875 C 490.105469 408.1875 477.832031 405.84375 481.734375 393.359375 C 485.640625 380.878906 509.070312 391.671875 501.257812 408.902344 C 493.445312 426.128906 452.839844 418.332031 437.226562 373.847656 C 426.933594 344.53125 429.78125 314.195312 445.726562 288.882812 C 432.253906 297.085938 417.828125 304.128906 401.183594 308.695312 C 371.769531 316.761719 340.578125 316.214844 313.820312 312.703125 C 305.808594 315.707031 291.703125 323.191406 267.179688 321.730469 C 236.640625 319.910156 197.058594 275.695312 197.058594 275.695312 C 208.25 280.296875 220.722656 269.378906 257.71875 271.921875 C 292.757812 274.324219 316.089844 307.640625 318.476562 311.175781 C 348.113281 312.460938 390.617188 309.28125 424.417969 286.765625 C 472.542969 254.707031 513.574219 214.679688 572.472656 206.292969 C 511.125 198.074219 465.769531 155.808594 464.230469 122.152344 C 462.34375 80.804688 489.757812 67.6875 517.992188 80.804688 C 546.222656 93.9375 544.257812 131.996094 525.875 137.242188 C 507.484375 142.496094 504.859375 117.554688 514.050781 113.625 C 523.242188 109.683594 527.183594 118.871094 527.183594 118.871094 C 535.066406 105.089844 524.558594 82.121094 499.609375 84.753906 C 486.515625 86.125 477.242188 100.324219 477.234375 118.15625 C 486.546875 122.285156 485.160156 135.277344 485.160156 135.277344 C 485.824219 124.765625 495.667969 124.117188 495.667969 124.117188 C 491.726562 155.613281 520.765625 179.601562 520.773438 179.601562 C 552.109375 196.808594 591.539062 203.179688 608.40625 205.230469 C 609.460938 205.308594 610.523438 205.398438 611.59375 205.5 C 613.324219 205.660156 615.003906 205.867188 616.671875 206.078125 C 626.875 207.425781 635.832031 209.75 643.671875 212.808594 L 643.671875 212.800781 C 644.949219 194.199219 657.472656 203.695312 657.472656 203.695312 C 659.953125 200.121094 663.847656 198.574219 663.847656 198.574219 C 668.035156 212.761719 682.589844 242.875 682.589844 242.875 C 696.910156 263.464844 698.449219 285.832031 697.457031 291.71875 C 697.871094 286.734375 691.257812 214.582031 598.683594 217.753906 Z M 697.6875 148.992188 C 704.476562 138.53125 697.6875 108.09375 697.6875 108.09375 C 695.453125 115.890625 697.6875 148.992188 697.6875 148.992188 Z M 679.859375 146.546875 C 679.859375 146.546875 678.742188 113.664062 699.925781 100.300781 C 699.925781 100.300781 713.859375 124.910156 715.53125 146.378906 C 715.53125 146.378906 699.925781 153.8125 699.925781 162.125 C 699.925781 162.125 686.546875 146.5625 679.859375 146.546875 Z M 656.449219 158.78125 C 675.394531 158.226562 691.011719 180.796875 691.011719 180.796875 C 675.957031 151.5625 656.449219 158.78125 656.449219 158.78125 Z M 640.84375 161.570312 C 640.84375 161.570312 671.492188 128.0625 699.925781 170.441406 C 699.925781 170.441406 692.675781 191.941406 694.347656 202.101562 C 694.347656 202.101562 670.9375 166.578125 640.84375 161.570312 Z M 708.285156 196.5625 C 723.335938 160.261719 747.046875 144.300781 747.046875 144.300781 C 714.46875 147.085938 707.839844 197.632812 708.285156 196.5625 Z M 699.925781 230.441406 C 699.925781 230.441406 699.925781 163.234375 721.867188 146.378906 C 743.8125 129.515625 768.324219 142.074219 768.324219 142.074219 C 729.703125 167.144531 699.925781 230.441406 699.925781 230.441406 Z M 781.839844 234.6875 C 751.78125 237.652344 720.328125 286.902344 720.328125 286.902344 C 740.601562 267.339844 779.039062 264.550781 792.554688 263.710938 C 806.058594 262.871094 811.886719 231.726562 781.839844 234.6875 Z M 1130.265625 379.140625 C 1130.265625 379.140625 1118.65625 364.527344 1113.492188 349.050781 C 1108.328125 333.570312 1090.535156 327.546875 1090.535156 327.546875 C 1094.253906 329.277344 1107.902344 346.472656 1115.214844 362.371094 C 1122.523438 378.285156 1130.265625 379.140625 1130.265625 379.140625 Z M 1122.953125 339.375 C 1126.238281 344.929688 1140.957031 384.59375 1140.957031 384.59375 C 1105.476562 392.132812 1098.980469 372.59375 1090.976562 354.097656 C 1082.96875 335.601562 1070.769531 323.332031 1070.769531 323.332031 C 1093.707031 322.253906 1114.59375 325.242188 1122.953125 339.375 Z M 1090.589844 292.671875 C 1103.460938 278.878906 1109.195312 271.652344 1113.0625 263.710938 C 1116.933594 255.753906 1122.097656 234.6875 1122.097656 234.6875 C 1122.097656 234.6875 1111.773438 252.316406 1109.1875 263.925781 C 1106.695312 275.148438 1091.582031 291.601562 1090.589844 292.671875 Z M 1074.007812 307.53125 C 1072.238281 307.957031 1082.015625 292.148438 1085.648438 273.085938 C 1089.28125 254.019531 1103.777344 228.332031 1128.488281 228.214844 C 1128.488281 228.214844 1124.246094 243.46875 1124.484375 261.785156 C 1124.722656 279.75 1102.136719 300.746094 1074.007812 307.53125 Z M 1188.347656 282.84375 C 1145.324219 285.855469 1109.1875 307.332031 1109.1875 307.332031 C 1128.542969 308.609375 1188.347656 282.84375 1188.347656 282.84375 Z M 1212.164062 275.695312 C 1212.164062 275.695312 1172.582031 319.910156 1142.042969 321.730469 C 1117.519531 323.191406 1103.421875 315.707031 1095.402344 312.703125 C 1068.644531 316.214844 1037.453125 316.761719 1008.03125 308.695312 C 991.394531 304.128906 976.96875 297.085938 963.503906 288.882812 C 979.441406 314.195312 982.289062 344.53125 971.996094 373.847656 C 956.382812 418.332031 915.777344 426.128906 907.964844 408.902344 C 900.152344 391.671875 923.582031 380.878906 927.492188 393.359375 C 931.390625 405.84375 919.117188 408.1875 919.117188 408.1875 C 928.703125 412.085938 966.53125 401.164062 964.96875 348.097656 C 963.40625 295.03125 919.347656 258.386719 919.117188 258.226562 L 919.109375 258.21875 C 890.128906 237.875 858.667969 219.402344 810.539062 217.753906 C 717.957031 214.582031 711.351562 286.734375 711.765625 291.71875 C 710.773438 285.832031 712.3125 263.464844 726.632812 242.875 C 726.632812 242.875 741.1875 212.761719 745.375 198.574219 C 745.375 198.574219 749.269531 200.121094 751.75 203.695312 C 751.75 203.695312 764.273438 194.199219 765.558594 212.800781 L 765.550781 212.808594 C 773.394531 209.75 782.347656 207.425781 792.554688 206.078125 C 794.21875 205.867188 795.898438 205.660156 797.628906 205.5 C 798.699219 205.398438 799.761719 205.308594 800.824219 205.230469 C 817.683594 203.179688 857.113281 196.808594 888.449219 179.601562 C 888.457031 179.601562 917.496094 155.613281 913.554688 124.117188 C 913.554688 124.117188 923.398438 124.765625 924.0625 135.277344 C 924.0625 135.277344 922.675781 122.285156 931.988281 118.15625 C 931.980469 100.324219 922.707031 86.125 909.613281 84.753906 C 884.664062 82.121094 874.15625 105.089844 882.039062 118.871094 C 882.039062 118.871094 885.980469 109.683594 895.171875 113.625 C 904.363281 117.554688 901.738281 142.496094 883.347656 137.242188 C 864.964844 131.996094 863 93.9375 891.230469 80.804688 C 919.464844 67.6875 946.878906 80.804688 944.992188 122.152344 C 943.453125 155.808594 898.101562 198.074219 836.75 206.292969 C 895.648438 214.679688 936.683594 254.707031 984.804688 286.765625 C 1018.605469 309.28125 1061.113281 312.460938 1090.746094 311.175781 C 1093.125 307.640625 1116.464844 274.324219 1151.503906 271.921875 C 1188.507812 269.378906 1200.972656 280.296875 1212.164062 275.695312 Z M 711.765625 291.71875 C 711.773438 291.804688 711.78125 291.878906 711.789062 291.925781 C 711.78125 291.871094 711.773438 291.78125 711.765625 291.71875 Z M 911.175781 274.464844 C 914.90625 287.757812 918.21875 300.5 917.292969 319.949219 C 916.371094 339.40625 923.183594 343.128906 923.183594 343.128906 C 916.5625 334.855469 924.839844 321.191406 923.183594 302.980469 C 921.535156 284.777344 911.175781 271.535156 911.175781 271.535156 Z M 899.164062 306.714844 C 903.722656 288.089844 905.707031 254.566406 905.707031 254.566406 C 927.972656 269.464844 938.925781 308.363281 935.199219 318.710938 C 931.472656 329.0625 929.8125 351.402344 929.8125 351.402344 C 902.484375 346.855469 894.609375 325.335938 899.164062 306.714844 Z M 878.875 267.753906 C 867.28125 275.671875 862.722656 288.914062 862.722656 300.089844 C 862.722656 300.089844 877.21875 291.402344 885.917969 288.089844 C 894.609375 284.777344 899.164062 258.703125 899.164062 249.183594 C 899.164062 249.183594 890.472656 259.84375 878.875 267.753906 Z M 1004.773438 252.910156 C 991.933594 260.769531 978.046875 267.398438 978.046875 267.398438 C 978.046875 267.398438 989.863281 270.25 1001.871094 259.921875 C 1010.015625 252.925781 1016.566406 248.804688 1020.632812 247.21875 C 1024.066406 246.832031 1025.710938 247.1875 1024.65625 246.640625 C 1023.941406 246.277344 1022.570312 246.464844 1020.632812 247.21875 C 1017.003906 247.632812 1011.371094 248.867188 1004.773438 252.910156 Z M 998.976562 242.875 C 1019.261719 236.988281 1034.59375 244.628906 1034.59375 244.628906 C 1017.613281 247.941406 1018.023438 266.5625 992.347656 272.777344 C 966.667969 278.984375 960.457031 266.152344 960.488281 266.152344 C 976.222656 265.46875 978.683594 248.773438 998.976562 242.875 Z M 942.652344 237.597656 C 942.652344 237.597656 961.703125 236.890625 979.507812 218.832031 C 979.507812 218.832031 945.96875 237.597656 942.652344 237.597656 Z M 919.117188 235.527344 C 933.265625 235.941406 943.890625 222.285156 964.605469 214.003906 C 985.3125 205.730469 1001.871094 214.003906 1001.871094 214.003906 C 992.347656 214.417969 980.339844 238.421875 958.386719 245.046875 C 936.4375 251.664062 919.117188 235.527344 919.117188 235.527344 Z M 942.652344 173.863281 C 942.652344 173.863281 931.882812 180.480469 923.605469 189.175781 C 915.316406 197.867188 895.023438 214.003906 895.023438 214.003906 C 896.679688 214.003906 916.148438 206.144531 929.402344 190 C 942.652344 173.863281 942.652344 173.863281 942.652344 173.863281 Z M 956.316406 169.394531 C 940.582031 176.105469 940.996094 200.761719 917.386719 212.761719 C 893.785156 224.765625 880.535156 215.25 880.535156 215.25 C 888.15625 214.636719 907.449219 192.074219 921.945312 176.757812 C 936.4375 161.445312 956.316406 169.394531 956.316406 169.394531 Z M 855.648438 175.636719 C 836.90625 188.90625 775.214844 196.710938 775.214844 196.710938 C 825.195312 183.445312 843.148438 153.011719 851.746094 151.449219 C 860.335938 149.890625 874.386719 162.371094 855.648438 175.636719 " fill-opacity="1" fill-rule="nonzero"/></g><g clip-path="url(#6424d8c164)"><path fill="#eaa418" d="M 845.34375 452.195312 L 579.960938 452.195312 C 558.59375 452.195312 541.109375 434.753906 541.109375 413.4375 L 541.109375 313.425781 C 541.109375 292.109375 558.59375 274.667969 579.960938 274.667969 L 845.34375 274.667969 C 866.714844 274.667969 884.199219 292.109375 884.199219 313.425781 L 884.199219 413.4375 C 884.199219 434.753906 866.714844 452.195312 845.34375 452.195312 " fill-opacity="1" fill-rule="nonzero"/></g><g clip-path="url(#998a2b398a)"><path fill="#ffbd21" d="M 839.730469 452.195312 L 585.230469 452.195312 C 563.863281 452.195312 546.375 434.753906 546.375 413.4375 L 546.375 316.152344 C 546.375 294.835938 563.863281 277.394531 585.230469 277.394531 L 839.730469 277.394531 C 861.101562 277.394531 878.585938 294.835938 878.585938 316.152344 L 878.585938 413.4375 C 878.585938 434.753906 861.101562 452.195312 839.730469 452.195312 " fill-opacity="1" fill-rule="nonzero"/></g><path fill="#ffbd21" d="M 844.199219 435.929688 L 581.105469 435.929688 C 568.53125 435.929688 558.242188 425.664062 558.242188 413.117188 L 558.242188 311.261719 C 558.242188 298.714844 568.53125 288.449219 581.105469 288.449219 L 844.199219 288.449219 C 856.777344 288.449219 867.066406 298.714844 867.066406 311.261719 L 867.066406 413.117188 C 867.066406 425.664062 856.777344 435.929688 844.199219 435.929688 " fill-opacity="1" fill-rule="nonzero"/><path fill="#ffffff" d="M 857.792969 433.378906 C 857.792969 437.484375 854.457031 440.808594 850.34375 440.808594 C 846.230469 440.808594 842.894531 437.484375 842.894531 433.378906 C 842.894531 429.277344 846.230469 425.949219 850.34375 425.949219 C 854.457031 425.949219 857.792969 429.277344 857.792969 433.378906 " fill-opacity="1" fill-rule="nonzero"/><path fill="#ffffff" d="M 871.929688 419.324219 C 871.929688 423.425781 868.59375 426.753906 864.480469 426.753906 C 860.367188 426.753906 857.03125 423.425781 857.03125 419.324219 C 857.03125 415.21875 860.367188 411.890625 864.480469 411.890625 C 868.59375 411.890625 871.929688 415.21875 871.929688 419.324219 " fill-opacity="1" fill-rule="nonzero"/><path fill="#ffffff" d="M 874.515625 398.300781 C 874.515625 402.402344 871.179688 405.730469 867.066406 405.730469 C 862.953125 405.730469 859.617188 402.402344 859.617188 398.300781 C 859.617188 394.195312 862.953125 390.867188 867.066406 390.867188 C 871.179688 390.867188 874.515625 394.195312 874.515625 398.300781 " fill-opacity="1" fill-rule="nonzero"/><path fill="#ffffff" d="M 874.515625 376.757812 C 874.515625 380.863281 871.179688 384.191406 867.066406 384.191406 C 862.953125 384.191406 859.617188 380.863281 859.617188 376.757812 C 859.617188 372.65625 862.953125 369.328125 867.066406 369.328125 C 871.179688 369.328125 874.515625 372.65625 874.515625 376.757812 " fill-opacity="1" fill-rule="nonzero"/><path fill="#ffffff" d="M 874.515625 355.222656 C 874.515625 359.324219 871.179688 362.652344 867.066406 362.652344 C 862.953125 362.652344 859.617188 359.324219 859.617188 355.222656 C 859.617188 351.117188 862.953125 347.789062 867.066406 347.789062 C 871.179688 347.789062 874.515625 351.117188 874.515625 355.222656 " fill-opacity="1" fill-rule="nonzero"/><path fill="#ffffff" d="M 874.515625 333.683594 C 874.515625 337.785156 871.179688 341.113281 867.066406 341.113281 C 862.953125 341.113281 859.617188 337.785156 859.617188 333.683594 C 859.617188 329.578125 862.953125 326.25 867.066406 326.25 C 871.179688 326.25 874.515625 329.578125 874.515625 333.683594 " fill-opacity="1" fill-rule="nonzero"/><path fill="#ffffff" d="M 874.515625 312.144531 C 874.515625 316.246094 871.179688 319.574219 867.066406 319.574219 C 862.953125 319.574219 859.617188 316.246094 859.617188 312.144531 C 859.617188 308.039062 862.953125 304.710938 867.066406 304.710938 C 871.179688 304.710938 874.515625 308.039062 874.515625 312.144531 " fill-opacity="1" fill-rule="nonzero"/><path fill="#ffffff" d="M 864.828125 293.917969 C 864.828125 298.023438 861.496094 301.347656 857.378906 301.347656 C 853.265625 301.347656 849.929688 298.023438 849.929688 293.917969 C 849.929688 289.816406 853.265625 286.488281 857.378906 286.488281 C 861.496094 286.488281 864.828125 289.816406 864.828125 293.917969 " fill-opacity="1" fill-rule="nonzero"/><path fill="#ffffff" d="M 844.332031 288.449219 C 844.332031 292.554688 840.996094 295.878906 836.882812 295.878906 C 832.769531 295.878906 829.433594 292.554688 829.433594 288.449219 C 829.433594 284.34375 832.769531 281.019531 836.882812 281.019531 C 840.996094 281.019531 844.332031 284.34375 844.332031 288.449219 " fill-opacity="1" fill-rule="nonzero"/><path fill="#ffffff" d="M 822.738281 288.449219 C 822.738281 292.554688 819.40625 295.878906 815.292969 295.878906 C 811.175781 295.878906 807.84375 292.554688 807.84375 288.449219 C 807.84375 284.34375 811.175781 281.019531 815.292969 281.019531 C 819.40625 281.019531 822.738281 284.34375 822.738281 288.449219 " fill-opacity="1" fill-rule="nonzero"/><path fill="#ffffff" d="M 801.148438 288.449219 C 801.148438 292.554688 797.8125 295.878906 793.699219 295.878906 C 789.585938 295.878906 786.25 292.554688 786.25 288.449219 C 786.25 284.34375 789.585938 281.019531 793.699219 281.019531 C 797.8125 281.019531 801.148438 284.34375 801.148438 288.449219 " fill-opacity="1" fill-rule="nonzero"/><path fill="#ffffff" d="M 779.554688 288.449219 C 779.554688 292.554688 776.222656 295.878906 772.109375 295.878906 C 767.992188 295.878906 764.65625 292.554688 764.65625 288.449219 C 764.65625 284.34375 767.992188 281.019531 772.109375 281.019531 C 776.222656 281.019531 779.554688 284.34375 779.554688 288.449219 " fill-opacity="1" fill-rule="nonzero"/><path fill="#ffffff" d="M 757.964844 288.449219 C 757.964844 292.554688 754.628906 295.878906 750.515625 295.878906 C 746.402344 295.878906 743.066406 292.554688 743.066406 288.449219 C 743.066406 284.34375 746.402344 281.019531 750.515625 281.019531 C 754.628906 281.019531 757.964844 284.34375 757.964844 288.449219 " fill-opacity="1" fill-rule="nonzero"/><path fill="#ffffff" d="M 736.371094 288.449219 C 736.371094 292.554688 733.039062 295.878906 728.921875 295.878906 C 724.808594 295.878906 721.472656 292.554688 721.472656 288.449219 C 721.472656 284.34375 724.808594 281.019531 728.921875 281.019531 C 733.039062 281.019531 736.371094 284.34375 736.371094 288.449219 " fill-opacity="1" fill-rule="nonzero"/><path fill="#ffffff" d="M 714.78125 288.449219 C 714.78125 292.554688 711.445312 295.878906 707.332031 295.878906 C 703.21875 295.878906 699.882812 292.554688 699.882812 288.449219 C 699.882812 284.34375 703.21875 281.019531 707.332031 281.019531 C 711.445312 281.019531 714.78125 284.34375 714.78125 288.449219 " fill-opacity="1" fill-rule="nonzero"/><path fill="#ffffff" d="M 693.191406 288.449219 C 693.191406 292.554688 689.855469 295.878906 685.738281 295.878906 C 681.625 295.878906 678.289062 292.554688 678.289062 288.449219 C 678.289062 284.34375 681.625 281.019531 685.738281 281.019531 C 689.855469 281.019531 693.191406 284.34375 693.191406 288.449219 " fill-opacity="1" fill-rule="nonzero"/><path fill="#ffffff" d="M 671.597656 288.449219 C 671.597656 292.554688 668.261719 295.878906 664.148438 295.878906 C 660.03125 295.878906 656.699219 292.554688 656.699219 288.449219 C 656.699219 284.34375 660.03125 281.019531 664.148438 281.019531 C 668.261719 281.019531 671.597656 284.34375 671.597656 288.449219 " fill-opacity="1" fill-rule="nonzero"/><path fill="#ffffff" d="M 650.003906 288.449219 C 650.003906 292.554688 646.671875 295.878906 642.554688 295.878906 C 638.441406 295.878906 635.105469 292.554688 635.105469 288.449219 C 635.105469 284.34375 638.441406 281.019531 642.554688 281.019531 C 646.671875 281.019531 650.003906 284.34375 650.003906 288.449219 " fill-opacity="1" fill-rule="nonzero"/><path fill="#ffffff" d="M 628.414062 288.449219 C 628.414062 292.554688 625.078125 295.878906 620.964844 295.878906 C 616.847656 295.878906 613.515625 292.554688 613.515625 288.449219 C 613.515625 284.34375 616.847656 281.019531 620.964844 281.019531 C 625.078125 281.019531 628.414062 284.34375 628.414062 288.449219 " fill-opacity="1" fill-rule="nonzero"/><path fill="#ffffff" d="M 606.820312 288.449219 C 606.820312 292.554688 603.484375 295.878906 599.371094 295.878906 C 595.257812 295.878906 591.921875 292.554688 591.921875 288.449219 C 591.921875 284.34375 595.257812 281.019531 599.371094 281.019531 C 603.484375 281.019531 606.820312 284.34375 606.820312 288.449219 " fill-opacity="1" fill-rule="nonzero"/><path fill="#ffffff" d="M 585.484375 289.722656 C 585.484375 293.828125 582.148438 297.15625 578.035156 297.15625 C 573.921875 297.15625 570.585938 293.828125 570.585938 289.722656 C 570.585938 285.621094 573.921875 282.292969 578.035156 282.292969 C 582.148438 282.292969 585.484375 285.621094 585.484375 289.722656 " fill-opacity="1" fill-rule="nonzero"/><path fill="#ffffff" d="M 569.554688 301.992188 C 569.554688 306.097656 566.21875 309.421875 562.105469 309.421875 C 557.992188 309.421875 554.65625 306.097656 554.65625 301.992188 C 554.65625 297.886719 557.992188 294.5625 562.105469 294.5625 C 566.21875 294.5625 569.554688 297.886719 569.554688 301.992188 " fill-opacity="1" fill-rule="nonzero"/><path fill="#ffffff" d="M 565.691406 322.761719 C 565.691406 326.867188 562.355469 330.191406 558.242188 330.191406 C 554.125 330.191406 550.789062 326.867188 550.789062 322.761719 C 550.789062 318.65625 554.125 315.328125 558.242188 315.328125 C 562.355469 315.328125 565.691406 318.65625 565.691406 322.761719 " fill-opacity="1" fill-rule="nonzero"/><path fill="#ffffff" d="M 565.691406 344.300781 C 565.691406 348.40625 562.355469 351.730469 558.242188 351.730469 C 554.125 351.730469 550.789062 348.40625 550.789062 344.300781 C 550.789062 340.195312 554.125 336.867188 558.242188 336.867188 C 562.355469 336.867188 565.691406 340.195312 565.691406 344.300781 " fill-opacity="1" fill-rule="nonzero"/><path fill="#ffffff" d="M 565.691406 365.839844 C 565.691406 369.945312 562.355469 373.269531 558.242188 373.269531 C 554.125 373.269531 550.789062 369.945312 550.789062 365.839844 C 550.789062 361.734375 554.125 358.40625 558.242188 358.40625 C 562.355469 358.40625 565.691406 361.734375 565.691406 365.839844 " fill-opacity="1" fill-rule="nonzero"/><path fill="#ffffff" d="M 565.691406 387.378906 C 565.691406 391.484375 562.355469 394.808594 558.242188 394.808594 C 554.125 394.808594 550.789062 391.484375 550.789062 387.378906 C 550.789062 383.273438 554.125 379.945312 558.242188 379.945312 C 562.355469 379.945312 565.691406 383.273438 565.691406 387.378906 " fill-opacity="1" fill-rule="nonzero"/><path fill="#ffffff" d="M 565.691406 408.917969 C 565.691406 413.019531 562.355469 416.347656 558.242188 416.347656 C 554.125 416.347656 550.789062 413.019531 550.789062 408.917969 C 550.789062 404.8125 554.125 401.484375 558.242188 401.484375 C 562.355469 401.484375 565.691406 404.8125 565.691406 408.917969 " fill-opacity="1" fill-rule="nonzero"/><path fill="#ffffff" d="M 572.363281 429.125 C 572.363281 433.230469 569.027344 436.558594 564.914062 436.558594 C 560.800781 436.558594 557.464844 433.230469 557.464844 429.125 C 557.464844 425.019531 560.800781 421.695312 564.914062 421.695312 C 569.027344 421.695312 572.363281 425.019531 572.363281 429.125 " fill-opacity="1" fill-rule="nonzero"/><path fill="#ffffff" d="M 592.546875 435.929688 C 592.546875 440.03125 589.210938 443.359375 585.097656 443.359375 C 580.984375 443.359375 577.648438 440.03125 577.648438 435.929688 C 577.648438 431.824219 580.984375 428.5 585.097656 428.5 C 589.210938 428.5 592.546875 431.824219 592.546875 435.929688 " fill-opacity="1" fill-rule="nonzero"/><path fill="#ffffff" d="M 614.136719 435.929688 C 614.136719 440.03125 610.800781 443.359375 606.691406 443.359375 C 602.574219 443.359375 599.238281 440.03125 599.238281 435.929688 C 599.238281 431.824219 602.574219 428.5 606.691406 428.5 C 610.800781 428.5 614.136719 431.824219 614.136719 435.929688 " fill-opacity="1" fill-rule="nonzero"/><path fill="#ffffff" d="M 635.730469 435.929688 C 635.730469 440.03125 632.394531 443.359375 628.28125 443.359375 C 624.164062 443.359375 620.832031 440.03125 620.832031 435.929688 C 620.832031 431.824219 624.164062 428.5 628.28125 428.5 C 632.394531 428.5 635.730469 431.824219 635.730469 435.929688 " fill-opacity="1" fill-rule="nonzero"/><path fill="#ffffff" d="M 657.320312 435.929688 C 657.320312 440.03125 653.988281 443.359375 649.871094 443.359375 C 645.757812 443.359375 642.421875 440.03125 642.421875 435.929688 C 642.421875 431.824219 645.757812 428.5 649.871094 428.5 C 653.988281 428.5 657.320312 431.824219 657.320312 435.929688 " fill-opacity="1" fill-rule="nonzero"/><path fill="#ffffff" d="M 678.914062 435.929688 C 678.914062 440.03125 675.578125 443.359375 671.464844 443.359375 C 667.351562 443.359375 664.015625 440.03125 664.015625 435.929688 C 664.015625 431.824219 667.351562 428.5 671.464844 428.5 C 675.578125 428.5 678.914062 431.824219 678.914062 435.929688 " fill-opacity="1" fill-rule="nonzero"/><path fill="#ffffff" d="M 700.507812 435.929688 C 700.507812 440.03125 697.171875 443.359375 693.054688 443.359375 C 688.941406 443.359375 685.605469 440.03125 685.605469 435.929688 C 685.605469 431.824219 688.941406 428.5 693.054688 428.5 C 697.171875 428.5 700.507812 431.824219 700.507812 435.929688 " fill-opacity="1" fill-rule="nonzero"/><path fill="#ffffff" d="M 722.097656 435.929688 C 722.097656 440.03125 718.761719 443.359375 714.648438 443.359375 C 710.535156 443.359375 707.199219 440.03125 707.199219 435.929688 C 707.199219 431.824219 710.535156 428.5 714.648438 428.5 C 718.761719 428.5 722.097656 431.824219 722.097656 435.929688 " fill-opacity="1" fill-rule="nonzero"/><path fill="#ffffff" d="M 743.691406 435.929688 C 743.691406 440.03125 740.355469 443.359375 736.242188 443.359375 C 732.125 443.359375 728.789062 440.03125 728.789062 435.929688 C 728.789062 431.824219 732.125 428.5 736.242188 428.5 C 740.355469 428.5 743.691406 431.824219 743.691406 435.929688 " fill-opacity="1" fill-rule="nonzero"/><path fill="#ffffff" d="M 765.28125 435.929688 C 765.28125 440.03125 761.945312 443.359375 757.832031 443.359375 C 753.71875 443.359375 750.382812 440.03125 750.382812 435.929688 C 750.382812 431.824219 753.71875 428.5 757.832031 428.5 C 761.945312 428.5 765.28125 431.824219 765.28125 435.929688 " fill-opacity="1" fill-rule="nonzero"/><path fill="#ffffff" d="M 786.871094 435.929688 C 786.871094 440.03125 783.539062 443.359375 779.425781 443.359375 C 775.308594 443.359375 771.976562 440.03125 771.976562 435.929688 C 771.976562 431.824219 775.308594 428.5 779.425781 428.5 C 783.539062 428.5 786.871094 431.824219 786.871094 435.929688 " fill-opacity="1" fill-rule="nonzero"/><path fill="#ffffff" d="M 808.464844 435.929688 C 808.464844 440.03125 805.128906 443.359375 801.015625 443.359375 C 796.902344 443.359375 793.566406 440.03125 793.566406 435.929688 C 793.566406 431.824219 796.902344 428.5 801.015625 428.5 C 805.128906 428.5 808.464844 431.824219 808.464844 435.929688 " fill-opacity="1" fill-rule="nonzero"/><path fill="#ffffff" d="M 830.054688 435.929688 C 830.054688 440.03125 826.722656 443.359375 822.609375 443.359375 C 818.492188 443.359375 815.160156 440.03125 815.160156 435.929688 C 815.160156 431.824219 818.492188 428.5 822.609375 428.5 C 826.722656 428.5 830.054688 431.824219 830.054688 435.929688 " fill-opacity="1" fill-rule="nonzero"/><path fill="#ffffff" d="M 851.648438 435.929688 C 851.648438 440.03125 848.3125 443.359375 844.199219 443.359375 C 840.085938 443.359375 836.75 440.03125 836.75 435.929688 C 836.75 431.824219 840.085938 428.5 844.199219 428.5 C 848.3125 428.5 851.648438 431.824219 851.648438 435.929688 " fill-opacity="1" fill-rule="nonzero"/><path fill="#d62628" d="M 819.777344 414.941406 L 605.53125 414.941406 C 592.953125 414.941406 582.664062 404.675781 582.664062 392.128906 L 582.664062 334.730469 C 582.664062 322.1875 592.953125 311.921875 605.53125 311.921875 L 819.777344 311.921875 C 832.355469 311.921875 842.644531 322.1875 842.644531 334.730469 L 842.644531 392.128906 C 842.644531 404.675781 832.355469 414.941406 819.777344 414.941406 " fill-opacity="1" fill-rule="nonzero"/><path fill="#ea363f" d="M 811.1875 403.5625 L 610.621094 403.5625 C 598.847656 403.5625 589.214844 395.316406 589.214844 385.238281 L 589.214844 339.125 C 589.214844 329.042969 598.847656 320.796875 610.621094 320.796875 L 811.1875 320.796875 C 822.960938 320.796875 832.597656 329.042969 832.597656 339.125 L 832.597656 385.238281 C 832.597656 395.316406 822.960938 403.5625 811.1875 403.5625 " fill-opacity="1" fill-rule="nonzero"/><path fill="#ffffff" d="M 834.898438 409.519531 C 834.898438 410.648438 833.980469 411.5625 832.847656 411.5625 C 831.714844 411.5625 830.796875 410.648438 830.796875 409.519531 C 830.796875 408.390625 831.714844 407.472656 832.847656 407.472656 C 833.980469 407.472656 834.898438 408.390625 834.898438 409.519531 " fill-opacity="1" fill-rule="nonzero"/><path fill="#ffffff" d="M 844.695312 391.367188 C 844.695312 392.496094 843.777344 393.414062 842.644531 393.414062 C 841.511719 393.414062 840.59375 392.496094 840.59375 391.367188 C 840.59375 390.238281 841.511719 389.320312 842.644531 389.320312 C 843.777344 389.320312 844.695312 390.238281 844.695312 391.367188 " fill-opacity="1" fill-rule="nonzero"/><path fill="#ffffff" d="M 844.695312 369.828125 C 844.695312 370.957031 843.777344 371.875 842.644531 371.875 C 841.511719 371.875 840.59375 370.957031 840.59375 369.828125 C 840.59375 368.699219 841.511719 367.78125 842.644531 367.78125 C 843.777344 367.78125 844.695312 368.699219 844.695312 369.828125 " fill-opacity="1" fill-rule="nonzero"/><path fill="#ffffff" d="M 844.695312 348.289062 C 844.695312 349.417969 843.777344 350.335938 842.644531 350.335938 C 841.511719 350.335938 840.59375 349.417969 840.59375 348.289062 C 840.59375 347.160156 841.511719 346.246094 842.644531 346.246094 C 843.777344 346.246094 844.695312 347.160156 844.695312 348.289062 " fill-opacity="1" fill-rule="nonzero"/><path fill="#ffffff" d="M 841.621094 327.363281 C 841.621094 328.492188 840.703125 329.410156 839.570312 329.410156 C 838.4375 329.410156 837.519531 328.492188 837.519531 327.363281 C 837.519531 326.234375 838.4375 325.316406 839.570312 325.316406 C 840.703125 325.316406 841.621094 326.234375 841.621094 327.363281 " fill-opacity="1" fill-rule="nonzero"/><path fill="#ffffff" d="M 826.804688 313.984375 C 826.804688 315.117188 825.886719 316.03125 824.753906 316.03125 C 823.621094 316.03125 822.703125 315.117188 822.703125 313.984375 C 822.703125 312.855469 823.621094 311.9375 824.753906 311.9375 C 825.886719 311.9375 826.804688 312.855469 826.804688 313.984375 " fill-opacity="1" fill-rule="nonzero"/><path fill="#ffffff" d="M 805.628906 311.921875 C 805.628906 313.050781 804.707031 313.96875 803.578125 313.96875 C 802.445312 313.96875 801.523438 313.050781 801.523438 311.921875 C 801.523438 310.792969 802.445312 309.875 803.578125 309.875 C 804.707031 309.875 805.628906 310.792969 805.628906 311.921875 " fill-opacity="1" fill-rule="nonzero"/><path fill="#ffffff" d="M 784.035156 311.921875 C 784.035156 313.050781 783.117188 313.96875 781.984375 313.96875 C 780.851562 313.96875 779.933594 313.050781 779.933594 311.921875 C 779.933594 310.792969 780.851562 309.875 781.984375 309.875 C 783.117188 309.875 784.035156 310.792969 784.035156 311.921875 " fill-opacity="1" fill-rule="nonzero"/><path fill="#ffffff" d="M 762.445312 311.921875 C 762.445312 313.050781 761.527344 313.96875 760.390625 313.96875 C 759.257812 313.96875 758.339844 313.050781 758.339844 311.921875 C 758.339844 310.792969 759.257812 309.875 760.390625 309.875 C 761.527344 309.875 762.445312 310.792969 762.445312 311.921875 " fill-opacity="1" fill-rule="nonzero"/><path fill="#ffffff" d="M 740.851562 311.921875 C 740.851562 313.050781 739.933594 313.96875 738.800781 313.96875 C 737.667969 313.96875 736.75 313.050781 736.75 311.921875 C 736.75 310.792969 737.667969 309.875 738.800781 309.875 C 739.933594 309.875 740.851562 310.792969 740.851562 311.921875 " fill-opacity="1" fill-rule="nonzero"/><path fill="#ffffff" d="M 719.257812 311.921875 C 719.257812 313.050781 718.339844 313.96875 717.207031 313.96875 C 716.074219 313.96875 715.15625 313.050781 715.15625 311.921875 C 715.15625 310.792969 716.074219 309.875 717.207031 309.875 C 718.339844 309.875 719.257812 310.792969 719.257812 311.921875 " fill-opacity="1" fill-rule="nonzero"/><path fill="#ffffff" d="M 697.667969 311.921875 C 697.667969 313.050781 696.75 313.96875 695.617188 313.96875 C 694.484375 313.96875 693.566406 313.050781 693.566406 311.921875 C 693.566406 310.792969 694.484375 309.875 695.617188 309.875 C 696.75 309.875 697.667969 310.792969 697.667969 311.921875 " fill-opacity="1" fill-rule="nonzero"/><path fill="#ffffff" d="M 676.074219 311.921875 C 676.074219 313.050781 675.15625 313.96875 674.023438 313.96875 C 672.890625 313.96875 671.972656 313.050781 671.972656 311.921875 C 671.972656 310.792969 672.890625 309.875 674.023438 309.875 C 675.15625 309.875 676.074219 310.792969 676.074219 311.921875 " fill-opacity="1" fill-rule="nonzero"/><path fill="#ffffff" d="M 654.484375 311.921875 C 654.484375 313.050781 653.566406 313.96875 652.433594 313.96875 C 651.300781 313.96875 650.382812 313.050781 650.382812 311.921875 C 650.382812 310.792969 651.300781 309.875 652.433594 309.875 C 653.566406 309.875 654.484375 310.792969 654.484375 311.921875 " fill-opacity="1" fill-rule="nonzero"/><path fill="#ffffff" d="M 632.890625 311.921875 C 632.890625 313.050781 631.972656 313.96875 630.839844 313.96875 C 629.707031 313.96875 628.789062 313.050781 628.789062 311.921875 C 628.789062 310.792969 629.707031 309.875 630.839844 309.875 C 631.972656 309.875 632.890625 310.792969 632.890625 311.921875 " fill-opacity="1" fill-rule="nonzero"/><path fill="#ffffff" d="M 611.300781 311.921875 C 611.300781 313.050781 610.382812 313.96875 609.25 313.96875 C 608.117188 313.96875 607.195312 313.050781 607.195312 311.921875 C 607.195312 310.792969 608.117188 309.875 609.25 309.875 C 610.382812 309.875 611.300781 310.792969 611.300781 311.921875 " fill-opacity="1" fill-rule="nonzero"/><path fill="#ffffff" d="M 591.285156 318.972656 C 591.285156 320.105469 590.367188 321.019531 589.234375 321.019531 C 588.101562 321.019531 587.183594 320.105469 587.183594 318.972656 C 587.183594 317.84375 588.101562 316.929688 589.234375 316.929688 C 590.367188 316.929688 591.285156 317.84375 591.285156 318.972656 " fill-opacity="1" fill-rule="nonzero"/><path fill="#ffffff" d="M 584.714844 339.203125 C 584.714844 340.335938 583.796875 341.25 582.664062 341.25 C 581.53125 341.25 580.613281 340.335938 580.613281 339.203125 C 580.613281 338.074219 581.53125 337.15625 582.664062 337.15625 C 583.796875 337.15625 584.714844 338.074219 584.714844 339.203125 " fill-opacity="1" fill-rule="nonzero"/><path fill="#ffffff" d="M 584.714844 360.742188 C 584.714844 361.875 583.796875 362.789062 582.664062 362.789062 C 581.53125 362.789062 580.613281 361.875 580.613281 360.742188 C 580.613281 359.613281 581.53125 358.695312 582.664062 358.695312 C 583.796875 358.695312 584.714844 359.613281 584.714844 360.742188 " fill-opacity="1" fill-rule="nonzero"/><path fill="#ffffff" d="M 584.714844 382.28125 C 584.714844 383.414062 583.796875 384.328125 582.664062 384.328125 C 581.53125 384.328125 580.613281 383.414062 580.613281 382.28125 C 580.613281 381.152344 581.53125 380.234375 582.664062 380.234375 C 583.796875 380.234375 584.714844 381.152344 584.714844 382.28125 " fill-opacity="1" fill-rule="nonzero"/><path fill="#ffffff" d="M 589.214844 402.925781 C 589.214844 404.054688 588.296875 404.96875 587.164062 404.96875 C 586.03125 404.96875 585.113281 404.054688 585.113281 402.925781 C 585.113281 401.792969 586.03125 400.875 587.164062 400.875 C 588.296875 400.875 589.214844 401.792969 589.214844 402.925781 " fill-opacity="1" fill-rule="nonzero"/><path fill="#ffffff" d="M 606.039062 414.300781 C 606.039062 415.429688 605.121094 416.347656 603.988281 416.347656 C 602.855469 416.347656 601.9375 415.429688 601.9375 414.300781 C 601.9375 413.171875 602.855469 412.253906 603.988281 412.253906 C 605.121094 412.253906 606.039062 413.171875 606.039062 414.300781 " fill-opacity="1" fill-rule="nonzero"/><path fill="#ffffff" d="M 627.5 414.941406 C 627.5 416.070312 626.582031 416.988281 625.449219 416.988281 C 624.316406 416.988281 623.398438 416.070312 623.398438 414.941406 C 623.398438 413.808594 624.316406 412.894531 625.449219 412.894531 C 626.582031 412.894531 627.5 413.808594 627.5 414.941406 " fill-opacity="1" fill-rule="nonzero"/><path fill="#ffffff" d="M 649.09375 414.941406 C 649.09375 416.070312 648.175781 416.988281 647.042969 416.988281 C 645.910156 416.988281 644.992188 416.070312 644.992188 414.941406 C 644.992188 413.808594 645.910156 412.894531 647.042969 412.894531 C 648.175781 412.894531 649.09375 413.808594 649.09375 414.941406 " fill-opacity="1" fill-rule="nonzero"/><path fill="#ffffff" d="M 670.683594 414.941406 C 670.683594 416.070312 669.765625 416.988281 668.632812 416.988281 C 667.5 416.988281 666.582031 416.070312 666.582031 414.941406 C 666.582031 413.808594 667.5 412.894531 668.632812 412.894531 C 669.765625 412.894531 670.683594 413.808594 670.683594 414.941406 " fill-opacity="1" fill-rule="nonzero"/><path fill="#ffffff" d="M 692.277344 414.941406 C 692.277344 416.070312 691.359375 416.988281 690.226562 416.988281 C 689.09375 416.988281 688.175781 416.070312 688.175781 414.941406 C 688.175781 413.808594 689.09375 412.894531 690.226562 412.894531 C 691.359375 412.894531 692.277344 413.808594 692.277344 414.941406 " fill-opacity="1" fill-rule="nonzero"/><path fill="#ffffff" d="M 713.871094 414.941406 C 713.871094 416.070312 712.949219 416.988281 711.816406 416.988281 C 710.683594 416.988281 709.765625 416.070312 709.765625 414.941406 C 709.765625 413.808594 710.683594 412.894531 711.816406 412.894531 C 712.949219 412.894531 713.871094 413.808594 713.871094 414.941406 " fill-opacity="1" fill-rule="nonzero"/><path fill="#ffffff" d="M 735.460938 414.941406 C 735.460938 416.070312 734.542969 416.988281 733.410156 416.988281 C 732.277344 416.988281 731.359375 416.070312 731.359375 414.941406 C 731.359375 413.808594 732.277344 412.894531 733.410156 412.894531 C 734.542969 412.894531 735.460938 413.808594 735.460938 414.941406 " fill-opacity="1" fill-rule="nonzero"/><path fill="#ffffff" d="M 757.054688 414.941406 C 757.054688 416.070312 756.136719 416.988281 755.003906 416.988281 C 753.867188 416.988281 752.949219 416.070312 752.949219 414.941406 C 752.949219 413.808594 753.867188 412.894531 755.003906 412.894531 C 756.136719 412.894531 757.054688 413.808594 757.054688 414.941406 " fill-opacity="1" fill-rule="nonzero"/><path fill="#ffffff" d="M 778.644531 414.941406 C 778.644531 416.070312 777.726562 416.988281 776.59375 416.988281 C 775.460938 416.988281 774.542969 416.070312 774.542969 414.941406 C 774.542969 413.808594 775.460938 412.894531 776.59375 412.894531 C 777.726562 412.894531 778.644531 413.808594 778.644531 414.941406 " fill-opacity="1" fill-rule="nonzero"/><path fill="#ffffff" d="M 800.234375 414.941406 C 800.234375 416.070312 799.320312 416.988281 798.1875 416.988281 C 797.054688 416.988281 796.136719 416.070312 796.136719 414.941406 C 796.136719 413.808594 797.054688 412.894531 798.1875 412.894531 C 799.320312 412.894531 800.234375 413.808594 800.234375 414.941406 " fill-opacity="1" fill-rule="nonzero"/><path fill="#ffffff" d="M 821.828125 414.941406 C 821.828125 416.070312 820.910156 416.988281 819.777344 416.988281 C 818.644531 416.988281 817.726562 416.070312 817.726562 414.941406 C 817.726562 413.808594 818.644531 412.894531 819.777344 412.894531 C 820.910156 412.894531 821.828125 413.808594 821.828125 414.941406 " fill-opacity="1" fill-rule="nonzero"/><path fill="#ffffff" d="M 635.28125 383.992188 C 633.53125 384.832031 629.371094 385.871094 624.109375 385.871094 C 608.976562 385.871094 601.179688 376.410156 601.179688 363.96875 C 601.179688 349.0625 611.835938 340.835938 625.085938 340.835938 C 630.214844 340.835938 634.113281 341.808594 635.867188 342.777344 L 633.789062 350.554688 C 631.839844 349.710938 629.046875 348.933594 625.472656 348.933594 C 617.679688 348.933594 611.574219 353.664062 611.574219 363.386719 C 611.574219 372.132812 616.769531 377.640625 625.539062 377.640625 C 628.59375 377.640625 631.839844 377.058594 633.855469 376.214844 L 635.28125 383.992188 " fill-opacity="1" fill-rule="nonzero"/><path fill="#ffffff" d="M 663.796875 366.558594 L 661.066406 357.292969 C 660.289062 354.703125 659.507812 351.460938 658.859375 348.867188 L 658.730469 348.867188 C 658.078125 351.460938 657.429688 354.765625 656.714844 357.292969 L 654.117188 366.558594 Z M 652.6875 373.945312 L 649.570312 385.15625 L 639.371094 385.15625 L 652.6875 341.484375 L 665.679688 341.484375 L 679.320312 385.15625 L 668.601562 385.15625 L 665.226562 373.945312 L 652.6875 373.945312 " fill-opacity="1" fill-rule="nonzero"/><path fill="#ffffff" d="M 685.421875 374.984375 C 688.023438 376.34375 692.179688 377.707031 696.402344 377.707031 C 700.949219 377.707031 703.351562 375.828125 703.351562 372.976562 C 703.351562 370.253906 701.273438 368.699219 696.011719 366.882812 C 688.738281 364.289062 683.929688 360.273438 683.929688 353.921875 C 683.929688 346.472656 690.230469 340.835938 700.496094 340.835938 C 705.496094 340.835938 709.070312 341.808594 711.667969 343.035156 L 709.457031 350.945312 C 707.769531 350.101562 704.585938 348.867188 700.363281 348.867188 C 696.078125 348.867188 694 350.878906 694 353.078125 C 694 355.867188 696.402344 357.097656 702.117188 359.238281 C 709.847656 362.085938 713.421875 366.105469 713.421875 372.261719 C 713.421875 379.582031 707.835938 385.804688 695.816406 385.804688 C 690.816406 385.804688 685.878906 384.445312 683.410156 383.082031 L 685.421875 374.984375 " fill-opacity="1" fill-rule="nonzero"/><path fill="#ffffff" d="M 730.113281 341.484375 L 730.113281 385.15625 L 720.238281 385.15625 L 720.238281 341.484375 L 730.113281 341.484375 " fill-opacity="1" fill-rule="nonzero"/><path fill="#ffffff" d="M 738.683594 385.15625 L 738.683594 341.484375 L 750.246094 341.484375 L 759.339844 357.488281 C 761.9375 362.085938 764.472656 367.53125 766.488281 372.457031 L 766.617188 372.457031 C 766.035156 366.691406 765.835938 360.792969 765.835938 354.183594 L 765.835938 341.484375 L 774.933594 341.484375 L 774.933594 385.15625 L 764.539062 385.15625 L 755.183594 368.308594 C 752.585938 363.644531 749.664062 358.003906 747.585938 352.886719 L 747.324219 352.886719 C 747.648438 358.71875 747.777344 364.875 747.777344 372.003906 L 747.777344 385.15625 L 738.683594 385.15625 " fill-opacity="1" fill-rule="nonzero"/><path fill="#ffffff" d="M 791.945312 363.386719 C 791.945312 372.003906 795.976562 378.027344 802.601562 378.027344 C 809.292969 378.027344 813.125 371.679688 813.125 363.191406 C 813.125 355.285156 809.421875 348.546875 802.601562 348.546875 C 795.84375 348.546875 791.945312 354.894531 791.945312 363.386719 Z M 823.582031 362.863281 C 823.582031 377.25 814.945312 385.871094 802.078125 385.871094 C 789.152344 385.871094 781.488281 376.085938 781.488281 363.578125 C 781.488281 350.488281 789.933594 340.707031 802.796875 340.707031 C 816.242188 340.707031 823.582031 350.75 823.582031 362.863281 " fill-opacity="1" fill-rule="nonzero"/></svg>