<svg xmlns="http://www.w3.org/2000/svg" xmlns:xlink="http://www.w3.org/1999/xlink" width="1890" zoomAndPan="magnify" viewBox="0 0 1417.5 374.999991" height="500" preserveAspectRatio="xMidYMid meet" version="1.0"><defs><clipPath id="184a13d7de"><path d="M 0 0.0664062 L 1417 0.0664062 L 1417 165.683594 L 0 165.683594 Z M 0 0.0664062 " clip-rule="nonzero"/></clipPath><clipPath id="f24769a2c7"><path d="M 384.410156 87.246094 L 1031.554688 87.246094 L 1031.554688 288.191406 L 384.410156 288.191406 Z M 384.410156 87.246094 " clip-rule="nonzero"/></clipPath><clipPath id="ceec3f4515"><path d="M 712.292969 166.519531 C 712.292969 163.78125 710.074219 161.558594 707.339844 161.558594 C 704.605469 161.558594 702.386719 163.78125 702.386719 166.519531 C 702.386719 169.257812 704.605469 171.480469 707.339844 171.480469 C 710.074219 171.480469 712.292969 169.257812 712.292969 166.519531 Z M 707.339844 152.539062 C 718.011719 127.910156 736.300781 131.539062 736.300781 131.539062 C 735.015625 127.394531 729.75 127.128906 729.75 127.128906 C 718.042969 118.839844 710.832031 139.835938 710.832031 139.835938 C 711.53125 128.6875 720.292969 121.945312 720.292969 121.945312 C 718.023438 119.613281 712.203125 121.945312 712.203125 121.945312 C 712.203125 121.945312 714.019531 110.542969 707.339844 110.542969 C 700.660156 110.542969 702.476562 121.945312 702.476562 121.945312 C 702.476562 121.945312 696.65625 119.613281 694.386719 121.945312 C 694.386719 121.945312 703.148438 128.6875 703.851562 139.835938 C 703.851562 139.835938 696.636719 118.839844 684.925781 127.128906 C 684.925781 127.128906 679.664062 127.394531 678.378906 131.539062 C 678.378906 131.539062 696.671875 127.910156 707.339844 152.539062 Z M 707.339844 192.691406 C 707.078125 191.78125 706.941406 191.253906 706.941406 191.253906 C 706.980469 191.625 707.121094 192.113281 707.339844 192.691406 Z M 743.15625 229.808594 C 743.15625 229.808594 726.421875 221.261719 720.230469 214.558594 C 720.230469 214.558594 731.945312 231.816406 743.15625 229.808594 Z M 750.992188 229.003906 C 750.015625 234.441406 742.941406 238.757812 728.542969 229.003906 C 716.089844 220.5625 709.023438 198.511719 707.339844 192.691406 C 709.390625 198.082031 718.691406 211.558594 725.574219 215.003906 C 733.199219 218.824219 751.800781 224.507812 750.992188 229.003906 Z M 753.863281 212.847656 C 753.863281 212.847656 735.640625 207.265625 728.324219 200.664062 C 727.214844 199.539062 726.585938 198.8125 726.585938 198.8125 C 727.058594 199.433594 727.648438 200.050781 728.324219 200.664062 C 732.402344 204.785156 743.078125 214.265625 753.863281 212.847656 Z M 742.941406 216.277344 C 721.339844 208.640625 712.019531 177.257812 712.019531 177.257812 C 723.457031 194.644531 736.167969 195.921875 751.097656 201.433594 C 766.027344 206.945312 764.546875 223.910156 742.941406 216.277344 Z M 692.417969 252.871094 L 707.339844 288.191406 C 707.328125 288.128906 707.320312 287.984375 707.308594 287.777344 C 707.339844 287.988281 707.347656 288.128906 707.339844 288.191406 L 722.257812 252.871094 L 707.339844 217.558594 Z M 706.539062 192.691406 C 706.757812 192.113281 706.898438 191.625 706.941406 191.253906 C 706.941406 191.253906 706.804688 191.78125 706.539062 192.691406 Z M 693.648438 214.558594 C 687.460938 221.261719 670.726562 229.808594 670.726562 229.808594 C 681.933594 231.816406 693.648438 214.558594 693.648438 214.558594 Z M 706.539062 192.691406 C 704.851562 198.511719 697.789062 220.5625 685.335938 229.003906 C 670.933594 238.757812 663.863281 234.441406 662.882812 229.003906 C 662.074219 224.507812 680.675781 218.824219 688.304688 215.003906 C 695.183594 211.558594 704.488281 198.082031 706.539062 192.691406 Z M 685.554688 200.664062 C 686.230469 200.050781 686.824219 199.433594 687.289062 198.8125 C 687.289062 198.8125 686.667969 199.539062 685.554688 200.664062 C 678.234375 207.265625 660.015625 212.847656 660.015625 212.847656 C 670.800781 214.265625 681.472656 204.785156 685.554688 200.664062 Z M 670.933594 216.277344 C 649.335938 223.910156 647.851562 206.945312 662.78125 201.433594 C 677.710938 195.921875 690.417969 194.644531 701.859375 177.257812 C 701.859375 177.257812 692.535156 208.640625 670.933594 216.277344 Z M 975.015625 141.804688 L 980.875 117.253906 C 972.273438 127.519531 975.015625 141.804688 975.015625 141.804688 Z M 973.644531 146.675781 C 973.644531 146.675781 945.351562 131.078125 987.046875 106.347656 C 987.046875 106.347656 986.671875 124.855469 987.046875 131.195312 C 987.417969 137.53125 984.039062 147.894531 978.113281 149.460938 C 978.113281 149.460938 965.875 170.09375 952.21875 175.796875 C 963.933594 177.710938 974.699219 184.09375 982.027344 192.644531 C 991.21875 197.726562 1004.1875 203.878906 1014.222656 203.878906 C 1030.972656 203.878906 1024.273438 190.089844 1024.273438 190.089844 C 1024.273438 190.089844 1021.667969 194.191406 1017.941406 192.328125 C 1014.222656 190.464844 1016.867188 181.144531 1025.597656 181.144531 C 1034.324219 181.144531 1035.066406 207.519531 1016.824219 207.378906 C 1006.648438 207.296875 993.457031 200.664062 983.78125 194.8125 C 990.597656 203.8125 993.675781 214.832031 990.394531 225.5 C 982.953125 249.726562 938.648438 249.726562 937.160156 228.480469 C 935.667969 207.234375 950.933594 198.660156 960.242188 201.273438 C 969.546875 203.878906 962.84375 218.417969 956.144531 214.757812 C 949.445312 211.097656 956.144531 207.457031 956.144531 207.457031 C 941.628906 207.679688 933.808594 228.480469 949.445312 237.863281 C 965.078125 247.246094 987.417969 234.445312 984.070312 210.960938 C 980.71875 187.476562 955.402344 176.292969 917.058594 183.628906 C 878.714844 190.964844 854.570312 169.570312 856.378906 170.742188 C 873.199219 181.574219 910.730469 175.195312 944.976562 175.195312 C 946.257812 175.195312 947.53125 175.273438 948.800781 175.382812 C 955.371094 171.144531 970.457031 160.15625 973.644531 146.675781 Z M 1004.539062 225.636719 C 1004.539062 225.636719 1006.058594 254.203125 1017.769531 253.085938 C 1029.484375 251.964844 1022.039062 229.503906 1004.539062 225.636719 Z M 987.070312 245.628906 C 990.769531 251.964844 1001.050781 241.597656 995.980469 225.636719 C 995.980469 225.636719 983.375 239.289062 987.070312 245.628906 Z M 1004.539062 213.199219 C 1004.539062 213.199219 1023.503906 232.671875 1029.855469 222.886719 C 1036.390625 212.824219 1013.105469 217.800781 1004.539062 213.199219 Z M 919.007812 175.179688 C 967.867188 167.722656 956.519531 114.050781 948.328125 117.40625 C 940.140625 120.757812 948.328125 136.414062 942.742188 151.324219 C 937.160156 166.230469 915.761719 175.671875 919.007812 175.179688 Z M 893.796875 197.546875 C 893.796875 197.546875 916.316406 214.691406 915.566406 238.546875 C 914.824219 262.402344 885.789062 264.265625 883.554688 273.957031 C 881.320312 283.648438 904.207031 276.832031 915.589844 251.964844 C 930.089844 220.28125 893.796875 197.546875 893.796875 197.546875 Z M 901.054688 220.28125 C 889.136719 188.597656 851.535156 190.464844 834.042969 168.84375 C 833.199219 167.800781 842.976562 182.511719 863.820312 194.875 C 884.671875 207.234375 894.722656 221.398438 895.839844 235.9375 C 896.957031 250.472656 878.34375 260.722656 864.9375 253.085938 C 854.898438 247.355469 856.421875 237.425781 864.960938 235.1875 C 864.960938 235.1875 862.335938 241.152344 870.527344 241.527344 C 878.714844 241.902344 878.34375 222.519531 862.710938 226.617188 C 847.070312 230.71875 849.304688 256.808594 867.171875 260.167969 C 885.039062 263.515625 912.964844 251.964844 901.054688 220.28125 Z M 757.3125 123.324219 L 757.316406 123.3125 C 757.40625 123.132812 757.484375 122.984375 757.542969 122.882812 L 770.03125 99.160156 C 760.046875 105.421875 757.3125 123.324219 757.3125 123.324219 Z M 755.515625 128.820312 C 754.050781 126.75 734.453125 97.699219 779.320312 89.078125 C 779.320312 89.078125 773.363281 103.609375 772.613281 112.929688 C 771.871094 122.25 768.738281 127.808594 755.597656 128.941406 C 755.5625 129.046875 755.507812 129.164062 755.464844 129.277344 C 755.480469 129.121094 755.5 128.960938 755.515625 128.820312 Z M 810.886719 183.628906 C 810.886719 183.628906 811.28125 210.246094 838.246094 213.199219 C 838.246094 213.199219 821.050781 207.453125 810.886719 183.628906 Z M 724.535156 168.574219 C 731 161.835938 751.25 140.191406 755.464844 129.277344 C 755.015625 133.371094 753.023438 143.082031 744.375 155.09375 C 754.820312 149.160156 768.226562 143.082031 782.875 139.964844 C 816.964844 132.707031 840.402344 141.667969 848.925781 114.789062 C 857.445312 87.90625 822.503906 87.050781 816.539062 96.015625 C 810.574219 104.976562 815.261719 116.496094 822.929688 118.199219 C 822.929688 118.199219 818.667969 110.519531 825.914062 109.246094 C 833.160156 107.964844 836.996094 120.335938 828.046875 125.027344 C 819.097656 129.722656 806.738281 121.617188 809.71875 103.265625 C 812.703125 84.921875 834.011719 85.777344 842.960938 89.1875 C 851.910156 92.601562 858.300781 107.535156 848.496094 125.027344 C 842.386719 135.945312 821.683594 140.546875 801.898438 144.640625 C 815.167969 144.988281 832.664062 147.109375 853.425781 153.558594 C 901.421875 168.46875 921.523438 162.101562 928.972656 149.070312 C 936.417969 136.039062 932.691406 111.4375 913.332031 111.4375 C 893.976562 111.4375 901.796875 128.183594 908.125 128.941406 C 908.125 128.941406 908.496094 122.816406 913.332031 122.722656 C 918.175781 122.621094 922.273438 139.4375 909.613281 136.808594 C 896.957031 134.175781 891.898438 115.898438 903.917969 109.007812 C 915.941406 102.121094 936.417969 108.085938 939.023438 133.058594 C 941.628906 158.03125 921.542969 168.722656 893.796875 170.644531 C 868.441406 172.402344 819.351562 149.296875 780.660156 149.394531 C 778.761719 149.90625 776.953125 150.4375 775.253906 151 C 785.898438 153.3125 800.816406 159.117188 810.214844 173.6875 C 810.214844 173.6875 822.875 171.1875 829.574219 186.042969 C 836.273438 200.898438 848.238281 213.199219 853.425781 215.0625 C 853.425781 215.0625 831.808594 222.886719 816.914062 212.078125 C 802.023438 201.273438 804.632812 174.804688 804.632812 174.804688 C 804.632812 174.804688 789.167969 157.3125 764.121094 155.492188 C 745.222656 163.511719 726.535156 170.96875 722.546875 170.636719 C 722.335938 170.613281 723.054688 169.851562 724.535156 168.574219 Z M 765.402344 164.710938 C 754.746094 165.5625 735.996094 176.234375 720.230469 169.832031 C 720.230469 169.832031 729.179688 177.085938 750.914062 172.390625 C 772.644531 167.699219 790.542969 169.40625 790.96875 188.605469 C 791.398438 207.808594 770.515625 208.65625 764.550781 200.554688 C 758.585938 192.449219 767.105469 184.492188 771.367188 187.613281 C 771.367188 187.613281 770.085938 193.296875 776.484375 192.019531 C 782.875 190.738281 782.875 179.644531 769.664062 182.207031 C 756.453125 184.765625 755.597656 200 767.105469 205.398438 C 778.609375 210.792969 794.804688 205.824219 794.378906 187.613281 C 793.957031 169.40625 776.058594 163.855469 765.402344 164.710938 Z M 658.417969 122.882812 C 658.480469 122.984375 658.554688 123.132812 658.648438 123.3125 L 658.65625 123.324219 C 658.65625 123.324219 655.917969 105.421875 645.933594 99.160156 Z M 660.445312 128.820312 C 660.460938 128.960938 660.480469 129.121094 660.496094 129.277344 C 660.453125 129.164062 660.402344 129.046875 660.359375 128.941406 C 647.226562 127.808594 644.089844 122.25 643.347656 112.929688 C 642.601562 103.609375 636.644531 89.078125 636.644531 89.078125 C 681.507812 97.699219 661.914062 126.75 660.445312 128.820312 Z M 398.191406 253.085938 C 409.90625 254.203125 411.421875 225.636719 411.421875 225.636719 C 393.925781 229.503906 386.476562 251.964844 398.191406 253.085938 Z M 428.890625 245.628906 C 432.585938 239.289062 419.984375 225.636719 419.984375 225.636719 C 414.910156 241.597656 425.195312 251.964844 428.890625 245.628906 Z M 386.109375 222.886719 C 392.457031 232.671875 411.421875 213.199219 411.421875 213.199219 C 402.859375 217.800781 379.570312 212.824219 386.109375 222.886719 Z M 435.089844 117.253906 L 440.953125 141.804688 C 440.953125 141.804688 443.6875 127.519531 435.089844 117.253906 Z M 390.367188 181.144531 C 399.097656 181.144531 401.742188 190.464844 398.019531 192.328125 C 394.300781 194.191406 391.691406 190.089844 391.691406 190.089844 C 391.691406 190.089844 384.992188 203.878906 401.742188 203.878906 C 411.777344 203.878906 424.746094 197.726562 433.9375 192.644531 C 441.261719 184.09375 452.03125 177.710938 463.746094 175.796875 C 450.089844 170.09375 437.851562 149.460938 437.851562 149.460938 C 431.925781 147.894531 428.546875 137.53125 428.917969 131.195312 C 429.289062 124.855469 428.917969 106.347656 428.917969 106.347656 C 470.613281 131.078125 442.320312 146.675781 442.320312 146.675781 C 445.5 160.15625 460.589844 171.144531 467.164062 175.382812 C 468.433594 175.273438 469.707031 175.195312 470.984375 175.195312 C 505.234375 175.195312 542.761719 181.574219 559.582031 170.742188 C 561.394531 169.570312 537.246094 190.964844 498.902344 183.628906 C 460.558594 176.292969 435.246094 187.476562 431.894531 210.960938 C 428.546875 234.445312 450.882812 247.246094 466.515625 237.863281 C 482.152344 228.480469 474.335938 207.679688 459.816406 207.457031 C 459.816406 207.457031 466.515625 211.097656 459.816406 214.757812 C 453.117188 218.417969 446.414062 203.878906 455.722656 201.273438 C 465.03125 198.660156 480.289062 207.234375 478.800781 228.480469 C 477.308594 249.726562 433.011719 249.726562 425.570312 225.5 C 422.292969 214.832031 425.367188 203.8125 432.175781 194.8125 C 422.503906 200.664062 409.316406 207.296875 399.136719 207.378906 C 380.894531 207.519531 381.640625 181.144531 390.367188 181.144531 Z M 496.953125 175.179688 C 500.203125 175.671875 478.800781 166.230469 473.214844 151.324219 C 467.632812 136.414062 475.824219 120.757812 467.632812 117.40625 C 459.441406 114.050781 448.097656 167.722656 496.953125 175.179688 Z M 605.074219 183.628906 C 594.914062 207.453125 577.71875 213.199219 577.71875 213.199219 C 604.679688 210.246094 605.074219 183.628906 605.074219 183.628906 Z M 476.941406 133.058594 C 479.546875 108.085938 500.019531 102.121094 512.042969 109.007812 C 524.066406 115.898438 519.003906 134.175781 506.351562 136.808594 C 493.695312 139.4375 497.785156 122.621094 502.628906 122.722656 C 507.46875 122.816406 507.835938 128.941406 507.835938 128.941406 C 514.167969 128.183594 521.988281 111.4375 502.628906 111.4375 C 483.269531 111.4375 479.546875 136.039062 486.992188 149.070312 C 494.4375 162.101562 514.542969 168.46875 562.535156 153.558594 C 583.300781 147.109375 600.792969 144.988281 614.066406 144.640625 C 594.28125 140.546875 573.578125 135.945312 567.464844 125.027344 C 557.664062 107.535156 564.054688 92.601562 573.007812 89.1875 C 581.957031 85.777344 603.261719 84.921875 606.242188 103.265625 C 609.226562 121.617188 596.863281 129.722656 587.917969 125.027344 C 578.96875 120.335938 582.804688 107.964844 590.050781 109.246094 C 597.292969 110.519531 593.03125 118.199219 593.03125 118.199219 C 600.703125 116.496094 605.390625 104.976562 599.421875 96.015625 C 593.457031 87.050781 558.515625 87.90625 567.035156 114.789062 C 575.558594 141.667969 599 132.707031 633.089844 139.964844 C 647.738281 143.082031 661.144531 149.160156 671.589844 155.09375 C 662.9375 143.082031 660.949219 133.371094 660.496094 129.277344 C 664.714844 140.191406 684.960938 161.835938 691.429688 168.574219 C 692.910156 169.851562 693.628906 170.613281 693.414062 170.636719 C 689.421875 170.96875 670.742188 163.511719 651.84375 155.492188 C 626.796875 157.3125 611.328125 174.804688 611.328125 174.804688 C 611.328125 174.804688 613.9375 201.273438 599.042969 212.078125 C 584.15625 222.886719 562.535156 215.0625 562.535156 215.0625 C 567.722656 213.199219 579.691406 200.898438 586.390625 186.042969 C 593.089844 171.1875 605.75 173.6875 605.75 173.6875 C 615.148438 159.117188 630.066406 153.3125 640.707031 151 C 639.011719 150.4375 637.199219 149.90625 635.304688 149.394531 C 596.613281 149.296875 547.519531 172.402344 522.164062 170.644531 C 494.417969 168.722656 474.335938 158.03125 476.941406 133.058594 Z M 500.394531 238.546875 C 499.648438 214.691406 522.164062 197.546875 522.164062 197.546875 C 522.164062 197.546875 485.875 220.28125 500.375 251.964844 C 511.761719 276.832031 534.644531 283.648438 532.410156 273.957031 C 530.175781 264.265625 501.136719 262.402344 500.394531 238.546875 Z M 553.253906 226.617188 C 537.621094 222.519531 537.246094 241.902344 545.4375 241.527344 C 553.628906 241.152344 551.003906 235.1875 551.003906 235.1875 C 559.542969 237.425781 561.066406 247.355469 551.023438 253.085938 C 537.621094 260.722656 519.003906 250.472656 520.121094 235.9375 C 521.242188 221.398438 531.292969 207.234375 552.140625 194.875 C 572.988281 182.511719 582.769531 167.800781 581.921875 168.84375 C 564.425781 190.464844 526.828125 188.597656 514.910156 220.28125 C 503 251.964844 530.917969 263.515625 548.789062 260.167969 C 566.65625 256.808594 568.890625 230.71875 553.253906 226.617188 Z M 648.855469 205.398438 C 637.351562 210.792969 621.160156 205.824219 621.582031 187.613281 C 622.007812 169.40625 639.90625 163.855469 650.5625 164.710938 C 661.214844 165.5625 679.96875 176.234375 695.730469 169.832031 C 695.730469 169.832031 686.78125 177.085938 665.046875 172.390625 C 643.316406 167.699219 625.421875 169.40625 624.996094 188.605469 C 624.566406 207.808594 645.445312 208.65625 651.414062 200.554688 C 657.378906 192.449219 648.855469 184.492188 644.597656 187.613281 C 644.597656 187.613281 645.875 193.296875 639.480469 192.019531 C 633.089844 190.738281 633.089844 179.644531 646.300781 182.207031 C 659.511719 184.765625 660.359375 200 648.855469 205.398438 Z M 648.855469 205.398438 " clip-rule="nonzero"/></clipPath><clipPath id="fe3d086338"><path d="M 712.292969 166.519531 C 712.292969 163.78125 710.074219 161.558594 707.339844 161.558594 C 704.605469 161.558594 702.386719 163.78125 702.386719 166.519531 C 702.386719 169.257812 704.605469 171.480469 707.339844 171.480469 C 710.074219 171.480469 712.292969 169.257812 712.292969 166.519531 Z M 707.339844 152.539062 C 718.011719 127.910156 736.300781 131.539062 736.300781 131.539062 C 735.015625 127.394531 729.75 127.128906 729.75 127.128906 C 718.042969 118.839844 710.832031 139.835938 710.832031 139.835938 C 711.53125 128.6875 720.292969 121.945312 720.292969 121.945312 C 718.023438 119.613281 712.203125 121.945312 712.203125 121.945312 C 712.203125 121.945312 714.019531 110.542969 707.339844 110.542969 C 700.660156 110.542969 702.476562 121.945312 702.476562 121.945312 C 702.476562 121.945312 696.65625 119.613281 694.386719 121.945312 C 694.386719 121.945312 703.148438 128.6875 703.851562 139.835938 C 703.851562 139.835938 696.636719 118.839844 684.925781 127.128906 C 684.925781 127.128906 679.664062 127.394531 678.378906 131.539062 C 678.378906 131.539062 696.671875 127.910156 707.339844 152.539062 Z M 707.339844 192.691406 C 707.078125 191.78125 706.941406 191.253906 706.941406 191.253906 C 706.980469 191.625 707.121094 192.113281 707.339844 192.691406 Z M 743.15625 229.808594 C 743.15625 229.808594 726.421875 221.261719 720.230469 214.558594 C 720.230469 214.558594 731.945312 231.816406 743.15625 229.808594 Z M 750.992188 229.003906 C 750.015625 234.441406 742.941406 238.757812 728.542969 229.003906 C 716.089844 220.5625 709.023438 198.511719 707.339844 192.691406 C 709.390625 198.082031 718.691406 211.558594 725.574219 215.003906 C 733.199219 218.824219 751.800781 224.507812 750.992188 229.003906 Z M 753.863281 212.847656 C 753.863281 212.847656 735.640625 207.265625 728.324219 200.664062 C 727.214844 199.539062 726.585938 198.8125 726.585938 198.8125 C 727.058594 199.433594 727.648438 200.050781 728.324219 200.664062 C 732.402344 204.785156 743.078125 214.265625 753.863281 212.847656 Z M 742.941406 216.277344 C 721.339844 208.640625 712.019531 177.257812 712.019531 177.257812 C 723.457031 194.644531 736.167969 195.921875 751.097656 201.433594 C 766.027344 206.945312 764.546875 223.910156 742.941406 216.277344 Z M 692.417969 252.871094 L 707.339844 288.191406 C 707.328125 288.128906 707.320312 287.984375 707.308594 287.777344 C 707.339844 287.988281 707.347656 288.128906 707.339844 288.191406 L 722.257812 252.871094 L 707.339844 217.558594 Z M 706.539062 192.691406 C 706.757812 192.113281 706.898438 191.625 706.941406 191.253906 C 706.941406 191.253906 706.804688 191.78125 706.539062 192.691406 Z M 693.648438 214.558594 C 687.460938 221.261719 670.726562 229.808594 670.726562 229.808594 C 681.933594 231.816406 693.648438 214.558594 693.648438 214.558594 Z M 706.539062 192.691406 C 704.851562 198.511719 697.789062 220.5625 685.335938 229.003906 C 670.933594 238.757812 663.863281 234.441406 662.882812 229.003906 C 662.074219 224.507812 680.675781 218.824219 688.304688 215.003906 C 695.183594 211.558594 704.488281 198.082031 706.539062 192.691406 Z M 685.554688 200.664062 C 686.230469 200.050781 686.824219 199.433594 687.289062 198.8125 C 687.289062 198.8125 686.667969 199.539062 685.554688 200.664062 C 678.234375 207.265625 660.015625 212.847656 660.015625 212.847656 C 670.800781 214.265625 681.472656 204.785156 685.554688 200.664062 Z M 670.933594 216.277344 C 649.335938 223.910156 647.851562 206.945312 662.78125 201.433594 C 677.710938 195.921875 690.417969 194.644531 701.859375 177.257812 C 701.859375 177.257812 692.535156 208.640625 670.933594 216.277344 Z M 975.015625 141.804688 L 980.875 117.253906 C 972.273438 127.519531 975.015625 141.804688 975.015625 141.804688 Z M 973.644531 146.675781 C 973.644531 146.675781 945.351562 131.078125 987.046875 106.347656 C 987.046875 106.347656 986.671875 124.855469 987.046875 131.195312 C 987.417969 137.53125 984.039062 147.894531 978.113281 149.460938 C 978.113281 149.460938 965.875 170.09375 952.21875 175.796875 C 963.933594 177.710938 974.699219 184.09375 982.027344 192.644531 C 991.21875 197.726562 1004.1875 203.878906 1014.222656 203.878906 C 1030.972656 203.878906 1024.273438 190.089844 1024.273438 190.089844 C 1024.273438 190.089844 1021.667969 194.191406 1017.941406 192.328125 C 1014.222656 190.464844 1016.867188 181.144531 1025.597656 181.144531 C 1034.324219 181.144531 1035.066406 207.519531 1016.824219 207.378906 C 1006.648438 207.296875 993.457031 200.664062 983.78125 194.8125 C 990.597656 203.8125 993.675781 214.832031 990.394531 225.5 C 982.953125 249.726562 938.648438 249.726562 937.160156 228.480469 C 935.667969 207.234375 950.933594 198.660156 960.242188 201.273438 C 969.546875 203.878906 962.84375 218.417969 956.144531 214.757812 C 949.445312 211.097656 956.144531 207.457031 956.144531 207.457031 C 941.628906 207.679688 933.808594 228.480469 949.445312 237.863281 C 965.078125 247.246094 987.417969 234.445312 984.070312 210.960938 C 980.71875 187.476562 955.402344 176.292969 917.058594 183.628906 C 878.714844 190.964844 854.570312 169.570312 856.378906 170.742188 C 873.199219 181.574219 910.730469 175.195312 944.976562 175.195312 C 946.257812 175.195312 947.53125 175.273438 948.800781 175.382812 C 955.371094 171.144531 970.457031 160.15625 973.644531 146.675781 Z M 1004.539062 225.636719 C 1004.539062 225.636719 1006.058594 254.203125 1017.769531 253.085938 C 1029.484375 251.964844 1022.039062 229.503906 1004.539062 225.636719 Z M 987.070312 245.628906 C 990.769531 251.964844 1001.050781 241.597656 995.980469 225.636719 C 995.980469 225.636719 983.375 239.289062 987.070312 245.628906 Z M 1004.539062 213.199219 C 1004.539062 213.199219 1023.503906 232.671875 1029.855469 222.886719 C 1036.390625 212.824219 1013.105469 217.800781 1004.539062 213.199219 Z M 919.007812 175.179688 C 967.867188 167.722656 956.519531 114.050781 948.328125 117.40625 C 940.140625 120.757812 948.328125 136.414062 942.742188 151.324219 C 937.160156 166.230469 915.761719 175.671875 919.007812 175.179688 Z M 893.796875 197.546875 C 893.796875 197.546875 916.316406 214.691406 915.566406 238.546875 C 914.824219 262.402344 885.789062 264.265625 883.554688 273.957031 C 881.320312 283.648438 904.207031 276.832031 915.589844 251.964844 C 930.089844 220.28125 893.796875 197.546875 893.796875 197.546875 Z M 901.054688 220.28125 C 889.136719 188.597656 851.535156 190.464844 834.042969 168.84375 C 833.199219 167.800781 842.976562 182.511719 863.820312 194.875 C 884.671875 207.234375 894.722656 221.398438 895.839844 235.9375 C 896.957031 250.472656 878.34375 260.722656 864.9375 253.085938 C 854.898438 247.355469 856.421875 237.425781 864.960938 235.1875 C 864.960938 235.1875 862.335938 241.152344 870.527344 241.527344 C 878.714844 241.902344 878.34375 222.519531 862.710938 226.617188 C 847.070312 230.71875 849.304688 256.808594 867.171875 260.167969 C 885.039062 263.515625 912.964844 251.964844 901.054688 220.28125 Z M 757.3125 123.324219 L 757.316406 123.3125 C 757.40625 123.132812 757.484375 122.984375 757.542969 122.882812 L 770.03125 99.160156 C 760.046875 105.421875 757.3125 123.324219 757.3125 123.324219 Z M 755.515625 128.820312 C 754.050781 126.75 734.453125 97.699219 779.320312 89.078125 C 779.320312 89.078125 773.363281 103.609375 772.613281 112.929688 C 771.871094 122.25 768.738281 127.808594 755.597656 128.941406 C 755.5625 129.046875 755.507812 129.164062 755.464844 129.277344 C 755.480469 129.121094 755.5 128.960938 755.515625 128.820312 Z M 810.886719 183.628906 C 810.886719 183.628906 811.28125 210.246094 838.246094 213.199219 C 838.246094 213.199219 821.050781 207.453125 810.886719 183.628906 Z M 724.535156 168.574219 C 731 161.835938 751.25 140.191406 755.464844 129.277344 C 755.015625 133.371094 753.023438 143.082031 744.375 155.09375 C 754.820312 149.160156 768.226562 143.082031 782.875 139.964844 C 816.964844 132.707031 840.402344 141.667969 848.925781 114.789062 C 857.445312 87.90625 822.503906 87.050781 816.539062 96.015625 C 810.574219 104.976562 815.261719 116.496094 822.929688 118.199219 C 822.929688 118.199219 818.667969 110.519531 825.914062 109.246094 C 833.160156 107.964844 836.996094 120.335938 828.046875 125.027344 C 819.097656 129.722656 806.738281 121.617188 809.71875 103.265625 C 812.703125 84.921875 834.011719 85.777344 842.960938 89.1875 C 851.910156 92.601562 858.300781 107.535156 848.496094 125.027344 C 842.386719 135.945312 821.683594 140.546875 801.898438 144.640625 C 815.167969 144.988281 832.664062 147.109375 853.425781 153.558594 C 901.421875 168.46875 921.523438 162.101562 928.972656 149.070312 C 936.417969 136.039062 932.691406 111.4375 913.332031 111.4375 C 893.976562 111.4375 901.796875 128.183594 908.125 128.941406 C 908.125 128.941406 908.496094 122.816406 913.332031 122.722656 C 918.175781 122.621094 922.273438 139.4375 909.613281 136.808594 C 896.957031 134.175781 891.898438 115.898438 903.917969 109.007812 C 915.941406 102.121094 936.417969 108.085938 939.023438 133.058594 C 941.628906 158.03125 921.542969 168.722656 893.796875 170.644531 C 868.441406 172.402344 819.351562 149.296875 780.660156 149.394531 C 778.761719 149.90625 776.953125 150.4375 775.253906 151 C 785.898438 153.3125 800.816406 159.117188 810.214844 173.6875 C 810.214844 173.6875 822.875 171.1875 829.574219 186.042969 C 836.273438 200.898438 848.238281 213.199219 853.425781 215.0625 C 853.425781 215.0625 831.808594 222.886719 816.914062 212.078125 C 802.023438 201.273438 804.632812 174.804688 804.632812 174.804688 C 804.632812 174.804688 789.167969 157.3125 764.121094 155.492188 C 745.222656 163.511719 726.535156 170.96875 722.546875 170.636719 C 722.335938 170.613281 723.054688 169.851562 724.535156 168.574219 Z M 765.402344 164.710938 C 754.746094 165.5625 735.996094 176.234375 720.230469 169.832031 C 720.230469 169.832031 729.179688 177.085938 750.914062 172.390625 C 772.644531 167.699219 790.542969 169.40625 790.96875 188.605469 C 791.398438 207.808594 770.515625 208.65625 764.550781 200.554688 C 758.585938 192.449219 767.105469 184.492188 771.367188 187.613281 C 771.367188 187.613281 770.085938 193.296875 776.484375 192.019531 C 782.875 190.738281 782.875 179.644531 769.664062 182.207031 C 756.453125 184.765625 755.597656 200 767.105469 205.398438 C 778.609375 210.792969 794.804688 205.824219 794.378906 187.613281 C 793.957031 169.40625 776.058594 163.855469 765.402344 164.710938 Z M 658.417969 122.882812 C 658.480469 122.984375 658.554688 123.132812 658.648438 123.3125 L 658.65625 123.324219 C 658.65625 123.324219 655.917969 105.421875 645.933594 99.160156 Z M 660.445312 128.820312 C 660.460938 128.960938 660.480469 129.121094 660.496094 129.277344 C 660.453125 129.164062 660.402344 129.046875 660.359375 128.941406 C 647.226562 127.808594 644.089844 122.25 643.347656 112.929688 C 642.601562 103.609375 636.644531 89.078125 636.644531 89.078125 C 681.507812 97.699219 661.914062 126.75 660.445312 128.820312 Z M 398.191406 253.085938 C 409.90625 254.203125 411.421875 225.636719 411.421875 225.636719 C 393.925781 229.503906 386.476562 251.964844 398.191406 253.085938 Z M 428.890625 245.628906 C 432.585938 239.289062 419.984375 225.636719 419.984375 225.636719 C 414.910156 241.597656 425.195312 251.964844 428.890625 245.628906 Z M 386.109375 222.886719 C 392.457031 232.671875 411.421875 213.199219 411.421875 213.199219 C 402.859375 217.800781 379.570312 212.824219 386.109375 222.886719 Z M 435.089844 117.253906 L 440.953125 141.804688 C 440.953125 141.804688 443.6875 127.519531 435.089844 117.253906 Z M 390.367188 181.144531 C 399.097656 181.144531 401.742188 190.464844 398.019531 192.328125 C 394.300781 194.191406 391.691406 190.089844 391.691406 190.089844 C 391.691406 190.089844 384.992188 203.878906 401.742188 203.878906 C 411.777344 203.878906 424.746094 197.726562 433.9375 192.644531 C 441.261719 184.09375 452.03125 177.710938 463.746094 175.796875 C 450.089844 170.09375 437.851562 149.460938 437.851562 149.460938 C 431.925781 147.894531 428.546875 137.53125 428.917969 131.195312 C 429.289062 124.855469 428.917969 106.347656 428.917969 106.347656 C 470.613281 131.078125 442.320312 146.675781 442.320312 146.675781 C 445.5 160.15625 460.589844 171.144531 467.164062 175.382812 C 468.433594 175.273438 469.707031 175.195312 470.984375 175.195312 C 505.234375 175.195312 542.761719 181.574219 559.582031 170.742188 C 561.394531 169.570312 537.246094 190.964844 498.902344 183.628906 C 460.558594 176.292969 435.246094 187.476562 431.894531 210.960938 C 428.546875 234.445312 450.882812 247.246094 466.515625 237.863281 C 482.152344 228.480469 474.335938 207.679688 459.816406 207.457031 C 459.816406 207.457031 466.515625 211.097656 459.816406 214.757812 C 453.117188 218.417969 446.414062 203.878906 455.722656 201.273438 C 465.03125 198.660156 480.289062 207.234375 478.800781 228.480469 C 477.308594 249.726562 433.011719 249.726562 425.570312 225.5 C 422.292969 214.832031 425.367188 203.8125 432.175781 194.8125 C 422.503906 200.664062 409.316406 207.296875 399.136719 207.378906 C 380.894531 207.519531 381.640625 181.144531 390.367188 181.144531 Z M 496.953125 175.179688 C 500.203125 175.671875 478.800781 166.230469 473.214844 151.324219 C 467.632812 136.414062 475.824219 120.757812 467.632812 117.40625 C 459.441406 114.050781 448.097656 167.722656 496.953125 175.179688 Z M 605.074219 183.628906 C 594.914062 207.453125 577.71875 213.199219 577.71875 213.199219 C 604.679688 210.246094 605.074219 183.628906 605.074219 183.628906 Z M 476.941406 133.058594 C 479.546875 108.085938 500.019531 102.121094 512.042969 109.007812 C 524.066406 115.898438 519.003906 134.175781 506.351562 136.808594 C 493.695312 139.4375 497.785156 122.621094 502.628906 122.722656 C 507.46875 122.816406 507.835938 128.941406 507.835938 128.941406 C 514.167969 128.183594 521.988281 111.4375 502.628906 111.4375 C 483.269531 111.4375 479.546875 136.039062 486.992188 149.070312 C 494.4375 162.101562 514.542969 168.46875 562.535156 153.558594 C 583.300781 147.109375 600.792969 144.988281 614.066406 144.640625 C 594.28125 140.546875 573.578125 135.945312 567.464844 125.027344 C 557.664062 107.535156 564.054688 92.601562 573.007812 89.1875 C 581.957031 85.777344 603.261719 84.921875 606.242188 103.265625 C 609.226562 121.617188 596.863281 129.722656 587.917969 125.027344 C 578.96875 120.335938 582.804688 107.964844 590.050781 109.246094 C 597.292969 110.519531 593.03125 118.199219 593.03125 118.199219 C 600.703125 116.496094 605.390625 104.976562 599.421875 96.015625 C 593.457031 87.050781 558.515625 87.90625 567.035156 114.789062 C 575.558594 141.667969 599 132.707031 633.089844 139.964844 C 647.738281 143.082031 661.144531 149.160156 671.589844 155.09375 C 662.9375 143.082031 660.949219 133.371094 660.496094 129.277344 C 664.714844 140.191406 684.960938 161.835938 691.429688 168.574219 C 692.910156 169.851562 693.628906 170.613281 693.414062 170.636719 C 689.421875 170.96875 670.742188 163.511719 651.84375 155.492188 C 626.796875 157.3125 611.328125 174.804688 611.328125 174.804688 C 611.328125 174.804688 613.9375 201.273438 599.042969 212.078125 C 584.15625 222.886719 562.535156 215.0625 562.535156 215.0625 C 567.722656 213.199219 579.691406 200.898438 586.390625 186.042969 C 593.089844 171.1875 605.75 173.6875 605.75 173.6875 C 615.148438 159.117188 630.066406 153.3125 640.707031 151 C 639.011719 150.4375 637.199219 149.90625 635.304688 149.394531 C 596.613281 149.296875 547.519531 172.402344 522.164062 170.644531 C 494.417969 168.722656 474.335938 158.03125 476.941406 133.058594 Z M 500.394531 238.546875 C 499.648438 214.691406 522.164062 197.546875 522.164062 197.546875 C 522.164062 197.546875 485.875 220.28125 500.375 251.964844 C 511.761719 276.832031 534.644531 283.648438 532.410156 273.957031 C 530.175781 264.265625 501.136719 262.402344 500.394531 238.546875 Z M 553.253906 226.617188 C 537.621094 222.519531 537.246094 241.902344 545.4375 241.527344 C 553.628906 241.152344 551.003906 235.1875 551.003906 235.1875 C 559.542969 237.425781 561.066406 247.355469 551.023438 253.085938 C 537.621094 260.722656 519.003906 250.472656 520.121094 235.9375 C 521.242188 221.398438 531.292969 207.234375 552.140625 194.875 C 572.988281 182.511719 582.769531 167.800781 581.921875 168.84375 C 564.425781 190.464844 526.828125 188.597656 514.910156 220.28125 C 503 251.964844 530.917969 263.515625 548.789062 260.167969 C 566.65625 256.808594 568.890625 230.71875 553.253906 226.617188 Z M 648.855469 205.398438 C 637.351562 210.792969 621.160156 205.824219 621.582031 187.613281 C 622.007812 169.40625 639.90625 163.855469 650.5625 164.710938 C 661.214844 165.5625 679.96875 176.234375 695.730469 169.832031 C 695.730469 169.832031 686.78125 177.085938 665.046875 172.390625 C 643.316406 167.699219 625.421875 169.40625 624.996094 188.605469 C 624.566406 207.808594 645.445312 208.65625 651.414062 200.554688 C 657.378906 192.449219 648.855469 184.492188 644.597656 187.613281 C 644.597656 187.613281 645.875 193.296875 639.480469 192.019531 C 633.089844 190.738281 633.089844 179.644531 646.300781 182.207031 C 659.511719 184.765625 660.359375 200 648.855469 205.398438 " clip-rule="nonzero"/></clipPath><clipPath id="ac734c580f"><path d="M 1030.558594 313.59375 L 1039.421875 87.554688 L 385.40625 61.835938 L 376.542969 287.882812 Z M 1030.558594 313.59375 " clip-rule="nonzero"/></clipPath><radialGradient gradientTransform="matrix(-0.998593, -0.0392674, 0.0392174, -0.999867, 704.289173, 155.053391)" gradientUnits="userSpaceOnUse" r="281.313943" cx="0" id="2dbd29871a" cy="0" fx="0" fy="0"><stop stop-opacity="1" stop-color="rgb(95.503235%, 88.804626%, 37.103271%)" offset="0"/><stop stop-opacity="1" stop-color="rgb(95.303345%, 88.60321%, 36.903381%)" offset="0.0078125"/><stop stop-opacity="1" stop-color="rgb(95.298767%, 88.598633%, 36.717224%)" offset="0.0117188"/><stop stop-opacity="1" stop-color="rgb(95.121765%, 88.421631%, 36.517334%)" offset="0.015625"/><stop stop-opacity="1" stop-color="rgb(94.900513%, 88.021851%, 36.499023%)" offset="0.0195312"/><stop stop-opacity="1" stop-color="rgb(94.659424%, 87.785339%, 36.482239%)" offset="0.0234375"/><stop stop-opacity="1" stop-color="rgb(94.281006%, 87.631226%, 36.282349%)" offset="0.0273438"/><stop stop-opacity="1" stop-color="rgb(94.099426%, 87.295532%, 36.099243%)" offset="0.03125"/><stop stop-opacity="1" stop-color="rgb(94.099426%, 87.098694%, 36.099243%)" offset="0.0429688"/><stop stop-opacity="1" stop-color="rgb(93.910217%, 87.098694%, 35.910034%)" offset="0.046875"/><stop stop-opacity="1" stop-color="rgb(93.710327%, 86.914062%, 35.710144%)" offset="0.0507812"/><stop stop-opacity="1" stop-color="rgb(93.699646%, 86.714172%, 35.519409%)" offset="0.0546875"/><stop stop-opacity="1" stop-color="rgb(93.699646%, 86.523438%, 35.319519%)" offset="0.0585938"/><stop stop-opacity="1" stop-color="rgb(93.499756%, 86.303711%, 35.27832%)" offset="0.0625"/><stop stop-opacity="1" stop-color="rgb(93.299866%, 86.077881%, 35.07843%)" offset="0.0664062"/><stop stop-opacity="1" stop-color="rgb(93.287659%, 85.888672%, 34.899902%)" offset="0.0703125"/><stop stop-opacity="1" stop-color="rgb(93.087769%, 85.688782%, 34.899902%)" offset="0.0742188"/><stop stop-opacity="1" stop-color="rgb(92.89856%, 85.499573%, 34.898376%)" offset="0.078125"/><stop stop-opacity="1" stop-color="rgb(92.89856%, 85.499573%, 34.701538%)" offset="0.0820312"/><stop stop-opacity="1" stop-color="rgb(92.89856%, 85.307312%, 34.501648%)" offset="0.0859375"/><stop stop-opacity="1" stop-color="rgb(92.710876%, 85.107422%, 34.310913%)" offset="0.0898438"/><stop stop-opacity="1" stop-color="rgb(92.510986%, 84.916687%, 34.111023%)" offset="0.09375"/><stop stop-opacity="1" stop-color="rgb(92.498779%, 84.715271%, 34.098816%)" offset="0.0976562"/><stop stop-opacity="1" stop-color="rgb(92.480469%, 84.498596%, 34.075928%)" offset="0.101562"/><stop stop-opacity="1" stop-color="rgb(92.330933%, 84.280396%, 33.876038%)" offset="0.105469"/><stop stop-opacity="1" stop-color="rgb(92.199707%, 84.080505%, 33.699036%)" offset="0.109375"/><stop stop-opacity="1" stop-color="rgb(92.199707%, 83.889771%, 33.68988%)" offset="0.113281"/><stop stop-opacity="1" stop-color="rgb(92.195129%, 83.68988%, 33.48999%)" offset="0.117188"/><stop stop-opacity="1" stop-color="rgb(91.995239%, 83.36792%, 33.16803%)" offset="0.121094"/><stop stop-opacity="1" stop-color="rgb(91.799927%, 83.172607%, 32.972717%)" offset="0.132812"/><stop stop-opacity="1" stop-color="rgb(91.618347%, 83.103943%, 32.904053%)" offset="0.136719"/><stop stop-opacity="1" stop-color="rgb(91.416931%, 82.922363%, 32.899475%)" offset="0.140625"/><stop stop-opacity="1" stop-color="rgb(91.19873%, 82.705688%, 32.876587%)" offset="0.144531"/><stop stop-opacity="1" stop-color="rgb(90.982056%, 82.531738%, 32.676697%)" offset="0.148438"/><stop stop-opacity="1" stop-color="rgb(90.782166%, 82.38678%, 32.499695%)" offset="0.152344"/><stop stop-opacity="1" stop-color="rgb(90.59906%, 82.18689%, 32.493591%)" offset="0.15625"/><stop stop-opacity="1" stop-color="rgb(90.59906%, 81.996155%, 32.342529%)" offset="0.160156"/><stop stop-opacity="1" stop-color="rgb(90.59906%, 81.797791%, 32.199097%)" offset="0.164062"/><stop stop-opacity="1" stop-color="rgb(90.405273%, 81.600952%, 32.199097%)" offset="0.167969"/><stop stop-opacity="1" stop-color="rgb(90.205383%, 81.410217%, 32.009888%)" offset="0.171875"/><stop stop-opacity="1" stop-color="rgb(90.19928%, 81.210327%, 31.809998%)" offset="0.175781"/><stop stop-opacity="1" stop-color="rgb(90.19928%, 81.019592%, 31.799316%)" offset="0.179688"/><stop stop-opacity="1" stop-color="rgb(90.023804%, 80.819702%, 31.799316%)" offset="0.183594"/><stop stop-opacity="1" stop-color="rgb(89.804077%, 80.59845%, 31.599426%)" offset="0.1875"/><stop stop-opacity="1" stop-color="rgb(89.578247%, 80.383301%, 31.399536%)" offset="0.191406"/><stop stop-opacity="1" stop-color="rgb(89.387512%, 80.183411%, 31.387329%)" offset="0.195312"/><stop stop-opacity="1" stop-color="rgb(89.187622%, 79.992676%, 31.187439%)" offset="0.199219"/><stop stop-opacity="1" stop-color="rgb(88.999939%, 79.792786%, 30.999756%)" offset="0.203125"/><stop stop-opacity="1" stop-color="rgb(88.999939%, 79.598999%, 30.999756%)" offset="0.207031"/><stop stop-opacity="1" stop-color="rgb(88.999939%, 79.406738%, 30.807495%)" offset="0.210938"/><stop stop-opacity="1" stop-color="rgb(88.812256%, 79.206848%, 30.607605%)" offset="0.214844"/><stop stop-opacity="1" stop-color="rgb(88.61084%, 79.016113%, 30.41687%)" offset="0.21875"/><stop stop-opacity="1" stop-color="rgb(88.598633%, 78.816223%, 30.215454%)" offset="0.222656"/><stop stop-opacity="1" stop-color="rgb(88.575745%, 78.599548%, 30.175781%)" offset="0.226562"/><stop stop-opacity="1" stop-color="rgb(88.375854%, 78.379822%, 29.975891%)" offset="0.230469"/><stop stop-opacity="1" stop-color="rgb(88.18512%, 78.179932%, 29.798889%)" offset="0.234375"/><stop stop-opacity="1" stop-color="rgb(87.985229%, 77.999878%, 29.798889%)" offset="0.238281"/><stop stop-opacity="1" stop-color="rgb(87.796021%, 77.993774%, 29.794312%)" offset="0.242188"/><stop stop-opacity="1" stop-color="rgb(87.646484%, 77.793884%, 29.594421%)" offset="0.246094"/><stop stop-opacity="1" stop-color="rgb(87.306213%, 77.453613%, 29.205322%)" offset="0.25"/><stop stop-opacity="1" stop-color="rgb(87.106323%, 77.116394%, 29.005432%)" offset="0.261719"/><stop stop-opacity="1" stop-color="rgb(87.001038%, 76.812744%, 28.900146%)" offset="0.269531"/><stop stop-opacity="1" stop-color="rgb(86.801147%, 76.591492%, 28.700256%)" offset="0.273438"/><stop stop-opacity="1" stop-color="rgb(86.694336%, 76.286316%, 28.594971%)" offset="0.277344"/><stop stop-opacity="1" stop-color="rgb(86.495972%, 75.895691%, 28.396606%)" offset="0.285156"/><stop stop-opacity="1" stop-color="rgb(86.299133%, 75.505066%, 28.005981%)" offset="0.292969"/><stop stop-opacity="1" stop-color="rgb(86.108398%, 75.114441%, 27.804565%)" offset="0.300781"/><stop stop-opacity="1" stop-color="rgb(85.809326%, 74.809265%, 27.723694%)" offset="0.308594"/><stop stop-opacity="1" stop-color="rgb(85.598755%, 74.598694%, 27.46582%)" offset="0.3125"/><stop stop-opacity="1" stop-color="rgb(85.395813%, 74.395752%, 27.191162%)" offset="0.320312"/><stop stop-opacity="1" stop-color="rgb(85.195923%, 74.098206%, 27.000427%)" offset="0.328125"/><stop stop-opacity="1" stop-color="rgb(85.005188%, 73.707581%, 26.800537%)" offset="0.335938"/><stop stop-opacity="1" stop-color="rgb(84.814453%, 73.414612%, 26.699829%)" offset="0.34375"/><stop stop-opacity="1" stop-color="rgb(84.707642%, 73.205566%, 26.699829%)" offset="0.347656"/><stop stop-opacity="1" stop-color="rgb(84.686279%, 72.98584%, 26.687622%)" offset="0.351562"/><stop stop-opacity="1" stop-color="rgb(84.480286%, 72.68219%, 26.480103%)" offset="0.355469"/><stop stop-opacity="1" stop-color="rgb(84.089661%, 72.340393%, 26.091003%)" offset="0.363281"/><stop stop-opacity="1" stop-color="rgb(83.699036%, 71.998596%, 25.898743%)" offset="0.371094"/><stop stop-opacity="1" stop-color="rgb(83.500671%, 71.607971%, 25.704956%)" offset="0.378906"/><stop stop-opacity="1" stop-color="rgb(83.309937%, 71.217346%, 25.505066%)" offset="0.386719"/><stop stop-opacity="1" stop-color="rgb(83.110046%, 71.009827%, 25.39978%)" offset="0.394531"/><stop stop-opacity="1" stop-color="rgb(82.992554%, 70.892334%, 25.19989%)" offset="0.398438"/><stop stop-opacity="1" stop-color="rgb(82.792664%, 70.591736%, 25.099182%)" offset="0.40625"/><stop stop-opacity="1" stop-color="rgb(82.626343%, 70.297241%, 25.001526%)" offset="0.414062"/><stop stop-opacity="1" stop-color="rgb(82.476807%, 70.106506%, 24.710083%)" offset="0.421875"/><stop stop-opacity="1" stop-color="rgb(82.398987%, 69.917297%, 24.417114%)" offset="0.429688"/><stop stop-opacity="1" stop-color="rgb(82.298279%, 69.709778%, 24.308777%)" offset="0.433594"/><stop stop-opacity="1" stop-color="rgb(82.098389%, 69.488525%, 24.28894%)" offset="0.4375"/><stop stop-opacity="1" stop-color="rgb(81.993103%, 69.18335%, 24.082947%)" offset="0.441406"/><stop stop-opacity="1" stop-color="rgb(81.793213%, 68.792725%, 23.692322%)" offset="0.449219"/><stop stop-opacity="1" stop-color="rgb(81.407166%, 68.406677%, 23.3078%)" offset="0.464844"/><stop stop-opacity="1" stop-color="rgb(81.207275%, 68.106079%, 23.10791%)" offset="0.472656"/><stop stop-opacity="1" stop-color="rgb(81.089783%, 67.814636%, 22.988892%)" offset="0.476562"/><stop stop-opacity="1" stop-color="rgb(80.784607%, 67.462158%, 22.789001%)" offset="0.484375"/><stop stop-opacity="1" stop-color="rgb(80.493164%, 67.094421%, 22.624207%)" offset="0.492188"/><stop stop-opacity="1" stop-color="rgb(80.39856%, 66.798401%, 22.47467%)" offset="0.5"/><stop stop-opacity="1" stop-color="rgb(80.212402%, 66.513062%, 22.399902%)" offset="0.507812"/><stop stop-opacity="1" stop-color="rgb(80.012512%, 66.313171%, 22.218323%)" offset="0.511719"/><stop stop-opacity="1" stop-color="rgb(79.821777%, 66.122437%, 22.016907%)" offset="0.515625"/><stop stop-opacity="1" stop-color="rgb(79.484558%, 65.783691%, 21.861267%)" offset="0.519531"/><stop stop-opacity="1" stop-color="rgb(79.26178%, 65.560913%, 21.661377%)" offset="0.53125"/><stop stop-opacity="1" stop-color="rgb(79.199219%, 65.306091%, 21.598816%)" offset="0.542969"/><stop stop-opacity="1" stop-color="rgb(79.01001%, 65.104675%, 21.598816%)" offset="0.546875"/><stop stop-opacity="1" stop-color="rgb(78.81012%, 64.91394%, 21.598816%)" offset="0.550781"/><stop stop-opacity="1" stop-color="rgb(78.799438%, 64.71405%, 21.418762%)" offset="0.554688"/><stop stop-opacity="1" stop-color="rgb(78.623962%, 64.523315%, 21.218872%)" offset="0.558594"/><stop stop-opacity="1" stop-color="rgb(78.40271%, 64.303589%, 21.179199%)" offset="0.5625"/><stop stop-opacity="1" stop-color="rgb(78.178406%, 64.073181%, 20.973206%)" offset="0.566406"/><stop stop-opacity="1" stop-color="rgb(77.807617%, 63.693237%, 20.593262%)" offset="0.578125"/><stop stop-opacity="1" stop-color="rgb(77.606201%, 63.311768%, 20.211792%)" offset="0.589844"/><stop stop-opacity="1" stop-color="rgb(77.598572%, 63.111877%, 20.011902%)" offset="0.59375"/><stop stop-opacity="1" stop-color="rgb(77.598572%, 62.921143%, 19.999695%)" offset="0.597656"/><stop stop-opacity="1" stop-color="rgb(77.449036%, 62.702942%, 19.799805%)" offset="0.601562"/><stop stop-opacity="1" stop-color="rgb(77.279663%, 62.532043%, 19.599915%)" offset="0.605469"/><stop stop-opacity="1" stop-color="rgb(77.079773%, 62.385559%, 19.584656%)" offset="0.609375"/><stop stop-opacity="1" stop-color="rgb(76.899719%, 62.185669%, 19.384766%)" offset="0.613281"/><stop stop-opacity="1" stop-color="rgb(76.899719%, 61.994934%, 19.198608%)" offset="0.617188"/><stop stop-opacity="1" stop-color="rgb(76.899719%, 61.795044%, 19.198608%)" offset="0.621094"/><stop stop-opacity="1" stop-color="rgb(76.704407%, 61.599731%, 19.003296%)" offset="0.625"/><stop stop-opacity="1" stop-color="rgb(76.504517%, 61.413574%, 18.803406%)" offset="0.628906"/><stop stop-opacity="1" stop-color="rgb(76.318359%, 61.032104%, 18.617249%)" offset="0.636719"/><stop stop-opacity="1" stop-color="rgb(75.941467%, 60.816956%, 18.417358%)" offset="0.640625"/><stop stop-opacity="1" stop-color="rgb(75.721741%, 60.588074%, 18.199158%)" offset="0.644531"/><stop stop-opacity="1" stop-color="rgb(75.692749%, 60.188293%, 17.993164%)" offset="0.648438"/><stop stop-opacity="1" stop-color="rgb(75.492859%, 59.997559%, 17.793274%)" offset="0.65625"/><stop stop-opacity="1" stop-color="rgb(75.299072%, 59.80072%, 17.599487%)" offset="0.664062"/><stop stop-opacity="1" stop-color="rgb(75.106812%, 59.410095%, 17.454529%)" offset="0.671875"/><stop stop-opacity="1" stop-color="rgb(74.906921%, 59.01947%, 17.304993%)" offset="0.679688"/><stop stop-opacity="1" stop-color="rgb(74.801636%, 58.714294%, 17.201233%)" offset="0.6875"/><stop stop-opacity="1" stop-color="rgb(74.594116%, 58.493042%, 17.001343%)" offset="0.691406"/><stop stop-opacity="1" stop-color="rgb(74.291992%, 58.190918%, 16.896057%)" offset="0.695312"/><stop stop-opacity="1" stop-color="rgb(74.099731%, 57.998657%, 16.697693%)" offset="0.703125"/><stop stop-opacity="1" stop-color="rgb(73.907471%, 57.806396%, 16.500854%)" offset="0.710938"/><stop stop-opacity="1" stop-color="rgb(73.707581%, 57.606506%, 16.316223%)" offset="0.714844"/><stop stop-opacity="1" stop-color="rgb(73.521423%, 57.4646%, 16.116333%)" offset="0.722656"/><stop stop-opacity="1" stop-color="rgb(73.309326%, 57.302856%, 15.887451%)" offset="0.726562"/><stop stop-opacity="1" stop-color="rgb(73.086548%, 57.080078%, 15.487671%)" offset="0.730469"/><stop stop-opacity="1" stop-color="rgb(72.895813%, 56.689453%, 15.296936%)" offset="0.738281"/><stop stop-opacity="1" stop-color="rgb(72.698975%, 56.298828%, 15.098572%)" offset="0.746094"/><stop stop-opacity="1" stop-color="rgb(72.50061%, 55.909729%, 14.900208%)" offset="0.753906"/><stop stop-opacity="1" stop-color="rgb(72.499084%, 55.708313%, 14.898682%)" offset="0.757812"/><stop stop-opacity="1" stop-color="rgb(72.499084%, 55.699158%, 14.717102%)" offset="0.761719"/><stop stop-opacity="1" stop-color="rgb(72.499084%, 55.699158%, 14.517212%)" offset="0.765625"/><stop stop-opacity="1" stop-color="rgb(72.348022%, 55.499268%, 14.477539%)" offset="0.769531"/><stop stop-opacity="1" stop-color="rgb(72.198486%, 55.299377%, 14.277649%)" offset="0.773438"/><stop stop-opacity="1" stop-color="rgb(72.186279%, 55.28717%, 14.099121%)" offset="0.777344"/><stop stop-opacity="1" stop-color="rgb(71.986389%, 55.079651%, 14.091492%)" offset="0.78125"/><stop stop-opacity="1" stop-color="rgb(71.795654%, 54.692078%, 13.891602%)" offset="0.785156"/><stop stop-opacity="1" stop-color="rgb(71.59729%, 54.499817%, 13.699341%)" offset="0.789062"/><stop stop-opacity="1" stop-color="rgb(71.400452%, 54.304504%, 13.504028%)" offset="0.792969"/><stop stop-opacity="1" stop-color="rgb(71.398926%, 54.103088%, 13.304138%)" offset="0.804688"/><stop stop-opacity="1" stop-color="rgb(71.398926%, 53.923035%, 13.299561%)" offset="0.808594"/><stop stop-opacity="1" stop-color="rgb(71.188354%, 53.713989%, 13.09967%)" offset="0.8125"/><stop stop-opacity="1" stop-color="rgb(70.788574%, 53.483582%, 12.89978%)" offset="0.816406"/><stop stop-opacity="1" stop-color="rgb(70.597839%, 53.092957%, 12.898254%)" offset="0.824219"/><stop stop-opacity="1" stop-color="rgb(70.402527%, 52.702332%, 12.702942%)" offset="0.832031"/><stop stop-opacity="1" stop-color="rgb(70.011902%, 52.359009%, 12.503052%)" offset="0.839844"/><stop stop-opacity="1" stop-color="rgb(69.807434%, 52.104187%, 12.5%)" offset="0.847656"/><stop stop-opacity="1" stop-color="rgb(69.787598%, 51.885986%, 12.5%)" offset="0.851562"/><stop stop-opacity="1" stop-color="rgb(69.584656%, 51.585388%, 12.348938%)" offset="0.855469"/><stop stop-opacity="1" stop-color="rgb(69.198608%, 51.199341%, 12.199402%)" offset="0.871094"/><stop stop-opacity="1" stop-color="rgb(69.000244%, 51.000977%, 12.199402%)" offset="0.878906"/><stop stop-opacity="1" stop-color="rgb(68.998718%, 50.813293%, 12.013245%)" offset="0.882812"/><stop stop-opacity="1" stop-color="rgb(68.817139%, 50.613403%, 11.813354%)" offset="0.886719"/><stop stop-opacity="1" stop-color="rgb(68.617249%, 50.59967%, 11.799622%)" offset="0.890625"/><stop stop-opacity="1" stop-color="rgb(68.598938%, 50.39978%, 11.799622%)" offset="0.894531"/><stop stop-opacity="1" stop-color="rgb(68.582153%, 50.18158%, 11.781311%)" offset="0.898438"/><stop stop-opacity="1" stop-color="rgb(68.382263%, 49.969482%, 11.581421%)" offset="0.902344"/><stop stop-opacity="1" stop-color="rgb(68.19458%, 49.581909%, 11.399841%)" offset="0.90625"/><stop stop-opacity="1" stop-color="rgb(67.996216%, 49.195862%, 11.399841%)" offset="0.910156"/><stop stop-opacity="1" stop-color="rgb(67.654419%, 48.999023%, 11.399841%)" offset="0.917969"/><stop stop-opacity="1" stop-color="rgb(67.503357%, 48.808289%, 11.399841%)" offset="0.925781"/><stop stop-opacity="1" stop-color="rgb(67.498779%, 48.509216%, 11.399841%)" offset="0.933594"/><stop stop-opacity="1" stop-color="rgb(67.478943%, 48.298645%, 11.399841%)" offset="0.9375"/><stop stop-opacity="1" stop-color="rgb(67.279053%, 48.182678%, 11.399841%)" offset="0.941406"/><stop stop-opacity="1" stop-color="rgb(67.098999%, 47.982788%, 11.399841%)" offset="0.945312"/><stop stop-opacity="1" stop-color="rgb(67.092896%, 47.795105%, 11.399841%)" offset="0.949219"/><stop stop-opacity="1" stop-color="rgb(66.891479%, 47.644043%, 11.399841%)" offset="0.953125"/><stop stop-opacity="1" stop-color="rgb(66.50238%, 47.302246%, 11.399841%)" offset="0.957031"/><stop stop-opacity="1" stop-color="rgb(66.30249%, 47.102356%, 11.399841%)" offset="0.964844"/><stop stop-opacity="1" stop-color="rgb(66.299438%, 46.920776%, 11.399841%)" offset="0.972656"/><stop stop-opacity="1" stop-color="rgb(66.099548%, 46.708679%, 11.399841%)" offset="0.976562"/><stop stop-opacity="1" stop-color="rgb(65.899658%, 46.577454%, 11.399841%)" offset="0.980469"/><stop stop-opacity="1" stop-color="rgb(65.884399%, 46.374512%, 11.399841%)" offset="0.984375"/><stop stop-opacity="1" stop-color="rgb(65.684509%, 46.084595%, 11.399841%)" offset="0.988281"/><stop stop-opacity="1" stop-color="rgb(65.499878%, 45.899963%, 11.399841%)" offset="1"/></radialGradient><clipPath id="8dbb88e58f"><path d="M 379.851562 85.640625 L 1037.476562 85.640625 L 1037.476562 289.539062 L 379.851562 289.539062 Z M 379.851562 85.640625 " clip-rule="nonzero"/></clipPath></defs><g clip-path="url(#184a13d7de)"><path fill="#2b6918" d="M 691.945312 -136.5625 C 266.347656 -136.5625 -78.667969 -68.902344 -78.667969 14.5625 C -78.667969 98.023438 266.347656 165.683594 691.945312 165.683594 C 1117.542969 165.683594 1462.558594 98.023438 1462.558594 14.5625 C 1462.558594 -68.902344 1117.542969 -136.5625 691.945312 -136.5625 " fill-opacity="1" fill-rule="nonzero"/></g><g clip-path="url(#f24769a2c7)"><g clip-path="url(#ceec3f4515)"><g clip-path="url(#fe3d086338)"><g clip-path="url(#ac734c580f)"><path fill="url(#2dbd29871a)" d="M 1030.558594 313.597656 L 1039.421875 87.554688 L 385.40625 61.835938 L 376.539062 287.882812 Z M 1030.558594 313.597656 " fill-rule="nonzero"/></g></g></g></g><g clip-path="url(#8dbb88e58f)"><path fill="#100f0d" d="M 704.28125 166.097656 C 704.28125 163.320312 706.535156 161.0625 709.316406 161.0625 C 712.097656 161.0625 714.351562 163.320312 714.351562 166.097656 C 714.351562 168.878906 712.097656 171.132812 709.316406 171.132812 C 706.535156 171.132812 704.28125 168.878906 704.28125 166.097656 Z M 709.316406 151.910156 C 698.472656 126.914062 679.886719 130.597656 679.886719 130.597656 C 681.191406 126.390625 686.542969 126.121094 686.542969 126.121094 C 698.441406 117.707031 705.765625 139.019531 705.765625 139.019531 C 705.058594 127.703125 696.152344 120.859375 696.152344 120.859375 C 698.460938 118.492188 704.375 120.859375 704.375 120.859375 C 704.375 120.859375 702.53125 109.285156 709.316406 109.285156 C 716.101562 109.285156 714.257812 120.859375 714.257812 120.859375 C 714.257812 120.859375 720.171875 118.492188 722.480469 120.859375 C 722.480469 120.859375 713.574219 127.703125 712.863281 139.019531 C 712.863281 139.019531 720.191406 117.707031 732.09375 126.121094 C 732.09375 126.121094 737.441406 126.390625 738.746094 130.597656 C 738.746094 130.597656 720.15625 126.914062 709.316406 151.910156 Z M 709.316406 192.660156 C 709.582031 191.738281 709.722656 191.203125 709.722656 191.203125 C 709.679688 191.578125 709.539062 192.074219 709.316406 192.660156 Z M 672.921875 230.332031 C 672.921875 230.332031 689.925781 221.660156 696.214844 214.855469 C 696.214844 214.855469 684.3125 232.371094 672.921875 230.332031 Z M 664.957031 229.515625 C 665.949219 235.03125 673.136719 239.414062 687.769531 229.515625 C 700.421875 220.949219 707.605469 198.570312 709.316406 192.660156 C 707.230469 198.132812 697.78125 211.808594 690.785156 215.308594 C 683.039062 219.183594 664.136719 224.953125 664.957031 229.515625 Z M 662.039062 213.121094 C 662.039062 213.121094 680.554688 207.453125 687.988281 200.753906 C 689.121094 199.613281 689.753906 198.875 689.753906 198.875 C 689.28125 199.503906 688.679688 200.132812 687.988281 200.753906 C 683.847656 204.9375 672.996094 214.558594 662.039062 213.121094 Z M 673.136719 216.597656 C 695.089844 208.851562 704.558594 176.996094 704.558594 176.996094 C 692.9375 194.644531 680.019531 195.9375 664.847656 201.535156 C 649.679688 207.128906 651.183594 224.347656 673.136719 216.597656 Z M 724.476562 253.738281 L 709.316406 289.585938 C 709.328125 289.523438 709.335938 289.375 709.347656 289.164062 C 709.316406 289.378906 709.304688 289.523438 709.316406 289.585938 L 694.148438 253.738281 L 709.316406 217.898438 Z M 710.128906 192.660156 C 709.90625 192.074219 709.761719 191.578125 709.722656 191.203125 C 709.722656 191.203125 709.859375 191.738281 710.128906 192.660156 Z M 723.230469 214.855469 C 729.519531 221.660156 746.523438 230.332031 746.523438 230.332031 C 735.132812 232.371094 723.230469 214.855469 723.230469 214.855469 Z M 710.128906 192.660156 C 711.84375 198.570312 719.023438 220.949219 731.675781 229.515625 C 746.3125 239.414062 753.496094 235.03125 754.492188 229.515625 C 755.316406 224.953125 736.414062 219.183594 728.660156 215.308594 C 721.667969 211.808594 712.214844 198.132812 710.128906 192.660156 Z M 731.453125 200.753906 C 730.765625 200.132812 730.164062 199.503906 729.691406 198.875 C 729.691406 198.875 730.324219 199.613281 731.453125 200.753906 C 738.894531 207.453125 757.40625 213.121094 757.40625 213.121094 C 746.445312 214.558594 735.601562 204.9375 731.453125 200.753906 Z M 746.3125 216.597656 C 768.261719 224.347656 769.765625 207.128906 754.59375 201.535156 C 739.421875 195.9375 726.511719 194.644531 714.886719 176.996094 C 714.886719 176.996094 724.359375 208.851562 746.3125 216.597656 Z M 437.304688 141.015625 L 431.351562 116.097656 C 440.089844 126.515625 437.304688 141.015625 437.304688 141.015625 Z M 438.699219 145.957031 C 438.699219 145.957031 467.449219 130.128906 425.078125 105.03125 C 425.078125 105.03125 425.457031 123.816406 425.078125 130.246094 C 424.703125 136.679688 428.132812 147.195312 434.15625 148.785156 C 434.15625 148.785156 446.59375 169.726562 460.472656 175.515625 C 448.566406 177.457031 437.625 183.9375 430.179688 192.617188 C 420.839844 197.773438 407.660156 204.015625 397.460938 204.015625 C 380.441406 204.015625 387.25 190.019531 387.25 190.019531 C 387.25 190.019531 389.894531 194.183594 393.679688 192.292969 C 397.460938 190.402344 394.773438 180.941406 385.902344 180.941406 C 377.035156 180.941406 376.28125 207.710938 394.816406 207.566406 C 405.160156 207.488281 418.5625 200.753906 428.394531 194.8125 C 421.472656 203.949219 418.34375 215.132812 421.675781 225.960938 C 429.238281 250.550781 474.261719 250.550781 475.769531 228.984375 C 477.285156 207.421875 461.777344 198.71875 452.316406 201.371094 C 442.859375 204.015625 449.671875 218.773438 456.480469 215.058594 C 463.285156 211.34375 456.480469 207.648438 456.480469 207.648438 C 471.230469 207.875 479.175781 228.984375 463.285156 238.507812 C 447.402344 248.03125 424.703125 235.039062 428.109375 211.203125 C 431.511719 187.371094 457.234375 176.019531 496.199219 183.464844 C 535.164062 190.910156 559.699219 169.195312 557.863281 170.382812 C 540.769531 181.378906 502.632812 174.90625 467.828125 174.90625 C 466.527344 174.90625 465.234375 174.980469 463.945312 175.09375 C 457.265625 170.796875 441.933594 159.640625 438.699219 145.957031 Z M 407.300781 226.105469 C 407.300781 226.105469 405.757812 255.089844 393.855469 253.957031 C 381.953125 252.820312 389.519531 230.023438 407.300781 226.105469 Z M 425.050781 246.386719 C 421.296875 252.820312 410.847656 242.296875 416 226.105469 C 416 226.105469 428.808594 239.953125 425.050781 246.386719 Z M 407.300781 213.476562 C 407.300781 213.476562 388.03125 233.238281 381.578125 223.308594 C 374.933594 213.101562 398.597656 218.144531 407.300781 213.476562 Z M 494.222656 174.890625 C 444.570312 167.320312 456.097656 112.84375 464.421875 116.25 C 472.746094 119.652344 464.421875 135.542969 470.097656 150.675781 C 475.769531 165.804688 497.519531 175.386719 494.222656 174.890625 Z M 519.835938 197.589844 C 519.835938 197.589844 496.953125 214.992188 497.714844 239.199219 C 498.46875 263.414062 527.976562 265.304688 530.246094 275.140625 C 532.515625 284.976562 509.257812 278.058594 497.695312 252.820312 C 482.960938 220.664062 519.835938 197.589844 519.835938 197.589844 Z M 512.464844 220.664062 C 524.574219 188.503906 562.785156 190.402344 580.558594 168.457031 C 581.417969 167.398438 571.480469 182.328125 550.300781 194.875 C 529.109375 207.421875 518.898438 221.796875 517.761719 236.554688 C 516.625 251.304688 535.542969 261.707031 549.164062 253.957031 C 559.367188 248.140625 557.820312 238.0625 549.144531 235.792969 C 549.144531 235.792969 551.808594 241.847656 543.488281 242.226562 C 535.164062 242.605469 535.542969 222.933594 551.429688 227.09375 C 567.320312 231.257812 565.050781 257.738281 546.894531 261.144531 C 528.734375 264.542969 500.359375 252.820312 512.464844 220.664062 Z M 658.535156 122.257812 L 658.53125 122.246094 C 658.441406 122.066406 658.359375 121.914062 658.304688 121.8125 L 645.609375 97.734375 C 655.753906 104.089844 658.535156 122.257812 658.535156 122.257812 Z M 660.359375 127.835938 C 661.847656 125.738281 681.761719 96.25 636.171875 87.5 C 636.171875 87.5 642.222656 102.25 642.984375 111.710938 C 643.738281 121.167969 646.925781 126.808594 660.277344 127.960938 C 660.3125 128.070312 660.371094 128.191406 660.410156 128.300781 C 660.394531 128.140625 660.375 127.980469 660.359375 127.835938 Z M 604.089844 183.464844 C 604.089844 183.464844 603.691406 210.480469 576.289062 213.476562 C 576.289062 213.476562 593.765625 207.644531 604.089844 183.464844 Z M 691.84375 168.183594 C 685.273438 161.347656 664.695312 139.378906 660.410156 128.300781 C 660.867188 132.457031 662.890625 142.3125 671.683594 154.503906 C 661.066406 148.480469 647.441406 142.3125 632.558594 139.144531 C 597.914062 131.785156 574.097656 140.878906 565.433594 113.59375 C 556.777344 86.3125 592.285156 85.449219 598.347656 94.542969 C 604.410156 103.636719 599.648438 115.328125 591.851562 117.0625 C 591.851562 117.0625 596.183594 109.265625 588.820312 107.96875 C 581.460938 106.667969 577.558594 119.226562 586.652344 123.988281 C 595.746094 128.753906 608.308594 120.527344 605.277344 101.902344 C 602.246094 83.28125 580.597656 84.152344 571.496094 87.613281 C 562.402344 91.078125 555.910156 106.234375 565.871094 123.988281 C 572.082031 135.066406 593.121094 139.738281 613.226562 143.894531 C 599.738281 144.246094 581.960938 146.402344 560.863281 152.945312 C 512.089844 168.078125 491.664062 161.613281 484.09375 148.390625 C 476.527344 135.164062 480.3125 110.195312 499.984375 110.195312 C 519.65625 110.195312 511.710938 127.191406 505.277344 127.960938 C 505.277344 127.960938 504.902344 121.75 499.984375 121.648438 C 495.0625 121.542969 490.902344 138.613281 503.765625 135.945312 C 516.625 133.273438 521.769531 114.722656 509.550781 107.726562 C 497.335938 100.742188 476.527344 106.792969 473.878906 132.136719 C 471.230469 157.488281 491.640625 168.332031 519.835938 170.285156 C 545.601562 172.070312 595.492188 148.621094 634.808594 148.71875 C 636.734375 149.238281 638.574219 149.777344 640.300781 150.347656 C 629.488281 152.695312 614.324219 158.585938 604.773438 173.375 C 604.773438 173.375 591.910156 170.835938 585.101562 185.914062 C 578.292969 200.988281 566.132812 213.476562 560.863281 215.367188 C 560.863281 215.367188 582.832031 223.308594 597.960938 212.339844 C 613.097656 201.371094 610.445312 174.507812 610.445312 174.507812 C 610.445312 174.507812 626.164062 156.753906 651.613281 154.910156 C 670.820312 163.046875 689.804688 170.613281 693.863281 170.277344 C 678.367188 174.921875 660.617188 165.085938 650.316406 164.265625 C 639.484375 163.398438 621.296875 169.027344 620.867188 187.507812 C 620.433594 205.988281 636.890625 211.035156 648.582031 205.558594 C 660.277344 200.082031 659.410156 184.617188 645.984375 182.019531 C 632.558594 179.421875 632.558594 190.679688 639.054688 191.976562 C 645.550781 193.277344 644.253906 187.507812 644.253906 187.507812 C 648.582031 184.339844 657.242188 192.414062 651.179688 200.640625 C 645.117188 208.867188 623.898438 208.003906 624.332031 188.515625 C 624.765625 169.027344 642.953125 167.296875 665.035156 172.058594 C 687.121094 176.820312 696.214844 169.460938 696.214844 169.460938 C 695.441406 169.777344 694.652344 170.039062 693.863281 170.277344 C 694.078125 170.253906 693.347656 169.480469 691.84375 168.183594 Z M 758.789062 122.257812 C 758.789062 122.257812 761.570312 104.089844 771.71875 97.734375 L 759.027344 121.8125 C 758.96875 121.914062 758.886719 122.066406 758.796875 122.246094 Z M 756.96875 127.835938 C 756.953125 127.980469 756.933594 128.140625 756.917969 128.300781 C 756.964844 128.191406 757.015625 128.070312 757.054688 127.960938 C 770.402344 126.808594 773.589844 121.167969 774.34375 111.710938 C 775.105469 102.25 781.15625 87.5 781.15625 87.5 C 735.566406 96.25 755.480469 125.738281 756.96875 127.835938 Z M 1023.472656 253.957031 C 1011.570312 255.089844 1010.027344 226.105469 1010.027344 226.105469 C 1027.808594 230.023438 1035.375 252.820312 1023.472656 253.957031 Z M 992.277344 246.386719 C 988.519531 239.953125 1001.328125 226.105469 1001.328125 226.105469 C 1006.480469 242.296875 996.03125 252.820312 992.277344 246.386719 Z M 1035.75 223.308594 C 1029.296875 233.238281 1010.027344 213.476562 1010.027344 213.476562 C 1018.730469 218.144531 1042.394531 213.101562 1035.75 223.308594 Z M 985.976562 116.097656 L 980.019531 141.015625 C 980.019531 141.015625 977.238281 126.515625 985.976562 116.097656 Z M 1031.425781 180.941406 C 1022.554688 180.941406 1019.867188 190.402344 1023.648438 192.292969 C 1027.429688 194.183594 1030.078125 190.019531 1030.078125 190.019531 C 1030.078125 190.019531 1036.886719 204.015625 1019.867188 204.015625 C 1009.667969 204.015625 996.488281 197.773438 987.148438 192.617188 C 979.703125 183.9375 968.761719 177.457031 956.855469 175.515625 C 970.734375 169.726562 983.171875 148.785156 983.171875 148.785156 C 989.195312 147.195312 992.625 136.679688 992.25 130.246094 C 991.871094 123.816406 992.25 105.03125 992.25 105.03125 C 949.878906 130.128906 978.628906 145.957031 978.628906 145.957031 C 975.398438 159.640625 960.0625 170.796875 953.382812 175.09375 C 952.09375 174.980469 950.800781 174.90625 949.5 174.90625 C 914.695312 174.90625 876.558594 181.378906 859.464844 170.382812 C 857.628906 169.195312 882.164062 190.910156 921.128906 183.464844 C 960.09375 176.019531 985.816406 187.371094 989.222656 211.203125 C 992.625 235.039062 969.925781 248.03125 954.042969 238.507812 C 938.152344 228.984375 946.09375 207.875 960.847656 207.648438 C 960.847656 207.648438 954.042969 211.34375 960.847656 215.058594 C 967.65625 218.773438 974.46875 204.015625 965.011719 201.371094 C 955.550781 198.71875 940.046875 207.421875 941.558594 228.984375 C 943.074219 250.550781 988.089844 250.550781 995.652344 225.960938 C 998.980469 215.132812 995.855469 203.949219 988.9375 194.8125 C 998.765625 200.753906 1012.167969 207.488281 1022.511719 207.566406 C 1041.046875 207.710938 1040.292969 180.941406 1031.425781 180.941406 Z M 923.113281 174.890625 C 919.808594 175.386719 941.558594 165.804688 947.234375 150.675781 C 952.90625 135.542969 944.582031 119.652344 952.90625 116.25 C 961.230469 112.84375 972.757812 167.320312 923.113281 174.890625 Z M 813.238281 183.464844 C 823.5625 207.644531 841.039062 213.476562 841.039062 213.476562 C 813.636719 210.480469 813.238281 183.464844 813.238281 183.464844 Z M 943.449219 132.136719 C 940.800781 106.792969 919.992188 100.742188 907.777344 107.726562 C 895.558594 114.722656 900.703125 133.273438 913.5625 135.945312 C 926.421875 138.613281 922.265625 121.542969 917.34375 121.648438 C 912.425781 121.75 912.050781 127.960938 912.050781 127.960938 C 905.617188 127.191406 897.671875 110.195312 917.34375 110.195312 C 937.015625 110.195312 940.800781 135.164062 933.234375 148.390625 C 925.664062 161.613281 905.238281 168.078125 856.464844 152.945312 C 835.367188 146.402344 817.589844 144.246094 804.101562 143.894531 C 824.207031 139.738281 845.246094 135.066406 851.457031 123.988281 C 861.417969 106.234375 854.925781 91.078125 845.824219 87.613281 C 836.730469 84.152344 815.082031 83.28125 812.050781 101.902344 C 809.019531 120.527344 821.582031 128.753906 830.675781 123.988281 C 839.769531 119.226562 835.867188 106.667969 828.507812 107.96875 C 821.144531 109.265625 825.476562 117.0625 825.476562 117.0625 C 817.679688 115.328125 812.917969 103.636719 818.980469 94.542969 C 825.042969 85.449219 860.550781 86.3125 851.886719 113.59375 C 843.230469 140.878906 819.414062 131.785156 784.769531 139.144531 C 769.886719 142.3125 756.261719 148.480469 745.644531 154.503906 C 754.4375 142.3125 756.460938 132.457031 756.917969 128.300781 C 752.632812 139.378906 732.054688 161.347656 725.484375 168.183594 C 723.980469 169.480469 723.25 170.253906 723.464844 170.277344 C 722.675781 170.039062 721.886719 169.777344 721.113281 169.460938 C 721.113281 169.460938 730.207031 176.820312 752.292969 172.058594 C 774.375 167.296875 792.5625 169.027344 792.996094 188.515625 C 793.429688 208.003906 772.210938 208.867188 766.148438 200.640625 C 760.085938 192.414062 768.75 184.339844 773.074219 187.507812 C 773.074219 187.507812 771.777344 193.277344 778.273438 191.976562 C 784.769531 190.679688 784.769531 179.421875 771.34375 182.019531 C 757.917969 184.617188 757.054688 200.082031 768.75 205.558594 C 780.4375 211.035156 796.894531 205.988281 796.460938 187.507812 C 796.03125 169.027344 777.84375 163.398438 767.011719 164.265625 C 756.710938 165.085938 738.960938 174.921875 723.464844 170.277344 C 727.523438 170.613281 746.507812 163.046875 765.714844 154.910156 C 791.164062 156.753906 806.882812 174.507812 806.882812 174.507812 C 806.882812 174.507812 804.230469 201.371094 819.367188 212.339844 C 834.496094 223.308594 856.464844 215.367188 856.464844 215.367188 C 851.195312 213.476562 839.035156 200.988281 832.226562 185.914062 C 825.417969 170.835938 812.554688 173.375 812.554688 173.375 C 803.003906 158.585938 787.839844 152.695312 777.027344 150.347656 C 778.753906 149.777344 780.59375 149.238281 782.519531 148.71875 C 821.835938 148.621094 871.726562 172.070312 897.492188 170.285156 C 925.6875 168.332031 946.09375 157.488281 943.449219 132.136719 Z M 919.613281 239.199219 C 920.375 214.992188 897.492188 197.589844 897.492188 197.589844 C 897.492188 197.589844 934.367188 220.664062 919.632812 252.820312 C 908.0625 278.058594 884.8125 284.976562 887.082031 275.140625 C 889.351562 265.304688 918.859375 263.414062 919.613281 239.199219 Z M 870.433594 261.144531 C 888.597656 264.542969 916.96875 252.820312 904.863281 220.664062 C 892.753906 188.503906 854.542969 190.402344 836.769531 168.457031 C 835.90625 167.398438 845.847656 182.328125 867.027344 194.875 C 888.21875 207.421875 898.429688 221.796875 899.566406 236.554688 C 900.703125 251.304688 881.785156 261.707031 868.164062 253.957031 C 857.960938 248.140625 859.507812 238.0625 868.183594 235.792969 C 868.183594 235.792969 865.519531 241.847656 873.839844 242.226562 C 882.164062 242.605469 881.785156 222.933594 865.898438 227.09375 C 850.007812 231.257812 852.277344 257.738281 870.433594 261.144531 " fill-opacity="1" fill-rule="nonzero"/></g></svg>