<svg xmlns="http://www.w3.org/2000/svg" xmlns:xlink="http://www.w3.org/1999/xlink" width="1890" zoomAndPan="magnify" viewBox="0 0 1417.5 374.999991" height="500" preserveAspectRatio="xMidYMid meet" version="1.0"><defs><clipPath id="ecc43b9d51"><path d="M 0 194.078125 L 1417 194.078125 L 1417 374.933594 L 0 374.933594 Z M 0 194.078125 " clip-rule="nonzero"/></clipPath><clipPath id="db2b8ed7ae"><path d="M 380.578125 7.335938 L 1041.738281 7.335938 L 1041.738281 230.085938 L 380.578125 230.085938 Z M 380.578125 7.335938 " clip-rule="nonzero"/></clipPath><clipPath id="de0aeaf339"><path d="M 711.15625 177.1875 C 722.621094 177.1875 711.15625 149.609375 711.15625 149.609375 C 711.15625 149.609375 699.695312 177.1875 711.15625 177.1875 Z M 660.859375 110.910156 C 641.285156 108.976562 645.082031 129.296875 653.878906 129.84375 C 662.679688 130.390625 687.71875 132.210938 700.921875 144.972656 C 700.921875 144.972656 680.433594 112.84375 660.859375 110.910156 Z M 459.796875 171.492188 C 459.796875 171.492188 448.207031 175.417969 444.84375 185.515625 C 441.480469 195.613281 433.917969 205.144531 433.917969 205.144531 C 433.917969 205.144531 438.960938 204.585938 443.722656 194.210938 C 448.484375 183.828125 457.375 172.617188 459.796875 171.492188 Z M 472.664062 168.738281 C 472.664062 168.738281 464.71875 176.742188 459.507812 188.808594 C 454.296875 200.875 450.0625 213.617188 426.957031 208.703125 C 426.957031 208.703125 436.542969 182.828125 438.683594 179.203125 C 444.125 169.984375 457.726562 168.039062 472.664062 168.738281 Z M 439.238281 110.910156 C 439.238281 110.910156 442.601562 124.652344 445.125 129.84375 C 447.644531 135.023438 451.378906 139.738281 459.761719 148.734375 C 459.117188 148.039062 449.269531 137.304688 447.648438 129.984375 C 445.964844 122.410156 439.238281 110.910156 439.238281 110.910156 Z M 437.679688 128.585938 C 437.839844 116.640625 435.078125 106.6875 435.078125 106.6875 C 451.171875 106.765625 460.613281 123.519531 462.980469 135.960938 C 465.34375 148.394531 471.714844 158.707031 470.5625 158.429688 C 452.242188 154.003906 437.53125 140.308594 437.679688 128.585938 Z M 576.617188 134.945312 C 576.617188 134.945312 569.871094 143.585938 568.796875 155.464844 C 567.714844 167.34375 573.109375 176.253906 568.796875 181.652344 C 568.796875 181.652344 573.234375 179.222656 572.632812 166.535156 C 572.03125 153.84375 574.1875 145.53125 576.617188 136.863281 Z M 584.4375 157.894531 C 587.40625 170.039062 582.28125 184.082031 564.476562 187.050781 C 564.476562 187.050781 563.398438 172.472656 560.972656 165.722656 C 558.542969 158.972656 565.671875 133.597656 580.179688 123.878906 C 580.179688 123.878906 581.472656 145.746094 584.4375 157.894531 Z M 597.65625 132.480469 C 590.101562 127.316406 584.4375 120.367188 584.4375 120.367188 C 584.4375 126.578125 587.40625 143.585938 593.066406 145.746094 C 598.734375 147.90625 608.175781 153.574219 608.175781 153.574219 C 608.175781 146.285156 605.207031 137.644531 597.65625 132.480469 Z M 505.324219 119.085938 C 507.976562 120.117188 512.246094 122.808594 517.546875 127.371094 C 525.367188 134.109375 533.0625 132.246094 533.0625 132.246094 C 533.0625 132.246094 524.019531 127.925781 515.65625 122.796875 C 511.359375 120.160156 507.691406 119.355469 505.324219 119.085938 C 504.066406 118.59375 503.171875 118.46875 502.710938 118.707031 C 502.019531 119.0625 503.089844 118.832031 505.324219 119.085938 Z M 496.234375 117.398438 C 496.234375 117.398438 506.21875 112.410156 519.429688 116.25 C 532.648438 120.097656 534.25 130.992188 544.5 131.4375 C 544.519531 131.4375 540.476562 139.804688 523.75 135.753906 C 507.023438 131.703125 507.292969 119.554688 496.234375 117.398438 Z M 532.113281 100.566406 C 543.707031 112.347656 556.117188 112.808594 556.117188 112.808594 C 553.957031 112.808594 532.113281 100.566406 532.113281 100.566406 Z M 517.546875 97.417969 C 517.546875 97.417969 528.332031 92.019531 541.824219 97.417969 C 555.308594 102.820312 562.230469 111.726562 571.445312 111.460938 C 571.445312 111.460938 560.164062 121.984375 545.867188 117.667969 C 531.570312 113.347656 523.75 97.6875 517.546875 97.417969 Z M 564.746094 81.757812 C 573.378906 92.289062 586.058594 97.417969 587.136719 97.417969 C 587.136719 97.417969 573.921875 86.890625 568.523438 81.21875 C 563.128906 75.546875 556.117188 71.230469 556.117188 71.230469 C 556.117188 71.230469 556.117188 71.230469 564.746094 81.757812 Z M 547.214844 68.316406 C 547.214844 68.316406 560.164062 63.128906 569.601562 73.117188 C 579.042969 83.113281 591.613281 97.832031 596.574219 98.230469 C 596.574219 98.230469 587.945312 104.4375 572.570312 96.605469 C 557.195312 88.777344 557.464844 72.695312 547.214844 68.316406 Z M 612.785156 72.390625 C 624.988281 81.042969 665.171875 86.136719 665.171875 86.136719 C 632.617188 77.480469 620.925781 57.628906 615.324219 56.609375 C 609.730469 55.589844 600.578125 63.734375 612.785156 72.390625 Z M 447.648438 158.300781 C 447.648438 158.300781 424.109375 144.285156 396.089844 142.324219 C 396.089844 142.324219 435.035156 159.132812 447.648438 158.300781 Z M 642.164062 99.863281 C 610.816406 100.9375 590.324219 112.988281 571.453125 126.261719 C 571.453125 126.261719 571.445312 126.265625 571.445312 126.265625 C 571.296875 126.371094 542.597656 150.28125 541.582031 184.894531 C 540.5625 219.507812 565.203125 226.636719 571.445312 224.09375 C 571.445312 224.09375 563.449219 222.5625 565.992188 214.421875 C 568.539062 206.273438 583.796875 213.320312 578.707031 224.558594 C 573.621094 235.796875 547.175781 230.710938 537.003906 201.691406 C 530.300781 182.566406 532.152344 162.777344 542.539062 146.265625 C 533.765625 151.613281 524.371094 156.210938 513.527344 159.1875 C 494.371094 164.453125 474.054688 164.09375 456.625 161.804688 C 451.410156 163.757812 442.21875 168.644531 426.25 167.695312 C 406.359375 166.507812 380.578125 137.660156 380.578125 137.660156 C 387.867188 140.664062 395.992188 133.539062 420.085938 135.199219 C 442.90625 136.765625 458.105469 158.5 459.660156 160.808594 C 478.960938 161.644531 506.648438 159.570312 528.660156 144.882812 C 560.003906 123.96875 586.730469 97.855469 625.09375 92.386719 C 585.132812 87.027344 555.59375 59.453125 554.589844 37.496094 C 553.363281 10.53125 571.21875 1.96875 589.605469 10.53125 C 607.996094 19.089844 606.714844 43.917969 594.742188 47.339844 C 582.761719 50.769531 581.054688 34.496094 587.039062 31.933594 C 593.027344 29.363281 595.59375 35.355469 595.59375 35.355469 C 600.726562 26.367188 593.882812 11.382812 577.632812 13.097656 C 569.105469 13.992188 563.066406 23.257812 563.0625 34.890625 C 569.125 37.589844 568.222656 46.058594 568.222656 46.058594 C 568.65625 39.203125 575.066406 38.777344 575.066406 38.777344 C 572.5 59.324219 591.414062 74.972656 591.421875 74.972656 C 611.828125 86.199219 637.511719 90.355469 648.496094 91.695312 C 649.183594 91.746094 649.875 91.800781 650.574219 91.871094 C 651.699219 91.972656 652.792969 92.109375 653.878906 92.246094 C 660.527344 93.125 666.359375 94.640625 671.46875 96.636719 L 671.46875 96.632812 C 672.300781 84.496094 680.453125 90.691406 680.453125 90.691406 C 682.070312 88.359375 684.609375 87.347656 684.609375 87.347656 C 687.335938 96.605469 696.8125 116.25 696.8125 116.25 C 706.140625 129.683594 707.144531 144.277344 706.5 148.113281 C 706.765625 144.863281 702.460938 97.792969 642.164062 99.863281 Z M 706.5 148.113281 C 706.492188 148.15625 706.488281 148.214844 706.484375 148.25 C 706.488281 148.21875 706.492188 148.171875 706.5 148.113281 Z M 706.648438 55.007812 C 711.070312 48.183594 706.648438 28.332031 706.648438 28.332031 C 705.191406 33.414062 706.648438 55.007812 706.648438 55.007812 Z M 695.035156 53.410156 C 695.035156 53.410156 694.308594 31.960938 708.105469 23.242188 C 708.105469 23.242188 717.179688 39.296875 718.269531 53.300781 C 718.269531 53.300781 708.105469 58.152344 708.105469 63.574219 C 708.105469 63.574219 699.390625 53.421875 695.035156 53.410156 Z M 679.789062 61.390625 C 692.128906 61.03125 702.300781 75.753906 702.300781 75.753906 C 692.496094 56.683594 679.789062 61.390625 679.789062 61.390625 Z M 669.625 63.210938 C 669.625 63.210938 689.585938 41.351562 708.105469 68.996094 C 708.105469 68.996094 703.382812 83.027344 704.472656 89.652344 C 704.472656 89.652344 689.226562 66.480469 669.625 63.210938 Z M 713.550781 86.039062 C 723.351562 62.359375 738.796875 51.945312 738.796875 51.945312 C 717.578125 53.761719 713.261719 86.734375 713.550781 86.039062 Z M 708.105469 108.140625 C 708.105469 108.140625 708.105469 64.296875 722.398438 53.300781 C 736.691406 42.300781 752.65625 50.492188 752.65625 50.492188 C 727.5 66.847656 708.105469 108.140625 708.105469 108.140625 Z M 761.457031 110.910156 C 741.882812 112.84375 721.394531 144.972656 721.394531 144.972656 C 734.597656 132.210938 759.632812 130.390625 768.4375 129.84375 C 777.230469 129.296875 781.027344 108.976562 761.457031 110.910156 Z M 988.394531 205.144531 C 988.394531 205.144531 980.832031 195.613281 977.472656 185.515625 C 974.109375 175.417969 962.515625 171.492188 962.515625 171.492188 C 964.941406 172.617188 973.828125 183.828125 978.59375 194.210938 C 983.355469 204.585938 988.394531 205.144531 988.394531 205.144531 Z M 983.632812 179.203125 C 985.773438 182.828125 995.359375 208.703125 995.359375 208.703125 C 972.25 213.617188 968.019531 200.875 962.808594 188.808594 C 957.589844 176.742188 949.644531 168.738281 949.644531 168.738281 C 964.582031 168.039062 978.1875 169.984375 983.632812 179.203125 Z M 962.554688 148.734375 C 970.9375 139.738281 974.671875 135.023438 977.191406 129.84375 C 979.710938 124.652344 983.074219 110.910156 983.074219 110.910156 C 983.074219 110.910156 976.351562 122.410156 974.667969 129.984375 C 973.042969 137.304688 963.199219 148.039062 962.554688 148.734375 Z M 951.753906 158.429688 C 950.601562 158.707031 956.96875 148.394531 959.335938 135.960938 C 961.703125 123.519531 971.144531 106.765625 987.238281 106.6875 C 987.238281 106.6875 984.476562 116.640625 984.628906 128.585938 C 984.785156 140.308594 970.074219 154.003906 951.753906 158.429688 Z M 715.816406 148.113281 C 715.820312 148.171875 715.828125 148.21875 715.832031 148.25 C 715.828125 148.214844 715.820312 148.15625 715.816406 148.113281 Z M 1026.226562 142.324219 C 998.203125 144.285156 974.667969 158.300781 974.667969 158.300781 C 987.273438 159.132812 1026.226562 142.324219 1026.226562 142.324219 Z M 1041.738281 137.660156 C 1041.738281 137.660156 1015.957031 166.507812 996.066406 167.695312 C 980.09375 168.644531 970.910156 163.757812 965.6875 161.804688 C 948.261719 164.09375 927.945312 164.453125 908.78125 159.1875 C 897.945312 156.210938 888.550781 151.613281 879.78125 146.265625 C 890.160156 162.777344 892.015625 182.566406 885.3125 201.691406 C 875.140625 230.710938 848.695312 235.796875 843.605469 224.558594 C 838.519531 213.320312 853.777344 206.273438 856.324219 214.421875 C 858.863281 222.5625 850.871094 224.09375 850.871094 224.09375 C 857.113281 226.636719 881.753906 219.507812 880.734375 184.894531 C 879.71875 150.28125 851.019531 126.371094 850.871094 126.265625 C 850.871094 126.265625 850.863281 126.261719 850.863281 126.261719 C 831.988281 112.988281 811.5 100.9375 780.152344 99.863281 C 719.851562 97.792969 715.546875 144.863281 715.816406 148.113281 C 715.171875 144.277344 716.171875 129.683594 725.5 116.25 C 725.5 116.25 734.980469 96.605469 737.707031 87.347656 C 737.707031 87.347656 740.242188 88.359375 741.859375 90.691406 C 741.859375 90.691406 750.015625 84.496094 750.851562 96.632812 L 750.847656 96.636719 C 755.957031 94.640625 761.789062 93.125 768.4375 92.246094 C 769.519531 92.109375 770.617188 91.972656 771.742188 91.871094 C 772.4375 91.800781 773.132812 91.746094 773.824219 91.695312 C 784.804688 90.355469 810.488281 86.199219 830.894531 74.972656 C 830.898438 74.972656 849.816406 59.324219 847.25 38.777344 C 847.25 38.777344 853.660156 39.203125 854.09375 46.058594 C 854.09375 46.058594 853.1875 37.589844 859.253906 34.890625 C 859.246094 23.257812 853.210938 13.992188 844.679688 13.097656 C 828.429688 11.382812 821.585938 26.367188 826.722656 35.355469 C 826.722656 35.355469 829.289062 29.363281 835.273438 31.933594 C 841.261719 34.496094 839.550781 50.769531 827.574219 47.339844 C 815.601562 43.917969 814.320312 19.089844 832.707031 10.53125 C 851.097656 1.96875 868.953125 10.53125 867.722656 37.496094 C 866.722656 59.453125 837.179688 87.027344 797.222656 92.386719 C 835.585938 97.855469 862.308594 123.96875 893.652344 144.882812 C 915.667969 159.570312 943.355469 161.644531 962.65625 160.808594 C 964.207031 158.5 979.40625 136.765625 1002.226562 135.199219 C 1026.328125 133.539062 1034.449219 140.664062 1041.738281 137.660156 Z M 845.699219 136.863281 C 848.125 145.53125 850.285156 153.84375 849.679688 166.535156 C 849.082031 179.222656 853.519531 181.652344 853.519531 181.652344 C 849.207031 176.253906 854.597656 167.34375 853.519531 155.464844 C 852.445312 143.585938 845.699219 134.945312 845.699219 134.945312 Z M 837.875 157.894531 C 840.84375 145.746094 842.132812 123.878906 842.132812 123.878906 C 856.640625 133.597656 863.773438 158.972656 861.34375 165.722656 C 858.917969 172.472656 857.835938 187.050781 857.835938 187.050781 C 840.039062 184.082031 834.910156 170.039062 837.875 157.894531 Z M 824.660156 132.480469 C 817.109375 137.644531 814.136719 146.285156 814.136719 153.574219 C 814.136719 153.574219 823.582031 147.90625 829.246094 145.746094 C 834.910156 143.585938 837.875 126.578125 837.875 120.367188 C 837.875 120.367188 832.210938 127.316406 824.660156 132.480469 Z M 906.660156 122.796875 C 898.296875 127.925781 889.253906 132.246094 889.253906 132.246094 C 889.253906 132.246094 896.949219 134.109375 904.769531 127.371094 C 910.074219 122.808594 914.339844 120.117188 916.992188 119.085938 C 919.226562 118.832031 920.296875 119.0625 919.609375 118.707031 C 919.144531 118.46875 918.25 118.59375 916.992188 119.085938 C 914.625 119.355469 910.957031 120.160156 906.660156 122.796875 Z M 902.882812 116.25 C 916.097656 112.410156 926.082031 117.398438 926.082031 117.398438 C 915.023438 119.554688 915.289062 131.703125 898.566406 135.753906 C 881.839844 139.804688 877.796875 131.4375 877.816406 131.4375 C 888.066406 130.992188 889.664062 120.097656 902.882812 116.25 Z M 866.199219 112.808594 C 866.199219 112.808594 878.605469 112.347656 890.203125 100.566406 C 890.203125 100.566406 868.359375 112.808594 866.199219 112.808594 Z M 850.871094 111.460938 C 860.085938 111.726562 867.003906 102.820312 880.496094 97.417969 C 893.984375 92.019531 904.769531 97.417969 904.769531 97.417969 C 898.566406 97.6875 890.746094 113.347656 876.449219 117.667969 C 862.148438 121.984375 850.871094 111.460938 850.871094 111.460938 Z M 866.199219 71.230469 C 866.199219 71.230469 859.183594 75.546875 853.792969 81.21875 C 848.394531 86.890625 835.175781 97.417969 835.175781 97.417969 C 836.257812 97.417969 848.9375 92.289062 857.570312 81.757812 C 866.199219 71.230469 866.199219 71.230469 866.199219 71.230469 Z M 875.101562 68.316406 C 864.851562 72.695312 865.121094 88.777344 849.742188 96.605469 C 834.371094 104.4375 825.738281 98.230469 825.738281 98.230469 C 830.703125 97.832031 843.269531 83.113281 852.714844 73.117188 C 862.148438 63.128906 875.101562 68.316406 875.101562 68.316406 Z M 809.53125 72.390625 C 797.324219 81.042969 757.144531 86.136719 757.144531 86.136719 C 789.695312 77.480469 801.390625 57.628906 806.988281 56.609375 C 812.582031 55.589844 821.738281 63.734375 809.53125 72.390625 Z M 809.53125 72.390625 " clip-rule="nonzero"/></clipPath><clipPath id="e12ea2294b"><path d="M 711.15625 177.1875 C 722.621094 177.1875 711.15625 149.609375 711.15625 149.609375 C 711.15625 149.609375 699.695312 177.1875 711.15625 177.1875 Z M 660.859375 110.910156 C 641.285156 108.976562 645.082031 129.296875 653.878906 129.84375 C 662.679688 130.390625 687.71875 132.210938 700.921875 144.972656 C 700.921875 144.972656 680.433594 112.84375 660.859375 110.910156 Z M 459.796875 171.492188 C 459.796875 171.492188 448.207031 175.417969 444.84375 185.515625 C 441.480469 195.613281 433.917969 205.144531 433.917969 205.144531 C 433.917969 205.144531 438.960938 204.585938 443.722656 194.210938 C 448.484375 183.828125 457.375 172.617188 459.796875 171.492188 Z M 472.664062 168.738281 C 472.664062 168.738281 464.71875 176.742188 459.507812 188.808594 C 454.296875 200.875 450.0625 213.617188 426.957031 208.703125 C 426.957031 208.703125 436.542969 182.828125 438.683594 179.203125 C 444.125 169.984375 457.726562 168.039062 472.664062 168.738281 Z M 439.238281 110.910156 C 439.238281 110.910156 442.601562 124.652344 445.125 129.84375 C 447.644531 135.023438 451.378906 139.738281 459.761719 148.734375 C 459.117188 148.039062 449.269531 137.304688 447.648438 129.984375 C 445.964844 122.410156 439.238281 110.910156 439.238281 110.910156 Z M 437.679688 128.585938 C 437.839844 116.640625 435.078125 106.6875 435.078125 106.6875 C 451.171875 106.765625 460.613281 123.519531 462.980469 135.960938 C 465.34375 148.394531 471.714844 158.707031 470.5625 158.429688 C 452.242188 154.003906 437.53125 140.308594 437.679688 128.585938 Z M 576.617188 134.945312 C 576.617188 134.945312 569.871094 143.585938 568.796875 155.464844 C 567.714844 167.34375 573.109375 176.253906 568.796875 181.652344 C 568.796875 181.652344 573.234375 179.222656 572.632812 166.535156 C 572.03125 153.84375 574.1875 145.53125 576.617188 136.863281 Z M 584.4375 157.894531 C 587.40625 170.039062 582.28125 184.082031 564.476562 187.050781 C 564.476562 187.050781 563.398438 172.472656 560.972656 165.722656 C 558.542969 158.972656 565.671875 133.597656 580.179688 123.878906 C 580.179688 123.878906 581.472656 145.746094 584.4375 157.894531 Z M 597.65625 132.480469 C 590.101562 127.316406 584.4375 120.367188 584.4375 120.367188 C 584.4375 126.578125 587.40625 143.585938 593.066406 145.746094 C 598.734375 147.90625 608.175781 153.574219 608.175781 153.574219 C 608.175781 146.285156 605.207031 137.644531 597.65625 132.480469 Z M 505.324219 119.085938 C 507.976562 120.117188 512.246094 122.808594 517.546875 127.371094 C 525.367188 134.109375 533.0625 132.246094 533.0625 132.246094 C 533.0625 132.246094 524.019531 127.925781 515.65625 122.796875 C 511.359375 120.160156 507.691406 119.355469 505.324219 119.085938 C 504.066406 118.59375 503.171875 118.46875 502.710938 118.707031 C 502.019531 119.0625 503.089844 118.832031 505.324219 119.085938 Z M 496.234375 117.398438 C 496.234375 117.398438 506.21875 112.410156 519.429688 116.25 C 532.648438 120.097656 534.25 130.992188 544.5 131.4375 C 544.519531 131.4375 540.476562 139.804688 523.75 135.753906 C 507.023438 131.703125 507.292969 119.554688 496.234375 117.398438 Z M 532.113281 100.566406 C 543.707031 112.347656 556.117188 112.808594 556.117188 112.808594 C 553.957031 112.808594 532.113281 100.566406 532.113281 100.566406 Z M 517.546875 97.417969 C 517.546875 97.417969 528.332031 92.019531 541.824219 97.417969 C 555.308594 102.820312 562.230469 111.726562 571.445312 111.460938 C 571.445312 111.460938 560.164062 121.984375 545.867188 117.667969 C 531.570312 113.347656 523.75 97.6875 517.546875 97.417969 Z M 564.746094 81.757812 C 573.378906 92.289062 586.058594 97.417969 587.136719 97.417969 C 587.136719 97.417969 573.921875 86.890625 568.523438 81.21875 C 563.128906 75.546875 556.117188 71.230469 556.117188 71.230469 C 556.117188 71.230469 556.117188 71.230469 564.746094 81.757812 Z M 547.214844 68.316406 C 547.214844 68.316406 560.164062 63.128906 569.601562 73.117188 C 579.042969 83.113281 591.613281 97.832031 596.574219 98.230469 C 596.574219 98.230469 587.945312 104.4375 572.570312 96.605469 C 557.195312 88.777344 557.464844 72.695312 547.214844 68.316406 Z M 612.785156 72.390625 C 624.988281 81.042969 665.171875 86.136719 665.171875 86.136719 C 632.617188 77.480469 620.925781 57.628906 615.324219 56.609375 C 609.730469 55.589844 600.578125 63.734375 612.785156 72.390625 Z M 447.648438 158.300781 C 447.648438 158.300781 424.109375 144.285156 396.089844 142.324219 C 396.089844 142.324219 435.035156 159.132812 447.648438 158.300781 Z M 642.164062 99.863281 C 610.816406 100.9375 590.324219 112.988281 571.453125 126.261719 C 571.453125 126.261719 571.445312 126.265625 571.445312 126.265625 C 571.296875 126.371094 542.597656 150.28125 541.582031 184.894531 C 540.5625 219.507812 565.203125 226.636719 571.445312 224.09375 C 571.445312 224.09375 563.449219 222.5625 565.992188 214.421875 C 568.539062 206.273438 583.796875 213.320312 578.707031 224.558594 C 573.621094 235.796875 547.175781 230.710938 537.003906 201.691406 C 530.300781 182.566406 532.152344 162.777344 542.539062 146.265625 C 533.765625 151.613281 524.371094 156.210938 513.527344 159.1875 C 494.371094 164.453125 474.054688 164.09375 456.625 161.804688 C 451.410156 163.757812 442.21875 168.644531 426.25 167.695312 C 406.359375 166.507812 380.578125 137.660156 380.578125 137.660156 C 387.867188 140.664062 395.992188 133.539062 420.085938 135.199219 C 442.90625 136.765625 458.105469 158.5 459.660156 160.808594 C 478.960938 161.644531 506.648438 159.570312 528.660156 144.882812 C 560.003906 123.96875 586.730469 97.855469 625.09375 92.386719 C 585.132812 87.027344 555.59375 59.453125 554.589844 37.496094 C 553.363281 10.53125 571.21875 1.96875 589.605469 10.53125 C 607.996094 19.089844 606.714844 43.917969 594.742188 47.339844 C 582.761719 50.769531 581.054688 34.496094 587.039062 31.933594 C 593.027344 29.363281 595.59375 35.355469 595.59375 35.355469 C 600.726562 26.367188 593.882812 11.382812 577.632812 13.097656 C 569.105469 13.992188 563.066406 23.257812 563.0625 34.890625 C 569.125 37.589844 568.222656 46.058594 568.222656 46.058594 C 568.65625 39.203125 575.066406 38.777344 575.066406 38.777344 C 572.5 59.324219 591.414062 74.972656 591.421875 74.972656 C 611.828125 86.199219 637.511719 90.355469 648.496094 91.695312 C 649.183594 91.746094 649.875 91.800781 650.574219 91.871094 C 651.699219 91.972656 652.792969 92.109375 653.878906 92.246094 C 660.527344 93.125 666.359375 94.640625 671.46875 96.636719 L 671.46875 96.632812 C 672.300781 84.496094 680.453125 90.691406 680.453125 90.691406 C 682.070312 88.359375 684.609375 87.347656 684.609375 87.347656 C 687.335938 96.605469 696.8125 116.25 696.8125 116.25 C 706.140625 129.683594 707.144531 144.277344 706.5 148.113281 C 706.765625 144.863281 702.460938 97.792969 642.164062 99.863281 Z M 706.5 148.113281 C 706.492188 148.15625 706.488281 148.214844 706.484375 148.25 C 706.488281 148.21875 706.492188 148.171875 706.5 148.113281 Z M 706.648438 55.007812 C 711.070312 48.183594 706.648438 28.332031 706.648438 28.332031 C 705.191406 33.414062 706.648438 55.007812 706.648438 55.007812 Z M 695.035156 53.410156 C 695.035156 53.410156 694.308594 31.960938 708.105469 23.242188 C 708.105469 23.242188 717.179688 39.296875 718.269531 53.300781 C 718.269531 53.300781 708.105469 58.152344 708.105469 63.574219 C 708.105469 63.574219 699.390625 53.421875 695.035156 53.410156 Z M 679.789062 61.390625 C 692.128906 61.03125 702.300781 75.753906 702.300781 75.753906 C 692.496094 56.683594 679.789062 61.390625 679.789062 61.390625 Z M 669.625 63.210938 C 669.625 63.210938 689.585938 41.351562 708.105469 68.996094 C 708.105469 68.996094 703.382812 83.027344 704.472656 89.652344 C 704.472656 89.652344 689.226562 66.480469 669.625 63.210938 Z M 713.550781 86.039062 C 723.351562 62.359375 738.796875 51.945312 738.796875 51.945312 C 717.578125 53.761719 713.261719 86.734375 713.550781 86.039062 Z M 708.105469 108.140625 C 708.105469 108.140625 708.105469 64.296875 722.398438 53.300781 C 736.691406 42.300781 752.65625 50.492188 752.65625 50.492188 C 727.5 66.847656 708.105469 108.140625 708.105469 108.140625 Z M 761.457031 110.910156 C 741.882812 112.84375 721.394531 144.972656 721.394531 144.972656 C 734.597656 132.210938 759.632812 130.390625 768.4375 129.84375 C 777.230469 129.296875 781.027344 108.976562 761.457031 110.910156 Z M 988.394531 205.144531 C 988.394531 205.144531 980.832031 195.613281 977.472656 185.515625 C 974.109375 175.417969 962.515625 171.492188 962.515625 171.492188 C 964.941406 172.617188 973.828125 183.828125 978.59375 194.210938 C 983.355469 204.585938 988.394531 205.144531 988.394531 205.144531 Z M 983.632812 179.203125 C 985.773438 182.828125 995.359375 208.703125 995.359375 208.703125 C 972.25 213.617188 968.019531 200.875 962.808594 188.808594 C 957.589844 176.742188 949.644531 168.738281 949.644531 168.738281 C 964.582031 168.039062 978.1875 169.984375 983.632812 179.203125 Z M 962.554688 148.734375 C 970.9375 139.738281 974.671875 135.023438 977.191406 129.84375 C 979.710938 124.652344 983.074219 110.910156 983.074219 110.910156 C 983.074219 110.910156 976.351562 122.410156 974.667969 129.984375 C 973.042969 137.304688 963.199219 148.039062 962.554688 148.734375 Z M 951.753906 158.429688 C 950.601562 158.707031 956.96875 148.394531 959.335938 135.960938 C 961.703125 123.519531 971.144531 106.765625 987.238281 106.6875 C 987.238281 106.6875 984.476562 116.640625 984.628906 128.585938 C 984.785156 140.308594 970.074219 154.003906 951.753906 158.429688 Z M 715.816406 148.113281 C 715.820312 148.171875 715.828125 148.21875 715.832031 148.25 C 715.828125 148.214844 715.820312 148.15625 715.816406 148.113281 Z M 1026.226562 142.324219 C 998.203125 144.285156 974.667969 158.300781 974.667969 158.300781 C 987.273438 159.132812 1026.226562 142.324219 1026.226562 142.324219 Z M 1041.738281 137.660156 C 1041.738281 137.660156 1015.957031 166.507812 996.066406 167.695312 C 980.09375 168.644531 970.910156 163.757812 965.6875 161.804688 C 948.261719 164.09375 927.945312 164.453125 908.78125 159.1875 C 897.945312 156.210938 888.550781 151.613281 879.78125 146.265625 C 890.160156 162.777344 892.015625 182.566406 885.3125 201.691406 C 875.140625 230.710938 848.695312 235.796875 843.605469 224.558594 C 838.519531 213.320312 853.777344 206.273438 856.324219 214.421875 C 858.863281 222.5625 850.871094 224.09375 850.871094 224.09375 C 857.113281 226.636719 881.753906 219.507812 880.734375 184.894531 C 879.71875 150.28125 851.019531 126.371094 850.871094 126.265625 C 850.871094 126.265625 850.863281 126.261719 850.863281 126.261719 C 831.988281 112.988281 811.5 100.9375 780.152344 99.863281 C 719.851562 97.792969 715.546875 144.863281 715.816406 148.113281 C 715.171875 144.277344 716.171875 129.683594 725.5 116.25 C 725.5 116.25 734.980469 96.605469 737.707031 87.347656 C 737.707031 87.347656 740.242188 88.359375 741.859375 90.691406 C 741.859375 90.691406 750.015625 84.496094 750.851562 96.632812 L 750.847656 96.636719 C 755.957031 94.640625 761.789062 93.125 768.4375 92.246094 C 769.519531 92.109375 770.617188 91.972656 771.742188 91.871094 C 772.4375 91.800781 773.132812 91.746094 773.824219 91.695312 C 784.804688 90.355469 810.488281 86.199219 830.894531 74.972656 C 830.898438 74.972656 849.816406 59.324219 847.25 38.777344 C 847.25 38.777344 853.660156 39.203125 854.09375 46.058594 C 854.09375 46.058594 853.1875 37.589844 859.253906 34.890625 C 859.246094 23.257812 853.210938 13.992188 844.679688 13.097656 C 828.429688 11.382812 821.585938 26.367188 826.722656 35.355469 C 826.722656 35.355469 829.289062 29.363281 835.273438 31.933594 C 841.261719 34.496094 839.550781 50.769531 827.574219 47.339844 C 815.601562 43.917969 814.320312 19.089844 832.707031 10.53125 C 851.097656 1.96875 868.953125 10.53125 867.722656 37.496094 C 866.722656 59.453125 837.179688 87.027344 797.222656 92.386719 C 835.585938 97.855469 862.308594 123.96875 893.652344 144.882812 C 915.667969 159.570312 943.355469 161.644531 962.65625 160.808594 C 964.207031 158.5 979.40625 136.765625 1002.226562 135.199219 C 1026.328125 133.539062 1034.449219 140.664062 1041.738281 137.660156 Z M 845.699219 136.863281 C 848.125 145.53125 850.285156 153.84375 849.679688 166.535156 C 849.082031 179.222656 853.519531 181.652344 853.519531 181.652344 C 849.207031 176.253906 854.597656 167.34375 853.519531 155.464844 C 852.445312 143.585938 845.699219 134.945312 845.699219 134.945312 Z M 837.875 157.894531 C 840.84375 145.746094 842.132812 123.878906 842.132812 123.878906 C 856.640625 133.597656 863.773438 158.972656 861.34375 165.722656 C 858.917969 172.472656 857.835938 187.050781 857.835938 187.050781 C 840.039062 184.082031 834.910156 170.039062 837.875 157.894531 Z M 824.660156 132.480469 C 817.109375 137.644531 814.136719 146.285156 814.136719 153.574219 C 814.136719 153.574219 823.582031 147.90625 829.246094 145.746094 C 834.910156 143.585938 837.875 126.578125 837.875 120.367188 C 837.875 120.367188 832.210938 127.316406 824.660156 132.480469 Z M 906.660156 122.796875 C 898.296875 127.925781 889.253906 132.246094 889.253906 132.246094 C 889.253906 132.246094 896.949219 134.109375 904.769531 127.371094 C 910.074219 122.808594 914.339844 120.117188 916.992188 119.085938 C 919.226562 118.832031 920.296875 119.0625 919.609375 118.707031 C 919.144531 118.46875 918.25 118.59375 916.992188 119.085938 C 914.625 119.355469 910.957031 120.160156 906.660156 122.796875 Z M 902.882812 116.25 C 916.097656 112.410156 926.082031 117.398438 926.082031 117.398438 C 915.023438 119.554688 915.289062 131.703125 898.566406 135.753906 C 881.839844 139.804688 877.796875 131.4375 877.816406 131.4375 C 888.066406 130.992188 889.664062 120.097656 902.882812 116.25 Z M 866.199219 112.808594 C 866.199219 112.808594 878.605469 112.347656 890.203125 100.566406 C 890.203125 100.566406 868.359375 112.808594 866.199219 112.808594 Z M 850.871094 111.460938 C 860.085938 111.726562 867.003906 102.820312 880.496094 97.417969 C 893.984375 92.019531 904.769531 97.417969 904.769531 97.417969 C 898.566406 97.6875 890.746094 113.347656 876.449219 117.667969 C 862.148438 121.984375 850.871094 111.460938 850.871094 111.460938 Z M 866.199219 71.230469 C 866.199219 71.230469 859.183594 75.546875 853.792969 81.21875 C 848.394531 86.890625 835.175781 97.417969 835.175781 97.417969 C 836.257812 97.417969 848.9375 92.289062 857.570312 81.757812 C 866.199219 71.230469 866.199219 71.230469 866.199219 71.230469 Z M 875.101562 68.316406 C 864.851562 72.695312 865.121094 88.777344 849.742188 96.605469 C 834.371094 104.4375 825.738281 98.230469 825.738281 98.230469 C 830.703125 97.832031 843.269531 83.113281 852.714844 73.117188 C 862.148438 63.128906 875.101562 68.316406 875.101562 68.316406 Z M 809.53125 72.390625 C 797.324219 81.042969 757.144531 86.136719 757.144531 86.136719 C 789.695312 77.480469 801.390625 57.628906 806.988281 56.609375 C 812.582031 55.589844 821.738281 63.734375 809.53125 72.390625 " clip-rule="nonzero"/></clipPath><clipPath id="0c13756147"><path d="M 396.664062 -94.613281 L 346.296875 224.667969 L 1025.652344 332.035156 L 1076.019531 12.753906 Z M 396.664062 -94.613281 " clip-rule="nonzero"/></clipPath><radialGradient gradientTransform="matrix(0.987311, 0.15604, -0.155898, 0.988213, 713.394232, 102.708804)" gradientUnits="userSpaceOnUse" r="289.170306" cx="0" id="5761253ea3" cy="0" fx="0" fy="0"><stop stop-opacity="1" stop-color="rgb(95.503235%, 88.804626%, 37.103271%)" offset="0"/><stop stop-opacity="1" stop-color="rgb(95.303345%, 88.60321%, 36.903381%)" offset="0.0078125"/><stop stop-opacity="1" stop-color="rgb(95.298767%, 88.598633%, 36.717224%)" offset="0.0117188"/><stop stop-opacity="1" stop-color="rgb(95.121765%, 88.421631%, 36.517334%)" offset="0.015625"/><stop stop-opacity="1" stop-color="rgb(94.900513%, 88.021851%, 36.499023%)" offset="0.0195312"/><stop stop-opacity="1" stop-color="rgb(94.659424%, 87.785339%, 36.482239%)" offset="0.0234375"/><stop stop-opacity="1" stop-color="rgb(94.281006%, 87.631226%, 36.282349%)" offset="0.0273438"/><stop stop-opacity="1" stop-color="rgb(94.099426%, 87.295532%, 36.099243%)" offset="0.03125"/><stop stop-opacity="1" stop-color="rgb(94.099426%, 87.098694%, 36.099243%)" offset="0.0429688"/><stop stop-opacity="1" stop-color="rgb(93.910217%, 87.098694%, 35.910034%)" offset="0.046875"/><stop stop-opacity="1" stop-color="rgb(93.710327%, 86.914062%, 35.710144%)" offset="0.0507812"/><stop stop-opacity="1" stop-color="rgb(93.699646%, 86.714172%, 35.519409%)" offset="0.0546875"/><stop stop-opacity="1" stop-color="rgb(93.699646%, 86.523438%, 35.319519%)" offset="0.0585938"/><stop stop-opacity="1" stop-color="rgb(93.499756%, 86.303711%, 35.27832%)" offset="0.0625"/><stop stop-opacity="1" stop-color="rgb(93.299866%, 86.077881%, 35.07843%)" offset="0.0664062"/><stop stop-opacity="1" stop-color="rgb(93.287659%, 85.888672%, 34.899902%)" offset="0.0703125"/><stop stop-opacity="1" stop-color="rgb(93.087769%, 85.688782%, 34.899902%)" offset="0.0742188"/><stop stop-opacity="1" stop-color="rgb(92.89856%, 85.499573%, 34.898376%)" offset="0.078125"/><stop stop-opacity="1" stop-color="rgb(92.89856%, 85.499573%, 34.701538%)" offset="0.0820312"/><stop stop-opacity="1" stop-color="rgb(92.89856%, 85.307312%, 34.501648%)" offset="0.0859375"/><stop stop-opacity="1" stop-color="rgb(92.710876%, 85.107422%, 34.310913%)" offset="0.0898438"/><stop stop-opacity="1" stop-color="rgb(92.510986%, 84.916687%, 34.111023%)" offset="0.09375"/><stop stop-opacity="1" stop-color="rgb(92.498779%, 84.715271%, 34.098816%)" offset="0.0976562"/><stop stop-opacity="1" stop-color="rgb(92.480469%, 84.498596%, 34.075928%)" offset="0.101562"/><stop stop-opacity="1" stop-color="rgb(92.330933%, 84.280396%, 33.876038%)" offset="0.105469"/><stop stop-opacity="1" stop-color="rgb(92.199707%, 84.080505%, 33.699036%)" offset="0.109375"/><stop stop-opacity="1" stop-color="rgb(92.199707%, 83.889771%, 33.68988%)" offset="0.113281"/><stop stop-opacity="1" stop-color="rgb(92.195129%, 83.68988%, 33.48999%)" offset="0.117188"/><stop stop-opacity="1" stop-color="rgb(91.995239%, 83.36792%, 33.16803%)" offset="0.121094"/><stop stop-opacity="1" stop-color="rgb(91.799927%, 83.172607%, 32.972717%)" offset="0.132812"/><stop stop-opacity="1" stop-color="rgb(91.618347%, 83.103943%, 32.904053%)" offset="0.136719"/><stop stop-opacity="1" stop-color="rgb(91.416931%, 82.922363%, 32.899475%)" offset="0.140625"/><stop stop-opacity="1" stop-color="rgb(91.19873%, 82.705688%, 32.876587%)" offset="0.144531"/><stop stop-opacity="1" stop-color="rgb(90.982056%, 82.531738%, 32.676697%)" offset="0.148438"/><stop stop-opacity="1" stop-color="rgb(90.782166%, 82.38678%, 32.499695%)" offset="0.152344"/><stop stop-opacity="1" stop-color="rgb(90.59906%, 82.18689%, 32.493591%)" offset="0.15625"/><stop stop-opacity="1" stop-color="rgb(90.59906%, 81.996155%, 32.342529%)" offset="0.160156"/><stop stop-opacity="1" stop-color="rgb(90.59906%, 81.797791%, 32.199097%)" offset="0.164062"/><stop stop-opacity="1" stop-color="rgb(90.405273%, 81.600952%, 32.199097%)" offset="0.167969"/><stop stop-opacity="1" stop-color="rgb(90.205383%, 81.410217%, 32.009888%)" offset="0.171875"/><stop stop-opacity="1" stop-color="rgb(90.19928%, 81.210327%, 31.809998%)" offset="0.175781"/><stop stop-opacity="1" stop-color="rgb(90.19928%, 81.019592%, 31.799316%)" offset="0.179688"/><stop stop-opacity="1" stop-color="rgb(90.023804%, 80.819702%, 31.799316%)" offset="0.183594"/><stop stop-opacity="1" stop-color="rgb(89.804077%, 80.59845%, 31.599426%)" offset="0.1875"/><stop stop-opacity="1" stop-color="rgb(89.578247%, 80.383301%, 31.399536%)" offset="0.191406"/><stop stop-opacity="1" stop-color="rgb(89.387512%, 80.183411%, 31.387329%)" offset="0.195312"/><stop stop-opacity="1" stop-color="rgb(89.187622%, 79.992676%, 31.187439%)" offset="0.199219"/><stop stop-opacity="1" stop-color="rgb(88.999939%, 79.792786%, 30.999756%)" offset="0.203125"/><stop stop-opacity="1" stop-color="rgb(88.999939%, 79.598999%, 30.999756%)" offset="0.207031"/><stop stop-opacity="1" stop-color="rgb(88.999939%, 79.406738%, 30.807495%)" offset="0.210938"/><stop stop-opacity="1" stop-color="rgb(88.812256%, 79.206848%, 30.607605%)" offset="0.214844"/><stop stop-opacity="1" stop-color="rgb(88.61084%, 79.016113%, 30.41687%)" offset="0.21875"/><stop stop-opacity="1" stop-color="rgb(88.598633%, 78.816223%, 30.215454%)" offset="0.222656"/><stop stop-opacity="1" stop-color="rgb(88.575745%, 78.599548%, 30.175781%)" offset="0.226562"/><stop stop-opacity="1" stop-color="rgb(88.375854%, 78.379822%, 29.975891%)" offset="0.230469"/><stop stop-opacity="1" stop-color="rgb(88.18512%, 78.179932%, 29.798889%)" offset="0.234375"/><stop stop-opacity="1" stop-color="rgb(87.985229%, 77.999878%, 29.798889%)" offset="0.238281"/><stop stop-opacity="1" stop-color="rgb(87.796021%, 77.993774%, 29.794312%)" offset="0.242188"/><stop stop-opacity="1" stop-color="rgb(87.646484%, 77.793884%, 29.594421%)" offset="0.246094"/><stop stop-opacity="1" stop-color="rgb(87.306213%, 77.453613%, 29.205322%)" offset="0.25"/><stop stop-opacity="1" stop-color="rgb(87.106323%, 77.116394%, 29.005432%)" offset="0.261719"/><stop stop-opacity="1" stop-color="rgb(87.001038%, 76.812744%, 28.900146%)" offset="0.269531"/><stop stop-opacity="1" stop-color="rgb(86.801147%, 76.591492%, 28.700256%)" offset="0.273438"/><stop stop-opacity="1" stop-color="rgb(86.694336%, 76.286316%, 28.594971%)" offset="0.277344"/><stop stop-opacity="1" stop-color="rgb(86.495972%, 75.895691%, 28.396606%)" offset="0.285156"/><stop stop-opacity="1" stop-color="rgb(86.299133%, 75.505066%, 28.005981%)" offset="0.292969"/><stop stop-opacity="1" stop-color="rgb(86.108398%, 75.114441%, 27.804565%)" offset="0.300781"/><stop stop-opacity="1" stop-color="rgb(85.809326%, 74.809265%, 27.723694%)" offset="0.308594"/><stop stop-opacity="1" stop-color="rgb(85.598755%, 74.598694%, 27.46582%)" offset="0.3125"/><stop stop-opacity="1" stop-color="rgb(85.395813%, 74.395752%, 27.191162%)" offset="0.320312"/><stop stop-opacity="1" stop-color="rgb(85.195923%, 74.098206%, 27.000427%)" offset="0.328125"/><stop stop-opacity="1" stop-color="rgb(85.005188%, 73.707581%, 26.800537%)" offset="0.335938"/><stop stop-opacity="1" stop-color="rgb(84.814453%, 73.414612%, 26.699829%)" offset="0.34375"/><stop stop-opacity="1" stop-color="rgb(84.707642%, 73.205566%, 26.699829%)" offset="0.347656"/><stop stop-opacity="1" stop-color="rgb(84.686279%, 72.98584%, 26.687622%)" offset="0.351562"/><stop stop-opacity="1" stop-color="rgb(84.480286%, 72.68219%, 26.480103%)" offset="0.355469"/><stop stop-opacity="1" stop-color="rgb(84.089661%, 72.340393%, 26.091003%)" offset="0.363281"/><stop stop-opacity="1" stop-color="rgb(83.699036%, 71.998596%, 25.898743%)" offset="0.371094"/><stop stop-opacity="1" stop-color="rgb(83.500671%, 71.607971%, 25.704956%)" offset="0.378906"/><stop stop-opacity="1" stop-color="rgb(83.309937%, 71.217346%, 25.505066%)" offset="0.386719"/><stop stop-opacity="1" stop-color="rgb(83.110046%, 71.009827%, 25.39978%)" offset="0.394531"/><stop stop-opacity="1" stop-color="rgb(82.992554%, 70.892334%, 25.19989%)" offset="0.398438"/><stop stop-opacity="1" stop-color="rgb(82.792664%, 70.591736%, 25.099182%)" offset="0.40625"/><stop stop-opacity="1" stop-color="rgb(82.626343%, 70.297241%, 25.001526%)" offset="0.414062"/><stop stop-opacity="1" stop-color="rgb(82.476807%, 70.106506%, 24.710083%)" offset="0.421875"/><stop stop-opacity="1" stop-color="rgb(82.398987%, 69.917297%, 24.417114%)" offset="0.429688"/><stop stop-opacity="1" stop-color="rgb(82.298279%, 69.709778%, 24.308777%)" offset="0.433594"/><stop stop-opacity="1" stop-color="rgb(82.098389%, 69.488525%, 24.28894%)" offset="0.4375"/><stop stop-opacity="1" stop-color="rgb(81.993103%, 69.18335%, 24.082947%)" offset="0.441406"/><stop stop-opacity="1" stop-color="rgb(81.793213%, 68.792725%, 23.692322%)" offset="0.449219"/><stop stop-opacity="1" stop-color="rgb(81.407166%, 68.406677%, 23.3078%)" offset="0.464844"/><stop stop-opacity="1" stop-color="rgb(81.207275%, 68.106079%, 23.10791%)" offset="0.472656"/><stop stop-opacity="1" stop-color="rgb(81.089783%, 67.814636%, 22.988892%)" offset="0.476562"/><stop stop-opacity="1" stop-color="rgb(80.784607%, 67.462158%, 22.789001%)" offset="0.484375"/><stop stop-opacity="1" stop-color="rgb(80.493164%, 67.094421%, 22.624207%)" offset="0.492188"/><stop stop-opacity="1" stop-color="rgb(80.39856%, 66.798401%, 22.47467%)" offset="0.5"/><stop stop-opacity="1" stop-color="rgb(80.212402%, 66.513062%, 22.399902%)" offset="0.507812"/><stop stop-opacity="1" stop-color="rgb(80.012512%, 66.313171%, 22.218323%)" offset="0.511719"/><stop stop-opacity="1" stop-color="rgb(79.821777%, 66.122437%, 22.016907%)" offset="0.515625"/><stop stop-opacity="1" stop-color="rgb(79.484558%, 65.783691%, 21.861267%)" offset="0.519531"/><stop stop-opacity="1" stop-color="rgb(79.26178%, 65.560913%, 21.661377%)" offset="0.53125"/><stop stop-opacity="1" stop-color="rgb(79.199219%, 65.306091%, 21.598816%)" offset="0.542969"/><stop stop-opacity="1" stop-color="rgb(79.01001%, 65.104675%, 21.598816%)" offset="0.546875"/><stop stop-opacity="1" stop-color="rgb(78.81012%, 64.91394%, 21.598816%)" offset="0.550781"/><stop stop-opacity="1" stop-color="rgb(78.799438%, 64.71405%, 21.418762%)" offset="0.554688"/><stop stop-opacity="1" stop-color="rgb(78.623962%, 64.523315%, 21.218872%)" offset="0.558594"/><stop stop-opacity="1" stop-color="rgb(78.40271%, 64.303589%, 21.179199%)" offset="0.5625"/><stop stop-opacity="1" stop-color="rgb(78.178406%, 64.073181%, 20.973206%)" offset="0.566406"/><stop stop-opacity="1" stop-color="rgb(77.807617%, 63.693237%, 20.593262%)" offset="0.578125"/><stop stop-opacity="1" stop-color="rgb(77.606201%, 63.311768%, 20.211792%)" offset="0.589844"/><stop stop-opacity="1" stop-color="rgb(77.598572%, 63.111877%, 20.011902%)" offset="0.59375"/><stop stop-opacity="1" stop-color="rgb(77.598572%, 62.921143%, 19.999695%)" offset="0.597656"/><stop stop-opacity="1" stop-color="rgb(77.449036%, 62.702942%, 19.799805%)" offset="0.601562"/><stop stop-opacity="1" stop-color="rgb(77.279663%, 62.532043%, 19.599915%)" offset="0.605469"/><stop stop-opacity="1" stop-color="rgb(77.079773%, 62.385559%, 19.584656%)" offset="0.609375"/><stop stop-opacity="1" stop-color="rgb(76.899719%, 62.185669%, 19.384766%)" offset="0.613281"/><stop stop-opacity="1" stop-color="rgb(76.899719%, 61.994934%, 19.198608%)" offset="0.617188"/><stop stop-opacity="1" stop-color="rgb(76.899719%, 61.795044%, 19.198608%)" offset="0.621094"/><stop stop-opacity="1" stop-color="rgb(76.704407%, 61.599731%, 19.003296%)" offset="0.625"/><stop stop-opacity="1" stop-color="rgb(76.504517%, 61.413574%, 18.803406%)" offset="0.628906"/><stop stop-opacity="1" stop-color="rgb(76.318359%, 61.032104%, 18.617249%)" offset="0.636719"/><stop stop-opacity="1" stop-color="rgb(75.941467%, 60.816956%, 18.417358%)" offset="0.640625"/><stop stop-opacity="1" stop-color="rgb(75.721741%, 60.588074%, 18.199158%)" offset="0.644531"/><stop stop-opacity="1" stop-color="rgb(75.692749%, 60.188293%, 17.993164%)" offset="0.648438"/><stop stop-opacity="1" stop-color="rgb(75.492859%, 59.997559%, 17.793274%)" offset="0.65625"/><stop stop-opacity="1" stop-color="rgb(75.299072%, 59.80072%, 17.599487%)" offset="0.664062"/><stop stop-opacity="1" stop-color="rgb(75.106812%, 59.410095%, 17.454529%)" offset="0.671875"/><stop stop-opacity="1" stop-color="rgb(74.906921%, 59.01947%, 17.304993%)" offset="0.679688"/><stop stop-opacity="1" stop-color="rgb(74.801636%, 58.714294%, 17.201233%)" offset="0.6875"/><stop stop-opacity="1" stop-color="rgb(74.594116%, 58.493042%, 17.001343%)" offset="0.691406"/><stop stop-opacity="1" stop-color="rgb(74.291992%, 58.190918%, 16.896057%)" offset="0.695312"/><stop stop-opacity="1" stop-color="rgb(74.099731%, 57.998657%, 16.697693%)" offset="0.703125"/><stop stop-opacity="1" stop-color="rgb(73.907471%, 57.806396%, 16.500854%)" offset="0.710938"/><stop stop-opacity="1" stop-color="rgb(73.707581%, 57.606506%, 16.316223%)" offset="0.714844"/><stop stop-opacity="1" stop-color="rgb(73.521423%, 57.4646%, 16.116333%)" offset="0.722656"/><stop stop-opacity="1" stop-color="rgb(73.309326%, 57.302856%, 15.887451%)" offset="0.726562"/><stop stop-opacity="1" stop-color="rgb(73.086548%, 57.080078%, 15.487671%)" offset="0.730469"/><stop stop-opacity="1" stop-color="rgb(72.895813%, 56.689453%, 15.296936%)" offset="0.738281"/><stop stop-opacity="1" stop-color="rgb(72.698975%, 56.298828%, 15.098572%)" offset="0.746094"/><stop stop-opacity="1" stop-color="rgb(72.50061%, 55.909729%, 14.900208%)" offset="0.753906"/><stop stop-opacity="1" stop-color="rgb(72.499084%, 55.708313%, 14.898682%)" offset="0.757812"/><stop stop-opacity="1" stop-color="rgb(72.499084%, 55.699158%, 14.717102%)" offset="0.761719"/><stop stop-opacity="1" stop-color="rgb(72.499084%, 55.699158%, 14.517212%)" offset="0.765625"/><stop stop-opacity="1" stop-color="rgb(72.348022%, 55.499268%, 14.477539%)" offset="0.769531"/><stop stop-opacity="1" stop-color="rgb(72.198486%, 55.299377%, 14.277649%)" offset="0.773438"/><stop stop-opacity="1" stop-color="rgb(72.186279%, 55.28717%, 14.099121%)" offset="0.777344"/><stop stop-opacity="1" stop-color="rgb(71.986389%, 55.079651%, 14.091492%)" offset="0.78125"/><stop stop-opacity="1" stop-color="rgb(71.795654%, 54.692078%, 13.891602%)" offset="0.785156"/><stop stop-opacity="1" stop-color="rgb(71.59729%, 54.499817%, 13.699341%)" offset="0.789062"/><stop stop-opacity="1" stop-color="rgb(71.400452%, 54.304504%, 13.504028%)" offset="0.792969"/><stop stop-opacity="1" stop-color="rgb(71.398926%, 54.103088%, 13.304138%)" offset="0.804688"/><stop stop-opacity="1" stop-color="rgb(71.398926%, 53.923035%, 13.299561%)" offset="0.808594"/><stop stop-opacity="1" stop-color="rgb(71.188354%, 53.713989%, 13.09967%)" offset="0.8125"/><stop stop-opacity="1" stop-color="rgb(70.788574%, 53.483582%, 12.89978%)" offset="0.816406"/><stop stop-opacity="1" stop-color="rgb(70.597839%, 53.092957%, 12.898254%)" offset="0.824219"/><stop stop-opacity="1" stop-color="rgb(70.402527%, 52.702332%, 12.702942%)" offset="0.832031"/><stop stop-opacity="1" stop-color="rgb(70.011902%, 52.359009%, 12.503052%)" offset="0.839844"/><stop stop-opacity="1" stop-color="rgb(69.807434%, 52.104187%, 12.5%)" offset="0.847656"/><stop stop-opacity="1" stop-color="rgb(69.787598%, 51.885986%, 12.5%)" offset="0.851562"/><stop stop-opacity="1" stop-color="rgb(69.584656%, 51.585388%, 12.348938%)" offset="0.855469"/><stop stop-opacity="1" stop-color="rgb(69.198608%, 51.199341%, 12.199402%)" offset="0.871094"/><stop stop-opacity="1" stop-color="rgb(69.000244%, 51.000977%, 12.199402%)" offset="0.878906"/><stop stop-opacity="1" stop-color="rgb(68.998718%, 50.813293%, 12.013245%)" offset="0.882812"/><stop stop-opacity="1" stop-color="rgb(68.817139%, 50.613403%, 11.813354%)" offset="0.886719"/><stop stop-opacity="1" stop-color="rgb(68.617249%, 50.59967%, 11.799622%)" offset="0.890625"/><stop stop-opacity="1" stop-color="rgb(68.598938%, 50.39978%, 11.799622%)" offset="0.894531"/><stop stop-opacity="1" stop-color="rgb(68.582153%, 50.18158%, 11.781311%)" offset="0.898438"/><stop stop-opacity="1" stop-color="rgb(68.382263%, 49.969482%, 11.581421%)" offset="0.902344"/><stop stop-opacity="1" stop-color="rgb(68.19458%, 49.581909%, 11.399841%)" offset="0.90625"/><stop stop-opacity="1" stop-color="rgb(67.996216%, 49.195862%, 11.399841%)" offset="0.910156"/><stop stop-opacity="1" stop-color="rgb(67.654419%, 48.999023%, 11.399841%)" offset="0.917969"/><stop stop-opacity="1" stop-color="rgb(67.503357%, 48.808289%, 11.399841%)" offset="0.925781"/><stop stop-opacity="1" stop-color="rgb(67.498779%, 48.509216%, 11.399841%)" offset="0.933594"/><stop stop-opacity="1" stop-color="rgb(67.478943%, 48.298645%, 11.399841%)" offset="0.9375"/><stop stop-opacity="1" stop-color="rgb(67.279053%, 48.182678%, 11.399841%)" offset="0.941406"/><stop stop-opacity="1" stop-color="rgb(67.098999%, 47.982788%, 11.399841%)" offset="0.945312"/><stop stop-opacity="1" stop-color="rgb(67.092896%, 47.795105%, 11.399841%)" offset="0.949219"/><stop stop-opacity="1" stop-color="rgb(66.891479%, 47.644043%, 11.399841%)" offset="0.953125"/><stop stop-opacity="1" stop-color="rgb(66.50238%, 47.302246%, 11.399841%)" offset="0.957031"/><stop stop-opacity="1" stop-color="rgb(66.30249%, 47.102356%, 11.399841%)" offset="0.964844"/><stop stop-opacity="1" stop-color="rgb(66.299438%, 46.920776%, 11.399841%)" offset="0.972656"/><stop stop-opacity="1" stop-color="rgb(66.099548%, 46.708679%, 11.399841%)" offset="0.976562"/><stop stop-opacity="1" stop-color="rgb(65.899658%, 46.577454%, 11.399841%)" offset="0.980469"/><stop stop-opacity="1" stop-color="rgb(65.884399%, 46.374512%, 11.399841%)" offset="0.984375"/><stop stop-opacity="1" stop-color="rgb(65.684509%, 46.084595%, 11.399841%)" offset="0.988281"/><stop stop-opacity="1" stop-color="rgb(65.499878%, 45.899963%, 11.399841%)" offset="1"/></radialGradient><clipPath id="635b51c2fd"><path d="M 373.5625 5 L 1038.8125 5 L 1038.8125 230 L 373.5625 230 Z M 373.5625 5 " clip-rule="nonzero"/></clipPath><clipPath id="8759a0e46e"><path d="M 598.929688 135.820312 L 823.179688 135.820312 L 823.179688 252.070312 L 598.929688 252.070312 Z M 598.929688 135.820312 " clip-rule="nonzero"/></clipPath><clipPath id="35a3758464"><path d="M 602 137 L 820 137 L 820 252.070312 L 602 252.070312 Z M 602 137 " clip-rule="nonzero"/></clipPath></defs><g clip-path="url(#ecc43b9d51)"><path fill="#2b6918" d="M 706.019531 194.078125 C 280.421875 194.078125 -64.589844 261.738281 -64.589844 345.203125 C -64.589844 428.667969 280.421875 496.328125 706.019531 496.328125 C 1131.621094 496.328125 1476.632812 428.667969 1476.632812 345.203125 C 1476.632812 261.738281 1131.621094 194.078125 706.019531 194.078125 " fill-opacity="1" fill-rule="nonzero"/></g><g clip-path="url(#db2b8ed7ae)"><g clip-path="url(#de0aeaf339)"><g clip-path="url(#e12ea2294b)"><g clip-path="url(#0c13756147)"><path fill="url(#5761253ea3)" d="M 396.660156 -94.617188 L 346.292969 224.664062 L 1025.65625 332.035156 L 1076.023438 12.753906 Z M 396.660156 -94.617188 " fill-rule="nonzero"/></g></g></g></g><g clip-path="url(#635b51c2fd)"><path fill="#100f0d" d="M 706.1875 176.507812 C 717.71875 176.507812 706.1875 148.765625 706.1875 148.765625 C 706.1875 148.765625 694.65625 176.507812 706.1875 176.507812 Z M 655.574219 109.835938 C 635.882812 107.894531 639.703125 128.332031 648.554688 128.882812 C 657.410156 129.433594 682.601562 131.265625 695.886719 144.101562 C 695.886719 144.101562 675.273438 111.78125 655.574219 109.835938 Z M 453.273438 170.777344 C 453.273438 170.777344 441.609375 174.730469 438.226562 184.886719 C 434.84375 195.046875 427.234375 204.636719 427.234375 204.636719 C 427.234375 204.636719 432.308594 204.074219 437.097656 193.632812 C 441.890625 183.199219 450.835938 171.910156 453.273438 170.777344 Z M 466.21875 168.011719 C 466.21875 168.011719 458.226562 176.0625 452.980469 188.203125 C 447.738281 200.339844 443.476562 213.160156 420.226562 208.214844 C 420.226562 208.214844 429.875 182.183594 432.027344 178.539062 C 437.503906 169.265625 451.1875 167.304688 466.21875 168.011719 Z M 432.585938 109.835938 C 432.585938 109.835938 435.972656 123.660156 438.507812 128.882812 C 441.042969 134.09375 444.800781 138.839844 453.234375 147.886719 C 452.585938 147.1875 442.679688 136.390625 441.046875 129.023438 C 439.355469 121.40625 432.585938 109.835938 432.585938 109.835938 Z M 431.019531 127.621094 C 431.179688 115.601562 428.398438 105.589844 428.398438 105.589844 C 444.59375 105.667969 454.09375 122.523438 456.472656 135.035156 C 458.855469 147.546875 465.261719 157.921875 464.105469 157.640625 C 445.667969 153.1875 430.867188 139.410156 431.019531 127.621094 Z M 570.8125 134.015625 C 570.8125 134.015625 564.027344 142.707031 562.945312 154.65625 C 561.859375 166.605469 567.285156 175.574219 562.945312 181.003906 C 562.945312 181.003906 567.410156 178.558594 566.808594 165.789062 C 566.199219 153.027344 568.371094 144.664062 570.8125 135.941406 Z M 578.683594 157.105469 C 581.671875 169.328125 576.515625 183.449219 558.601562 186.433594 C 558.601562 186.433594 557.515625 171.769531 555.070312 164.980469 C 552.628906 158.1875 559.800781 132.660156 574.398438 122.882812 C 574.398438 122.882812 575.699219 144.882812 578.683594 157.105469 Z M 591.980469 131.535156 C 584.382812 126.347656 578.683594 119.351562 578.683594 119.351562 C 578.683594 125.597656 581.671875 142.707031 587.367188 144.882812 C 593.070312 147.054688 602.570312 152.757812 602.570312 152.757812 C 602.570312 145.421875 599.582031 136.730469 591.980469 131.535156 Z M 499.082031 118.0625 C 501.746094 119.101562 506.046875 121.804688 511.378906 126.398438 C 519.246094 133.175781 526.992188 131.300781 526.992188 131.300781 C 526.992188 131.300781 517.890625 126.953125 509.476562 121.792969 C 505.152344 119.140625 501.460938 118.332031 499.082031 118.0625 C 497.8125 117.566406 496.914062 117.441406 496.453125 117.679688 C 495.753906 118.039062 496.832031 117.804688 499.082031 118.0625 Z M 489.933594 116.359375 C 489.933594 116.359375 499.980469 111.347656 513.273438 115.210938 C 526.574219 119.078125 528.1875 130.039062 538.496094 130.484375 C 538.519531 130.484375 534.449219 138.90625 517.621094 134.832031 C 500.792969 130.757812 501.0625 118.535156 489.933594 116.359375 Z M 526.035156 99.429688 C 537.703125 111.285156 550.1875 111.746094 550.1875 111.746094 C 548.011719 111.746094 526.035156 99.429688 526.035156 99.429688 Z M 511.378906 96.261719 C 511.378906 96.261719 522.230469 90.832031 535.804688 96.261719 C 549.375 101.699219 556.339844 110.660156 565.613281 110.390625 C 565.613281 110.390625 554.261719 120.976562 539.875 116.636719 C 525.488281 112.289062 517.621094 96.535156 511.378906 96.261719 Z M 558.871094 80.507812 C 567.554688 91.105469 580.316406 96.261719 581.402344 96.261719 C 581.402344 96.261719 568.101562 85.675781 562.667969 79.96875 C 557.242188 74.261719 550.1875 69.921875 550.1875 69.921875 C 550.1875 69.921875 550.1875 69.921875 558.871094 80.507812 Z M 541.230469 66.988281 C 541.230469 66.988281 554.261719 61.769531 563.757812 71.820312 C 573.257812 81.871094 585.902344 96.679688 590.894531 97.078125 C 590.894531 97.078125 582.210938 103.324219 566.746094 95.445312 C 551.273438 87.570312 551.542969 71.390625 541.230469 66.988281 Z M 607.207031 71.085938 C 619.484375 79.792969 659.914062 84.914062 659.914062 84.914062 C 627.164062 76.207031 615.394531 56.234375 609.761719 55.210938 C 604.132812 54.1875 594.925781 62.378906 607.207031 71.085938 Z M 701.5 147.265625 C 701.492188 147.304688 701.488281 147.363281 701.484375 147.398438 C 701.488281 147.367188 701.492188 147.320312 701.5 147.265625 Z M 441.046875 157.511719 C 441.046875 157.511719 417.363281 143.414062 389.167969 141.4375 C 389.167969 141.4375 428.355469 158.347656 441.046875 157.511719 Z M 636.765625 98.722656 C 605.226562 99.804688 584.609375 111.929688 565.617188 125.28125 C 565.617188 125.28125 565.613281 125.285156 565.613281 125.285156 C 565.460938 125.390625 536.585938 149.4375 535.5625 184.265625 C 534.535156 219.089844 559.328125 226.257812 565.613281 223.699219 C 565.613281 223.699219 557.566406 222.160156 560.125 213.96875 C 562.683594 205.777344 578.039062 212.859375 572.917969 224.167969 C 567.800781 235.472656 541.191406 230.355469 530.957031 201.164062 C 524.210938 181.921875 526.074219 162.015625 536.527344 145.402344 C 527.699219 150.785156 518.242188 155.410156 507.335938 158.40625 C 488.058594 163.699219 467.617188 163.339844 450.082031 161.035156 C 444.832031 163.007812 435.585938 167.917969 419.515625 166.960938 C 399.5 165.765625 373.5625 136.746094 373.5625 136.746094 C 380.894531 139.769531 389.070312 132.601562 413.316406 134.273438 C 436.277344 135.847656 451.566406 157.714844 453.132812 160.03125 C 472.554688 160.875 500.410156 158.789062 522.5625 144.011719 C 554.097656 122.976562 580.988281 96.707031 619.589844 91.203125 C 579.382812 85.808594 549.660156 58.070312 548.652344 35.984375 C 547.414062 8.851562 565.382812 0.242188 583.886719 8.851562 C 602.386719 17.46875 601.097656 42.441406 589.050781 45.886719 C 577 49.335938 575.277344 32.96875 581.300781 30.386719 C 587.324219 27.800781 589.910156 33.832031 589.910156 33.832031 C 595.074219 24.785156 588.1875 9.714844 571.835938 11.441406 C 563.257812 12.339844 557.179688 21.660156 557.175781 33.363281 C 563.277344 36.070312 562.367188 44.597656 562.367188 44.597656 C 562.804688 37.699219 569.253906 37.273438 569.253906 37.273438 C 566.671875 57.941406 585.703125 73.6875 585.710938 73.6875 C 606.242188 84.976562 632.085938 89.160156 643.140625 90.503906 C 643.832031 90.558594 644.527344 90.613281 645.226562 90.683594 C 646.363281 90.785156 647.464844 90.921875 648.554688 91.0625 C 655.242188 91.945312 661.109375 93.46875 666.25 95.476562 L 666.25 95.472656 C 667.089844 83.265625 675.292969 89.496094 675.292969 89.496094 C 676.921875 87.152344 679.472656 86.136719 679.472656 86.136719 C 682.21875 95.445312 691.753906 115.210938 691.753906 115.210938 C 701.140625 128.722656 702.148438 143.398438 701.5 147.265625 C 701.769531 143.992188 697.433594 96.644531 636.765625 98.722656 Z M 701.648438 53.597656 C 706.097656 46.734375 701.648438 26.757812 701.648438 26.757812 C 700.183594 31.875 701.648438 53.597656 701.648438 53.597656 Z M 689.964844 51.992188 C 689.964844 51.992188 689.234375 30.414062 703.117188 21.644531 C 703.117188 21.644531 712.246094 37.792969 713.34375 51.882812 C 713.34375 51.882812 703.117188 56.761719 703.117188 62.21875 C 703.117188 62.21875 694.347656 52.003906 689.964844 51.992188 Z M 674.625 60.023438 C 687.039062 59.660156 697.273438 74.472656 697.273438 74.472656 C 687.410156 55.285156 674.625 60.023438 674.625 60.023438 Z M 664.394531 61.851562 C 664.394531 61.851562 684.484375 39.863281 703.117188 67.671875 C 703.117188 67.671875 698.363281 81.785156 699.460938 88.453125 C 699.460938 88.453125 684.121094 65.140625 664.394531 61.851562 Z M 708.59375 84.816406 C 718.457031 60.996094 733.996094 50.519531 733.996094 50.519531 C 712.648438 52.347656 708.300781 85.519531 708.59375 84.816406 Z M 703.117188 107.050781 C 703.117188 107.050781 703.117188 62.945312 717.496094 51.882812 C 731.878906 40.816406 747.941406 49.058594 747.941406 49.058594 C 722.632812 65.507812 703.117188 107.050781 703.117188 107.050781 Z M 756.796875 109.835938 C 737.101562 111.78125 716.488281 144.101562 716.488281 144.101562 C 729.773438 131.265625 754.964844 129.433594 763.820312 128.882812 C 772.671875 128.332031 776.492188 107.894531 756.796875 109.835938 Z M 985.140625 204.636719 C 985.140625 204.636719 977.53125 195.046875 974.148438 184.886719 C 970.765625 174.730469 959.101562 170.777344 959.101562 170.777344 C 961.539062 171.910156 970.484375 183.199219 975.277344 193.632812 C 980.066406 204.074219 985.140625 204.636719 985.140625 204.636719 Z M 980.347656 178.539062 C 982.5 182.183594 992.144531 208.214844 992.144531 208.214844 C 968.894531 213.160156 964.636719 200.339844 959.394531 188.203125 C 954.144531 176.0625 946.148438 168.011719 946.148438 168.011719 C 961.179688 167.304688 974.871094 169.265625 980.347656 178.539062 Z M 959.136719 147.886719 C 967.574219 138.839844 971.332031 134.09375 973.867188 128.882812 C 976.402344 123.660156 979.785156 109.835938 979.785156 109.835938 C 979.785156 109.835938 973.019531 121.40625 971.324219 129.023438 C 969.695312 136.390625 959.789062 147.1875 959.136719 147.886719 Z M 948.269531 157.640625 C 947.113281 157.921875 953.519531 147.546875 955.898438 135.035156 C 958.28125 122.523438 967.78125 105.667969 983.976562 105.589844 C 983.976562 105.589844 981.195312 115.601562 981.351562 127.621094 C 981.507812 139.410156 966.707031 153.1875 948.269531 157.640625 Z M 1023.203125 141.4375 C 995.007812 143.414062 971.324219 157.511719 971.324219 157.511719 C 984.011719 158.347656 1023.203125 141.4375 1023.203125 141.4375 Z M 1038.8125 136.746094 C 1038.8125 136.746094 1012.871094 165.765625 992.859375 166.960938 C 976.789062 167.917969 967.546875 163.007812 962.292969 161.035156 C 944.757812 163.339844 924.316406 163.699219 905.035156 158.40625 C 894.128906 155.410156 884.675781 150.785156 875.851562 145.402344 C 886.296875 162.015625 888.164062 181.921875 881.417969 201.164062 C 871.183594 230.355469 844.574219 235.472656 839.457031 224.167969 C 834.335938 212.859375 849.6875 205.777344 852.25 213.96875 C 854.808594 222.160156 846.761719 223.699219 846.761719 223.699219 C 853.046875 226.257812 877.835938 219.089844 876.8125 184.265625 C 875.789062 149.4375 846.914062 125.390625 846.761719 125.285156 L 846.757812 125.28125 C 827.765625 111.929688 807.148438 99.804688 775.605469 98.722656 C 714.933594 96.644531 710.605469 143.992188 710.875 147.265625 C 710.226562 143.398438 711.234375 128.722656 720.621094 115.210938 C 720.621094 115.210938 730.15625 95.445312 732.902344 86.136719 C 732.902344 86.136719 735.453125 87.152344 737.078125 89.496094 C 737.078125 89.496094 745.285156 83.265625 746.128906 95.472656 L 746.121094 95.476562 C 751.261719 93.46875 757.128906 91.945312 763.820312 91.0625 C 764.910156 90.921875 766.011719 90.785156 767.144531 90.683594 C 767.847656 90.613281 768.542969 90.558594 769.242188 90.503906 C 780.289062 89.160156 806.128906 84.976562 826.664062 73.6875 C 826.671875 73.6875 845.703125 57.941406 843.121094 37.273438 C 843.121094 37.273438 849.570312 37.699219 850.003906 44.597656 C 850.003906 44.597656 849.097656 36.070312 855.199219 33.363281 C 855.191406 21.660156 849.117188 12.339844 840.535156 11.441406 C 824.1875 9.714844 817.300781 24.785156 822.464844 33.832031 C 822.464844 33.832031 825.046875 27.800781 831.070312 30.386719 C 837.097656 32.96875 835.375 49.335938 823.324219 45.886719 C 811.277344 42.441406 809.988281 17.46875 828.488281 8.851562 C 846.992188 0.242188 864.957031 8.851562 863.722656 35.984375 C 862.714844 58.070312 832.988281 85.808594 792.785156 91.203125 C 831.382812 96.707031 858.273438 122.976562 889.8125 144.011719 C 911.960938 158.789062 939.820312 160.875 959.242188 160.03125 C 960.800781 157.714844 976.097656 135.847656 999.058594 134.273438 C 1023.308594 132.601562 1031.480469 139.769531 1038.8125 136.746094 Z M 710.875 147.265625 C 710.878906 147.320312 710.886719 147.367188 710.890625 147.398438 C 710.886719 147.363281 710.878906 147.304688 710.875 147.265625 Z M 841.558594 135.941406 C 844.003906 144.664062 846.175781 153.027344 845.566406 165.789062 C 844.964844 178.558594 849.429688 181.003906 849.429688 181.003906 C 845.089844 175.574219 850.515625 166.605469 849.429688 154.65625 C 848.347656 142.707031 841.558594 134.015625 841.558594 134.015625 Z M 833.6875 157.105469 C 836.675781 144.882812 837.972656 122.882812 837.972656 122.882812 C 852.566406 132.660156 859.746094 158.1875 857.300781 164.980469 C 854.859375 171.769531 853.773438 186.433594 853.773438 186.433594 C 835.863281 183.449219 830.703125 169.328125 833.6875 157.105469 Z M 820.390625 131.535156 C 812.792969 136.730469 809.804688 145.421875 809.804688 152.757812 C 809.804688 152.757812 819.304688 147.054688 825.007812 144.882812 C 830.703125 142.707031 833.6875 125.597656 833.6875 119.351562 C 833.6875 119.351562 827.988281 126.347656 820.390625 131.535156 Z M 902.898438 121.792969 C 894.484375 126.953125 885.382812 131.300781 885.382812 131.300781 C 885.382812 131.300781 893.128906 133.175781 900.996094 126.398438 C 906.332031 121.804688 910.625 119.101562 913.292969 118.0625 C 915.542969 117.804688 916.617188 118.039062 915.929688 117.679688 C 915.460938 117.441406 914.5625 117.566406 913.292969 118.0625 C 910.914062 118.332031 907.222656 119.140625 902.898438 121.792969 Z M 899.097656 115.210938 C 912.394531 111.347656 922.441406 116.359375 922.441406 116.359375 C 911.3125 118.535156 911.582031 130.757812 894.753906 134.832031 C 877.925781 138.90625 873.855469 130.484375 873.875 130.484375 C 884.1875 130.039062 885.800781 119.078125 899.097656 115.210938 Z M 862.1875 111.746094 C 862.1875 111.746094 874.671875 111.285156 886.339844 99.429688 C 886.339844 99.429688 864.359375 111.746094 862.1875 111.746094 Z M 846.761719 110.390625 C 856.035156 110.660156 863 101.699219 876.574219 96.261719 C 890.144531 90.832031 900.996094 96.261719 900.996094 96.261719 C 894.753906 96.535156 886.886719 112.289062 872.5 116.636719 C 858.113281 120.976562 846.761719 110.390625 846.761719 110.390625 Z M 862.1875 69.921875 C 862.1875 69.921875 855.128906 74.261719 849.703125 79.96875 C 844.273438 85.675781 830.972656 96.261719 830.972656 96.261719 C 832.058594 96.261719 844.820312 91.105469 853.503906 80.507812 C 862.1875 69.921875 862.1875 69.921875 862.1875 69.921875 Z M 871.144531 66.988281 C 860.832031 71.390625 861.101562 87.570312 845.628906 95.445312 C 830.164062 103.324219 821.476562 97.078125 821.476562 97.078125 C 826.472656 96.679688 839.117188 81.871094 848.617188 71.820312 C 858.113281 61.769531 871.144531 66.988281 871.144531 66.988281 Z M 805.167969 71.085938 C 792.886719 79.792969 752.457031 84.914062 752.457031 84.914062 C 785.210938 76.207031 796.976562 56.234375 802.613281 55.210938 C 808.242188 54.1875 817.449219 62.378906 805.167969 71.085938 " fill-opacity="1" fill-rule="nonzero"/></g><g clip-path="url(#8759a0e46e)"><path fill="#eaa418" d="M 797.777344 252.058594 L 624.328125 252.058594 C 610.363281 252.058594 598.933594 240.640625 598.933594 226.683594 L 598.933594 161.199219 C 598.933594 147.242188 610.363281 135.824219 624.328125 135.824219 L 797.777344 135.824219 C 811.742188 135.824219 823.167969 147.242188 823.167969 161.199219 L 823.167969 226.683594 C 823.167969 240.640625 811.742188 252.058594 797.777344 252.058594 " fill-opacity="1" fill-rule="nonzero"/></g><g clip-path="url(#35a3758464)"><path fill="#ffbd21" d="M 794.109375 252.058594 L 627.773438 252.058594 C 613.804688 252.058594 602.378906 240.640625 602.378906 226.683594 L 602.378906 162.984375 C 602.378906 149.027344 613.804688 137.605469 627.773438 137.605469 L 794.109375 137.605469 C 808.074219 137.605469 819.5 149.027344 819.5 162.984375 L 819.5 226.683594 C 819.5 240.640625 808.074219 252.058594 794.109375 252.058594 " fill-opacity="1" fill-rule="nonzero"/></g><path fill="#ffbd21" d="M 797.027344 241.410156 L 625.078125 241.410156 C 616.859375 241.410156 610.132812 234.6875 610.132812 226.472656 L 610.132812 159.78125 C 610.132812 151.566406 616.859375 144.84375 625.078125 144.84375 L 797.027344 144.84375 C 805.246094 144.84375 811.972656 151.566406 811.972656 159.78125 L 811.972656 226.472656 C 811.972656 234.6875 805.246094 241.410156 797.027344 241.410156 " fill-opacity="1" fill-rule="nonzero"/><path fill="#ffffff" d="M 805.910156 239.742188 C 805.910156 242.425781 803.734375 244.605469 801.042969 244.605469 C 798.355469 244.605469 796.175781 242.425781 796.175781 239.742188 C 796.175781 237.054688 798.355469 234.875 801.042969 234.875 C 803.734375 234.875 805.910156 237.054688 805.910156 239.742188 " fill-opacity="1" fill-rule="nonzero"/><path fill="#ffffff" d="M 815.152344 230.535156 C 815.152344 233.222656 812.972656 235.402344 810.28125 235.402344 C 807.59375 235.402344 805.414062 233.222656 805.414062 230.535156 C 805.414062 227.847656 807.59375 225.671875 810.28125 225.671875 C 812.972656 225.671875 815.152344 227.847656 815.152344 230.535156 " fill-opacity="1" fill-rule="nonzero"/><path fill="#ffffff" d="M 816.84375 216.769531 C 816.84375 219.457031 814.660156 221.636719 811.972656 221.636719 C 809.285156 221.636719 807.105469 219.457031 807.105469 216.769531 C 807.105469 214.082031 809.285156 211.90625 811.972656 211.90625 C 814.660156 211.90625 816.84375 214.082031 816.84375 216.769531 " fill-opacity="1" fill-rule="nonzero"/><path fill="#ffffff" d="M 816.84375 202.667969 C 816.84375 205.355469 814.660156 207.53125 811.972656 207.53125 C 809.285156 207.53125 807.105469 205.355469 807.105469 202.667969 C 807.105469 199.980469 809.285156 197.800781 811.972656 197.800781 C 814.660156 197.800781 816.84375 199.980469 816.84375 202.667969 " fill-opacity="1" fill-rule="nonzero"/><path fill="#ffffff" d="M 816.84375 188.566406 C 816.84375 191.253906 814.660156 193.429688 811.972656 193.429688 C 809.285156 193.429688 807.105469 191.253906 807.105469 188.566406 C 807.105469 185.878906 809.285156 183.699219 811.972656 183.699219 C 814.660156 183.699219 816.84375 185.878906 816.84375 188.566406 " fill-opacity="1" fill-rule="nonzero"/><path fill="#ffffff" d="M 816.84375 174.460938 C 816.84375 177.148438 814.660156 179.328125 811.972656 179.328125 C 809.285156 179.328125 807.105469 177.148438 807.105469 174.460938 C 807.105469 171.773438 809.285156 169.597656 811.972656 169.597656 C 814.660156 169.597656 816.84375 171.773438 816.84375 174.460938 " fill-opacity="1" fill-rule="nonzero"/><path fill="#ffffff" d="M 816.84375 160.359375 C 816.84375 163.046875 814.660156 165.226562 811.972656 165.226562 C 809.285156 165.226562 807.105469 163.046875 807.105469 160.359375 C 807.105469 157.671875 809.285156 155.492188 811.972656 155.492188 C 814.660156 155.492188 816.84375 157.671875 816.84375 160.359375 " fill-opacity="1" fill-rule="nonzero"/><path fill="#ffffff" d="M 810.511719 148.425781 C 810.511719 151.113281 808.332031 153.292969 805.640625 153.292969 C 802.953125 153.292969 800.773438 151.113281 800.773438 148.425781 C 800.773438 145.738281 802.953125 143.5625 805.640625 143.5625 C 808.332031 143.5625 810.511719 145.738281 810.511719 148.425781 " fill-opacity="1" fill-rule="nonzero"/><path fill="#ffffff" d="M 797.113281 144.84375 C 797.113281 147.53125 794.933594 149.710938 792.246094 149.710938 C 789.558594 149.710938 787.378906 147.53125 787.378906 144.84375 C 787.378906 142.15625 789.558594 139.980469 792.246094 139.980469 C 794.933594 139.980469 797.113281 142.15625 797.113281 144.84375 " fill-opacity="1" fill-rule="nonzero"/><path fill="#ffffff" d="M 783.003906 144.84375 C 783.003906 147.53125 780.820312 149.710938 778.132812 149.710938 C 775.445312 149.710938 773.265625 147.53125 773.265625 144.84375 C 773.265625 142.15625 775.445312 139.980469 778.132812 139.980469 C 780.820312 139.980469 783.003906 142.15625 783.003906 144.84375 " fill-opacity="1" fill-rule="nonzero"/><path fill="#ffffff" d="M 768.890625 144.84375 C 768.890625 147.53125 766.710938 149.710938 764.019531 149.710938 C 761.332031 149.710938 759.152344 147.53125 759.152344 144.84375 C 759.152344 142.15625 761.332031 139.980469 764.019531 139.980469 C 766.710938 139.980469 768.890625 142.15625 768.890625 144.84375 " fill-opacity="1" fill-rule="nonzero"/><path fill="#ffffff" d="M 754.777344 144.84375 C 754.777344 147.53125 752.597656 149.710938 749.910156 149.710938 C 747.222656 149.710938 745.042969 147.53125 745.042969 144.84375 C 745.042969 142.15625 747.222656 139.980469 749.910156 139.980469 C 752.597656 139.980469 754.777344 142.15625 754.777344 144.84375 " fill-opacity="1" fill-rule="nonzero"/><path fill="#ffffff" d="M 740.667969 144.84375 C 740.667969 147.53125 738.484375 149.710938 735.796875 149.710938 C 733.109375 149.710938 730.929688 147.53125 730.929688 144.84375 C 730.929688 142.15625 733.109375 139.980469 735.796875 139.980469 C 738.484375 139.980469 740.667969 142.15625 740.667969 144.84375 " fill-opacity="1" fill-rule="nonzero"/><path fill="#ffffff" d="M 726.554688 144.84375 C 726.554688 147.53125 724.375 149.710938 721.6875 149.710938 C 718.996094 149.710938 716.816406 147.53125 716.816406 144.84375 C 716.816406 142.15625 718.996094 139.980469 721.6875 139.980469 C 724.375 139.980469 726.554688 142.15625 726.554688 144.84375 " fill-opacity="1" fill-rule="nonzero"/><path fill="#ffffff" d="M 712.441406 144.84375 C 712.441406 147.53125 710.261719 149.710938 707.574219 149.710938 C 704.886719 149.710938 702.707031 147.53125 702.707031 144.84375 C 702.707031 142.15625 704.886719 139.980469 707.574219 139.980469 C 710.261719 139.980469 712.441406 142.15625 712.441406 144.84375 " fill-opacity="1" fill-rule="nonzero"/><path fill="#ffffff" d="M 698.332031 144.84375 C 698.332031 147.53125 696.152344 149.710938 693.460938 149.710938 C 690.773438 149.710938 688.59375 147.53125 688.59375 144.84375 C 688.59375 142.15625 690.773438 139.980469 693.460938 139.980469 C 696.152344 139.980469 698.332031 142.15625 698.332031 144.84375 " fill-opacity="1" fill-rule="nonzero"/><path fill="#ffffff" d="M 684.21875 144.84375 C 684.21875 147.53125 682.039062 149.710938 679.351562 149.710938 C 676.660156 149.710938 674.480469 147.53125 674.480469 144.84375 C 674.480469 142.15625 676.660156 139.980469 679.351562 139.980469 C 682.039062 139.980469 684.21875 142.15625 684.21875 144.84375 " fill-opacity="1" fill-rule="nonzero"/><path fill="#ffffff" d="M 670.105469 144.84375 C 670.105469 147.53125 667.925781 149.710938 665.238281 149.710938 C 662.550781 149.710938 660.371094 147.53125 660.371094 144.84375 C 660.371094 142.15625 662.550781 139.980469 665.238281 139.980469 C 667.925781 139.980469 670.105469 142.15625 670.105469 144.84375 " fill-opacity="1" fill-rule="nonzero"/><path fill="#ffffff" d="M 655.996094 144.84375 C 655.996094 147.53125 653.816406 149.710938 651.125 149.710938 C 648.4375 149.710938 646.257812 147.53125 646.257812 144.84375 C 646.257812 142.15625 648.4375 139.980469 651.125 139.980469 C 653.816406 139.980469 655.996094 142.15625 655.996094 144.84375 " fill-opacity="1" fill-rule="nonzero"/><path fill="#ffffff" d="M 641.882812 144.84375 C 641.882812 147.53125 639.703125 149.710938 637.015625 149.710938 C 634.324219 149.710938 632.144531 147.53125 632.144531 144.84375 C 632.144531 142.15625 634.324219 139.980469 637.015625 139.980469 C 639.703125 139.980469 641.882812 142.15625 641.882812 144.84375 " fill-opacity="1" fill-rule="nonzero"/><path fill="#ffffff" d="M 627.9375 145.679688 C 627.9375 148.367188 625.757812 150.546875 623.070312 150.546875 C 620.378906 150.546875 618.199219 148.367188 618.199219 145.679688 C 618.199219 142.992188 620.378906 140.8125 623.070312 140.8125 C 625.757812 140.8125 627.9375 142.992188 627.9375 145.679688 " fill-opacity="1" fill-rule="nonzero"/><path fill="#ffffff" d="M 617.527344 153.710938 C 617.527344 156.398438 615.347656 158.578125 612.65625 158.578125 C 609.96875 158.578125 607.789062 156.398438 607.789062 153.710938 C 607.789062 151.023438 609.96875 148.847656 612.65625 148.847656 C 615.347656 148.847656 617.527344 151.023438 617.527344 153.710938 " fill-opacity="1" fill-rule="nonzero"/><path fill="#ffffff" d="M 615 167.3125 C 615 170 612.820312 172.175781 610.132812 172.175781 C 607.441406 172.175781 605.261719 170 605.261719 167.3125 C 605.261719 164.625 607.441406 162.445312 610.132812 162.445312 C 612.820312 162.445312 615 164.625 615 167.3125 " fill-opacity="1" fill-rule="nonzero"/><path fill="#ffffff" d="M 615 181.414062 C 615 184.101562 612.820312 186.28125 610.132812 186.28125 C 607.441406 186.28125 605.261719 184.101562 605.261719 181.414062 C 605.261719 178.726562 607.441406 176.546875 610.132812 176.546875 C 612.820312 176.546875 615 178.726562 615 181.414062 " fill-opacity="1" fill-rule="nonzero"/><path fill="#ffffff" d="M 615 195.515625 C 615 198.203125 612.820312 200.382812 610.132812 200.382812 C 607.441406 200.382812 605.261719 198.203125 605.261719 195.515625 C 605.261719 192.828125 607.441406 190.652344 610.132812 190.652344 C 612.820312 190.652344 615 192.828125 615 195.515625 " fill-opacity="1" fill-rule="nonzero"/><path fill="#ffffff" d="M 615 209.621094 C 615 212.308594 612.820312 214.484375 610.132812 214.484375 C 607.441406 214.484375 605.261719 212.308594 605.261719 209.621094 C 605.261719 206.933594 607.441406 204.753906 610.132812 204.753906 C 612.820312 204.753906 615 206.933594 615 209.621094 " fill-opacity="1" fill-rule="nonzero"/><path fill="#ffffff" d="M 615 223.722656 C 615 226.410156 612.820312 228.585938 610.132812 228.585938 C 607.441406 228.585938 605.261719 226.410156 605.261719 223.722656 C 605.261719 221.035156 607.441406 218.855469 610.132812 218.855469 C 612.820312 218.855469 615 221.035156 615 223.722656 " fill-opacity="1" fill-rule="nonzero"/><path fill="#ffffff" d="M 619.363281 236.953125 C 619.363281 239.640625 617.183594 241.820312 614.496094 241.820312 C 611.804688 241.820312 609.625 239.640625 609.625 236.953125 C 609.625 234.265625 611.804688 232.089844 614.496094 232.089844 C 617.183594 232.089844 619.363281 234.265625 619.363281 236.953125 " fill-opacity="1" fill-rule="nonzero"/><path fill="#ffffff" d="M 632.554688 241.410156 C 632.554688 244.097656 630.375 246.273438 627.683594 246.273438 C 624.996094 246.273438 622.816406 244.097656 622.816406 241.410156 C 622.816406 238.722656 624.996094 236.542969 627.683594 236.542969 C 630.375 236.542969 632.554688 238.722656 632.554688 241.410156 " fill-opacity="1" fill-rule="nonzero"/><path fill="#ffffff" d="M 646.664062 241.410156 C 646.664062 244.097656 644.484375 246.273438 641.796875 246.273438 C 639.109375 246.273438 636.925781 244.097656 636.925781 241.410156 C 636.925781 238.722656 639.109375 236.542969 641.796875 236.542969 C 644.484375 236.542969 646.664062 238.722656 646.664062 241.410156 " fill-opacity="1" fill-rule="nonzero"/><path fill="#ffffff" d="M 660.777344 241.410156 C 660.777344 244.097656 658.597656 246.273438 655.90625 246.273438 C 653.21875 246.273438 651.039062 244.097656 651.039062 241.410156 C 651.039062 238.722656 653.21875 236.542969 655.90625 236.542969 C 658.597656 236.542969 660.777344 238.722656 660.777344 241.410156 " fill-opacity="1" fill-rule="nonzero"/><path fill="#ffffff" d="M 674.890625 241.410156 C 674.890625 244.097656 672.710938 246.273438 670.019531 246.273438 C 667.332031 246.273438 665.152344 244.097656 665.152344 241.410156 C 665.152344 238.722656 667.332031 236.542969 670.019531 236.542969 C 672.710938 236.542969 674.890625 238.722656 674.890625 241.410156 " fill-opacity="1" fill-rule="nonzero"/><path fill="#ffffff" d="M 689 241.410156 C 689 244.097656 686.820312 246.273438 684.132812 246.273438 C 681.441406 246.273438 679.261719 244.097656 679.261719 241.410156 C 679.261719 238.722656 681.441406 236.542969 684.132812 236.542969 C 686.820312 236.542969 689 238.722656 689 241.410156 " fill-opacity="1" fill-rule="nonzero"/><path fill="#ffffff" d="M 703.113281 241.410156 C 703.113281 244.097656 700.933594 246.273438 698.242188 246.273438 C 695.554688 246.273438 693.375 244.097656 693.375 241.410156 C 693.375 238.722656 695.554688 236.542969 698.242188 236.542969 C 700.933594 236.542969 703.113281 238.722656 703.113281 241.410156 " fill-opacity="1" fill-rule="nonzero"/><path fill="#ffffff" d="M 717.226562 241.410156 C 717.226562 244.097656 715.046875 246.273438 712.355469 246.273438 C 709.667969 246.273438 707.488281 244.097656 707.488281 241.410156 C 707.488281 238.722656 709.667969 236.542969 712.355469 236.542969 C 715.046875 236.542969 717.226562 238.722656 717.226562 241.410156 " fill-opacity="1" fill-rule="nonzero"/><path fill="#ffffff" d="M 731.335938 241.410156 C 731.335938 244.097656 729.15625 246.273438 726.46875 246.273438 C 723.777344 246.273438 721.597656 244.097656 721.597656 241.410156 C 721.597656 238.722656 723.777344 236.542969 726.46875 236.542969 C 729.15625 236.542969 731.335938 238.722656 731.335938 241.410156 " fill-opacity="1" fill-rule="nonzero"/><path fill="#ffffff" d="M 745.449219 241.410156 C 745.449219 244.097656 743.269531 246.273438 740.582031 246.273438 C 737.890625 246.273438 735.710938 244.097656 735.710938 241.410156 C 735.710938 238.722656 737.890625 236.542969 740.582031 236.542969 C 743.269531 236.542969 745.449219 238.722656 745.449219 241.410156 " fill-opacity="1" fill-rule="nonzero"/><path fill="#ffffff" d="M 759.558594 241.410156 C 759.558594 244.097656 757.382812 246.273438 754.691406 246.273438 C 752.003906 246.273438 749.824219 244.097656 749.824219 241.410156 C 749.824219 238.722656 752.003906 236.542969 754.691406 236.542969 C 757.382812 236.542969 759.558594 238.722656 759.558594 241.410156 " fill-opacity="1" fill-rule="nonzero"/><path fill="#ffffff" d="M 773.671875 241.410156 C 773.671875 244.097656 771.492188 246.273438 768.804688 246.273438 C 766.113281 246.273438 763.933594 244.097656 763.933594 241.410156 C 763.933594 238.722656 766.113281 236.542969 768.804688 236.542969 C 771.492188 236.542969 773.671875 238.722656 773.671875 241.410156 " fill-opacity="1" fill-rule="nonzero"/><path fill="#ffffff" d="M 787.785156 241.410156 C 787.785156 244.097656 785.605469 246.273438 782.917969 246.273438 C 780.226562 246.273438 778.046875 244.097656 778.046875 241.410156 C 778.046875 238.722656 780.226562 236.542969 782.917969 236.542969 C 785.605469 236.542969 787.785156 238.722656 787.785156 241.410156 " fill-opacity="1" fill-rule="nonzero"/><path fill="#ffffff" d="M 801.894531 241.410156 C 801.894531 244.097656 799.714844 246.273438 797.027344 246.273438 C 794.339844 246.273438 792.160156 244.097656 792.160156 241.410156 C 792.160156 238.722656 794.339844 236.542969 797.027344 236.542969 C 799.714844 236.542969 801.894531 238.722656 801.894531 241.410156 " fill-opacity="1" fill-rule="nonzero"/><path fill="#d62628" d="M 781.066406 227.667969 L 641.039062 227.667969 C 632.820312 227.667969 626.09375 220.945312 626.09375 212.730469 L 626.09375 175.148438 C 626.09375 166.933594 632.820312 160.214844 641.039062 160.214844 L 781.066406 160.214844 C 789.285156 160.214844 796.011719 166.933594 796.011719 175.148438 L 796.011719 212.730469 C 796.011719 220.945312 789.285156 227.667969 781.066406 227.667969 " fill-opacity="1" fill-rule="nonzero"/><path fill="#ea363f" d="M 775.453125 220.21875 L 644.367188 220.21875 C 636.671875 220.21875 630.375 214.816406 630.375 208.21875 L 630.375 178.027344 C 630.375 171.425781 636.671875 166.027344 644.367188 166.027344 L 775.453125 166.027344 C 783.148438 166.027344 789.445312 171.425781 789.445312 178.027344 L 789.445312 208.21875 C 789.445312 214.816406 783.148438 220.21875 775.453125 220.21875 " fill-opacity="1" fill-rule="nonzero"/><path fill="#ffffff" d="M 790.949219 224.117188 C 790.949219 224.855469 790.347656 225.457031 789.609375 225.457031 C 788.867188 225.457031 788.265625 224.855469 788.265625 224.117188 C 788.265625 223.378906 788.867188 222.777344 789.609375 222.777344 C 790.347656 222.777344 790.949219 223.378906 790.949219 224.117188 " fill-opacity="1" fill-rule="nonzero"/><path fill="#ffffff" d="M 797.351562 212.230469 C 797.351562 212.972656 796.75 213.570312 796.011719 213.570312 C 795.269531 213.570312 794.671875 212.972656 794.671875 212.230469 C 794.671875 211.492188 795.269531 210.890625 796.011719 210.890625 C 796.75 210.890625 797.351562 211.492188 797.351562 212.230469 " fill-opacity="1" fill-rule="nonzero"/><path fill="#ffffff" d="M 797.351562 198.128906 C 797.351562 198.871094 796.75 199.46875 796.011719 199.46875 C 795.269531 199.46875 794.671875 198.871094 794.671875 198.128906 C 794.671875 197.390625 795.269531 196.789062 796.011719 196.789062 C 796.75 196.789062 797.351562 197.390625 797.351562 198.128906 " fill-opacity="1" fill-rule="nonzero"/><path fill="#ffffff" d="M 797.351562 184.027344 C 797.351562 184.765625 796.75 185.367188 796.011719 185.367188 C 795.269531 185.367188 794.671875 184.765625 794.671875 184.027344 C 794.671875 183.285156 795.269531 182.6875 796.011719 182.6875 C 796.75 182.6875 797.351562 183.285156 797.351562 184.027344 " fill-opacity="1" fill-rule="nonzero"/><path fill="#ffffff" d="M 795.34375 170.324219 C 795.34375 171.066406 794.742188 171.664062 794.003906 171.664062 C 793.261719 171.664062 792.660156 171.066406 792.660156 170.324219 C 792.660156 169.585938 793.261719 168.984375 794.003906 168.984375 C 794.742188 168.984375 795.34375 169.585938 795.34375 170.324219 " fill-opacity="1" fill-rule="nonzero"/><path fill="#ffffff" d="M 785.660156 161.566406 C 785.660156 162.304688 785.058594 162.90625 784.320312 162.90625 C 783.578125 162.90625 782.976562 162.304688 782.976562 161.566406 C 782.976562 160.824219 783.578125 160.226562 784.320312 160.226562 C 785.058594 160.226562 785.660156 160.824219 785.660156 161.566406 " fill-opacity="1" fill-rule="nonzero"/><path fill="#ffffff" d="M 771.816406 160.214844 C 771.816406 160.953125 771.214844 161.554688 770.476562 161.554688 C 769.738281 161.554688 769.136719 160.953125 769.136719 160.214844 C 769.136719 159.472656 769.738281 158.875 770.476562 158.875 C 771.214844 158.875 771.816406 159.472656 771.816406 160.214844 " fill-opacity="1" fill-rule="nonzero"/><path fill="#ffffff" d="M 757.703125 160.214844 C 757.703125 160.953125 757.105469 161.554688 756.367188 161.554688 C 755.625 161.554688 755.023438 160.953125 755.023438 160.214844 C 755.023438 159.472656 755.625 158.875 756.367188 158.875 C 757.105469 158.875 757.703125 159.472656 757.703125 160.214844 " fill-opacity="1" fill-rule="nonzero"/><path fill="#ffffff" d="M 743.59375 160.214844 C 743.59375 160.953125 742.992188 161.554688 742.253906 161.554688 C 741.511719 161.554688 740.914062 160.953125 740.914062 160.214844 C 740.914062 159.472656 741.511719 158.875 742.253906 158.875 C 742.992188 158.875 743.59375 159.472656 743.59375 160.214844 " fill-opacity="1" fill-rule="nonzero"/><path fill="#ffffff" d="M 729.480469 160.214844 C 729.480469 160.953125 728.882812 161.554688 728.140625 161.554688 C 727.402344 161.554688 726.800781 160.953125 726.800781 160.214844 C 726.800781 159.472656 727.402344 158.875 728.140625 158.875 C 728.882812 158.875 729.480469 159.472656 729.480469 160.214844 " fill-opacity="1" fill-rule="nonzero"/><path fill="#ffffff" d="M 715.371094 160.214844 C 715.371094 160.953125 714.769531 161.554688 714.03125 161.554688 C 713.289062 161.554688 712.6875 160.953125 712.6875 160.214844 C 712.6875 159.472656 713.289062 158.875 714.03125 158.875 C 714.769531 158.875 715.371094 159.472656 715.371094 160.214844 " fill-opacity="1" fill-rule="nonzero"/><path fill="#ffffff" d="M 701.257812 160.214844 C 701.257812 160.953125 700.65625 161.554688 699.917969 161.554688 C 699.175781 161.554688 698.578125 160.953125 698.578125 160.214844 C 698.578125 159.472656 699.175781 158.875 699.917969 158.875 C 700.65625 158.875 701.257812 159.472656 701.257812 160.214844 " fill-opacity="1" fill-rule="nonzero"/><path fill="#ffffff" d="M 687.144531 160.214844 C 687.144531 160.953125 686.546875 161.554688 685.804688 161.554688 C 685.066406 161.554688 684.464844 160.953125 684.464844 160.214844 C 684.464844 159.472656 685.066406 158.875 685.804688 158.875 C 686.546875 158.875 687.144531 159.472656 687.144531 160.214844 " fill-opacity="1" fill-rule="nonzero"/><path fill="#ffffff" d="M 673.035156 160.214844 C 673.035156 160.953125 672.433594 161.554688 671.691406 161.554688 C 670.953125 161.554688 670.351562 160.953125 670.351562 160.214844 C 670.351562 159.472656 670.953125 158.875 671.691406 158.875 C 672.433594 158.875 673.035156 159.472656 673.035156 160.214844 " fill-opacity="1" fill-rule="nonzero"/><path fill="#ffffff" d="M 658.921875 160.214844 C 658.921875 160.953125 658.320312 161.554688 657.582031 161.554688 C 656.839844 161.554688 656.242188 160.953125 656.242188 160.214844 C 656.242188 159.472656 656.839844 158.875 657.582031 158.875 C 658.320312 158.875 658.921875 159.472656 658.921875 160.214844 " fill-opacity="1" fill-rule="nonzero"/><path fill="#ffffff" d="M 644.808594 160.214844 C 644.808594 160.953125 644.210938 161.554688 643.46875 161.554688 C 642.730469 161.554688 642.128906 160.953125 642.128906 160.214844 C 642.128906 159.472656 642.730469 158.875 643.46875 158.875 C 644.210938 158.875 644.808594 159.472656 644.808594 160.214844 " fill-opacity="1" fill-rule="nonzero"/><path fill="#ffffff" d="M 631.726562 164.832031 C 631.726562 165.570312 631.128906 166.171875 630.386719 166.171875 C 629.648438 166.171875 629.046875 165.570312 629.046875 164.832031 C 629.046875 164.09375 629.648438 163.492188 630.386719 163.492188 C 631.128906 163.492188 631.726562 164.09375 631.726562 164.832031 " fill-opacity="1" fill-rule="nonzero"/><path fill="#ffffff" d="M 627.433594 178.078125 C 627.433594 178.816406 626.835938 179.417969 626.09375 179.417969 C 625.351562 179.417969 624.753906 178.816406 624.753906 178.078125 C 624.753906 177.339844 625.351562 176.738281 626.09375 176.738281 C 626.835938 176.738281 627.433594 177.339844 627.433594 178.078125 " fill-opacity="1" fill-rule="nonzero"/><path fill="#ffffff" d="M 627.433594 192.179688 C 627.433594 192.921875 626.835938 193.519531 626.09375 193.519531 C 625.351562 193.519531 624.753906 192.921875 624.753906 192.179688 C 624.753906 191.441406 625.351562 190.839844 626.09375 190.839844 C 626.835938 190.839844 627.433594 191.441406 627.433594 192.179688 " fill-opacity="1" fill-rule="nonzero"/><path fill="#ffffff" d="M 627.433594 206.285156 C 627.433594 207.023438 626.835938 207.625 626.09375 207.625 C 625.351562 207.625 624.753906 207.023438 624.753906 206.285156 C 624.753906 205.542969 625.351562 204.945312 626.09375 204.945312 C 626.835938 204.945312 627.433594 205.542969 627.433594 206.285156 " fill-opacity="1" fill-rule="nonzero"/><path fill="#ffffff" d="M 630.375 219.800781 C 630.375 220.539062 629.777344 221.136719 629.035156 221.136719 C 628.292969 221.136719 627.695312 220.539062 627.695312 219.800781 C 627.695312 219.058594 628.292969 218.457031 629.035156 218.457031 C 629.777344 218.457031 630.375 219.058594 630.375 219.800781 " fill-opacity="1" fill-rule="nonzero"/><path fill="#ffffff" d="M 641.371094 227.246094 C 641.371094 227.988281 640.769531 228.585938 640.03125 228.585938 C 639.289062 228.585938 638.691406 227.988281 638.691406 227.246094 C 638.691406 226.507812 639.289062 225.90625 640.03125 225.90625 C 640.769531 225.90625 641.371094 226.507812 641.371094 227.246094 " fill-opacity="1" fill-rule="nonzero"/><path fill="#ffffff" d="M 655.398438 227.667969 C 655.398438 228.40625 654.796875 229.007812 654.058594 229.007812 C 653.316406 229.007812 652.71875 228.40625 652.71875 227.667969 C 652.71875 226.925781 653.316406 226.328125 654.058594 226.328125 C 654.796875 226.328125 655.398438 226.925781 655.398438 227.667969 " fill-opacity="1" fill-rule="nonzero"/><path fill="#ffffff" d="M 669.511719 227.667969 C 669.511719 228.40625 668.910156 229.007812 668.171875 229.007812 C 667.429688 229.007812 666.828125 228.40625 666.828125 227.667969 C 666.828125 226.925781 667.429688 226.328125 668.171875 226.328125 C 668.910156 226.328125 669.511719 226.925781 669.511719 227.667969 " fill-opacity="1" fill-rule="nonzero"/><path fill="#ffffff" d="M 683.621094 227.667969 C 683.621094 228.40625 683.023438 229.007812 682.28125 229.007812 C 681.542969 229.007812 680.941406 228.40625 680.941406 227.667969 C 680.941406 226.925781 681.542969 226.328125 682.28125 226.328125 C 683.023438 226.328125 683.621094 226.925781 683.621094 227.667969 " fill-opacity="1" fill-rule="nonzero"/><path fill="#ffffff" d="M 697.734375 227.667969 C 697.734375 228.40625 697.132812 229.007812 696.394531 229.007812 C 695.652344 229.007812 695.054688 228.40625 695.054688 227.667969 C 695.054688 226.925781 695.652344 226.328125 696.394531 226.328125 C 697.132812 226.328125 697.734375 226.925781 697.734375 227.667969 " fill-opacity="1" fill-rule="nonzero"/><path fill="#ffffff" d="M 711.847656 227.667969 C 711.847656 228.40625 711.246094 229.007812 710.507812 229.007812 C 709.765625 229.007812 709.164062 228.40625 709.164062 227.667969 C 709.164062 226.925781 709.765625 226.328125 710.507812 226.328125 C 711.246094 226.328125 711.847656 226.925781 711.847656 227.667969 " fill-opacity="1" fill-rule="nonzero"/><path fill="#ffffff" d="M 725.957031 227.667969 C 725.957031 228.40625 725.359375 229.007812 724.617188 229.007812 C 723.878906 229.007812 723.277344 228.40625 723.277344 227.667969 C 723.277344 226.925781 723.878906 226.328125 724.617188 226.328125 C 725.359375 226.328125 725.957031 226.925781 725.957031 227.667969 " fill-opacity="1" fill-rule="nonzero"/><path fill="#ffffff" d="M 740.070312 227.667969 C 740.070312 228.40625 739.472656 229.007812 738.730469 229.007812 C 737.988281 229.007812 737.390625 228.40625 737.390625 227.667969 C 737.390625 226.925781 737.988281 226.328125 738.730469 226.328125 C 739.472656 226.328125 740.070312 226.925781 740.070312 227.667969 " fill-opacity="1" fill-rule="nonzero"/><path fill="#ffffff" d="M 754.183594 227.667969 C 754.183594 228.40625 753.582031 229.007812 752.84375 229.007812 C 752.101562 229.007812 751.5 228.40625 751.5 227.667969 C 751.5 226.925781 752.101562 226.328125 752.84375 226.328125 C 753.582031 226.328125 754.183594 226.925781 754.183594 227.667969 " fill-opacity="1" fill-rule="nonzero"/><path fill="#ffffff" d="M 768.292969 227.667969 C 768.292969 228.40625 767.695312 229.007812 766.953125 229.007812 C 766.214844 229.007812 765.613281 228.40625 765.613281 227.667969 C 765.613281 226.925781 766.214844 226.328125 766.953125 226.328125 C 767.695312 226.328125 768.292969 226.925781 768.292969 227.667969 " fill-opacity="1" fill-rule="nonzero"/><path fill="#ffffff" d="M 782.40625 227.667969 C 782.40625 228.40625 781.808594 229.007812 781.066406 229.007812 C 780.324219 229.007812 779.722656 228.40625 779.722656 227.667969 C 779.722656 226.925781 780.324219 226.328125 781.066406 226.328125 C 781.808594 226.328125 782.40625 226.925781 782.40625 227.667969 " fill-opacity="1" fill-rule="nonzero"/><path fill="#ffffff" d="M 660.484375 207.402344 C 659.339844 207.953125 656.621094 208.632812 653.183594 208.632812 C 643.292969 208.632812 638.195312 202.4375 638.195312 194.292969 C 638.195312 184.53125 645.160156 179.144531 653.820312 179.144531 C 657.171875 179.144531 659.722656 179.78125 660.867188 180.417969 L 659.507812 185.507812 C 658.234375 184.957031 656.410156 184.449219 654.074219 184.449219 C 648.980469 184.449219 644.988281 187.546875 644.988281 193.910156 C 644.988281 199.636719 648.386719 203.246094 654.117188 203.246094 C 656.113281 203.246094 658.234375 202.863281 659.550781 202.3125 L 660.484375 207.402344 " fill-opacity="1" fill-rule="nonzero"/><path fill="#ffffff" d="M 679.121094 195.988281 L 677.335938 189.921875 C 676.828125 188.226562 676.316406 186.105469 675.894531 184.40625 L 675.808594 184.40625 C 675.382812 186.105469 674.960938 188.269531 674.492188 189.921875 L 672.796875 195.988281 Z M 671.859375 200.824219 L 669.824219 208.167969 L 663.15625 208.167969 L 671.859375 179.570312 L 680.351562 179.570312 L 689.265625 208.167969 L 682.261719 208.167969 L 680.054688 200.824219 L 671.859375 200.824219 " fill-opacity="1" fill-rule="nonzero"/><path fill="#ffffff" d="M 693.253906 201.503906 C 694.953125 202.394531 697.671875 203.289062 700.429688 203.289062 C 703.402344 203.289062 704.972656 202.054688 704.972656 200.191406 C 704.972656 198.410156 703.617188 197.390625 700.175781 196.199219 C 695.421875 194.503906 692.28125 191.875 692.28125 187.714844 C 692.28125 182.835938 696.398438 179.144531 703.105469 179.144531 C 706.375 179.144531 708.710938 179.78125 710.40625 180.585938 L 708.964844 185.765625 C 707.859375 185.214844 705.78125 184.40625 703.019531 184.40625 C 700.21875 184.40625 698.859375 185.722656 698.859375 187.164062 C 698.859375 188.988281 700.429688 189.792969 704.167969 191.195312 C 709.21875 193.0625 711.554688 195.691406 711.554688 199.722656 C 711.554688 204.515625 707.902344 208.589844 700.046875 208.589844 C 696.78125 208.589844 693.554688 207.699219 691.941406 206.808594 L 693.253906 201.503906 " fill-opacity="1" fill-rule="nonzero"/><path fill="#ffffff" d="M 722.464844 179.570312 L 722.464844 208.167969 L 716.011719 208.167969 L 716.011719 179.570312 L 722.464844 179.570312 " fill-opacity="1" fill-rule="nonzero"/><path fill="#ffffff" d="M 728.066406 208.167969 L 728.066406 179.570312 L 735.621094 179.570312 L 741.566406 190.050781 C 743.265625 193.0625 744.921875 196.625 746.238281 199.847656 L 746.320312 199.847656 C 745.941406 196.074219 745.8125 192.214844 745.8125 187.886719 L 745.8125 179.570312 L 751.757812 179.570312 L 751.757812 208.167969 L 744.964844 208.167969 L 738.851562 197.132812 C 737.152344 194.082031 735.242188 190.386719 733.882812 187.039062 L 733.714844 187.039062 C 733.925781 190.855469 734.007812 194.886719 734.007812 199.554688 L 734.007812 208.167969 L 728.066406 208.167969 " fill-opacity="1" fill-rule="nonzero"/><path fill="#ffffff" d="M 762.875 193.910156 C 762.875 199.554688 765.507812 203.496094 769.839844 203.496094 C 774.214844 203.496094 776.71875 199.339844 776.71875 193.78125 C 776.71875 188.605469 774.296875 184.195312 769.839844 184.195312 C 765.425781 184.195312 762.875 188.351562 762.875 193.910156 Z M 783.554688 193.570312 C 783.554688 202.988281 777.90625 208.632812 769.5 208.632812 C 761.050781 208.632812 756.039062 202.226562 756.039062 194.039062 C 756.039062 185.464844 761.558594 179.0625 769.96875 179.0625 C 778.753906 179.0625 783.554688 185.636719 783.554688 193.570312 " fill-opacity="1" fill-rule="nonzero"/></svg>